<?xml version="1.0" encoding="UTF-8"?>
<svg id="Ebene_1" data-name="Ebene 1" xmlns="http://www.w3.org/2000/svg" viewBox="0 0 785.52 512.94">
  <defs>
    <style>
      .cls-1 {
        font-family: AkzidenzGroteskBQ-Medium, 'Akzidenz-Grotesk BQ';
        font-weight: 500;
      }

      .cls-1, .cls-2 {
        font-size: 12px;
      }

      .cls-2 {
        font-family: AkzidenzGroteskBQ-Bold, 'Akzidenz-Grotesk BQ';
        font-weight: 700;
      }

      .cls-3 {
        stroke-dasharray: 2.25 2.25;
      }

      .cls-3, .cls-4 {
        stroke-width: 2px;
      }

      .cls-3, .cls-4, .cls-5, .cls-6, .cls-7, .cls-8 {
        stroke: #0a0d1b;
        stroke-miterlimit: 10;
      }

      .cls-3, .cls-4, .cls-6 {
        fill: none;
      }

      .cls-5 {
        fill: #5ba8ef;
      }

      .cls-9 {
        fill: #0a0d1b;
      }

      .cls-6 {
        stroke-width: 4px;
      }

      .cls-7 {
        fill: #fff;
      }

      .cls-10 {
        letter-spacing: -.04em;
      }

      .cls-8 {
        fill: rgba(19, 24, 42, .2);
      }
    </style>
  </defs>
  <polygon class="cls-5" points="235.52 151.8 412.9 151.8 412.9 49.93 235.52 49.93 33.99 49.93 25.09 49.93 25.09 334.39 235.52 334.39 235.52 151.8"/>
  <rect class="cls-7" x="351.08" y="53.63" width="293.8" height="524.91" transform="translate(814.06 -181.9) rotate(90)"/>
  <polygon class="cls-5" points="760.43 336.67 760.43 169.18 407.94 169.18 407.94 336.67 228.03 336.67 228.03 462.98 407.94 462.98 760.43 462.98 760.43 336.67"/>
  <rect class="cls-7" x="228.03" y="151.8" width="184.87" height="184.87" transform="translate(564.7 -76.23) rotate(90)"/>
  <rect class="cls-8" x="527.04" y="-64.21" width="119.25" height="347.53" transform="translate(696.22 -477.11) rotate(90)"/>
  <polygon class="cls-8" points="161.54 384.26 228.03 384.26 228.03 334.39 161.54 334.39 25.09 334.39 25.09 384.26 25.09 462.98 161.54 462.98 161.54 384.26"/>
  <rect class="cls-7" x="154.2" y="389.16" width="78.72" height="68.95" transform="translate(617.19 230.07) rotate(90)"/>
  <rect class="cls-9" x="25.09" y="332.19" width="174.98" height="4.21"/>
  <line class="cls-6" x1="57.12" y1="472.46" x2="57.12" y2="455.09"/>
  <line class="cls-6" x1="102.76" y1="455.09" x2="102.76" y2="472.46"/>
  <g>
    <line class="cls-4" x1="396.6" y1="32.18" x2="41.39" y2="32.18"/>
    <path class="cls-9" d="M393.01,32.18l-4.38,7.21.25.16,11.75-4.67c4.09-.9,8.19-1.8,12.28-2.7-4.09-.9-8.19-1.8-12.28-2.7l-11.75-4.67-.25.12,4.38,7.25Z"/>
    <path class="cls-9" d="M44.98,32.18l4.38,7.21-.25.16-11.75-4.67c-4.09-.9-8.19-1.8-12.28-2.7,4.09-.9,8.19-1.8,12.28-2.7l11.75-4.67.25.12-4.38,7.25Z"/>
  </g>
  <g>
    <line class="cls-4" x1="744.13" y1="480.73" x2="244.33" y2="480.73"/>
    <path class="cls-9" d="M740.54,480.73l-4.38,7.21.25.16,11.75-4.67c4.09-.9,8.19-1.8,12.28-2.7-4.09-.9-8.19-1.8-12.28-2.7l-11.75-4.67-.25.12,4.38,7.25Z"/>
    <path class="cls-9" d="M247.92,480.73l4.38,7.21-.25.16-11.75-4.67c-4.09-.9-8.19-1.8-12.28-2.7,4.09-.9,8.19-1.8,12.28-2.7l11.75-4.67.25.12-4.38,7.25Z"/>
  </g>
  <g>
    <line class="cls-4" x1="211.72" y1="169.18" x2="41.39" y2="169.18"/>
    <path class="cls-9" d="M208.13,169.18l-4.38,7.21.25.16,11.75-4.67c4.09-.9,8.19-1.8,12.28-2.7-4.09-.9-8.19-1.8-12.28-2.7l-11.75-4.67-.25.12,4.38,7.25Z"/>
    <path class="cls-9" d="M44.98,169.18l4.38,7.21-.25.16-11.75-4.67c-4.09-.9-8.19-1.8-12.28-2.7,4.09-.9,8.19-1.8,12.28-2.7l11.75-4.67.25.12-4.38,7.25Z"/>
  </g>
  <g>
    <line class="cls-4" x1="253.27" y1="136.42" x2="253.27" y2="66.24"/>
    <path class="cls-9" d="M253.27,132.83l-7.21-4.38-.16.25,4.67,11.75c.9,4.09,1.8,8.19,2.7,12.28.9-4.09,1.8-8.19,2.7-12.28l4.67-11.75-.12-.25-7.25,4.38Z"/>
    <path class="cls-9" d="M253.27,69.83l-7.21,4.38-.16-.25,4.67-11.75c.9-4.09,1.8-8.19,2.7-12.28.9,4.09,1.8,8.19,2.7,12.28l4.67,11.75-.12.25-7.25-4.38Z"/>
  </g>
  <g>
    <line class="cls-4" x1="319.32" y1="318.09" x2="319.32" y2="168.11"/>
    <path class="cls-9" d="M319.32,314.5l-7.21-4.38-.16.25,4.67,11.75c.9,4.09,1.8,8.19,2.7,12.28.9-4.09,1.8-8.19,2.7-12.28l4.67-11.75-.12-.25-7.25,4.38Z"/>
    <path class="cls-9" d="M319.32,171.7l-7.21,4.38-.16-.25,4.67-11.75c.9-4.09,1.8-8.19,2.7-12.28.9,4.09,1.8,8.19,2.7,12.28l4.67,11.75-.12.25-7.25-4.38Z"/>
  </g>
  <g>
    <line class="cls-4" x1="394.32" y1="245.38" x2="244.33" y2="245.38"/>
    <path class="cls-9" d="M390.73,245.38l-4.38,7.21.25.16,11.75-4.67c4.09-.9,8.19-1.8,12.28-2.7-4.09-.9-8.19-1.8-12.28-2.7l-11.75-4.67-.25.12,4.38,7.25Z"/>
    <path class="cls-9" d="M247.92,245.38l4.38,7.21-.25.16-11.75-4.67c-4.09-.9-8.19-1.8-12.28-2.7,4.09-.9,8.19-1.8,12.28-2.7l11.75-4.67.25.12-4.38,7.25Z"/>
  </g>
  <g>
    <line class="cls-4" x1="412.89" y1="446.69" x2="412.9" y2="352.99"/>
    <path class="cls-9" d="M412.89,443.1l-7.21-4.38-.16.25,4.67,11.75c.9,4.09,1.8,8.19,2.7,12.28.9-4.09,1.8-8.19,2.7-12.28l4.67-11.75-.12-.25-7.25,4.38Z"/>
    <path class="cls-9" d="M412.9,356.58l-7.21,4.38-.16-.25,4.67-11.75c.9-4.09,1.8-8.19,2.7-12.28.9,4.09,1.8,8.19,2.7,12.28l4.67,11.75-.12.25-7.25-4.38Z"/>
  </g>
  <g>
    <line class="cls-4" x1="744.13" y1="186.93" x2="429.21" y2="186.93"/>
    <path class="cls-9" d="M740.54,186.93l-4.38,7.21.25.16,11.75-4.67c4.09-.9,8.19-1.8,12.28-2.7-4.09-.9-8.19-1.8-12.28-2.7l-11.75-4.67-.25.12,4.38,7.25Z"/>
    <path class="cls-9" d="M432.79,186.93l4.38,7.21-.25.16-11.75-4.67c-4.09-.9-8.19-1.8-12.28-2.7,4.09-.9,8.19-1.8,12.28-2.7l11.75-4.67.25.12-4.38,7.25Z"/>
  </g>
  <g>
    <line class="cls-4" x1="7.34" y1="317.88" x2="7.34" y2="66.25"/>
    <path class="cls-9" d="M7.34,314.29l-7.21-4.38-.16.25,4.67,11.75c.9,4.09,1.8,8.19,2.7,12.28.9-4.09,1.8-8.19,2.7-12.28l4.67-11.75-.12-.25-7.25,4.38Z"/>
    <path class="cls-9" d="M7.34,69.84L.13,74.22l-.16-.25,4.67-11.75c.9-4.09,1.8-8.19,2.7-12.28.9,4.09,1.8,8.19,2.7,12.28l4.67,11.75-.12.25-7.25-4.38Z"/>
  </g>
  <g>
    <line class="cls-4" x1="778.18" y1="446.67" x2="778.18" y2="185.49"/>
    <path class="cls-9" d="M778.18,443.08l-7.21-4.38-.16.25,4.67,11.75c.9,4.09,1.8,8.19,2.7,12.28.9-4.09,1.8-8.19,2.7-12.28l4.67-11.75-.12-.25-7.25,4.38Z"/>
    <path class="cls-9" d="M778.18,189.08l-7.21,4.38-.16-.25,4.67-11.75c.9-4.09,1.8-8.19,2.7-12.28.9,4.09,1.8,8.19,2.7,12.28l4.67,11.75-.12.25-7.25-4.38Z"/>
  </g>
  <g>
    <line class="cls-4" x1="396.6" y1="399.84" x2="244.33" y2="399.84"/>
    <path class="cls-9" d="M393.01,399.84l-4.38,7.21.25.16,11.75-4.67c4.09-.9,8.19-1.8,12.28-2.7-4.09-.9-8.19-1.8-12.28-2.7l-11.75-4.67-.25.12,4.38,7.25Z"/>
    <path class="cls-9" d="M247.92,399.84l4.38,7.21-.25.16-11.75-4.67c-4.09-.9-8.19-1.8-12.28-2.7,4.09-.9,8.19-1.8,12.28-2.7l11.75-4.67.25.12-4.38,7.25Z"/>
  </g>
  <g>
    <line class="cls-4" x1="412.9" y1="49.93" x2="412.9" y2="48.93"/>
    <line class="cls-3" x1="412.9" y1="46.68" x2="412.9" y2="34.31"/>
    <line class="cls-4" x1="412.9" y1="33.18" x2="412.9" y2="32.18"/>
  </g>
  <g>
    <line class="cls-4" x1="228.03" y1="480.75" x2="228.03" y2="479.75"/>
    <line class="cls-3" x1="228.03" y1="477.5" x2="228.03" y2="465.12"/>
    <line class="cls-4" x1="228.03" y1="463.99" x2="228.03" y2="462.99"/>
  </g>
  <g>
    <line class="cls-4" x1="25.09" y1="49.93" x2="25.09" y2="48.93"/>
    <line class="cls-3" x1="25.09" y1="46.68" x2="25.09" y2="34.31"/>
    <line class="cls-4" x1="25.09" y1="33.18" x2="25.09" y2="32.18"/>
  </g>
  <g>
    <line class="cls-4" x1="25.09" y1="49.93" x2="24.09" y2="49.93"/>
    <line class="cls-3" x1="21.84" y1="49.93" x2="9.46" y2="49.93"/>
    <line class="cls-4" x1="8.34" y1="49.93" x2="7.34" y2="49.93"/>
  </g>
  <g>
    <line class="cls-4" x1="25.09" y1="334.19" x2="24.09" y2="334.19"/>
    <line class="cls-3" x1="21.84" y1="334.19" x2="9.46" y2="334.19"/>
    <line class="cls-4" x1="8.34" y1="334.19" x2="7.34" y2="334.19"/>
  </g>
  <g>
    <line class="cls-4" x1="760.43" y1="480.73" x2="760.43" y2="479.73"/>
    <line class="cls-3" x1="760.43" y1="477.48" x2="760.43" y2="465.1"/>
    <line class="cls-4" x1="760.43" y1="463.98" x2="760.43" y2="462.98"/>
  </g>
  <g>
    <line class="cls-4" x1="778.18" y1="169.18" x2="777.18" y2="169.18"/>
    <line class="cls-3" x1="774.93" y1="169.18" x2="762.55" y2="169.18"/>
    <line class="cls-4" x1="761.43" y1="169.18" x2="760.43" y2="169.18"/>
  </g>
  <g>
    <line class="cls-4" x1="778.18" y1="462.98" x2="777.18" y2="462.98"/>
    <line class="cls-3" x1="774.93" y1="462.98" x2="762.56" y2="462.98"/>
    <line class="cls-4" x1="761.43" y1="462.98" x2="760.43" y2="462.98"/>
  </g>
  <text class="cls-1" transform="translate(199.89 20.33)"><tspan x="0" y="0">13,8 M</tspan></text>
  <text class="cls-2" transform="translate(56.77 492.33)"><tspan x="0" y="0">Eingang</tspan></text>
  <text class="cls-2" transform="translate(43.73 423.63)"><tspan x="0" y="0">Eingangsbereich</tspan></text>
  <text class="cls-2" transform="translate(261.55 294.02)"><tspan x="0" y="0">Ring</tspan></text>
  <text class="cls-2" transform="translate(559.29 113.8)"><tspan x="0" y="0">Umkleide</tspan></text>
  <text class="cls-2" transform="translate(165.91 420.67)"><tspan class="cls-10" x="0" y="0">V</tspan><tspan x="7.54" y="0">erkaufs-</tspan><tspan x="14.65" y="14.4">raun</tspan></text>
  <text class="cls-1" transform="translate(469.52 501.08)"><tspan x="0" y="0">19,117 M</tspan></text>
  <text class="cls-1" transform="translate(561.95 207.26)"><tspan x="0" y="0">12,567 M</tspan></text>
  <text class="cls-1" transform="translate(103.5 184.51)"><tspan x="0" y="0" xml:space="preserve">7,664  M</tspan></text>
</svg>