<?xml version="1.0" encoding="UTF-8"?>
<svg id="object" xmlns="http://www.w3.org/2000/svg" viewBox="0 0 900 900">
  <defs>
    <style>
      .cls-1 {
        fill: #13182a;
      }

      .cls-2 {
        fill: #aaa9af;
      }

      .cls-3 {
        fill: #fff;
      }

      .cls-4 {
        fill: #262e44;
      }

      .cls-5 {
        fill: #fcfbf3;
      }

      .cls-6 {
        fill: #4a6275;
      }

      .cls-7 {
        fill: #354a59;
      }
    </style>
  </defs>
  <path class="cls-3" d="M176.81,793.94c-21.48-.09-39.02-11.2-46.91-29.74-3.23-7.45-4.73-16.19-4.73-27.51v-78.75c-10.35-3.7-19.06-9.18-25.96-16.34-11.65-12.09-17.23-24.83-16.59-37.86.32-6.43,1.93-12.71,4.49-17.89-.55-3.2-.87-6.87-.95-10.96-.12-5.92-.45-22.42,12.98-34.51.43-9.02,3.22-21.26,11.54-31.77,5.61-7.09,16.08-15.43,34.7-16.74v-209.95L449.97,106.06l304.58,175.85v233.76c.5.43.99.87,1.47,1.32,5.92,5.45,10.33,12.24,13.07,20.15,2.41,6.87,3.53,14.99,3.53,25.49v32.33l-.51.11c.95,4.9,1.4,10.36,1.4,16.67,0,11.08-1.59,20.52-4.85,28.88-7.79,20.19-24.94,34.08-48.29,39.07-5.74,1.23-11.3,1.86-16.54,1.89l-98.21,21h0s-36.16,7.71-36.16,7.71l-3.21.69-58.43,12.47-3.18.69-172.37,36.81-3.2.69-53.21,11.36h0s-66.76,14.27-66.76,14.27c-4.75,2-9.94,3.61-15.43,4.78-5.83,1.24-11.42,1.87-16.62,1.87h-.25Z"/>
  <g>
    <g>
      <path class="cls-1" d="M449.97,121.43l-291.28,168.17v215.88c-2.86-.31-5.61-.48-8.19-.48-13.27,0-23.15,3.99-29.38,11.86-8.38,10.6-9.38,23.92-8.48,30.05-12.72,7.57-13.33,19.62-13.16,27.7.12,5.89.79,10.56,1.91,13.47-2.37,2.79-5.08,8.7-5.46,16.32-.46,9.21,3.87,18.62,12.88,27.96,14.29,14.83,36.29,17.94,52.23,17.94,11.72,0,20.5-1.64,21.52-1.84,3.95-.62,7.76-1.34,11.44-2.14l76.72,44.29,470.53-93.75v-307.26L449.97,121.43Z"/>
      <polygon class="cls-3" points="718.91 302.5 718.91 599.05 703.81 602.07 671.4 608.52 342.16 674.12 323.45 677.85 301 682.32 181.03 613.05 181.03 302.5 449.97 147.22 718.91 302.5"/>
      <polygon class="cls-2" points="703.81 311.21 703.81 602.07 671.4 608.52 342.16 674.12 323.45 677.85 196.12 604.33 196.12 311.21 449.97 164.64 703.81 311.21"/>
      <polygon class="cls-1" points="691.24 318.47 691.24 597.07 671.4 608.52 342.16 674.12 208.7 597.07 208.7 318.47 449.97 179.17 691.24 318.47"/>
    </g>
    <path class="cls-1" d="M222.96,579.4s20.94-23.04,37.83-11.23c0,0,5.04,8.14,5.58,17.98,0,0,0,0,0,0,44.06-28.56,60.22-56.93,60.22-56.93h22.84c7.25-9.81,12.02-17.74,14.02-21.22.72-1.24,1.08-1.92,1.08-1.92l.04,1.75.49,21.39h2.71s0,22.01,0,22.01h296.23s0,83.77,0,83.77h-213.02s-3.29,0-3.29,0h-80.23s-30.27,0-30.27,0h-131.11s-13.47-2.74-13.47-2.74l30.35-52.87Z"/>
    <path class="cls-1" d="M263.19,406.5c2.25,10.96,11.16,19.92,11.16,19.92,11.32,41.3,58.99,29.52,58.99,29.52-5.19,5.51-8.54,20.74-2.89,33.41-6.98,7.41-4.2,19.36-1.68,24.83-1.99,8.41-13.62,16.48-14.8,17.26l12.62-2.22s2.17,5.83,5.68,12.86c.81,1.61,1.7,3.3,2.64,4.99.78,1.39,1.6,2.79,2.46,4.16,1.75,2.81,3.66,5.51,5.67,7.81,5.17,5.94,11.02,9.32,16.74,5.55,1.75,2.55,3.83,5.33,6.28,8.24,6.44,7.71,15.41,16.42,27.67,24.73l4.88-4.8c2.16,2.83,4.56,5.55,7.22,8.06l27.26,25.84-.78-5.03,8.42,7.32.22,2.34.75-1.51,1.77,1.55-.03.35.2-.2,4.06,3.52h3.29s-.74-10.02-.74-10.02l18.67-18.38c.22-.22,25.48-24.36,65.49-30.94l82.03,59.35s137.75-24.01,134.62-33.78c0,0,1.11-65.33-48.84-95.73l26.97-.52s-39.12-22.79-60.36-80.22c-2.18-5.9-4.22-12.75-6.97-20.32-3.67-10.1-2.44-7.89-6.09-15.34l18.75,9.81c-11.89-36.32-40.43-73.66-53.6-86.82l36.33,4.95s-60.36-59.88-94.44-72.74l23.29-5.5s-26.11-18.5-52.88-26.1c-21.39-6.08-33.97-7.59-33.97-7.59l16.81-15.98s-48.39-6.8-105.82,11.48l3.56-9.83c-21.72,6.91-50.13,26.73-60.55,36.23l2.15-11.57c-14.74,9.8-27.01,23.26-36.71,35.86l-9.35-.1c-13.8,0-21.53,6.09-25.59,11.2-10.37,13.04-6.45,31.57-5.97,33.64l2.4,10.38c-3.53,7.72-3.28,13.13-2.79,15.7l1.58,8.43c-.02.9-.01,1.81.05,2.74.16,2.47.8,4.98,1.85,7.33l.14.79c-1.99,1.46-4,2.88-6.04,4.21-6.06,3.96-18.85,12.29-20.1,22.64-.68,2.4-.99,4.9-.93,7.46-.29,6.73,1.04,19.74,9.28,30.77Z"/>
    <path class="cls-1" d="M284.23,429.26s9.46,21.35,33.55,21.35c0,0-3.33-9.91-2.58-17.84,0,0,10.21,5.94,30.03,4.73,0,0,6.96,16.02,4.78,27.73l-7.45-7.29s-9.23,7.63-.99,34.62c0,0-14.64,6.86.84,24.14l59.56-2.18,51.09-48.95,32.18-102.97-101.55,9.62-99,47.06-.46,9.99Z"/>
    <path class="cls-1" d="M276.68,400.06s1.6,13.72,8.01,19.22c0,0,3.43,1.83,10.99.22l6.1-6.72,44.45,5.34s30.74,7.47,53.91-14.79c23.19-22.27,46.37-29.89,64.06-3.97l-7.93-1.53s15.26,14.65-19.83,61.03c-23.92,31.63-33.06,49.36-76.34,44,3.42,1.48,7.78,2.74,13.36,3.57l-8.88,1.4-1.12.17-13.32,2.09s-.1.09-.29.27c-1.76,1.58-11.31,10.05-21.22,16.65,0,0,10.99-1.83,17.85-3.2h-.01c-.22.41-4.69,8.14-14.18,18.28-6.18,6.61-14.5,14.24-25.16,21.53,0,0,4.2.75,10.62.61,5.33-.11,12.18-.82,19.46-3.06,1.92-.59,3.88-1.29,5.84-2.11,4.49-1.88,9.05-4.42,13.4-7.81,2.39-1.85,4.72-3.96,6.95-6.37,0,0,.61,1.72,2.14,4.63.29.54.6,1.12.94,1.74,4.49,7.99,14.56,22.26,34.45,35.72,0,0-7.81-11.9-8.24-35.72-.02-1.32-.02-2.69,0-4.09,0,0,.26,1.53.86,4.09,1.99,8.36,7.79,27.68,21.1,40.29,0,0-2.28-14.64,0-22.88,0,0,.46,21.05,21.51,39.35,0,0-.85-11.58,1.59-28.01,1.28-8.58,3.46-18.48,7.13-28.75,2.91-8.15,6.76-16.53,11.85-24.65-.16.47-3.53,10.62-5.8,24.65-1.6,10.02-2.64,22.04-1.51,33.89,0,0,.36-.74,1.07-2.05.14-.27.3-.54.46-.85.04-.09.09-.17.14-.26,3.19-5.77,10.89-18.54,22.58-30.73,3.27-3.41,6.84-6.76,10.72-9.91.01-.02.02-.02.03-.03,2-1.63,4.07-3.19,6.21-4.68.99-.68,1.94-1.35,2.86-1.99.05-.04.12-.09.18-.13,22.6-15.86,24.69-20.37,24.82-20.71,0-.01.01-.01.01-.02,0,0-3.04,17.1-23.72,37.46-2,1.98-4.15,3.97-6.48,5.98-26.53,22.88-28.37,40.26-28.37,40.26,0,0,29.74-29.27,77.79-35.23l100.59,72.77h108.47c-1.12-5.36-2.37-10.52-3.68-15.41t-.01-.02c-6.81-25.34-15.21-43.49-15.47-44.06l19.67,9.6c-15.57-32.49-42.55-59.02-59.95-76.41-17.38-17.38-19.68-28.52-19.68-28.52,17.7,12.81,28.68,12.6,28.68,12.6-32.33-28.89-32.33-44.94-46.52-83.98-2.82-7.75-5.7-14.65-8.52-20.73-3.84-8.31-7.57-15.09-10.81-20.42-2.43-4.02-4.6-7.23-6.35-9.65-.52-.74-1.01-1.4-1.46-1.99-.21-.29-.43-.57-.64-.84-.42-.53-.77-.98-1.09-1.37-.03-.03-.05-.06-.09-.1-.57-.72-.96-1.17-1.13-1.37-.03-.03-.06-.07-.1-.11,4.72,2.97,10.23,7.06,15.23,10.99,7.93,6.23,14.62,12.04,14.95,12.33-3.1-6.37-6.31-12.29-9.6-17.74-28.7-47.8-62.23-61.56-62.23-61.56,14.95-.92,35.08,1.84,35.08,1.84-13.73-10.99-34.46-23.19-34.46-23.19l-59.41-54.3c-32.07-3.83-59.11,3.49-59.7,3.73,13.05-14.17,25.77-20.19,25.77-20.19-60.71-3.01-95.66,21.52-96.67,22.24,4.88-8.22,17.97-16.75,17.97-16.75-32.12,10.21-53.6,35.79-54.28,36.58,1.46-5.89,5.16-11.01,5.39-11.33-34.08,22.65-45.29,51.01-57.18,64.28-11.9,13.26-10.53,20.58-10.53,20.58,2.52-5.03,9.44-11.87,13.73-8.01,5.41,4.88.83,9.61,5.71,14.87,3.86,4.16,9.98,3.68,13.43,2.98-13.97,4.31-26.01,17.06-40.88,26.76-15.79,10.29-14.27,13.99-14.27,13.99,0,0-5.4,15.3,9.01,29.71Z"/>
    <path class="cls-6" d="M643.23,370c-6.33-5.23-16-12.96-23.61-17.74.03.03.06.07.1.1.16.19.56.66,1.13,1.37.03.03.05.06.08.09.33.38.68.83,1.1,1.36.21.29.43.56.63.85.45.58.94,1.25,1.46,1.99-.03-.02-.05-.04-.08-.06,8.86,12.66,11.82,25.72,12.32,36.47.67,14.06-2.87,24.15-2.87,24.15-2.99-7.48-10.79-17.48-16.4-24.1-3.38-4.01-5.96-6.79-6.15-7h-.02c.67,2.4,1.25,4.73,1.78,7.01.97,4.23,1.72,8.25,2.27,12.07,6.49,45.32-15.02,62.04-15.02,62.04-2.45-15.86-11.45-27.44-11.45-27.44,3.81,42.7-26.38,68.02-26.38,68.02.3-5.19-1.84-14.19-1.84-14.19-9.76,33.7-46.36,46.82-46.36,46.82,6.41-14.34,4.58-28.04,4.58-28.04,0,.01-.01.01-.01.02-2.83,4.12-10.09,9.83-24.82,20.71-.06.04-.12.08-.18.12-2.76,2.04-5.77,4.25-9.07,6.67-.01.01-.02.01-.03.03-16.79,12.31-29.03,32.81-33.3,40.63-.05.09-.09.17-.14.26-.16.32-.33.6-.45.86-.71,1.31-1.08,2.05-1.08,2.05.74-28.16,13.35-56.84,24.78-77.28h.01c9.76-17.43,18.68-28.87,18.68-28.87,0,21.29-12.46,39.12-13.23,40.22,36.73-38.09,33.82-69.04,33.82-69.04,10.85,19.44-3.93,45.17-4.27,45.75,42.37-37.52,37.67-76.41,37.67-76.41,9.14,16.48,10.98,45.76,10.98,45.76,15.38-35.28-5.02-66.54-5.48-67.25,16.92,10.08,22.4,29.72,22.4,29.72,2.75-26.99-12.35-47.12-12.35-47.12,11.21-2.74,25.38,7.37,26.05,7.76,0,0-.01-.01-.03-.03-.49-.62-.99-1.23-1.51-1.81-.4-.47-.8-.94-1.2-1.39-.37-.42-.73-.82-1.09-1.22-37.25-40.5-75.46.36-75.46.36,19.05,5.94,25.32,20.13,25.32,20.13-27-3.67-39.35,19.68-39.35,19.68,17.85-4.13,31.57,11.89,31.57,11.89-19.66-7.78-53.07,3.67-73.5,39.8-20.45,36.14-60.56,40.73-60.56,40.73-1.35.12-2.65.25-3.92.34-22.61,1.73-33.6-2.08-38.91-6.48-5.67-4.68-4.9-10.03-4.9-10.03,3.5.72,6.81,1.31,9.96,1.81,1.78.29,3.52.51,5.2.73,43.27,5.37,52.35-12.41,76.34-43.99,31.37-41.32,22.26-57.77,20.19-60.59-.24-.31-.37-.45-.37-.45l7.93,1.53c-17.08-25.31-40.87-18.3-64.05,3.97-23.18,22.26-53.92,14.79-53.92,14.79l-44.15-5.3-.3-.04-.09.06-1.39.99-4.62,3.27c-5.11,1.08-8.33.59-9.88.16-.74-.19-1.11-.39-1.11-.39-1.37-1.19-2.53-2.64-3.49-4.19-3.38-5.43-4.42-12.07-4.51-12.59-.01-.02-.01-.03-.01-.03-14.41-14.42-9.01-29.71-9.01-29.71,0,0-1.52-3.7,14.27-13.99,14.88-9.71,25.3-22.19,39.28-26.5-3.45.71-7.97.92-11.83-3.25-4.87-5.26-.3-9.99-5.71-14.87-4.29-3.87-11.21,2.98-13.73,8.01,0,0-1.37-7.32,10.53-20.58,4.19-4.68,8.3-11.23,13.36-18.75.82-1.23,1.69-2.49,2.57-3.78.03-.05.04-.07.04-.07.45-.63.9-1.29,1.36-1.94,2.15-3.07,4.51-6.26,7.09-9.49,3.27-4.12,6.93-8.3,11.09-12.49,6.03-6.06,13.15-12.09,21.68-17.77-.24.32-3.93,5.44-5.4,11.32.68-.79,22.16-26.37,54.28-36.58,0,0-13.09,8.53-17.97,16.75,1.01-.72,35.96-25.25,96.67-22.24,0,0-12.72,6.02-25.76,20.19.58-.24,27.63-7.56,59.7-3.73l13.7,12.51,2.18,2.01,4.39,4.01,13.85,12.66,23.09,21.09,2.19,2.02s20.73,12.21,34.47,23.18c0,0-20.13-2.75-35.08-1.83,0,0,36.23,14.86,65.59,67.36,2.12,3.78,4.21,7.75,6.24,11.94-.2-.18-2.79-2.43-6.57-5.57Z"/>
    <path class="cls-7" d="M354.08,333.78s8.88,8.52-16.89,30.02c0,0,34.02-20.79,46.85-15.01,12.83,5.78,17.93,23.42,17.93,23.42l5.99-27.94s5.66,16.46,41.45,14.04l-11.05-3.73s27.53.88,53.86-13.38l-15.8.22,32.69-13.82-22.82-2.2,30.28-4.32s-9-12.16-15.53-12.16c0,0,47.71-9.31,91.11,63.29l-3.96-62.53-79.75-30.46-62.67,41.86-59.39,15.87-32.3-3.17Z"/>
    <path class="cls-1" d="M634.26,439.64l-11.14-4.59s-15.29,50.09,21.94,78.73c37.24,28.64,83.14,59.73,98.02,105.81-6.92-25.75-15.48-44.07-15.48-44.07l19.68,9.61c-15.57-32.49-42.55-59.02-59.95-76.41-17.38-17.38-19.68-28.52-19.68-28.52,17.7,12.81,28.68,12.6,28.68,12.6-32.33-28.89-32.33-44.94-46.52-83.98-2.82-7.75-5.7-14.65-8.52-20.73l-38.6,6.43s29.97,24.79,31.57,45.13Z"/>
    <path class="cls-1" d="M482.81,307.55s31.57-2.3,53.73,18.31c0,0-2.46-10.1-10.77-17.66,0,0,28.73,4.73,46.08,24.91l4.1-12.81-40.89-36.93-55.5,15.16-9.8,9.71,13.04-.68Z"/>
    <path class="cls-7" d="M281.2,412.69c.96,1.55,2.11,3,3.49,4.18,0,0,.36.19,1.1.4,1.55.43,4.77.91,9.89-.17l4.61-3.27,1.4-.99.09-.05.3.03-3.19-12.31-19.6-2.74s9.69,7.94,1.92,14.93Z"/>
    <path class="cls-1" d="M483.66,281.75l-7.08-8.55c-20.51.35-32.21,7.43-32.21,7.43,0,0,.71.14,1.96.33,8.89,1.8,12.68,6.99,12.68,6.99l-11.21,1.83c10.75,2.29,14.18,9.56,14.18,9.56-39.81-1.56-50.33,6.45-72.75,24.98-8.04,6.65-13.55,7.29-17.32,5.38-5.04-2.56-3.2-8.41-1.97-11.16-7.58,14.53-15.87,15.24-15.87,15.24,16.17,5.91-7.63,24.71-7.63,24.71,51.75-41.44,55.52,13.73,55.52,13.73,8.94-10.86,8.62-21.12,8.62-21.12,8.08,6.25,13.96,4.96,13.96,4.96-2.21-1.22-3.97-5.19-3.97-5.19,25.32,2.14,52.16-6.71,52.16-6.71h-18.3c14.03-4.58,37.82-13.51,37.82-13.51-18-.39-36.6-4.18-36.6-4.18,22.88-9.46,48.8-9.76,48.8-9.76l-21.66-9.15c12.51-8.24,39.04-8.85,39.04-8.85l-9.76-5.19c10.37.61,18.91,6.1,18.91,6.1l-4.71-5.53c7.36,3.56,18.63,7.34,33.69,7.66,0,0-9.04-4.69-15.71-9.63h-.01s-60.6-10.38-60.6-10.38Z"/>
    <path class="cls-1" d="M531.34,293.15s48.93,35,60.82,79.07c0,0,7.05-6.53,7.32-18.6,0,0,8.23,24.14,3.2,40.9,0,0,5.7,4.87,12.28,12.04,8.31,9.07,18.01,21.84,19.29,33.09,0,0,15.1-29.3,9.61-59.5-.52-2.9-.73-6.33-.64-10.15.03-2.02.15-4.14.34-6.36-29.37-52.5-65.59-67.37-65.59-67.37,14.95-.92,35.08,1.84,35.08,1.84-13.73-10.99-34.46-23.19-34.46-23.19l-2.2-2.02-45.05,20.25Z"/>
    <path class="cls-3" d="M510.81,280.89s6.54,2.56,16.14,8.03c18.74,10.64,49.12,32.33,65.06,67.44,0,0,4.88-10.97-1.39-25.43.62.45,20.6,15.1,20.3,56.54,0,0,.01.01.02.02.49.52,10.08,10.85,16.93,21.03.04.06.09.14.14.21,1.67,2.49,3.16,4.96,4.31,7.28.45.88.83,1.74,1.16,2.56,0,0,.03-.09.09-.23.33-1.04,1.64-5.34,2.37-11.7,1.14-9.9.86-24.78-6.7-39.95-1.45-2.91-3.17-5.84-5.2-8.73.03.01.05.03.09.05-.52-.74-1.01-1.4-1.46-1.99-.21-.29-.43-.57-.64-.84-.42-.53-.77-.98-1.09-1.37-.03-.03-.05-.06-.09-.1-.57-.72-.96-1.17-1.13-1.37-.03-.03-.06-.07-.1-.11,12.17,7.65,29.64,22.85,30.18,23.32-30.19-62.22-71.83-79.3-71.83-79.3,14.95-.92,35.08,1.84,35.08,1.84-20.89-24.64-59.74-46.29-59.74-46.29l-42.5,29.08Z"/>
    <path class="cls-7" d="M298.42,397.54l3.27,15.3.09-.05,44.46,5.34s30.74,7.47,53.91-14.79c23.19-22.27,46.97-29.28,64.06-3.97l-7.93-1.53s.14.15.37.45c9.89,5.7,14.57,15.73,14.57,15.73,2.44-38.43-29.89-39.96-29.89-39.96l9.46-1.84c-32.03-5.79-45.94,12.38-62.91,23.1-31.04,19.61-68.06,14.35-57.96,2.47,5.93-6.98,0-18.08,0-18.08l-31.49,17.84Z"/>
    <path class="cls-1" d="M316.45,276.58c1.64,10.54,6.11,15.83,12.5,19.04,15.26,7.64,37.03,4.92,80.22-13.3,35.15-14.83,56.98-14.24,89.8-.99,14.93,6.03,27.22-35.41,36.09-46.19l-2.19-2.01-13.7-12.51c-32.07-3.83-59.11,3.49-59.7,3.73,13.05-14.17,25.77-20.19,25.77-20.19-60.71-3.01-95.66,21.52-96.67,22.24,4.88-8.22,17.97-16.75,17.97-16.75-32.12,10.21-53.6,35.79-54.28,36.58,1.46-5.89,5.16-11.01,5.39-11.33-8.53,5.67-15.64,11.7-21.67,17.76-4.16,4.19-7.83,8.38-11.09,12.49-2.58,3.23-4.93,6.43-7.09,9.49-.46.65-.91,1.3-1.36,1.94Z"/>
    <path class="cls-3" d="M322.37,280.24c3.5,23.2,33.01,20.91,89.52-7.06,48.75-24.13,89.83-6.46,99.95-1.29,1.57.79,23.23-33.15,23.23-33.15l22.1-6.8s-23.83-10.03-39.71-11.48c-32.16-2.94-57.38,3.65-57.97,3.88,13.05-14.17,25.77-20.19,25.77-20.19-60.71-3.01-95.66,21.52-96.67,22.24,4.88-8.22,17.97-16.75,17.97-16.75-32.12,10.21-53.6,35.79-54.28,36.58,1.46-5.89,5.16-11.01,5.39-11.33-8.53,5.67-15.64,11.7-21.67,17.76-1.01,1.02-2,2.04-2.96,3.06-.23.25-.46.5-.69.75,0,0-.01.01-.02.03-2.59,2.79-4.96,5.57-7.15,8.32-.1.12-.18.22-.27.33-1.75,5.27-3.2,10.61-2.53,15.1Z"/>
    <path class="cls-1" d="M276.68,400.06s22.42,18.3,42.1-1.6c19.68-19.91,10.53-34.4-2.52-39.71-13.04-5.31-39.98-3.47-48.59,11.6,0,0-5.4,15.3,9.01,29.71Z"/>
    <path class="cls-4" d="M267.46,379.54s-7.02-17.39,21.96-19.52c28.98-2.14,36.32,14.63,29.36,20.36-8.62,7.09-9.53-5.57-20.13-3.66-8.66,1.56-9.15,10.98-2.06,17.62,0,0-6.18,0-11.44-8.01s-16.17-14.03-17.69-6.79Z"/>
    <path class="cls-3" d="M316.26,370.39s-22.8-16.47-45.6-1.53c0,0,16.01-4.58,45.6,1.53Z"/>
    <g>
      <path class="cls-3" d="M350.02,426.81c.92,1.64,1.85,3.16,2.79,4.56,9.49,14.31,19.12,16.8,19.12,16.8-.48-1.14-.91-2.28-1.29-3.39-1.86-5.35-2.67-10.23-3.01-13.6-.16-1.56-.22-2.8-.25-3.62-.84,0-1.72,0-2.6-.01-.97-.01-1.98-.03-2.99-.06-.5-.01-1.01-.03-1.53-.05-.29-.01-.58-.03-.86-.04h-.04s-.05.01-.05,0c-.83-.03-1.68-.07-2.53-.12-.67-.04-1.36-.09-2.04-.13-1.55-.1-3.12-.2-4.71-.33Z"/>
      <path class="cls-3" d="M294.76,427.74c.68,1.11,1.37,2.15,2.04,3.11,6.13,8.64,11.94,11.14,12.29,11.28.01,0,.02.01.02.01-.38-1.4-.72-2.77-.98-4.1-.84-4.22-1.13-8.04-1.19-11.08-.04-2.31.05-4.15.15-5.36-.45.44-.93.85-1.43,1.24-.59.47-1.22.9-1.86,1.29-.63.38-1.28.74-1.94,1.06-.38.19-.77.37-1.16.54-.38.17-.78.34-1.17.49-.4.16-.79.3-1.19.44-1.2.43-2.4.78-3.58,1.08Z"/>
      <path class="cls-2" d="M342.87,426.19l1.6,3.07h-1.76c-3.14,0-6.23-.85-8.93-2.46l-3.88-2.03,12.96,1.42Z"/>
      <path class="cls-2" d="M328.35,424.57l1.37,3.13s-4.96.55-8.92-4.1l7.55.98Z"/>
      <path class="cls-2" d="M318.43,423.29l1.37,3.13s-5.24.37-9.2-4.28l7.83,1.15Z"/>
    </g>
    <path class="cls-3" d="M438.36,423.29s-15,1.55-22.24,12.15c0,0,6.72-2.84,12.41-2.59,0,0-16.55,7.5-26.12,22.24l9.05-3.1s-21.46,13.45-27.67,31.29c0,0-12.67,2.33-16.81-1.29-4.14-3.62-.26-36.2,27.15-57.66,0,0-7.76,11.12-10.08,31.8,0,0,15-35.42,54.3-32.84Z"/>
    <g>
      <path class="cls-3" d="M348.96,492.37c.5,2.06.88,3.33.88,3.33,0,0,5.86.11,7.56-.64,1.71-.75,2.78-5.75,2.78-5.75-.22-.15-.44-.31-.65-.48-4.18-3.26-8-9.97-10.35-14.74-1.42-2.86-2.3-5.01-2.41-5.3v-.02h-.01c-1.4,7.05.88,18.12,2.21,23.6Z"/>
      <path class="cls-3" d="M390.28,492.75c.82,2.06,1.39,3.31,1.39,3.31,0,0,.03-.01.1-.01.02-.01.04-.01.06-.01,1.05-.19,6.74-1.51,11.65-7.6-.28-.16-.57-.33-.84-.5-5.89-3.75-12.44-12.62-16.07-18-1.75-2.59-2.83-4.37-2.83-4.37-.47,8.52,4.14,21.22,6.54,27.18Z"/>
      <path class="cls-2" d="M381.44,490.61c2.69,4.3,3.97,5.51,3.97,5.51h-5.49c-.69-3.43,1.52-5.51,1.52-5.51Z"/>
      <path class="cls-2" d="M372.67,490.61c2.69,4.3,3.97,5.51,3.97,5.51h-5.49c-.69-3.43,1.52-5.51,1.52-5.51Z"/>
      <path class="cls-2" d="M364.43,490.61c2.69,4.3,3.97,5.51,3.97,5.51h-5.49c-.69-3.43,1.52-5.51,1.52-5.51Z"/>
      <path class="cls-3" d="M404.25,486.74s21.05-14.47,18.36-33.16c0,0-2.9,7.09-7,13.55-.37-.56-.78-1.19-1.23-1.9,0,0-.65,1.7-.8,4.88-1.68,2.3-3.49,4.32-5.35,5.67l-.67-3.3s-3.04,7.6-3.31,14.26Z"/>
    </g>
    <path class="cls-3" d="M291.78,332.45c.28,4.26,4.93,10.8,9.22,4.88h-.07c-2.39,0-4.34-3.16-4.34-7.05,0-3.21,1.33-5.94,3.15-6.77-5.46-2.04-8.35,2.99-7.95,8.94Z"/>
    <ellipse class="cls-3" cx="297.47" cy="325.81" rx="1.06" ry="2.25" transform="translate(-133.42 420.52) rotate(-60)"/>
    <path class="cls-7" d="M290.23,293.15s-6.82-29.42,19.46-29.14l-19.46,29.14Z"/>
    <path class="cls-7" d="M367.99,536.88c.17,2.72,3.75,7.03,7.74,11.05-.5-5.89,3.05-8.81,3.05-8.81-.1,8.71,8.05,18.75,8.05,18.75-1.72-14.48,7.95-24.33,7.95-24.33,0,7.37,11.42,22.09,11.42,22.09,1.78-14.51,9.46-19.39,9.46-19.39l.7,14.04c6.53-16.89,25.1-23.86,25.1-23.86,0,0-21.05,15.17-12.41,68.95-17.52-13.39-17.91-28.8-17.91-28.8-1.9,6.03,0,16.74,0,16.74-14.47-12.05-18.28-32.48-18.28-32.48-.38,19.42,6.86,29.13,6.86,29.13-24.76-14.73-31.24-30.8-31.24-30.8-6.83,6.49-14.79,10.08-22.19,12.02,13.76-7.65,21.68-24.31,21.68-24.31Z"/>
    <path class="cls-1" d="M318.32,318.61s1.22,13.12-7.96,8.92l-2.9,9.43s10.36-5.26,15.86-4.98c0,0-2.48-1.71-5.01-13.37Z"/>
    <path class="cls-3" d="M634.85,363.24c7.93,6.23,14.62,12.04,14.95,12.33-3.1-6.37-6.31-12.29-9.6-17.74l-5.35,5.41Z"/>
    <path class="cls-3" d="M610.92,387.47s.01.01.02.02c.52.48,8.55,7.95,16.93,21.03.04.06.09.14.14.21,1.43,2.26,2.89,4.69,4.31,7.28.42.76.84,1.54,1.25,2.33,7.49,14.3,13.9,33.04,13.64,55.14,0,0-12.2-9.57-14.03-21.15,0,0-8.24,39.74,26.54,61.44,24.22,15.12,67.98,49.12,87.52,71.32-15.57-32.48-42.54-59-59.92-76.38-17.38-17.38-19.68-28.52-19.68-28.52,17.7,12.81,28.68,12.6,28.68,12.6-32.33-28.89-32.33-44.94-46.52-83.98-6.65-18.32-14.95-32.87-20.57-42.13l-10.99,12.46-7.33,8.32Z"/>
    <path class="cls-2" d="M322.37,280.24c3.5,23.2,33.01,20.91,89.52-7.06,48.75-24.13,89.83-6.46,99.95-1.29.37-8.14-5.37-15.31-23.23-18.98-50.18-10.32-81.4,21.06-112.56,32.38-25.62,9.3-38.17,9.49-44.69,4.88-9.11-6.44-2.03-25.97,1.68-34.45-.23.25-.46.5-.69.75,0,0-.01.01-.02.03-2.59,2.79-4.96,5.57-7.15,8.32-.1.12-.18.22-.27.33-1.75,5.27-3.2,10.61-2.53,15.1Z"/>
    <path class="cls-2" d="M544.2,300.04c16.87,12.23,36.18,30.7,47.81,56.32,0,0,4.88-10.97-1.39-25.43.62.45,20.6,15.1,20.3,56.54,0,0,.01.01.02.02.49.52,10.08,10.85,16.93,21.03.04.06.09.14.14.21,1.43,2.26,2.89,4.69,4.31,7.28.45.88.83,1.74,1.16,2.56,0,0,.03-.09.09-.23,7.49,14.3,13.9,33.04,13.64,55.14,0,0-12.2-9.57-14.03-21.15,0,0-8.24,39.74,26.54,61.44,24.22,15.12,67.98,49.12,87.52,71.32-.83-1.32-27.91-43.94-72.28-71.8-39.34-24.7-34.77-36-34.77-36,3.81,6.41,12.35,9.92,12.35,9.92,2.9-36.8-6.81-63.55-16.61-80.57-8.7-15.15-17.48-22.6-17.48-22.6-.03-1.67-.1-3.3-.21-4.89-2.99-45-34.78-60.93-34.78-60.93,3.04,6.26,3.5,16.97,3.5,16.97-8.54-17.2-29.73-29.94-29.73-29.94,7.62,0,10.98-2.74,10.98-2.74-6.32-2.39-10.87-6.36-13.64-9.39-3.11-.06-6.53-.37-10.31-1,6.67,4.94,15.73,9.63,15.73,9.63-5.84-.13-11.09-.77-15.78-1.71Z"/>
    <g>
      <path class="cls-3" d="M400.46,333.1s4.35-1.73,11.99-11.64c7.64-9.91,21.09-8.46,23.57-5.68,2.48,2.78-2.18,31.73-35.57,17.32Z"/>
      <circle class="cls-1" cx="413.79" cy="325.86" r="8.81"/>
      <ellipse class="cls-5" cx="421.92" cy="321.08" rx="5.41" ry="2.33" transform="translate(-106.4 276.47) rotate(-32.44)"/>
    </g>
    <path class="cls-2" d="M350.02,426.81c.92,1.64,1.85,3.16,2.79,4.56.74.06,1.46.12,2.17.16,4.61.27,8.66,3.04,10.68,7.2,1.46,3.03,3.38,4.92,4.99,6.05-1.86-5.35-2.67-10.23-3.01-13.6-.16-1.56-.22-2.8-.25-3.62-.84,0-1.72,0-2.6-.01h-.3c-.88-.01-1.77-.03-2.69-.06-.5-.01-1.01-.03-1.53-.05-.29-.01-.59-.02-.89-.04h-.02s-.05.01-.05,0c-.83-.03-1.68-.07-2.53-.12-.67-.04-1.35-.09-2.04-.13-1.55-.1-3.12-.2-4.71-.33Z"/>
    <path class="cls-2" d="M294.76,427.74c.68,1.11,1.37,2.15,2.04,3.11,1.04-.25,2.03-.52,2.97-.82,2.27-.73,4.69.63,5.23,2.96.52,2.22,1.74,3.85,3.13,5.06-.84-4.22-1.13-8.04-1.19-11.08-.04-2.31.05-4.15.15-5.36-.45.44-.93.85-1.43,1.24-.19.15-.38.28-.58.42-.33.23-.66.47-1.01.69-.24.15-.48.29-.72.43-.49.28-.98.56-1.49.81-.38.19-.77.37-1.16.54-.38.17-.78.33-1.17.49-.4.15-.79.3-1.19.44-1.2.43-2.4.78-3.58,1.08Z"/>
    <path class="cls-2" d="M404.25,486.74s21.05-14.47,18.36-33.16c0,0-2.49,18.31-15.07,27.23,0,0-.65-1.57.02-8.34,0,0-3.04,7.6-3.31,14.26Z"/>
    <path class="cls-2" d="M390.38,492.7l-.11.04c.82,2.06,1.39,3.31,1.39,3.31,0,0,.03-.01.1-.01.02-.01.04-.01.06-.01,1.05-.19,6.74-1.51,11.65-7.6-.28-.16-.57-.33-.84-.5-5.89-3.75-12.44-12.62-16.07-18,.63,3.65,2.51,7.79,6.27,13.86,2.04,3.29,1.2,7.59-2.44,8.91Z"/>
    <path class="cls-2" d="M348.96,492.37c.5,2.06.88,3.33.88,3.33,0,0,5.86.11,7.56-.64,1.71-.75,2.78-5.75,2.78-5.75-.22-.15-.44-.31-.65-.48-4.18-3.26-8-9.97-10.35-14.74.3,3.12,1.13,7.17,3.38,11.06,1.71,2.95-.09,6.75-3.46,7.21-.04.01-.1.01-.14.02Z"/>
    <path class="cls-2" d="M346.75,468.76s0,.01.01.03v-.02h-.01Z"/>
    <path class="cls-1" d="M301.93,404.86s-.37,6.65,6.29,8.7l-13.47,3.72s7.19-5.55,2.29-12.42h4.89Z"/>
    <path class="cls-7" d="M349.84,510.36c5.91,3.56,16.37,8.12,38.91,6.48,1.27-.1,2.57-.21,3.92-.34,0,0,40.11-4.58,60.55-40.73,20.43-36.14,53.84-47.58,73.5-39.8,0,0-13.72-16.01-31.57-11.89,0,0,12.35-23.34,39.35-19.68,0,0-6.28-14.19-25.32-20.14,0,0,38.21-40.85,75.46-.35-48.3-53.71-89.95,6-89.95,6,10.07-2.14,17.7,8.54,17.7,8.54-25.32,6.7-34.16,30.8-34.16,30.8,10.68-3.66,26.23,0,26.23,0-44.66,5.11-69.85,50.03-69.85,50.03l9.76-6.1c-7.32,10.37-14.18,22.52-40.9,33.01-20.02,7.87-37.53,2.06-48.58-4.06-3.15-.5-6.46-1.1-9.96-1.81,0,0-.77,5.35,4.9,10.04Z"/>
    <path class="cls-7" d="M449.41,585.13s.36-.74,1.07-2.05c.13-.26.29-.54.46-.85.04-.09.09-.17.14-.26,4.27-7.83,16.51-28.32,33.3-40.63.01-.02.02-.02.03-.03,3.3-2.41,6.31-4.62,9.07-6.66.05-.04.12-.09.18-.13,14.73-10.88,21.99-16.59,24.82-20.71,0-.01.01-.01.01-.02,0,0,1.83,13.7-4.58,28.04,0,0,36.61-13.12,46.37-46.83,0,0,2.14,9,1.84,14.19,0,0,30.19-25.31,26.38-68.02,0,0,9,11.58,11.44,27.45,0,0,21.51-16.73,15.02-62.05-.54-3.81-1.29-7.84-2.27-12.06l-10,.02c5.04,19.86,0,39.17,0,39.17-5.95-23.43-22.38-32.03-22.38-32.03,9.18,46.52-13.89,85.89-13.89,85.89-2.06-12.56-10.18-17.39-10.18-17.39-.07,22.48-24.9,49.55-24.9,49.55,4.04-15.42,3.63-40.27,3.63-40.27-20.56,33.86-67.26,62.69-67.26,62.69.92-11.9,6.49-34.27,6.49-34.27h-.01c-11.43,20.43-24.04,49.12-24.78,77.27Z"/>
    <path class="cls-7" d="M249.83,611.94s25.52,5.88,24.14,1.24c0,0,13.64,6.11,24.14,5.91,10.23-.19-11.74-13.11-12.88-13.77l35.48,15.05s-4.21-19.18-16.95-30.67c0,0,6.35-4.95,13.62-14.7,7.81-10.49,16.68-26.54,19.81-47.99,0,0-26.88,46.69-59.64,62.88,0,0,.23.07.64.25,2.04.83,8.54,3.86,12.89,10.22,0,0-10.93-7.12-22.14-3.56l-9.97-3.99s-2.46,11.71-9.14,19.13Z"/>
    <path class="cls-1" d="M181.88,644.67s-46.81,9.41-70.31-14.98c-23.5-24.39-4.74-40.34-4.74-40.34,0,0-13.38-26.42,12.05-39.32,0,0-12.18-51.42,48.37-39.36,0,0,7.79-36.5,43.92-29.8,36.13,6.7,31.11,39.57,31.11,39.57,0,0,56.69-23.47,40.47,69.76,0,0-8.73-11.79-21.97-22.03,0,0,13.21,62.1-78.9,76.5Z"/>
    <path class="cls-2" d="M183.97,610.79s-24.66-26.16-45.23-29.38c-20.02-3.14-27.87.83-23.9-10.92.11-.32.23-.66.35-1.01,4.74-12.99,18.31-16.02,18.31-16.02,0,0,35.7,7.11,50.44,57.24.02.06.03.09.03.09Z"/>
    <path class="cls-2" d="M201.97,562.65h0c-.54-.64-18.64-21.63-39.59-23.09-21.27-1.47-25.38,10.22-33.9-2.01-.03-.04-.05-.08-.08-.12-8.24-12.17,21.73-21.43,36.54-16.92,14.85,4.54,33.63,14.21,37.03,42.11t0,.02Z"/>
    <path class="cls-2" d="M233.06,529.35s0-.01,0-.02c-24.5-35.27-48.53-16.64-48.53-16.64l5.2,7.16c-6.94-2.6-10.18-7.19-10.39-11.99-.43-9.4,10.72-19.6,28.39-17.25,27.52,3.65,25.34,38.74,25.34,38.74Z"/>
    <path class="cls-2" d="M276.79,572.7c-9.02-17.6-21.71-21.6-30.82-24.86-5.93-2.13-6.23-8.34-5.65-12.76.31-2.36.86-4.2.91-4.63.16-1.22,19.23-5.72,26.91,3.61,7.67,9.33,8.65,38.64,8.65,38.64Z"/>
    <path class="cls-3" d="M183.94,610.7c-.67-1.86-11.96-31.88-49.42-47.63,0,0-11.4-3.53-19.67,7.42.11-.32.23-.66.35-1.01,4.74-12.99,18.31-16.02,18.31-16.02,0,0,35.7,7.11,50.44,57.24Z"/>
    <path class="cls-1" d="M123.44,573.35s36.33,2.16,60.5,37.35c0,0-17.72-36.22-60.5-37.35Z"/>
    <path class="cls-3" d="M201.96,562.63c-.3-.92-9.85-30.35-36.59-35.13-22.79-4.07-34.3,3.52-36.98,9.93-8.24-12.17,21.73-21.43,36.54-16.92,14.85,4.54,33.63,14.21,37.03,42.11Z"/>
    <path d="M201.96,562.64h0s0,0,0,.01h0Z"/>
    <path class="cls-1" d="M201.97,562.65s-23.07-43.64-64.27-25.63c0,0,36.16-13.77,64.27,25.63Z"/>
    <path class="cls-3" d="M233.06,529.35s0-.01,0-.02c-.05-.84-2.12-27.67-24.1-31.99-15.54-3.05-25.2,5.21-29.62,10.51-.43-9.4,10.72-19.6,28.39-17.25,27.52,3.65,25.34,38.74,25.34,38.74Z"/>
    <path class="cls-1" d="M233.06,529.35s-12.66-36.93-42.13-25.42c0,0,25.49-8.29,42.13,25.42Z"/>
    <path class="cls-3" d="M276.79,572.7c-4.78-37.11-28.58-39.71-36.47-37.62.31-2.36.86-4.2.91-4.63.16-1.22,19.23-5.72,26.91,3.61,7.67,9.33,8.65,38.64,8.65,38.64Z"/>
    <path class="cls-1" d="M276.79,572.7s-6.54-28.04-29.08-30.91c0,0,18.7,3.51,29.08,30.91Z"/>
    <path class="cls-7" d="M233.26,587.66s12.43-14.75,22.42-19.26c0,0,4.45,39.07-38.48,53.92,0,0,25.05-16.95,30.39-38.39,0,0-5.17-.17-14.33,3.72Z"/>
    <path class="cls-7" d="M170.66,621.8s-23.04-2.25-18.69-15.55c3.42-10.45,31.39,10.75,31.39,10.75,0,0-12.47,1.26-21.93-4.74,0,0,15.97,10.88,9.23,9.55Z"/>
    <path class="cls-7" d="M184.32,579.07s-29.22-9.32-19.88-25.35c7.34-12.59,37.68,22.66,37.68,22.66,0,0-16.51-1.84-27.09-12.25,0,0,17.67,18.54,9.3,14.94Z"/>
    <path class="cls-7" d="M231.43,534.68s-4.82-.8-6.75,3.25c-1.93,4.05-1.01,9.82,7.92,16.66,8.93,6.84,11.79,1.58,11.79,1.58,0,0-11.43-9.17-12.96-21.49Z"/>
    <path class="cls-7" d="M198.54,522.88s13.12-4.87,22.28,4.83c0,0-3.39,18.37-7.14,26.85-3.75,8.48-15.14-31.68-15.14-31.68Z"/>
    <g>
      <path class="cls-1" d="M176.86,780.62c-16.25-.07-28.91-7.97-34.73-21.68-2.48-5.72-3.65-12.8-3.65-22.26v-94.99l65.51-14,30.64-6.54h0s2.5-.53,2.5-.53l30.71-6.55,2.99-.64,25.06-5.35,3.2-.69,57.84-12.35,55.04-11.77h0s224.16-47.87,224.16-47.87l58.72-12.56c4.32-2.1,9.12-3.72,14.27-4.82,3.98-.85,7.86-1.28,11.53-1.26,10.24.04,19.33,3.49,26.32,9.99,4.33,3.98,7.55,8.95,9.56,14.76,1.91,5.45,2.8,12.17,2.8,21.13v21.57l-4.75,1.01c.99,1.81,1.86,3.7,2.59,5.65,2.08,5.5,3.04,12.13,3.04,20.88,0,9.39-1.29,17.25-3.94,24.04-4.34,11.24-14.57,25.75-38.67,30.9-5.02,1.07-9.83,1.61-14.28,1.59-.28,0-.56,0-.84,0l-83.53,17.86h0s-29.93,6.39-29.93,6.39h0s-22.32,4.77-22.32,4.77l-3.23.69-58.41,12.47-3.23.7-122.85,26.23-49.48,10.57-3.22.7-121.24,25.9c-4.28,1.9-9.03,3.41-14.14,4.5-4.99,1.06-9.72,1.6-14.04,1.58Z"/>
      <g>
        <path class="cls-3" d="M192.1,651.21v77.29c0,5.66-1.84,8.89-5.54,9.67-3.77.8-5.65-1.62-5.65-7.28v-77.29l-21.94,4.68v78.48c0,6.45.67,11.17,1.99,14.17,3.48,8.3,12.01,10.98,25.61,8.08,8.35-1.78,14.66-4.76,18.95-8.97,3.7-3.66,6.05-7.44,7.1-11.34,1.03-3.9,1.55-9.07,1.55-15.53v-76.69l-22.06,4.71Z"/>
        <path class="cls-2" d="M211.08,703.54v19.75c0,6.15-.48,11.12-1.44,14.74-.89,3.34-3.01,6.69-6.3,9.96-3.83,3.74-9.7,6.49-17.44,8.14-3.35.71-6.39,1.07-9.03,1.06-6.85-.03-11.01-2.35-13.09-7.31-.82-1.84-1.75-5.53-1.75-12.98v-22.44l15.8-3.52v20.06c0,9.46,5.16,10.51,7.38,10.51.63,0,1.3-.07,2-.22,3.62-.77,7.96-3.6,7.96-12.66v-21.54l15.91-3.54Z"/>
        <path class="cls-3" d="M221.25,644.97v105.15l20.84-4.45v-105.14l-20.84,4.44Z"/>
        <polygon class="cls-2" points="239.01 697.31 239.01 743.3 224.32 746.43 224.32 700.58 239.01 697.31"/>
        <path class="cls-3" d="M279.99,721.34c-2,.33-3.37.05-4.11-.84-.74-.88-1.11-2.52-1.11-4.91v-40.95l9.31-1.99v-15.34l-9.31,1.99v-25.76l-20.4,4.35v25.76l-8.87,1.9v15.34l8.87-1.9v44.38c0,6.55.96,11.11,2.89,13.68,1.47,1.97,3.13,3.08,4.99,3.33,1.84.25,4.21.07,7.1-.54l15.29-3.27v-16.09l-4.65.85Z"/>
        <path class="cls-2" d="M281.57,724.29v9.91l-12.87,2.75c-1.85.39-3.46.59-4.77.59-.46,0-.88-.02-1.26-.08-1.01-.14-1.98-.83-2.94-2.12-1.03-1.38-2.27-4.56-2.27-11.84v-30.3l14.25-3.17v25.66c0,3.2.58,5.39,1.82,6.88.79.95,2.28,2.07,4.96,2.08.62,0,1.3-.06,2.02-.18l1.06-.19Z"/>
        <path class="cls-3" d="M288.08,656.46v79.38l20.95-4.47v-79.38l-20.95,4.47ZM288.08,630.7v18.77l20.95-4.48v-18.76l-20.95,4.47Z"/>
        <path class="cls-2" d="M291.15,685.71v46.46l14.81-3.17v-46.59l-14.81,3.3Z"/>
        <path class="cls-3" d="M363.89,614.51l-9.76,71.48-9.97-67.27-27.82,5.94v105.14l18.4-3.93v-70.73l12.2,68.13,14.07-3.01,12.08-74.66v72.08l18.4-3.93v-105.14l-27.6,5.9Z"/>
        <polygon class="cls-2" points="319.41 679.42 331.67 676.68 331.67 723.51 319.41 726.12 319.41 679.42"/>
        <polygon class="cls-2" points="359.37 670.52 366.21 669 358.31 717.81 349.39 719.72 341.31 674.54 349.06 672.82 351.09 686.54 357.18 686.53 359.37 670.52"/>
        <polygon class="cls-2" points="388.42 664.05 388.42 711.38 376.16 714 376.16 666.79 388.42 664.05"/>
        <path class="cls-3" d="M399.47,606.91v105.14l22.17-4.73v-105.15l-22.17,4.74Z"/>
        <polygon class="cls-2" points="418.56 657.34 418.56 704.94 402.54 708.36 402.54 660.91 418.56 657.34"/>
        <path class="cls-3" d="M484.58,625.06v-8.63c0-6.06-.51-10.56-1.55-13.52-.96-2.77-2.37-5.01-4.21-6.69-4.52-4.4-11.83-5.52-21.95-3.35-10.12,2.16-17.51,6.47-22.17,12.93-2.58,3.53-4.25,7.26-4.99,11.19-.74,3.93-1.11,8.82-1.11,14.68v45.58c0,5.65.26,9.97.78,12.94.74,3.62,1.91,6.49,3.54,8.63.96,1.49,2.29,2.74,3.99,3.76,2.95,1.46,6.5,1.74,10.64.85,3.91-.83,7.08-2.53,9.48-5.07,2.4-2.55,4.53-6.35,6.37-11.41v11.46l21.16-4.51v-54.95l-27.92,5.96v18.62l6.76-1.44v11.91c0,2.89-.52,5.06-1.56,6.52s-2.69,2.44-4.99,2.93c-3.98.84-5.98-1.56-5.98-7.21v-53.77c0-2.28.37-4.15,1.11-5.6.74-1.44,2.37-2.44,4.87-2.97,2.73-.58,4.51-.32,5.32.8.81,1.11,1.22,2.91,1.22,5.39v9.53l21.16-4.52Z"/>
        <path class="cls-2" d="M481.51,642.83v48.67l-15.02,3.21v-7.66l-5.96-1.07c-1.7,4.64-3.62,8.13-5.72,10.36-1.99,2.11-4.57,3.47-7.89,4.19-1.36.29-2.66.44-3.86.44-1.76,0-3.29-.33-4.66-.98-1.25-.77-2.19-1.67-2.88-2.72l-.06-.1-.07-.09c-1.34-1.76-2.34-4.24-2.98-7.37-.47-2.68-.72-6.86-.72-12.32v-22.94l16.14-3.6v25.48c0,9.41,5.29,10.44,7.57,10.45.68,0,1.4-.08,2.14-.23,3.06-.65,5.36-2.06,6.84-4.15,1.42-2.01,2.12-4.72,2.12-8.29v-15.73l-6.76,1.45v-12.33l21.78-4.65Z"/>
        <path class="cls-3" d="M524.26,580.25v41.4l-10.3,2.2v-41.4l-22.17,4.73v105.14l22.17-4.73v-41.99l10.3-2.2v41.99l21.95-4.68v-105.14l-21.95,4.68Z"/>
        <polygon class="cls-2" points="543.14 629.61 543.14 678.33 527.33 681.71 527.33 639.7 510.89 643.22 510.89 685.21 494.87 688.64 494.87 640.35 543.14 629.61"/>
        <path class="cls-3" d="M550.1,574.73v20.11l16.62-3.56v85.04l22.06-4.71v-85.03l16.63-3.56v-20.1l-55.3,11.81Z"/>
        <polygon class="cls-2" points="585.7 620.13 585.7 669.23 569.79 672.64 569.79 623.67 585.7 620.13"/>
        <path class="cls-3" d="M609.5,562.04v105.14l22.17-4.73v-105.14l-22.17,4.73Z"/>
        <polygon class="cls-2" points="628.59 610.58 628.59 660.08 612.57 663.49 612.57 614.15 628.59 610.58"/>
        <path class="cls-3" d="M682.2,566.91v-20.41l-42.78,9.15v105.14l42.78-9.15v-20.24l-20.72,4.42v-23.08l19.18-4.1v-20.1l-19.18,4.09v-21.3l20.72-4.42Z"/>
        <polygon class="cls-2" points="679.13 635.31 679.13 649.28 642.5 657.1 642.5 607.49 677.59 599.68 677.59 606.27 658.41 610.37 658.41 639.74 679.13 635.31"/>
        <path class="cls-3" d="M738.01,598.03c-1.15-3.04-2.83-5.69-5.04-8.01-1.85-1.79-3.7-3.42-5.55-4.92l-10.75-8.58c-.74-.54-1.79-1.3-3.15-2.3-1.37-1-2.34-1.78-2.94-2.36-.59-.57-1.03-1.16-1.33-1.8-.59-1.07-.88-2.35-.88-3.83,0-4.57,1.62-7.2,4.87-7.9,2.51-.53,4.1.57,4.76,3.31.23.75.34,1.86.34,3.35v7l20.5-4.38v-5.07c0-6.45-.55-11.25-1.66-14.38-.89-2.58-2.25-4.73-4.11-6.43-4.58-4.28-11.12-5.51-19.61-3.69-12.72,2.71-20.81,9.45-24.28,20.22-1.26,3.84-1.88,8.85-1.88,15,0,5.36.61,9.67,1.83,12.94,1.22,3.26,4,6.56,8.37,9.89l13.74,10.33c2.81,2.08,4.6,3.7,5.38,4.89.78,1.17,1.17,3.05,1.17,5.63,0,3.97-.75,6.71-2.22,8.22-.81.87-1.77,1.42-2.88,1.66-3.7.78-5.54-1.65-5.54-7.3v-7l-21.4,4.57v4.01c0,8.64.78,14.68,2.33,18.12,2.66,5.79,7.42,8.64,14.29,8.56,3.26.11,6.87-.27,10.86-1.12,12.27-2.62,20.24-8.75,23.94-18.37,1.7-4.33,2.55-9.88,2.55-16.63,0-6.06-.57-10.6-1.72-13.64Z"/>
        <path class="cls-2" d="M736.66,611.77c0,6.33-.79,11.55-2.33,15.5-3.34,8.7-10.44,14.09-21.74,16.5-3.4.72-6.53,1.08-9.32,1.07-.28,0-.54,0-.81-.01h-.45c-5.49-.01-9.03-2.17-11.14-6.76-.92-2.06-2.05-6.66-2.05-16.83v-1.55l15.26-3.26v3.18c0,9.14,4.58,10.52,7.31,10.53.62,0,1.28-.07,1.96-.21,1.72-.37,3.23-1.24,4.47-2.56,2.03-2.07,3.04-5.46,3.04-10.31,0-3.23-.55-5.62-1.68-7.33-1-1.52-2.94-3.32-6.11-5.67l-12.65-9.49,26.42-5.87c1.31,1.11,2.63,2.32,3.95,3.59,1.89,1.98,3.36,4.31,4.35,6.92,1,2.67,1.52,6.89,1.52,12.55Z"/>
      </g>
    </g>
    <path class="cls-2" d="M171.33,639.57s-32.99-2.81-49.76-18.92c-6.64-6.37-9.56-12.21-10.67-16.93-1.7-7.22.83-11.86.83-11.86,0,0,3.12,0,13.33,1.73.53.09,1.06.19,1.63.28,0,0,6.56,6.42,14.91,18.85,8.36,12.43,18.92,21.47,29.73,26.85Z"/>
    <path class="cls-3" d="M124.89,593.63c.06-.02.11-.03.17-.05-10.21-1.73-13.33-1.73-13.33-1.73,0,0,0,.02-.02.04,0,0,0,.02-.02.03-.01.03-.03.06-.05.11,0,.02-.02.04-.03.06-.02.05-.05.11-.08.18-.01.03-.02.05-.03.08-.04.09-.08.18-.12.29,0,.02-.01.03-.02.05-.1.26-.21.59-.33.97,0,.03-.02.07-.03.1-.05.16-.09.32-.14.5-.01.05-.03.1-.04.16-.04.17-.08.36-.12.55-.01.05-.02.1-.03.16-.05.23-.09.48-.13.73,0,.01,0,.02,0,.04-.04.28-.08.58-.11.89h0c-.03.29-.05.59-.07.91,0,.07,0,.14,0,.2-.01.26-.02.52-.02.79,0,.08,0,.17,0,.26,0,.27.01.55.02.84,0,.08,0,.15.01.23.05.74.13,1.53.27,2.35,0,.04.02.08.02.12.06.36.14.73.23,1.11,0,.04.01.07.02.11,0,0,0,0,0,0,1.11,4.73,4.03,10.56,10.67,16.93,16.76,16.1,49.76,18.92,49.76,18.92-29.93-5.83-44.86-18.57-52.28-29.42-4.13-6.03-1.18-14.5,5.84-16.52Z"/>
    <path class="cls-1" d="M124.75,597.99s14.27,31.24,46.58,41.57c0,0-36.94-10.15-46.58-41.57Z"/>
    <g>
      <path class="cls-1" d="M631.11,461.31s64.01-14.9,100.52,42.39l-4.27,28.02-72.2,8.53-24.05-78.93Z"/>
      <path class="cls-7" d="M640.34,468.02c17.13.79,51.68,7.52,81.13,45.36l-61.73,18.33-19.41-63.69Z"/>
      <g>
        <path class="cls-1" d="M699.31,504.23c.2-1.88.3-3.8.3-5.71,0-19.85-7.46-26.43-9.75-27.97l-2.48-1.67-2.98.15c-.49.02-6.28.38-14.33,3.45l-.5-.9c-2.88-5.16-6.01-9.38-7.5-11.3l-1.74-4.15-5.7-.24c-.65-.03-10.33-.3-23.52,5.42-1.75-6.39-4.71-9.35-6.08-10.42l-2.35-1.85-2.99-.07c-.95-.02-23.52-.3-43.27,21.58-13.28,14.72-23.26,34.84-26.79,52.37-3.83,19.06.69,35.68.69,35.68l15.23-15.16c-1.38,10,5.88,19.6,5.88,19.6,0,0,26.88-25.05,53.11-43.28-20.12,42.69-4,80.03-4,80.03,0,0,14.31-44.07,45.43-69.93l8.24.32c7.65.3,22.73-4.73,25.08-25.96Z"/>
        <g>
          <g>
            <path class="cls-2" d="M674.59,521.22c7.78-4.36,7.49-11.56,7.49-11.56-36.86,14.5-58.72,62.38-58.72,62.38-1.03-4.45-1.17-9.79-.54-15.65,1.87-16.96,10.37-38.27,23.35-54.93,17.48-22.42,38.68-23.46,38.68-23.46,0,0,5.8,3.91,5.79,20.52,0,1.71-.09,3.29-.25,4.76-2.04,18.49-15.8,17.95-15.8,17.95Z"/>
            <path class="cls-3" d="M690.38,503.27c-3.92-16.14-11.59-14.21-11.59-14.21-33.49,6.86-50.55,50.46-55.97,67.32,1.87-16.96,10.37-38.27,23.35-54.93,17.48-22.42,38.68-23.46,38.68-23.46,0,0,5.8,3.91,5.79,20.52,0,1.71-.09,3.29-.25,4.76Z"/>
            <path class="cls-1" d="M680.85,503.61s-42.48,22.6-57.49,68.42c0,0,8.65-50.04,57.49-68.42Z"/>
          </g>
          <g>
            <path class="cls-2" d="M623.12,466.91c-1.35.94-2.86,2.03-4.47,3.3-4.5,3.52-9.9,8.36-15.51,14.73-1.23,1.4-2.48,2.87-3.71,4.42-2.08,2.58-4.16,5.37-6.21,8.39-21.78,16.24-35.29,40.92-35.29,40.92-.64-4.08-.42-8.9.54-14.14,2.8-15.16,11.84-33.81,24.62-47.97,17.22-19.07,36.4-18.62,36.4-18.62,0,0,2.63,2.06,3.64,8.96Z"/>
            <path class="cls-3" d="M623.12,466.91c-1.35.94-2.86,2.03-4.47,3.3-2.65-3.15-5.34-2.68-5.34-2.68-30.64,3.99-48.86,42.17-54.84,57,2.8-15.16,11.84-33.81,24.62-47.97,17.22-19.07,36.4-18.62,36.4-18.62,0,0,2.63,2.06,3.64,8.96Z"/>
            <path class="cls-1" d="M603.14,484.94c-1.23,1.4-2.48,2.87-3.71,4.42-13.05,8.89-31.52,24.95-41.5,49.31,0,0,9.21-37.1,45.21-53.74Z"/>
          </g>
          <g>
            <path class="cls-2" d="M656.93,479.25c-1.24.93-2.66,2.05-4.22,3.37-3.3,2.82-7.2,6.54-11.15,11.2-.26.3-.52.61-.78.92-2.26,2.71-4.5,5.72-6.65,9.04-35.6,16.91-62.69,59.26-62.69,59.26-.09-5.03.91-10.96,2.82-17.38,5.55-18.61,18.78-41.38,35.58-58.57,22.62-23.14,44.42-22.23,44.42-22.23,0,0,0,.01.02.03s.06.06.1.12c.05.06.11.14.19.24.04.06.08.11.13.18.89,1.34,2.75,5.24,2.22,13.82Z"/>
            <path class="cls-3" d="M661.73,475.95h-.01c-.17.12-1.99,1.2-4.78,3.3-1.24.93-2.66,2.05-4.22,3.37-2.55-6.84-7-6.09-7-6.09-35.56,4.36-62.32,50.98-71.45,69.13,5.55-18.61,18.78-41.38,35.58-58.57,22.62-23.14,44.42-22.23,44.42-22.23,0,0,0,.01.02.03.02.02.05.06.1.12.05.06.11.14.19.24.04.06.08.11.13.18,1.13,1.43,4.23,5.51,7.02,10.52Z"/>
            <path class="cls-1" d="M641.56,493.82c-.26.3-.52.61-.78.92-11.97,6.12-48.53,27.49-69.35,68.3,0,0,18.81-52.45,70.12-69.22Z"/>
          </g>
        </g>
      </g>
    </g>
    <path class="cls-7" d="M303.68,311.75c-4.29-3.87-11.21,2.98-13.73,8.01,0,0-1.37-7.32,10.53-20.58,4.19-4.68,8.3-11.23,13.36-18.75.82-1.23,1.69-2.49,2.57-3.78-.8,1.45-14.49,26.3-12.73,35.1Z"/>
    <g>
      <path class="cls-1" d="M560.59,302.97l.16.11c.4-.43.78-.87,1.16-1.3,1.67-1.64,2.7-3.16,3.24-4.1,13.09-18.53,6.58-37.37,2.32-44.82-8.08-14.17-25.46-22.56-45.35-21.89-3.68.12-7.44.56-11.15,1.28-34.94,6.84-48.15,38.23-51.98,50.28l6.32,9.12,59.49,15.51h.01s0,0-.01,0c19.55,5.03,30.29.42,35.78-4.17Z"/>
      <g>
        <path class="cls-6" d="M467.07,289.26c15.69-7.08,20.04-16.02,20.04-16.02l.43,8.2c22.49-48.2,58.94-21.2,58.94-21.2-9.47-5.12-18.74-.24-18.74-.24,11.14,3.83,10.55,13.77,10.55,13.77-12.71-3.91-13.34,8.75-13.34,8.75,0,0,11.84-6.53,8.19,1.49-3.66,8.03-11.93,8.1-11.93,8.1,22.74,12.95,36.08-10.83,36.08-10.83-.55,6.83-2.92,15.46-3.06,15.99,23.94-37.58-6.31-62.47-41.41-55.6-36.85,7.22-45.75,47.59-45.75,47.59Z"/>
        <path class="cls-7" d="M467.07,289.26c15.69-7.08,20.04-16.02,20.04-16.02l.43,8.2c22.49-48.2,58.94-21.2,58.94-21.2-9.47-5.12-18.74-.24-18.74-.24,11.14,3.83,10.55,13.77,10.55,13.77-12.71-3.91-13.34,8.75-13.34,8.75,0,0,11.84-6.53,8.19,1.49-3.66,8.03-11.93,8.1-11.93,8.1,8.66.82,18.3-.97,23.93-9.52,5.63-8.55-2.75-18.87-2.75-18.87,7.45-.32,13.78,5.32,13.78,5.32-6.82-16.09-22.01-20.73-33.18-21.1-16.96-.55-33.17,13.27-39.45,21.88-10.41,14.27-16.47,19.45-16.47,19.45Z"/>
      </g>
    </g>
  </g>
</svg>