<?xml version="1.0" encoding="UTF-8"?>
<svg id="object" xmlns="http://www.w3.org/2000/svg" viewBox="0 0 900 900">
  <defs>
    <style>
      .cls-1 {
        fill: #13182a;
      }

      .cls-2 {
        fill: #aaa9af;
      }

      .cls-3 {
        fill: #191818;
      }

      .cls-4 {
        fill: #fff;
      }

      .cls-5 {
        fill: #2a3a46;
      }

      .cls-6 {
        fill: #768999;
      }

      .cls-7 {
        fill: #1c6ba5;
      }

      .cls-8 {
        fill: #262e44;
      }

      .cls-9 {
        fill: #fcfbf3;
      }

      .cls-10 {
        fill: #5ba8ef;
      }

      .cls-11 {
        fill: #858588;
      }

      .cls-12 {
        fill: #4a6275;
      }

      .cls-13 {
        fill: #0a0a0a;
      }

      .cls-14 {
        fill: #354a59;
      }
    </style>
  </defs>
  <path class="cls-4" d="M779.07,794.23c-5.94,0-12.35-.62-19.06-1.83-8.14-1.46-15.88-3.54-22.96-6.18-.26-.09-.52-.19-.78-.28l-23.89-3.55c-21.88-3.25-44.11-6.14-66.1-8.57l-15.89-1.76-16.03-1.49c-11.32-1.05-22.83-2-34.19-2.83l-9.25-.68-9.15-.58c-11.23-.71-22.63-1.31-33.89-1.81l-14.4-.63-14.34-.4c-11.29-.31-22.76-.52-34.09-.61l-4.52-.04h-1.46c-3.05-.02-6.05-.02-9.04-.02-6.58,0-13.17.04-19.59.11l-9.33.1-9.44.2c-7.24.16-14.6.36-21.86.6l-9.48.32-9.45.42c-9.47.42-19.08.93-28.56,1.5l-5.51.33-5.84.39c-10.81.72-21.74,1.56-32.48,2.47l-5.32.46c-7.91.7-15.88,1.46-23.69,2.25-2.88.29-21.36,2.22-23.25,2.42l-18.92,2.38c-10.71,1.35-21.54,2.81-32.18,4.35l-30.04,4.34c-6.97,2.66-14.68,4.72-23.31,6.26-7.51,1.35-14.36,2.02-20.9,2.02-38.8,0-54.04-24.37-58.81-34.94-4.38-9.49-6.43-20.93-6.42-35.99v-165.92l28.93-.09v-50.35c-5-2.96-9.39-6.82-12.98-11.46-.82-1.06-1.6-2.14-2.34-3.24-.38-.45-.8-.95-1.22-1.5-4.58-5.92-7.83-12.2-9.67-18.68-3.3-11.53-1.59-21.16.96-27.94-4.68-8.89-6.5-18.84-5.25-28.78-6.75-9.36-14.53-25-10.5-44.03,5.55-26.19,21.88-34.73,31.11-37.49,3.19-.95,6.5-1.51,9.87-1.66v-15.43L450.14,105.32l365.6,211.08v25.97c2.51,3.14,4.91,6.52,7.26,10.21,10.51,2.51,18.96,8.64,24.03,17.54,8.87,15.54,3.45,31.98,1.58,36.65l-.3.76c.53,5.57-.32,10-1.32,13.07,4.67,5.22,9.59,12.72,9.83,22.14.22,2.7.12,5.43-.32,8.14-.6,4.68-2.82,15.46-10.99,25.05-1.49,2.89-3.38,5.66-5.63,8.28-1.72,2.68-3.64,4.91-5.29,6.6-1.03,1.53-2.14,2.99-3.32,4.35-3.94,6.08-9.24,10.7-15.53,13.62v19.19c2.39-.39,4.86-.58,7.41-.58,1.39,0,2.81.06,4.24.18,19.6,1.59,30.52,13.59,35.18,26.29,12.95,3.96,19.57,11.37,22.92,17.47,4.09,7.43,5.21,16.24,3.33,25.38,4.73,9.32,4.88,20.17.36,30.17.5,3.71.36,7.49-.45,11.18-1.5,6.89-6.09,16.78-19.41,24.75-7.46,4.47-16.17,6.73-25.89,6.73-.1,0-.2,0-.3,0v17.88c.94,5.85,1.4,12.29,1.4,19.44,0,1.23-.02,2.44-.05,3.63.03,1.19.05,2.41.05,3.67s-.02,2.44-.05,3.63c.03,1.19.05,2.41.05,3.67,0,15.74-2.54,28.52-7.79,39.05-4.94,10.08-20.53,33.73-57.67,33.73h0Z"/>
  <g>
    <polygon class="cls-1" points="801.14 324.83 801.14 719.86 761.14 727.85 705.71 738.89 705.71 737.43 111.79 737.43 99.16 730.13 99.16 324.83 450.14 122.18 801.14 324.83"/>
    <polygon class="cls-4" points="774.01 340.49 774.01 697.62 755.82 701.24 716.79 709.02 574.18 737.43 166.05 737.43 126.28 714.47 126.28 340.49 450.14 153.5 774.01 340.49"/>
    <polygon class="cls-2" points="755.82 350.98 755.82 701.24 716.79 709.02 574.18 737.43 202.41 737.43 144.44 703.97 144.44 350.98 450.14 174.49 755.82 350.98"/>
    <polygon class="cls-1" points="740.68 359.73 740.68 695.22 716.79 709.02 574.18 737.43 232.71 737.43 159.6 695.22 159.6 359.73 450.14 191.98 740.68 359.73"/>
  </g>
  <path class="cls-1" d="M843.43,654.95c-13.91,0-26.77-6.12-28.07-6.76-14.66-6.61-10.76-23.41-8.18-34.53.85-3.66,1.95-8.43,1.85-11.01l-32.6-5.03c-3.23,1.99-5.25,3.57-5.27,3.59l-8.22,6.46.96-10.4c.05-.52.1-1.04.15-1.55l-90.31-13.94c-16.88,7.58-37.12,8.41-45.18,8.41-.53,0-.98,0-1.32,0l-2.7-.04-18.39-12.56-6.53-1.99c-8.46,13.83-15.14,23.44-15.21,23.54l-2.68,3.85h-263.2l-2.68-3.86c-.3-.43-6.9-9.95-15.21-23.54l-6.57,2.01-18.39,12.56-2.71.04c-.34,0-.78,0-1.32,0-5.15,0-18.14-.38-31.46-3.73-12.88,9.66-28.51,19.21-46.5,28.43-.67,2.45-.46,4.64-.38,5.22l3.44,13.85-14.3-3.11c-1.44-.31-8.9-2.25-15.4-9.57l-.03-.04c-6.74-7.7-10.87-17.02-13.4-25.13-8.04,7.17-16.06,10.17-17.14,10.55l-18.05,6.42,6.42-18.06c.67-1.87,1.17-4.82,1.51-8.82-7.41,6.24-15.61,10.84-23.81,13.29-.83.25-1.67.47-2.5.68l-22.23,5.4,12.43-19.2c.2-.31,20.62-32.4,26.28-69.72.76-5.01.47-10.2-.82-15.13-2.06-1-4-2.12-5.78-3.35-1.16-.8-2.27-1.65-3.31-2.53-6.2-.44-18.25-2.85-27.03-14.17-3.43-4.43-5.84-9.05-7.16-13.73-2.62-9.15-.64-16.44,1.48-20.94.46-.97.96-1.89,1.5-2.75.16-.41.35-.88.56-1.41-7.2-9.08-9.45-20.5-6.21-31.46-4.43-4.87-15.66-19.31-11.87-37.19,3.78-17.87,13.51-24.29,21.01-26.53,2.43-.73,4.98-1.09,7.59-1.09,3.5,0,6.64.66,9.16,1.45,11.8-12.84,27.24-22.17,45.94-27.75,13.58-4.05,29.59-6.11,47.59-6.11h1.21c5.04.03,8.66.5,11.08.99,1.16-.41,2.1-.72,2.79-.93,5.4-1.61,10.71-2.43,15.79-2.43,15.04,0,27.83,7.18,36.02,20.22,4.58,7.3,7.12,16.05,7.55,26.05l1.41,1.69c4.08,4.89,18.99,27.79,29.41,62.66l11.31-3.76c7.22-2.4,8.21-6.74,9.71-13.32.11-.5.23-1,.34-1.48.4-1.71.87-3.43,1.4-5.14l-13.15,3.76,9.91-18.68c3.1-5.83,7.04-10.91,10.38-14.68-7.47-12.85-10.6-24.88-9.3-35.79,1.1-9.2,5.26-17.4,12.37-24.38,8.88-8.71,19.5-13.13,31.58-13.13,10.51,0,19.61,3.45,25.08,6.12,4.15-2.09,7.92-3.23,10.42-3.83,9.48-8.65,21.58-13.22,35.08-13.22,8.74,0,16.2,1.89,20.57,3.32,4.38-1.43,11.84-3.32,20.57-3.32,13.5,0,25.59,4.56,35.08,13.22,2.49.6,6.27,1.74,10.42,3.83,5.47-2.68,14.57-6.12,25.08-6.12,12.08,0,22.7,4.42,31.58,13.13,7.11,6.98,11.27,15.18,12.37,24.38,1.3,10.91-1.83,22.93-9.3,35.79,3.33,3.76,7.28,8.84,10.37,14.68l9.91,18.68-13.15-3.76c.53,1.71.99,3.43,1.4,5.14.11.48.23.97.34,1.48,1.21,5.29,2.14,8.7,5.23,11.07,7.94-13.37,19.22-25.65,27.88-33.73l-23.1-.41,10.87-7.9c1.41-1.02,29.37-21.25,51.18-30.56l-11.06-4.48,8.91-4.45c.72-.36,17.73-8.78,34.55-10.87,4.76-.59,8.81-.94,12.04-1.14l-8.64-11.19,9.31.13c1.11.02,25.45.49,54.33,12.89l-1.25-6.35,8.17,4.06c8.63,4.29,18.13,12.13,25.11,18.84l-.17-5.71,7.85,7.16c6.48,5.92,12.36,13.56,17.94,23.33l3.25.47c9.85,1.52,14.75,6.84,17.14,11.03,5.78,10.12,1.61,21.76.72,23.99l-1.79,4.46c1.16,5.2.36,8.81-.27,10.57l-1.52,4.33c-.08.53-.17,1.03-.28,1.51-.19.87-.46,1.74-.8,2.59.22.21.45.41.67.6,3.68,3.3,11.2,10.06,11.16,18.11.19,1.75.13,3.52-.18,5.29-.33,2.85-1.9,11.73-8.77,18.93-2.3,5.37-6.54,9.32-8.49,10.93-5.14,10.6-14.23,16.2-26.35,16.2-2.84,0-5.52-.32-7.84-.75.26,4.26-.51,9.06-2.59,13.32,2.18,5.45.41,11.47-1.62,15.31.85,2.4,3.5,5.58,5.34,7.25l-3.03,5.13c2.43,4.3,6.55,10.64,12.93,17.97,3.42-5.35,9.82-11.1,21.53-11.1.99,0,2.02.04,3.05.13,17.58,1.43,23.38,14.61,24.36,24.08,11.04,1.44,18.48,5.52,22.14,12.18,4.19,7.62,1.97,16.23.25,20.74,8.05,9.3,4.8,19.67.72,25.69.91,2.39,1.71,5.97.8,10.16-1.29,5.93-5.55,11.09-12.65,15.34-5.16,3.09-11.35,4.66-18.39,4.66h0ZM296.82,430.83c.4,1.55.8,3.11,1.18,4.7,1.01-.8,2.03-1.6,3.06-2.38l-4.24-2.33Z"/>
  <g>
    <path class="cls-1" d="M837.31,576.85s-10.11-15.28-20.99-9.93c0,0-3.66,4.28-4.86,9.95,0,0,0,0,0,0-23.06-20.56-29.91-38.51-29.91-38.51l-13.28-2.05c-3.34-6.35-5.4-11.39-6.25-13.6-.3-.78-.45-1.21-.45-1.21l-.18,1.01-2.2,12.4-1.58-.24-1.98,12.8-172.25-26.58-7.52,48.71,123.87,19.12,1.91.3,46.65,7.2,17.6,2.72,76.24,11.77,8.08-.39-12.9-33.47Z"/>
    <path class="cls-1" d="M837.59,455.64c.27-1.48.31-2.96.13-4.42.2-6.13-6.49-12.12-9.66-14.97-1.07-.95-2.11-1.96-3.14-2.99l.15-.45c.82-1.28,1.42-2.68,1.73-4.1.12-.53.21-1.07.28-1.59l1.68-4.76c.52-1.45,1.15-4.58-.21-9.38l2.33-5.82c.47-1.16,4.41-11.59-.45-20.1-1.9-3.34-5.85-7.57-13.88-8.81l-5.45-.78c-4.51-8.2-10.44-17.13-18.13-24.15l.21,6.92c-5.21-6.46-19.95-20.54-31.96-26.5l1.18,6.04c-31.75-15.78-60.5-16.17-60.5-16.17l8.34,10.8s-7.45-.25-20.43,1.37c-16.25,2.02-33.09,10.43-33.09,10.43l13.05,5.29c-20.97,4.42-61.45,33.82-61.45,33.82l21.57.38c-8.84,6.47-28.79,25.62-38.96,45.67l11.78-4.02c-2.79,4.01-1.87,2.83-4.92,8.37-2.28,4.15-4.08,7.95-5.88,11.19-17.51,31.49-42.3,41.23-42.3,41.23l15.63,2.72c-31.78,13.19-36.99,51.28-36.99,51.28-2.7,5.4,75.25,31.72,75.25,31.72l53.03-27.15c22.67,7.41,35.19,23.72,35.3,23.87l9.21,12.37-1.33,5.76,1.91.3,2.68-1.68.1.14v-.21s1.18-.74,1.18-.74l.3.94.34-1.34,5.56-3.5-.9,2.85,18.17-12.58c1.77-1.22,3.41-2.59,4.92-4.04l2.41,3.23c7.88-3.73,13.87-7.99,18.31-11.89,1.68-1.48,3.14-2.9,4.39-4.23,2.99,2.7,6.69,1.26,10.23-1.73,1.37-1.16,2.73-2.56,4-4.04.62-.72,1.22-1.46,1.8-2.2.7-.9,1.36-1.8,1.98-2.66,2.67-3.78,4.46-6.97,4.46-6.97l7.14,2.42c-.61-.56-6.66-6.3-7.06-11.37,1.96-2.96,4.65-9.66,1.25-14.59,4.42-6.86,3.84-16.02,1.32-19.68,0,0,26.66,11.12,36.95-11.87,0,0,5.98-4.41,8.28-10.58,5.78-5.67,7.72-13.12,8.16-17.06Z"/>
    <path class="cls-1" d="M815.15,484.04s-7.41,11.57-21.43,9.4c0,0,2.83-5.47,3.1-10.14,0,0-6.47,2.54-17.89.05,0,0-5.49,8.69-5.27,15.69l4.98-3.57s4.68,5.26-2.53,20.22c0,0,7.9,5.3-2.65,13.96l-34.44-6.61-25.32-33.05-9.47-62.76,58.19,14.71,53.35,36.25-.63,5.85Z"/>
    <path class="cls-1" d="M822.16,467.74s-2.16,7.83-6.38,10.46c0,0-2.16.75-6.41-.86l-2.94-4.45-26.33-.89s-18.54,1.59-30.02-13.44c-11.49-15.03-24.28-21.54-36.89-8.06l4.75-.18s-10.19,7.15,6.05,37.27c11.07,20.54,14.8,31.67,40.45,32.43-2.12.56-4.77.9-8.09.87l5.04,1.61.64.2,7.56,2.41s.05.06.14.18c.88,1.08,5.67,6.86,10.85,11.59,0,0-6.22-2.05-10.09-3.46h0c.09.26,2,5.15,6.6,11.9,3,4.4,7.15,9.58,12.7,14.78,0,0-2.51.06-6.23-.6-3.09-.54-7.01-1.57-11.04-3.53-1.06-.51-2.14-1.1-3.21-1.75-2.44-1.5-4.87-3.38-7.09-5.75-1.22-1.29-2.39-2.73-3.47-4.33,0,0-.51.94-1.66,2.5-.22.29-.45.6-.7.93-3.33,4.24-10.47,11.64-23.24,17.68,0,0,5.61-6.22,8-20.03.13-.77.25-1.56.37-2.38,0,0-.29.86-.87,2.3-1.9,4.68-7.02,15.4-15.88,21.54,0,0,2.64-8.31,2.05-13.3,0,0-2.16,12.2-16.04,20.95,0,0,1.54-6.66,1.59-16.43.03-5.11-.35-11.06-1.57-17.36-.96-5-2.45-10.22-4.68-15.4.05.29,1.1,6.49,1.16,14.85.03,5.97-.44,13.05-2.17,19.84,0,0-.14-.46-.44-1.29-.06-.17-.12-.34-.19-.54-.02-.05-.03-.11-.06-.16-1.34-3.64-4.67-11.76-10.37-19.89-1.59-2.27-3.37-4.54-5.34-6.72,0-.01-.01-.01-.02-.02-1.01-1.13-2.08-2.22-3.19-3.28-.52-.49-1.01-.96-1.49-1.41-.03-.03-.06-.06-.09-.09-11.72-11.25-12.53-14.06-12.57-14.27,0,0,0,0,0-.01,0,0,.23,10.22,10.43,23.91.98,1.33,2.06,2.68,3.23,4.06,13.37,15.68,12.88,25.96,12.88,25.96,0,0-14.67-19.69-42.07-27.47l-65.02,33.29-63.07-9.73c1.13-3.02,2.32-5.9,3.52-8.63t0-.01c6.24-14.13,12.75-23.93,12.95-24.23l-12.3,3.82c11.97-17.49,30.04-30.5,41.71-39.05,11.67-8.55,14-14.82,14-14.82-11.44,5.86-17.81,4.75-17.81,4.75,21.39-13.9,22.83-23.23,34.58-44.66,2.33-4.25,4.63-8.01,6.81-11.29,2.98-4.48,5.76-8.09,8.12-10.91,1.78-2.12,3.32-3.79,4.56-5.04.37-.38.72-.72,1.03-1.02.15-.15.3-.29.45-.43.29-.27.54-.5.76-.7.02-.02.04-.03.06-.05.39-.37.66-.6.78-.69.02-.02.04-.04.07-.05-3.01,1.3-6.58,3.19-9.84,5.02-5.17,2.91-9.58,5.69-9.8,5.83,2.37-3.43,4.77-6.58,7.17-9.46,20.98-25.22,41.71-30.21,41.71-30.21-8.61-1.88-20.56-2.08-20.56-2.08,8.97-5.16,22.12-10.39,22.12-10.39l39.42-26.24c18.99.65,34.06,7.33,34.38,7.52-6.31-9.41-13.17-14.05-13.17-14.05,35.58,3.7,53.69,21.1,54.22,21.61-2.1-5.22-8.94-11.35-8.94-11.35,17.76,8.82,27.96,25.62,28.28,26.14-.32-3.56-2.01-6.86-2.12-7.07,17.78,16.23,21.76,33.73,27.48,42.51,5.73,8.78,4.27,12.91,4.27,12.91-1.01-3.15-4.42-7.75-7.26-5.89-3.59,2.35-1.35,5.51-4.66,8.14-2.62,2.07-6.14,1.25-8.08.53,7.74,3.76,13.59,12.25,21.37,19.23,8.26,7.4,7.05,9.41,7.05,9.41,0,0,1.77,9.38-7.91,16.47Z"/>
    <path class="cls-12" d="M611.72,417.37c4.15-2.47,10.47-6.1,15.32-8.2-.02.02-.04.04-.07.05-.11.1-.39.33-.78.7-.02.02-.04.03-.06.05-.22.19-.47.42-.76.69-.15.15-.3.29-.45.44-.31.3-.66.64-1.03,1.02.02,0,.03-.02.05-.03-6.29,6.56-9.18,13.9-10.44,20.1-1.65,8.12-.5,14.3-.5,14.3,2.41-4.08,7.84-9.2,11.7-12.54,2.33-2.03,4.07-3.41,4.21-3.52h.01c-.6,1.34-1.15,2.64-1.67,3.92-.95,2.37-1.74,4.64-2.41,6.82-7.84,25.77,3.17,37.42,3.17,37.42,2.85-9,9.12-14.93,9.12-14.93-6.05,24.49,9.23,41.92,9.23,41.92.29-3.05,2.35-8.09,2.35-8.09,2.65,20.47,22.76,31.39,22.76,31.39-2.44-8.91-.15-16.71-.15-16.71,0,0,0,0,0,.01,1.27,2.65,4.98,6.62,12.57,14.27.03.03.06.06.1.09,1.42,1.43,2.98,2.99,4.68,4.69,0,0,.01,0,.02.02,8.66,8.66,13.94,21.68,15.72,26.61.02.06.04.11.06.16.07.2.14.38.18.54.29.83.44,1.29.44,1.29,2.1-16.44-2.66-34.25-7.47-47.16h0c-4.11-11.01-8.27-18.47-8.27-18.47-1.91,12.38,3.74,23.87,4.08,24.57-17.94-25.45-13.47-43.18-13.47-43.18-8.06,10.33-1.77,26.62-1.62,26.99-21.27-25.62-15.05-47.81-15.05-47.81-6.8,8.76-10.49,25.62-10.49,25.62-5.78-21.9,8.89-38.24,9.22-38.61-10.74,4.34-15.7,15.27-15.7,15.27.82-15.94,11.41-26.29,11.41-26.29-6.27-2.6-15.42,2.01-15.84,2.18,0,0,0,0,.02-.02.34-.32.69-.63,1.04-.92.27-.24.55-.48.82-.7.25-.21.5-.41.74-.61,25.3-20.21,43.85,6.98,43.85,6.98-11.61,1.74-16.53,9.43-16.53,9.43,16.03.29,21.12,14.97,21.12,14.97-10.01-4-19.42,4.08-19.42,4.08,12.13-2.76,30.53,6.89,39.17,29.74,8.65,22.85,31.56,29.12,31.56,29.12.77.19,1.52.38,2.25.55,12.99,3.04,19.72,1.81,23.21-.28,3.72-2.21,3.75-5.39,3.75-5.39-2.1.1-4.08.15-5.96.16-1.06,0-2.09-.02-3.09-.04-25.64-.76-29.33-11.91-40.45-32.43-14.54-26.84-7.76-35.59-6.3-37.04.16-.16.25-.23.25-.23l-4.75.18c12.2-13.19,25.4-6.97,36.89,8.06,11.48,15.02,30.03,13.44,30.03,13.44l26.15.88h.18s.05.05.05.05l.72.7,2.39,2.31c2.87,1.08,4.79,1.09,5.73.98.45-.05.68-.13.68-.13.9-.57,1.71-1.31,2.41-2.12,2.45-2.85,3.66-6.62,3.75-6.92,0-.01,0-.02,0-.02,9.67-7.09,7.91-16.47,7.91-16.47,0,0,1.21-2.01-7.04-9.41-7.78-6.98-12.72-15.17-20.46-18.93,1.94.72,4.55,1.25,7.17-.83,3.31-2.62,1.07-5.78,4.66-8.13,2.84-1.87,6.25,2.74,7.27,5.89,0,0,1.45-4.13-4.27-12.91-2.02-3.1-3.82-7.28-6.09-12.1-.37-.79-.76-1.6-1.16-2.43-.01-.03-.02-.05-.02-.05-.21-.41-.41-.83-.62-1.25-.97-1.98-2.06-4.04-3.27-6.16-1.53-2.69-3.29-5.45-5.33-8.26-2.96-4.07-6.56-8.21-11.01-12.28.11.21,1.8,3.51,2.12,7.07-.32-.52-10.52-17.32-28.28-26.14,0,0,6.84,6.13,8.95,11.35-.53-.51-18.64-17.91-54.22-21.61,0,0,6.85,4.64,13.17,14.05-.32-.19-15.39-6.87-34.38-7.52l-9.09,6.05-1.45.97-2.91,1.94-9.19,6.12-15.32,10.19-1.46.98s-13.15,5.24-22.12,10.39c0,0,11.95.2,20.56,2.08,0,0-22.4,5.39-44.19,33.29-1.57,2.01-3.14,4.13-4.7,6.38.14-.09,1.84-1.16,4.32-2.65Z"/>
    <path class="cls-14" d="M783.1,422.26s-5.93,4.16,7.13,18.97c0,0-17.92-15.14-25.9-12.93-7.98,2.21-12.53,12.01-12.53,12.01l-.97-16.78s-4.77,9.06-25.36,4.45l6.76-1.18s-16.09-1.96-30.12-12.62l9.17,1.55-17.77-10.97,13.47.77-17.22-5.23s6.33-6.27,10.12-5.68c0,0-26.91-9.69-58.66,28.63l7.91-36,49.11-10.56,32.69,29.96,33.11,14.56,19.07,1.05Z"/>
    <path class="cls-1" d="M610.69,458.67l6.89-1.67s4.39,30.5-19.82,43.81c-24.22,13.31-53.71,27.27-66.49,52.73,6.33-14.35,12.96-24.24,12.96-24.24l-12.3,3.82c11.97-17.49,30.04-30.5,41.71-39.05,11.67-8.55,14-14.82,14-14.82-11.44,5.86-17.81,4.75-17.81,4.75,21.39-13.9,22.83-23.23,34.58-44.66,2.33-4.25,4.63-8.01,6.81-11.29l21.87,7.2s-19.65,11.73-22.41,23.41Z"/>
    <path class="cls-1" d="M710.61,395.45s-18.15-4.17-32.89,5.82c0,0,2.34-5.65,7.85-9.31,0,0-17.13.18-29.03,10.35l-1.24-7.82,27.09-17.81,30.91,13.8,4.83,6.53-7.52-1.56Z"/>
    <path class="cls-14" d="M818.4,474.68c-.7.81-1.5,1.55-2.41,2.12,0,0-.23.08-.67.13-.94.11-2.86.1-5.73-.99l-2.39-2.31-.72-.7-.04-.04h-.18s2.96-6.88,2.96-6.88l11.64.16s-6.35,3.75-2.46,8.51Z"/>
    <path class="cls-1" d="M712.43,380.37l4.88-4.33c11.89,2.05,18.06,7.21,18.06,7.21,0,0-.43.02-1.17.02-5.33.25-8,2.93-8,2.93l6.35,2.07c-6.46.37-9.11,4.29-9.11,4.29,23.29,2.67,28.69,8.27,40.06,21.05,4.08,4.59,7.23,5.46,9.59,4.68,3.16-1.04,2.62-4.6,2.15-6.31,3.11,9.13,7.86,10.29,7.86,10.29-9.93,1.98,2.22,15.05,2.22,15.05-26.37-28.74-33.51,3-33.51,3-4.22-7.12-3.12-13.06-3.12-13.06-5.26,2.91-8.56,1.63-8.56,1.63,1.4-.51,2.77-2.66,2.77-2.66-14.91-1.03-29.73-8.58-29.73-8.58l10.64,1.64c-7.75-3.92-20.78-11.25-20.78-11.25,10.5,1.39,21.66.85,21.66.85-12.45-7.55-27.5-10.06-27.5-10.06l13.41-3.38c-6.53-5.91-21.91-8.65-21.91-8.65l6.14-2.14c-6.09-.58-11.54,1.85-11.54,1.85l3.23-2.79c-4.6,1.41-11.49,2.6-20.28,1.43,0,0,5.68-1.91,10-4.19h0s36.17-.6,36.17-.6Z"/>
    <path class="cls-1" d="M683.68,382.72s-31.59,15.96-42.46,40.52c0,0-3.51-4.43-2.59-11.47,0,0-6.95,13.3-5.53,23.5,0,0-3.75,2.32-8.22,5.9-5.64,4.53-12.43,11.09-14.19,17.51,0,0-6.15-18.39-.25-35.46.56-1.64.99-3.62,1.28-5.85.16-1.18.28-2.42.37-3.73,21.79-27.9,44.19-33.29,44.19-33.29-8.61-1.88-20.56-2.08-20.56-2.08,8.97-5.16,22.12-10.39,22.12-10.39l1.46-.98,24.38,15.82Z"/>
    <path class="cls-4" d="M696.72,377.44s-4.04.9-10.11,3.22c-11.85,4.51-31.46,14.39-43.88,33.38,0,0-1.85-6.82,3.09-14.66-.4.21-13.34,6.93-16.88,31.06,0,0,0,0-.01.01-.33.26-6.83,5.4-11.73,10.71-.03.03-.06.07-.1.11-1.19,1.3-2.28,2.6-3.16,3.85-.34.47-.64.94-.91,1.39,0,0-.01-.05-.03-.14-.1-.63-.48-3.25-.33-7.02.22-5.86,1.72-14.49,7.48-22.63,1.11-1.56,2.37-3.11,3.81-4.61-.02,0-.03.01-.05.02.37-.38.72-.72,1.03-1.02.15-.15.3-.29.45-.43.29-.27.54-.5.76-.7.02-.02.04-.03.06-.05.39-.37.66-.6.78-.69.02-.02.04-.04.07-.05-7.76,3.36-19.28,10.63-19.64,10.85,23.14-33.47,48.88-39.67,48.88-39.67-8.61-1.88-20.56-2.08-20.56-2.08,14.36-12.45,38.89-21.56,38.89-21.56l22.1,20.72Z"/>
    <path class="cls-14" d="M809.75,464.33l-3.27,8.6-.04-.04-26.33-.89s-18.54,1.59-30.02-13.44c-11.49-15.03-24.69-21.24-36.89-8.06l4.75-.18s-.09.07-.26.23c-6.26,2.43-9.89,7.84-9.89,7.84,2.03-22.57,20.97-20.55,20.97-20.55l-5.34-1.92c19.14-.49,25.6,11.32,34.51,19.08,16.29,14.19,38.29,14.45,33.48,6.63-2.82-4.59,1.62-10.52,1.62-10.52l16.71,13.2Z"/>
    <path class="cls-1" d="M810.12,392.37c-1.9,5.98-4.97,8.66-8.98,9.95-9.56,3.08-21.97-.46-45.45-14.94-19.11-11.78-31.86-13.4-52.13-8.63-9.22,2.17-12.65-23.04-16.84-30.1l1.45-.97,9.09-6.05c18.99.65,34.06,7.33,34.38,7.52-6.31-9.41-13.17-14.05-13.17-14.05,35.57,3.7,53.69,21.1,54.22,21.61-2.1-5.22-8.94-11.35-8.94-11.35,17.76,8.82,27.96,25.62,28.28,26.14-.32-3.56-2.01-6.86-2.12-7.07,4.45,4.06,8.04,8.21,11.01,12.27,2.05,2.81,3.8,5.58,5.33,8.26,1.21,2.11,2.29,4.18,3.27,6.16.21.42.41.84.61,1.25Z"/>
    <path class="cls-4" d="M806.35,393.97c-4.12,13.18-21.07,9.2-51.42-12.14-26.18-18.4-51.65-11.82-58-9.72-.98.32-10.53-21.36-10.53-21.36l-12.24-5.94s14.76-3.69,24.12-3.11c18.97,1.18,33.04,7.27,33.36,7.46-6.31-9.41-13.17-14.05-13.17-14.05,35.57,3.7,53.69,21.1,54.22,21.61-2.1-5.22-8.94-11.35-8.94-11.35,17.76,8.82,27.96,25.62,28.28,26.14-.32-3.56-2.01-6.86-2.12-7.07,4.45,4.06,8.04,8.21,11.01,12.27.5.69.98,1.36,1.44,2.05.11.16.22.33.34.5,0,0,0,0,0,.02,1.26,1.85,2.39,3.69,3.41,5.48.05.08.09.15.13.22.54,3.22.91,6.46.12,9.01Z"/>
    <path class="cls-1" d="M822.16,467.74s-14.68,8.63-24.33-4.71c-9.65-13.34-3.04-20.95,5.03-22.86,8.06-1.92,23.56,1.57,27.21,11.1,0,0,1.77,9.38-7.91,16.47Z"/>
    <path class="cls-8" d="M829.37,456.64s5.64-9.48-11.02-13.32c-16.66-3.84-22.43,5.25-18.9,9.2,4.37,4.9,6.04-2.38,12.03-.32,4.9,1.68,4.34,7.21-.38,10.43,0,0,3.59.55,7.37-3.63s10.66-6.71,10.9-2.36Z"/>
    <path class="cls-4" d="M801.81,446.94s14.74-7.53,26.65,3.21c0,0-8.9-4.1-26.65-3.21Z"/>
    <g>
      <path class="cls-4" d="M777.12,476.72c-.68.87-1.36,1.67-2.03,2.4-6.8,7.47-12.63,8.06-12.63,8.06.38-.62.73-1.25,1.06-1.86,1.56-2.94,2.47-5.71,2.97-7.64.23-.89.38-1.61.47-2.08.49.08,1,.15,1.52.23.57.08,1.15.16,1.74.23.29.04.59.07.89.11.17.02.34.03.51.05h.01s0,0,.01,0c.02,0,.03.01.03,0,.49.06.98.11,1.48.16.4.04.8.07,1.2.11.91.08,1.83.16,2.77.23Z"/>
      <path class="cls-4" d="M809.17,482.22c-.5.58-.99,1.13-1.46,1.62-4.34,4.47-7.94,5.4-8.16,5.46,0,0-.01,0-.01,0,.35-.78.66-1.54.94-2.3.87-2.38,1.38-4.57,1.68-6.34.23-1.34.34-2.42.39-3.13.22.29.46.58.72.85.3.33.63.63.96.92.33.28.68.54,1.03.79.21.15.41.29.63.42.21.13.42.27.64.39.22.13.43.24.65.36.66.36,1.33.67,1.98.95Z"/>
      <path class="cls-2" d="M781.33,477l-1.21,1.64,1.02.16c1.83.28,3.7.06,5.41-.63l2.44-.83-7.67-.34Z"/>
      <path class="cls-2" d="M789.92,477.36l-1.08,1.69s2.83.76,5.56-1.58l-4.48-.11Z"/>
      <path class="cls-2" d="M795.8,477.5l-1.08,1.69s3.01.69,5.73-1.66l-4.66-.03Z"/>
    </g>
    <path class="cls-4" d="M726.07,466.74s8.58,2.25,11.84,9.06c0,0-3.65-2.26-6.99-2.62,0,0,8.95,5.85,13.19,15.27l-4.98-2.62s11.27,9.74,13.28,20.68c0,0,7.16,2.49,9.89.76,2.73-1.73,3.4-21.03-10.61-35.97,0,0,3.51,7.16,3.01,19.4,0,0-5.54-21.94-28.63-23.97Z"/>
    <g>
      <path class="cls-4" d="M771.85,514.94c-.48,1.15-.81,1.86-.81,1.86,0,0-3.42-.46-4.34-1.05-.93-.59-1.1-3.6-1.1-3.6.14-.07.28-.14.42-.22,2.73-1.52,5.54-5.08,7.34-7.64,1.08-1.54,1.78-2.71,1.88-2.86h0s0-.02,0-.02c.18,4.23-2.14,10.46-3.4,13.53Z"/>
      <path class="cls-4" d="M747.79,511.45c-.66,1.12-1.1,1.8-1.1,1.8,0,0-.02,0-.05-.01-.01,0-.02-.01-.04-.01-.59-.21-3.78-1.48-6.09-5.47.18-.07.36-.14.54-.22,3.76-1.65,8.36-6.22,10.96-9.02,1.25-1.35,2.04-2.29,2.04-2.29-.49,5-4.31,11.97-6.24,15.22Z"/>
      <path class="cls-2" d="M753.12,511c-1.95,2.26-2.8,2.85-2.8,2.85l3.19.49c.71-1.93-.39-3.34-.39-3.34Z"/>
      <path class="cls-2" d="M758.22,511.78c-1.95,2.26-2.8,2.85-2.8,2.85l3.19.49c.71-1.93-.39-3.34-.39-3.34Z"/>
      <path class="cls-2" d="M763.01,512.52c-1.95,2.26-2.8,2.85-2.8,2.85l3.19.49c.71-1.93-.39-3.34-.39-3.34Z"/>
      <path class="cls-4" d="M740.21,506.7s-10.94-10.3-7.7-20.93c0,0,1.05,4.38,2.86,8.51.27-.29.56-.62.88-.99,0,0,.23,1.05.03,2.91.77,1.49,1.64,2.83,2.6,3.78l.69-1.86s1.09,4.69.64,8.59Z"/>
    </g>
    <path class="cls-4" d="M819.45,427.07c-.55,2.45-3.84,5.84-5.8,2.01h.04c1.39.22,2.81-1.44,3.16-3.7.29-1.87-.24-3.57-1.22-4.22,3.36-.7,4.59,2.49,3.82,5.91Z"/>
    <ellipse class="cls-4" cx="816.74" cy="422.7" rx="1.32" ry=".62" transform="translate(-97.63 324.39) rotate(-21.23)"/>
    <path class="cls-14" d="M823.88,404.36s6.61-16.49-8.7-18.69l8.7,18.69Z"/>
    <path class="cls-14" d="M756.79,539.11c-.34,1.56-2.81,3.75-5.49,5.73.82-3.38-.98-5.4-.98-5.4-.73,5.07-6.36,10.18-6.36,10.18,2.3-8.27-2.44-14.86-2.44-14.86-.66,4.28-8.62,11.82-8.62,11.82.27-8.59-3.76-12.13-3.76-12.13l-1.67,8.1c-2.28-10.41-12.46-16.13-12.46-16.13,0,0,10.88,10.71,1.03,41.21,11.39-6.21,13-15.14,13-15.14.56,3.68-1.5,9.74-1.5,9.74,9.49-5.71,13.54-17.24,13.54-17.24-1.52,11.33-6.6,16.32-6.6,16.32,15.72-6.35,20.93-15.11,20.93-15.11,3.39,4.38,7.69,7.19,11.82,8.98-7.31-5.68-10.42-16.08-10.42-16.08Z"/>
    <path class="cls-1" d="M805.26,416.64s-1.89,7.52,3.83,5.9l.84,5.74s-5.55-3.99-8.78-4.32c0,0,1.6-.77,4.11-7.32Z"/>
    <path class="cls-4" d="M617.2,414.19c-5.17,2.91-9.58,5.69-9.8,5.83,2.37-3.43,4.77-6.58,7.17-9.46l2.62,3.63Z"/>
    <path class="cls-4" d="M628.94,430.43s0,0-.01.01c-.35.23-5.69,3.86-11.73,10.71-.03.03-.06.07-.1.11-1.03,1.19-2.1,2.47-3.16,3.85-.31.4-.63.82-.94,1.24-5.64,7.64-11.05,17.97-12.88,30.84,0,0,7.95-4.47,10.06-11.04,0,0,1.23,23.85-20.95,33.35-15.44,6.62-43.94,22.46-57.29,33.62,11.97-17.49,30.03-30.49,41.7-39.03,11.67-8.55,14-14.82,14-14.82-11.44,5.86-17.81,4.75-17.81,4.75,21.39-13.9,22.83-23.23,34.58-44.66,5.51-10.06,11.64-17.77,15.74-22.65l5.27,8.23,3.52,5.49Z"/>
    <path class="cls-2" d="M806.35,393.97c-4.12,13.18-21.07,9.2-51.42-12.14-26.18-18.4-51.65-11.82-58-9.72.51-4.76,4.5-8.42,15.21-8.95,30.1-1.5,45.45,19.55,62.55,28.93,14.06,7.71,21.34,8.94,25.55,6.85,5.87-2.93,3.51-14.92,2.12-20.18.11.16.22.33.34.5,0,0,0,0,0,.02,1.26,1.85,2.39,3.69,3.41,5.48.05.08.09.15.13.22.54,3.22.91,6.46.12,9.01Z"/>
    <path class="cls-2" d="M675.58,385.58c-10.91,5.6-23.79,14.61-32.85,28.46,0,0-1.85-6.82,3.09-14.66-.4.21-13.34,6.93-16.88,31.06,0,0,0,0-.01.01-.33.26-6.83,5.4-11.73,10.71-.03.03-.06.07-.1.11-1.03,1.19-2.1,2.47-3.16,3.85-.34.47-.64.94-.91,1.39,0,0-.01-.05-.03-.14-5.64,7.64-11.05,17.97-12.88,30.84,0,0,7.95-4.47,10.06-11.04,0,0,1.23,23.85-20.95,33.35-15.44,6.62-43.94,22.46-57.29,33.62.6-.7,20.17-23.05,48.47-35.26,25.09-10.83,23.45-17.81,23.45-17.81-2.79,3.38-8.07,4.66-8.07,4.66,1.61-21.66,9.66-36.34,16.89-45.36,6.42-8.03,12.19-11.57,12.19-11.57.17-.97.35-1.91.56-2.82,5.78-25.9,25.69-32.31,25.69-32.31-2.33,3.36-3.56,9.56-3.56,9.56,6.51-9.23,19.98-14.74,19.98-14.74-4.43-.68-6.14-2.58-6.14-2.58,3.89-.82,6.89-2.72,8.78-4.24,1.81.24,3.83.37,6.09.34-4.32,2.28-10.01,4.19-10.01,4.19,3.41.45,6.52.55,9.33.42Z"/>
    <g>
      <path class="cls-4" d="M756.2,417.7s-2.37-1.4-5.93-7.85c-3.56-6.45-11.51-6.81-13.2-5.42-1.69,1.39-1.58,18.65,19.13,13.26Z"/>
      <circle class="cls-1" cx="749.1" cy="412.29" r="5.18"/>
      <ellipse class="cls-9" cx="744.8" cy="408.79" rx="1.37" ry="3.19" transform="translate(-53.46 699.67) rotate(-48.78)"/>
    </g>
    <path class="cls-2" d="M777.12,476.72c-.68.87-1.36,1.67-2.03,2.4-.43-.03-.86-.06-1.27-.1-2.71-.26-5.31.99-6.85,3.23-1.12,1.63-2.41,2.56-3.44,3.07,1.56-2.94,2.47-5.71,2.97-7.64.23-.89.38-1.61.47-2.08.49.08,1,.15,1.52.23l.17.03c.51.07,1.03.14,1.57.2.29.04.59.07.89.11.17.02.34.04.52.05h.01s.03.01.03,0c.49.06.98.11,1.48.16.4.04.79.07,1.2.11.91.08,1.83.16,2.77.23Z"/>
    <path class="cls-2" d="M809.17,482.22c-.5.58-.99,1.13-1.46,1.62-.58-.24-1.13-.49-1.65-.74-1.26-.63-2.78-.05-3.31,1.25-.5,1.24-1.36,2.08-2.27,2.66.87-2.38,1.38-4.57,1.68-6.34.23-1.34.34-2.42.39-3.13.22.29.46.58.72.85.1.1.2.2.3.29.17.17.34.33.53.49.12.11.25.21.38.31.26.21.52.42.79.6.21.15.41.29.63.42.21.13.42.26.64.39.22.12.43.24.65.36.66.36,1.33.67,1.98.95Z"/>
    <path class="cls-2" d="M740.21,506.7s-10.94-10.3-7.7-20.93c0,0-.2,10.87,6.32,17.19,0,0,.52-.85.74-4.85,0,0,1.09,4.69.64,8.59Z"/>
    <path class="cls-2" d="M747.73,511.41l.06.03c-.66,1.12-1.1,1.8-1.1,1.8,0,0-.02,0-.05-.01-.01,0-.02-.01-.04-.01-.59-.21-3.78-1.48-6.09-5.47.18-.07.36-.14.54-.22,3.76-1.65,8.36-6.22,10.96-9.02-.69,2.07-2.16,4.3-4.89,7.5-1.48,1.73-1.38,4.31.62,5.4Z"/>
    <path class="cls-2" d="M771.85,514.94c-.48,1.15-.81,1.86-.81,1.86,0,0-3.42-.46-4.34-1.05-.93-.59-1.1-3.6-1.1-3.6.14-.07.28-.14.42-.22,2.73-1.52,5.54-5.08,7.34-7.64-.45,1.79-1.3,4.07-2.96,6.13-1.26,1.56-.56,3.93,1.36,4.5.02.01.05.01.08.02Z"/>
    <path class="cls-2" d="M775.26,501.4s0,0,0,.02h0s0-.02,0-.02Z"/>
    <path class="cls-1" d="M807.05,468.27s-.38,3.9-4.44,4.49l7.5,3.37s-3.68-3.87-.22-7.43l-2.84-.44Z"/>
    <path class="cls-14" d="M769.73,525.32c-3.76,1.54-10.25,3.26-23.21.28-.73-.17-1.48-.36-2.25-.55,0,0-22.91-6.26-31.56-29.12-8.64-22.85-27.04-32.5-39.17-29.74,0,0,9.41-8.08,19.42-4.08,0,0-5.09-14.68-21.12-14.97,0,0,4.92-7.69,16.53-9.44,0,0-18.55-27.18-43.85-6.98,32.9-26.9,51.76,11.56,51.76,11.56-5.66-2.15-11.06,3.38-11.06,3.38,14.12,6.17,17.1,20.98,17.1,20.98-5.88-3.09-15.25-2.35-15.25-2.35,25.51,6.98,36.13,35.36,36.13,35.36l-5.13-4.42c3.33,6.69,6.22,14.36,20.82,22.87,10.93,6.37,21.64,4.57,28.61,2,1.88,0,3.85-.06,5.95-.16,0,0-.03,3.18-3.75,5.4Z"/>
    <path class="cls-14" d="M705.12,559.86s-.14-.46-.44-1.29c-.05-.16-.12-.34-.19-.54-.02-.05-.03-.11-.06-.16-1.78-4.93-7.06-17.95-15.72-26.62,0-.01-.01-.01-.02-.02-1.7-1.7-3.25-3.25-4.68-4.69-.03-.03-.06-.06-.09-.09-7.59-7.65-11.3-11.62-12.57-14.27,0,0,0,0,0-.01,0,0-2.29,7.8.15,16.71,0,0-20.11-10.91-22.76-31.39,0,0-2.05,5.04-2.34,8.09,0,0-15.28-17.43-9.24-41.92,0,0-6.27,5.93-9.12,14.93,0,0-11.01-11.66-3.17-37.43.66-2.17,1.45-4.44,2.4-6.81l5.82.91c-4.71,11.09-3.52,22.78-3.52,22.78,5.56-13.09,15.89-16.62,15.89-16.62-9.51,26.22.37,51.19.37,51.19,2.33-7.12,7.48-9.2,7.48-9.2-1.97,13.08,10.04,31.05,10.04,31.05-.96-9.33,1.5-23.74,1.5-23.74,8.92,21.54,33.48,42.49,33.48,42.49.53-7-.7-20.51-.7-20.51h0c4.81,12.91,9.57,30.72,7.47,47.16Z"/>
    <path class="cls-14" d="M818.76,593.36s-15.37,1.13-14.15-1.45c0,0-8.48,2.33-14.57,1.27-5.93-1.03,8.01-6.57,8.72-6.85l-21.98,5.57s4.17-10.78,12.61-16.31c0,0-3.25-3.45-6.6-9.77-3.6-6.8-7.32-16.93-7.22-29.68,0,0,11.44,29.56,29.03,41.92,0,0-.14.02-.39.09-1.26.3-5.31,1.48-8.41,4.78,0,0,7-3.16,13.19-.08l6.16-1.43s.38,7.03,3.6,11.94Z"/>
    <g>
      <path class="cls-1" d="M610.57,471.55s-35.89-14.41-62.25,15.63l-.03,16.67,41.22,11.44,21.07-43.74Z"/>
      <path class="cls-14" d="M604.6,474.63c-10.03-1.08-30.72-.27-51.25,19.09l34.25,16.2,17-35.29Z"/>
      <g>
        <path class="cls-1" d="M567.06,490.39c.05-1.11.16-2.24.34-3.35,1.78-11.54,6.71-14.7,8.18-15.39l1.59-.75,1.72.35c.28.06,3.62.78,8.02,3.29l.37-.48c2.14-2.74,4.33-4.92,5.37-5.9l1.39-2.26,3.33.37c.38.04,6.04.75,13.19,5.26,1.59-3.56,3.58-5.02,4.47-5.52l1.53-.86,1.74.23c.55.07,13.7,1.94,23.23,16.43,6.4,9.75,10.4,22.35,10.88,32.86.52,11.43-3.61,20.69-3.61,20.69l-7.49-10.18c-.09,5.94-5.18,10.87-5.18,10.87,0,0-13.38-16.98-27-29.93,7.87,26.63-4.86,46.9-4.86,46.9,0,0-4.36-26.91-20.14-44.74l-4.82-.55c-4.47-.51-12.79-4.79-12.25-17.35Z"/>
        <g>
          <g>
            <path class="cls-2" d="M579.91,502.49c-4.13-3.24-3.32-7.4-3.32-7.4,20.13,11.74,28.55,41.54,28.55,41.54,1-2.5,1.56-5.59,1.72-9.05.43-10.03-2.59-23.18-8.65-34.03-8.15-14.61-20.38-17.11-20.38-17.11,0,0-3.72,1.75-5.21,11.41-.15,1-.24,1.92-.28,2.79-.47,10.93,7.58,11.85,7.58,11.85Z"/>
            <path class="cls-4" d="M572.34,490.64c3.73-9.03,8.01-7.22,8.01-7.22,18.86,7,24.87,33.88,26.51,44.17.43-10.03-2.59-23.18-8.65-34.03-8.15-14.61-20.38-17.11-20.38-17.11,0,0-3.72,1.75-5.21,11.41-.15,1-.24,1.92-.28,2.79Z"/>
            <path class="cls-1" d="M577.85,491.69s22.67,16.95,27.29,44.95c0,0-.54-29.87-27.29-44.95Z"/>
          </g>
          <g>
            <path class="cls-2" d="M614.71,475.52c.7.67,1.48,1.44,2.3,2.32,2.3,2.45,5.01,5.75,7.7,9.96.59.92,1.18,1.89,1.76,2.9.98,1.69,1.93,3.5,2.86,5.44,11.21,11.4,16.85,26.96,16.85,26.96.74-2.31,1.04-5.14.96-8.27-.27-9.07-3.85-20.72-10.01-30.11-8.3-12.63-19.49-14.09-19.49-14.09,0,0-1.71.96-2.92,4.89Z"/>
            <path class="cls-4" d="M614.71,475.52c.7.67,1.48,1.44,2.3,2.32,1.82-1.59,3.35-1.08,3.35-1.08,17.46,5.07,24.63,28.91,26.77,38.07-.27-9.07-3.85-20.72-10.01-30.11-8.3-12.63-19.49-14.09-19.49-14.09,0,0-1.71.96-2.92,4.89Z"/>
            <path class="cls-1" d="M624.72,487.8c.59.92,1.18,1.89,1.76,2.9,6.79,6.34,16.09,17.34,19.7,32.4,0,0-2.03-22.4-21.47-35.3Z"/>
          </g>
          <g>
            <path class="cls-2" d="M593.95,479.67c.64.65,1.36,1.43,2.15,2.34,1.66,1.94,3.6,4.45,5.48,7.51.13.2.25.4.37.61,1.07,1.78,2.1,3.73,3.06,5.85,19.18,13.03,31.14,40.08,31.14,40.08.5-2.91.46-6.45-.08-10.36-1.56-11.32-7.21-25.75-15.43-37.25-11.07-15.48-23.84-16.91-23.84-16.91,0,0,0,0-.01.02s-.04.03-.07.06c-.03.03-.08.07-.13.12-.03.03-.06.06-.09.09-.64.7-2.07,2.8-2.53,7.84Z"/>
            <path class="cls-4" d="M591.45,477.32h0c.09.09,1.05.88,2.49,2.35.64.65,1.36,1.43,2.15,2.34,2.1-3.75,4.61-2.91,4.61-2.91,20.29,5.72,31.66,35.24,35.34,46.61-1.56-11.32-7.21-25.75-15.43-37.25-11.07-15.48-23.84-16.91-23.84-16.91,0,0,0,0-.01.02-.02,0-.03.03-.07.06-.03.03-.08.07-.13.12-.03.03-.06.06-.09.09-.78.73-2.95,2.82-5.03,5.49Z"/>
            <path class="cls-1" d="M601.58,489.52c.13.2.25.4.37.61,6.41,4.64,25.75,20.34,34.19,45.94,0,0-6.23-32.19-34.56-46.54Z"/>
          </g>
        </g>
      </g>
    </g>
    <path class="cls-14" d="M814.39,413.97c2.84-1.87,6.25,2.74,7.27,5.89,0,0,1.45-4.13-4.27-12.91-2.02-3.1-3.82-7.28-6.09-12.1-.37-.79-.76-1.6-1.16-2.43.33.92,6.06,16.6,4.25,21.55Z"/>
    <g>
      <path class="cls-1" d="M665.79,385.81l-.1.05c-.2-.29-.38-.57-.56-.86-.83-1.1-1.29-2.08-1.52-2.68-5.95-11.95-.47-22.32,2.67-26.27,5.97-7.51,16.83-10.83,28.33-8.66,2.13.4,4.27.99,6.37,1.75,19.7,7.11,24.57,26.55,25.72,33.9l-4.5,4.74-35.98,3.68h0s0,0,0,0c-11.82,1.17-17.65-2.48-20.43-5.64Z"/>
      <g>
        <path class="cls-12" d="M721.4,386.23c-8.49-5.52-10.21-11.11-10.21-11.11l-.99,4.73c-8.75-30.05-32.37-17.62-32.37-17.62,5.97-2.13,10.92,1.54,10.92,1.54-6.82,1.22-7.37,7.06-7.37,7.06,7.74-1.13,6.97,6.28,6.97,6.28,0,0-6.3-4.86-4.89.13,1.41,5,6.21,5.78,6.21,5.78-14.39,5.49-20.01-9.53-20.01-9.53-.29,4.02.31,9.25.35,9.57-10.55-24,9.27-35.76,29.07-28.61,20.78,7.5,22.33,31.78,22.33,31.78Z"/>
        <path class="cls-14" d="M721.4,386.23c-8.49-5.52-10.21-11.11-10.21-11.11l-.99,4.73c-8.75-30.05-32.37-17.62-32.37-17.62,5.97-2.13,10.92,1.54,10.92,1.54-6.82,1.22-7.37,7.06-7.37,7.06,7.74-1.13,6.97,6.28,6.97,6.28,0,0-6.3-4.86-4.89.13,1.41,5,6.21,5.78,6.21,5.78-5.11-.3-10.55-2.21-13.06-7.68-2.51-5.48,3.29-10.73,3.29-10.73-4.31-.85-8.49,1.85-8.49,1.85,5.41-8.74,14.66-10.08,21.19-9.29,9.91,1.2,18.1,10.7,20.98,16.26,4.77,9.23,7.83,12.79,7.83,12.79Z"/>
      </g>
    </g>
  </g>
  <g>
    <path class="cls-1" d="M183.38,633.95c-.73-.16-7.3-1.74-12.99-8.16l-.06-.07c-8.17-9.33-12.32-21.39-14.43-30.97-8.86,10.78-20.42,14.98-20.95,15.17l-9.14,3.25,3.25-9.14c1.69-4.74,2.14-13.66,2.25-21.4-8.68,9.67-19.43,16.88-30.07,20.05-.76.23-1.52.43-2.28.62l-11.25,2.73,6.29-9.72c.21-.33,21.12-33.01,26.95-71.49.96-6.34.43-12.9-1.53-19.03-2.53-1.09-4.87-2.37-6.98-3.82-1.47-1.01-2.83-2.1-4.05-3.24-4.53-.11-16.74-1.49-25.28-12.51-3.07-3.97-5.22-8.08-6.39-12.2-2.24-7.82-.57-13.99,1.22-17.79.44-.92.93-1.8,1.45-2.61.37-.92.91-2.28,1.55-3.9l.17-.42c-8.21-8.9-10.52-20.65-6.24-31.78l-.39-.36c-.67-.63-16.3-15.54-12.23-34.72,3.33-15.71,11.57-21.26,17.9-23.15,6.99-2.08,13.44-.11,16.79,1.33,11.47-13.39,26.91-23.06,45.9-28.72,13.47-4.02,29.45-6.01,47.5-5.92,5.79.03,9.48.69,11.39,1.17,1.12-.41,2.73-.98,3.79-1.29,19.66-5.87,36.69-.08,46.72,15.88,4.39,6.99,6.71,15.51,6.92,25.35l2.4,2.88c4.89,5.86,25.07,37.38,34.35,84.46l2.02,10.24-5.94-3.59c4.61,25.4,5.97,61.19-10.91,94.32l-5.09,10-3.5-10.98c-13.92,22.29-41.63,44.07-82.45,64.79-1.87,4.41-1.25,8.73-1.16,9.28l1.75,7.06-7.24-1.57Z"/>
    <path class="cls-1" d="M258.02,372.91l-6.54-7.84-6.5,12.02,1.01,2.88c.02.06,1.72,6.61-3.12,20.03l-1.35,3.74,2.56,3.05c.68.81,1.32,1.61,1.94,2.4l-32.13-16.61-85.12,91.66,4.5,15.07-12.44-2.15h0c4.51,8.72,6.17,18.65,4.69,28.36-6.07,40.03-27.64,73.3-27.64,73.3,12.34-3,27.58-13.1,38.03-29.99.03,9.46.56,28.17-2.49,36.75,0,0,18.03-6.41,25.15-24.21.02.27,1.34,25.42,15.23,41.3,0,0,0,0,0,0,4.88,5.53,10.57,6.77,10.57,6.77,0-.04-1.42-6.92,2.19-13.67,70.54-35.5,82.09-63.58,87.06-73l3.35,10.52c19.73-38.72,13.24-81.19,8.33-101.67l6.09,3.68c-9.38-47.56-29.94-78.29-33.37-82.4Z"/>
    <g>
      <path class="cls-1" d="M78.3,414.4l-.65-.61c-.59-.55-14.41-13.73-10.88-30.4,2.86-13.5,9.57-18.15,14.7-19.69,7.87-2.35,14.94,1.71,15.71,2.18l5.54,3.35-2.98,5.75c-3.46,6.68-5.92,8.81-8.55,10.72-1.01.73-1.51,1.1-2.78,3.69-2.18,4.45-.82,12.93.55,17.23l-6.61,2.17-3.27,6.02-.78-.42Z"/>
      <path class="cls-2" d="M93.61,371.81c-5.7,11-7.13,5.85-11.4,14.55-4.26,8.7.18,22.39.18,22.39,0,0,0,0-.01-.01-.42-.4-11.56-11.07-8.84-23.92,4.72-22.29,20.07-13.02,20.07-13.02Z"/>
      <path class="cls-4" d="M93.61,371.81c-3.36-.44-12.18,1.36-16.2,11.45-3.94,9.92,4.67,24.97,4.97,25.48-.42-.4-11.56-11.07-8.84-23.92,4.72-22.29,20.07-13.02,20.07-13.02Z"/>
    </g>
    <path class="cls-1" d="M248.33,344.18c-8.84-14.07-23.97-19.14-41.5-13.91-1.64.49-4.95,1.73-4.95,1.73,0,0-3.31-1.37-11.57-1.41-17.11-.09-32.63,1.69-46.15,5.73-28.65,8.55-43.67,25.19-51.22,37.64-3.58,5.9-5.87,11.45-7.32,15.89-1.76.73-3.2,2.19-3.89,4.07-2.86,7.77-2.62,16.03-1.9,21.62.08.58.15,1.12.23,1.6-.2.43-.41.9-.63,1.41-3.55,8.62-3.15,20.33,7.08,29.62-.41,1.05-.83,2.13-1.27,3.25-.76,1.93-1.38,3.48-1.73,4.38-.42.61-.91,1.41-1.39,2.42-1.45,3.09-2.8,8.12-.95,14.57,1.01,3.55,2.89,7.13,5.6,10.63,7.84,10.12,19.22,10.77,22.52,10.73.07,0,.14,0,.21,0,.47-.01.72-.04.72-.04.02,0,.03,0,.05,0,.08.08.16.17.24.25.89.94,2.39,2.35,4.55,3.84,7.12,4.9,23.41,11.82,52.51,3.13,4.53-1.35,9.29-3.06,14.13-5.06,40.97-16.98,53.39-42.88,57.16-56.98,1.16.27,2.38.23,3.53-.11.64-.19,1.27-.48,1.85-.87.25-.17.49-.35.72-.55,1.73,1.28,3.99,1.69,6.09,1.07.29-.09.57-.19.85-.31,2.96-1.32,4.61-4.53,3.96-7.71-1.99-9.68-5.4-17.3-8.66-22.87,1.45-1.96,1.78-4.55.82-6.82-.05-.11-.28-.65-.71-1.52.55-.53,1.02-1.15,1.38-1.87.03-.06.76-1.5,1.74-4.2.84-2.35,1.57-4.78,2.16-7.21,1.23-5.08,1.92-10.23,2.03-15.34,0-.35-.01-.69-.05-1.03.22-10.18-1.87-18.85-6.22-25.77Z"/>
    <path class="cls-4" d="M247.61,370.72l.08.11c-.12,5.31-.91,10.04-1.84,13.86-.64,2.65-1.36,4.85-1.95,6.51-.75,2.07-1.33,3.28-1.4,3.41.07-1.74.09-3.41.06-5.02-.02-2-.11-3.91-.26-5.71-2.47-30.23-21.16-33.76-21.16-33.76,6.11-2.5,10.44-1.69,10.67-1.64-25.16-10.02-35.42,13.4-35.42,13.4,7.42-1.96,17.45.05,17.45.05-12.48,3.38-20.22,12.11-20.51,12.44,0,0,0,0,0,0h0c17.21-8.54,33.48.72,33.48.72-5.16.28-9,2.69-9,2.69,17.41,10.81,23.84,26.03,23.84,26.03l-7.64-2.01c.29.28,10.99,10.43,15.08,30.39,0,0-7.18-9.7-17.05-15.69.29.32,5.08,5.54,8.39,16.04,0,0-3.45-2.92-6.83-3.29,0,0-.64,38.28-54.53,60.62-34.86,14.45-52.71,7.69-60.06,2.62-1.67-1.15-2.8-2.21-3.47-2.92-.52-.54-.76-.88-.76-.88l-1.03-2.02-1.01.13-3.05.39s-.16.01-.46.02h0c-1.43.02-5.91-.13-10.52-2.6-.59-.31-1.18-.66-1.76-1.06-1.49-1-2.96-2.28-4.28-3.9-.14-.16-.27-.33-.41-.5-.09-.11-.18-.22-.26-.34-.89-1.17-1.62-2.31-2.23-3.39-.09-.17-.19-.34-.27-.51-.76-1.43-1.29-2.78-1.65-4.04-1.27-4.45-.36-7.79.55-9.73.61-1.28,1.21-1.95,1.21-1.95,0,0,.87-2.16,2.09-5.27,2.24-5.69,5.66-14.54,7.13-19.14.31-1,.57-1.94.75-2.84,1.11-5.51-.46-9.57-6.64-16.91.18.26,2.26,3.45,2.15,6.81,0,0-3.05-3.86-7.76-3.62,0,0-.33-1.38-.62-3.6-.55-4.27-.93-11.66,1.53-18.33,0,0,.52,1.97,1.87,4.34,0,0,2.61-23.76,25.49-42.13,2.93-2.35,6.19-4.62,9.82-6.73,1.92-1.12,3.95-2.2,6.09-3.23,5.93-2.86,12.71-5.32,20.44-7.19.29-.07.57-.14.85-.21,3.71-.87,7.63-1.6,11.78-2.18,7.73-1.08,16.25-1.62,25.65-1.49,0,0-6.55,10.59-19.59,16.55,0,0,12.65-2.96,27.75-12.79h.01c16.75-8.97,34.26-9.03,44.08,6.6,4.23,6.74,5.41,15.04,5.13,22.86Z"/>
    <path class="cls-2" d="M131.72,408.59s4.92,5.53,8.88-5.23c3.96-10.76,15.63-23.23,32.86-18.92,0,0-4.46,4.77-4.6,9-.31,9.62-28.16,26.22-28.16,26.22l-6.12-1.5-2.86-9.58Z"/>
    <path class="cls-2" d="M153.32,431.28l.28-2.45s10.59,4.1,31.12-8.54l-7.07.5s7.83-9.17.65-24.17l-32.96,25.33s5.8,6.37,7.98,9.33Z"/>
    <path class="cls-2" d="M233.99,401.79c.29.28,10.99,10.43,15.08,30.39,0,0-7.18-9.7-17.05-15.69.29.32,5.08,5.54,8.39,16.04,0,0-3.45-2.92-6.83-3.29,0,0-.64,38.28-54.53,60.62-31.67,13.13-49.3,8.75-57.78,4.04,0,0,5.71,1.19,10.63,1.27,0,0-3.18-.96-6.14-3.44.28.12,4.83,1.96,13.71,1.18,0,0-3.98-.96-6.48-4.52.36.03,10.34,3.03,28.52-2.4,19.02-5.68,37.92-22.84,37.36-41.13l17.59,8.09s6.58-18.64-5.61-30.13c0,0,13.52-3.08,22.5,3.39,0,0-2.37-10.81-12.93-19.69,0,0,8.46.13,16.47,8.53,0,0-4.4-14.17-10.56-21.54l6.22,2.41s-5.41-11.13-14.78-18.15c17.41,10.81,23.84,26.03,23.84,26.03l-7.64-2.01Z"/>
    <path class="cls-2" d="M112.53,476.45c.22-.18.35-.29.35-.29l-6.06-6.31-11.33,3.89s3.26,4.09,8.63,6.15c-7.44,1.34-14.33-4.85-16.3-9.01.69,2.44,2.05,5.22,4.42,8.28,5.98,7.72,14.85,8.08,16.97,8.05h0c.3,0,.46-.02.46-.02l3.05-.39,2.37-7.37-2.57-2.98Z"/>
    <path class="cls-2" d="M126.13,451.84c1.72,6.19.96,15.01-1.62,19.18-2.31,3.73,16.53,5.77,30.49-5.6,13.97-11.37,9.19-23.88,4.73-27.33,0,0,7.13,1.38,9.83,12,0,0,7.23-4.07,12.39-1.48l-4.38,2.38s-5.29,6.69-9.32,12.19c-4.03,5.5-12.93,19.46-49.71,19.46l-9.29-11.24,16.88-19.56Z"/>
    <path class="cls-1" d="M99.49,425.79c.03.1.05.2.07.3,0,.03.02.06.02.09.03.12.05.24.08.36.04.2.07.41.1.61.02.14.04.28.05.42.02.19.03.37.05.56.02.31.02.61.02.93,0,.11,0,.22,0,.34-.01.29-.03.58-.06.87-.02.13-.03.26-.05.39-.04.28-.08.57-.13.86-.03.15-.06.29-.09.44-.18.9-.43,1.84-.75,2.84-.86,2.72-2.41,6.92-4,11.08-13.13-8.75-10.96-19.9-8.98-24.69.76-1.85,1.48-2.94,1.48-2.94,4.71-.24,7.76,3.62,7.76,3.62.11-3.37-1.97-6.55-2.15-6.81,3.73,4.43,5.78,7.67,6.57,10.75Z"/>
    <path class="cls-1" d="M126.13,451.84c1.37,11.51-9.49,21.98-13.34,23.77-3.85,1.79-10.8,2.71-18.44-2.62-4.97-3.46-5.92-8.64-5.97-11.84.61-1.28,1.21-1.95,1.21-1.95,0,0,.87-2.16,2.09-5.27,2.1-1.66,5.6-3.85,11.51-5.85,4.74-1.61,21.5-8.34,22.94,3.75Z"/>
    <path class="cls-4" d="M168.79,546.97c3.41,20.27-3.26,34.93-3.26,34.93-1.42-20.89-8.34-27.94-8.34-27.94,2.13,23.26-18.69,45.63-18.69,45.63,8.41-23.65,1.95-58.72,1.95-58.72-7.28,30.02-32.95,50.44-32.95,50.44,37.16-58.62,26.15-84.32,25.87-84.96,0,0,0,0,0,0,16.21,2.48,26.51,34.67,26.51,34.67.65-7.02-.15-18.91-.15-18.91,5.06,8.76,7.79,17.22,9.08,24.87Z"/>
    <path class="cls-4" d="M283.46,446.59l-8.81-10.52s19.68,57.28,1.84,104.64c.04-.46,1.49-15-.42-28.58.42,4.28.25,24.12-31.57,58.77l8.15-13.74c-3.22,5.06-17.25,24.26-55.62,43.89,0,0,34.31-29.32,48.87-71.65-.2.38-6.76,12.74-38.56,42.27-32.3,30.01-27.59,49.24-27.59,49.24,0,0-18.4-26.23,8.23-62.27,26.63-36.06,32.75-44.07,32.52-54.31,0,0,6.33,9.97-3.59,29.43,0,0,24.99-13.91,25.76-55.39,0,0,6.56,15.05,4.14,37.16.31-1,10.35-33.5.94-64.2,0,0,11.61,11.84,14.75,40.81,0,0,6.6-23.97-10.34-51.92,0,0,4.98-.58,10.7,5.19,0,0-1.89-10.66-11.46-24.56,0,0,6.43.79,12.84,6.74,0,0-3.28-11.4-14.87-25.22,1.83-5.05,2.83-9.31,3.34-12.8h0c1.17-7.95-.19-11.86-.19-11.86l.19-.35c3.41,4.08,20.05,25.65,30.75,69.24Z"/>
    <path class="cls-1" d="M131.72,408.59s4.9,14.46,10.94,2.73c6.04-11.73,14.05-24.54,30.8-26.88,0,0-5.51,3.4-9.41,8.45,0,0,9.48-4.91,18.82,1.7l-4.57,2.02s8.97,17.11-8.38,26.56l5.15-.4s-13.19,7.61-25.42,3.14c0,0,1.93,1.49,3.66,5.35,0,0-11.41-12.32-27.12-7.5,0,0,8.49-4.6,5.52-15.18Z"/>
    <g>
      <ellipse class="cls-4" cx="156" cy="405.48" rx="3.71" ry="2.71" transform="translate(-277.54 377.29) rotate(-65.24)"/>
      <circle class="cls-4" cx="153.28" cy="415.32" r="1.48"/>
      <path class="cls-4" d="M163.25,399.09s8.71,6.63,1.88,16.3c-6.44,9.11-15.85,3.09-15.85,3.09,0,0,1.59,1.52,4.18,2.63,3.66,1.58,9.3,2.34,15.2-3.2,9.29-8.71.14-19.95.14-19.95,0,0-2.96-.13-5.55,1.13Z"/>
    </g>
    <path class="cls-3" d="M119.65,461.09s-3.45-2.54-6.72-1.99c-.54.09-1.08.27-1.6.56-.5.28-.99.66-1.43,1.18,0,0-.01.02-.02.03-2.91,4.1,1.18,11.39,7.3,7.09,0,0-3.88,5.34-11.66,6.18-6.01.65-12.35-13.63-10.69-4.18,0,0-3.79-3.62-3.86-8.02-.06-3.36,2.05-7.18,9.66-10.19,9.47-3.75,14.17-4.48,16.8-4.08h0c1.03.15,1.74.48,2.3.87.66.45,1.11.99,1.6,1.43,1.98,1.73,2.22,7.03-1.69,11.12Z"/>
    <path class="cls-13" d="M117.19,467.97s-3.88,5.34-11.66,6.18c-6.01.65-12.35-13.63-10.69-4.18,0,0-3.79-3.62-3.86-8.02.76,2.22,2.19,4.97,2.47,4.45,1.1-2.04,2.72-.16,2.72-.16,2.27,2,4.75,2.7,6.82,2.86,2.24.17,4.24-1.49,4.44-3.73.42-4.54,3.92-5.7,3.92-5.7-.5.28-.99.66-1.43,1.18,0,0-.01.02-.02.03-2.91,4.1,1.18,11.39,7.3,7.09Z"/>
    <path class="cls-13" d="M119.65,461.09s-3.45-2.54-6.72-1.99c8.73-3.5,6.81-10.56,6.81-10.56.66.45,1.11.99,1.6,1.43,1.98,1.73,2.22,7.03-1.69,11.12Z"/>
    <ellipse class="cls-4" cx="103.38" cy="454.9" rx="9.51" ry="1.03" transform="translate(-159.48 69.51) rotate(-21.49)"/>
    <path class="cls-1" d="M181.96,448.6s-3.64,3.3-6.52,8.26c-2.92,5.04-6.37,15.31-23.74,22.17-17.85,7.05-32.5,3.51-36.18,10.53-.52-.54-.76-.88-.76-.88l-1.03-2.02-4.05.52s-.16.01-.46.02c0,0,5.95-4.96,1.77-12.48-.57-1.03,1.72-2,1.72-2l-.02,2.22s12.51,10.88,37.49.24c22.12-9.43,18.14-26.94,31.78-26.58Z"/>
    <path class="cls-4" d="M93.45,441.59h0c-9.56-5.66-8.22-15.86-6.36-20.39,2.42-.05,2.38.27,2.38.27-5.86,11.13,3.98,20.12,3.98,20.12Z"/>
    <g>
      <ellipse class="cls-4" cx="93.12" cy="425.94" rx="2.1" ry="2.88" transform="translate(-168.44 77.11) rotate(-24.53)"/>
      <circle class="cls-4" cx="95.2" cy="433.58" r="1.15"/>
    </g>
    <path class="cls-2" d="M146.01,461.45s11.5-2.14,16.36-1.15l2.9-5.42s-8.19-.2-19.25,6.56Z"/>
    <path class="cls-2" d="M142.91,457.36s14.3-7.49,23.36-8.85l-1.66-3.58s-11.19,3.65-21.7,12.44Z"/>
    <path class="cls-2" d="M162.66,440.55l-18.18,7.99,15.73-10.6s1.81,1.31,2.45,2.6Z"/>
    <g>
      <path class="cls-1" d="M141.02,451.03s34.44-36.93,84.29-20.14c0,0-44.07-10.05-84.29,20.14Z"/>
      <path class="cls-1" d="M142.91,457.36s41.5-43.74,87.65,8.96c0,0-37.09-44.43-87.65-8.96Z"/>
      <path class="cls-1" d="M146.01,461.45s29.71-25.48,72.16,8.56c0,0-32.97-24.34-72.16-8.56Z"/>
    </g>
    <g>
      <path class="cls-1" d="M93.41,473.55c-1.26.6-2.48,1.23-3.67,1.88-.09-.17-.19-.34-.27-.51,2.42-.97,3.94-1.37,3.94-1.37Z"/>
      <path class="cls-1" d="M99.03,476.44c-2.31,1-4.43,2.08-6.38,3.22-.14-.16-.27-.33-.41-.5-.09-.11-.18-.22-.26-.34,4.06-1.79,7.05-2.39,7.05-2.39Z"/>
      <path class="cls-1" d="M104.84,478.91c-2.32,1.8-4.35,3.71-6.15,5.71-.59-.31-1.18-.66-1.76-1.06,4.24-3.49,7.91-4.65,7.91-4.65Z"/>
    </g>
    <path class="cls-2" d="M243.9,391.19c-.75,2.07-1.33,3.28-1.4,3.41.07-1.74.09-3.41.06-5.02.42.51.87,1.05,1.33,1.62Z"/>
    <path class="cls-2" d="M99.55,431.95c1.11-5.51-.46-9.57-6.64-16.91.18.26,2.26,3.45,2.15,6.81,0,0-3.05-3.86-7.76-3.62,0,0-.33-1.38-.62-3.6,0,0,2.36-1.66,4.29-1.28l-2.7-3.01c.38.07,16.69,3.26,11.28,21.6Z"/>
    <path class="cls-2" d="M127.14,407.4s1.08-17.42,17.81-29.79c0,0-13.61,11.95-17.81,29.79Z"/>
    <path class="cls-2" d="M103.5,418.01s-1.23-8.43-9.87-13.78c0,0,7.11,5.27,9.87,13.78Z"/>
    <path class="cls-2" d="M152.86,341.33s-.42.12-1.18.41c-4.32,1.64-19.54,8.84-30.52,31.59.1-.4,3.15-12.12,10.35-24.76,5.93-2.86,12.71-5.32,20.44-7.19.29-.07.57-.14.85-.21.02.05.04.11.07.16Z"/>
    <path class="cls-2" d="M164.57,338.99c-4.57,1.65-13.97,6.42-22.05,19.39.1-.28,3.13-8.29,9.15-16.65.08-.12.17-.24.27-.36.29-.07.57-.14.85-.21,3.71-.87,7.63-1.6,11.78-2.18Z"/>
    <path class="cls-2" d="M125.41,351.79c-3.64,2.53-9.18,7.77-13.05,17.7,0,0,.84-4.87,3.23-10.97,2.93-2.35,6.19-4.62,9.82-6.73Z"/>
    <path class="cls-2" d="M283.46,446.59l-8.81-10.52s19.68,57.28,1.84,104.64c.04-.46,1.49-15-.42-28.58.42,4.28.25,24.12-31.57,58.77l8.15-13.74c-3.22,5.06-17.25,24.26-55.62,43.89,0,0,34.31-29.32,48.87-71.65-.2.38-6.76,12.74-38.56,42.27-32.3,30.01-27.59,49.24-27.59,49.24,0,0-18.4-26.23,8.23-62.27,26.63-36.06,32.75-44.07,32.52-54.31,1.7,13.93-3.98,20.78-16.62,42.35-12.44,21.23-14.53,31.11-14.59,31.42.24-.42,9.26-16.34,38-37.64,29.14-21.58,32.36-39.31,32.36-39.31l3.28,19.64c24.12-44.16,2.34-83.72,2.34-83.72l8.8,6.14c-5.63-28.36-16.34-46.95-21.36-53.65h0c1.17-7.95-.19-11.86-.19-11.86l.19-.35c3.41,4.08,20.05,25.65,30.75,69.24Z"/>
    <path class="cls-2" d="M165.53,581.91c-1.42-20.89-8.34-27.94-8.34-27.94,2.13,23.26-18.69,45.63-18.69,45.63,8.41-23.65,1.95-58.72,1.95-58.72-7.28,30.02-32.95,50.44-32.95,50.44,37.16-58.62,26.15-84.32,25.87-84.96.32.32,10.15,10.42,3.3,32.25l4.83-11.75s9.47,22.43,5.97,42.56c.18-.4,7.94-15.37,8.35-27.67,0,0,5.07,6.91,7.99,18.41,0,0,2.68-5.59,4.97-13.19,3.41,20.27-3.26,34.93-3.26,34.93Z"/>
    <path class="cls-2" d="M242.5,394.6c.07-1.74.09-3.41.06-5.02-.02-2-.11-3.91-.26-5.71-2.47-30.23-21.16-33.76-21.16-33.76,6.11-2.5,10.44-1.69,10.67-1.64-25.16-10.02-35.42,13.4-35.42,13.4,7.42-1.96,17.45.05,17.45.05-12.48,3.38-20.22,12.11-20.51,12.44.17-.35,2.91-5.95,6.92-9.59,0,0-5.49.17-9.89,2.69,0,0,2.63-18.22,20.16-23.46,17.72-5.3,27.84,5.75,27.84,5.75l-5.34.6s15.04,7.61,9.5,44.25Z"/>
  </g>
  <path class="cls-4" d="M320.03,577.57l-1.82-2.61c-.32-.46-7.41-10.67-16.29-25.32l-9.15,2.79s-16.95,10.84-17.46,10.84c-9.65,0-46.08.21-62.47-16.58-13.05-13.37-7.68-30.01-.35-38.98-.72-2.39-1.19-4.85-1.39-7.33-.77-9.64,3.05-18.33,10.51-24.16-.56-3.03-.75-6.04-.58-8.97.74-12.56,8.48-23.26,21.22-29.37.22-.11.45-.21.69-.31,1.79-.79,3.72-1.36,5.7-1.67,1.17-.18,2.37-.28,3.57-.28,1.31,0,2.62.11,3.91.33,3.27-4.2,7.27-7.36,11.91-9.4,2.37-1.05,4.88-1.78,7.45-2.19,1.58-.25,3.22-.37,4.86-.37s3.3.12,4.97.36c1.18.17,2.37.42,3.58.74,6.01-6.04,12.21-10.98,17.62-14.79-.46-.22-.76-.37-.88-.44l-12.23-6.7,13.23-4.4c8.77-2.92,10.1-8.72,11.63-15.43l.34-1.46c.88-3.73,1.99-7.15,3.15-10.15l-11.96,3.42,6.71-12.64c3.5-6.58,8.2-12.22,11.41-15.68-18.84-30.93-7.29-49.82,1.5-58.45,8.31-8.16,18.25-12.3,29.54-12.3s20.28,3.99,25.1,6.49c4.82-2.63,9.27-3.88,11.8-4.44,9.02-8.49,20.62-12.97,33.67-12.97,9.07,0,16.75,2.16,20.57,3.48,3.83-1.31,11.51-3.48,20.57-3.48,13.05,0,24.65,4.48,33.67,12.97,2.53.56,6.97,1.82,11.8,4.44,4.82-2.5,14.2-6.49,25.1-6.49s21.23,4.14,29.54,12.3c8.79,8.63,20.34,27.52,1.5,58.45,3.21,3.46,7.91,9.1,11.41,15.68l6.71,12.64-11.96-3.42c1.16,3,2.27,6.42,3.15,10.15l.34,1.46c1.53,6.71,2.85,12.51,11.63,15.43l13.23,4.4-12.23,6.7c-.12.06-.41.22-.88.44,5.41,3.81,11.61,8.74,17.61,14.78,1.19-.32,2.37-.56,3.54-.73,1.67-.24,3.34-.36,4.97-.36s3.29.13,4.87.37c2.57.4,5.07,1.14,7.45,2.18,4.64,2.05,8.64,5.21,11.91,9.4,1.3-.22,2.6-.33,3.91-.33,1.2,0,2.4.09,3.57.28,1.98.31,3.91.87,5.73,1.68.21.09.43.19.65.3,12.75,6.11,20.49,16.82,21.23,29.38.17,2.93-.02,5.94-.58,8.97,7.47,5.83,11.28,14.52,10.51,24.17-.2,2.49-.66,4.95-1.39,7.33,7.33,8.97,12.7,25.61-.35,38.98-16.39,16.79-49.14,16.88-58.79,16.88,0,0-.94,1.21-1.27,1.21l-1.83-.03-18.03-12.32-9.11-2.78c-8.87,14.65-15.96,24.84-16.28,25.31l-1.82,2.61h-260.16Z"/>
  <rect class="cls-1" x="281.24" y="554.36" width="347.7" height="27.17"/>
  <path class="cls-1" d="M625.14,454.89c-14.47-31.79-49.91-48.68-49.91-48.68,9.19,2.29,16.43-1.68,16.43-1.68-12.85-4.27-14.27-14.05-15.97-21.27-2.93-12.47-8.75-21.17-8.75-21.17l11.4,3.26c-5.29-9.97-13.77-17.71-13.77-17.71,2.51-4.07,24.15-33.17,1.97-54.94-22.19-21.78-50.47-3.11-50.47-3.11-7.41-4.94-14.65-5.85-14.65-5.85-20.26-20.65-48.45-9.81-51.31-8.64-2.86-1.17-31.05-12.01-51.31,8.64,0,0-7.24.91-14.65,5.85,0,0-28.28-18.67-50.47,3.11-22.18,21.77-.53,50.87,1.97,54.94,0,0-8.48,7.73-13.77,17.71l11.4-3.26s-5.81,8.7-8.75,21.17c-1.7,7.21-3.12,16.99-15.97,21.27,0,0,7.24,3.97,16.43,1.68,0,0-35.45,16.89-49.91,48.68-13.06,28.71,48.12,116.6,48.12,116.6h253.81s61.19-87.89,48.12-116.6Z"/>
  <path class="cls-14" d="M606.46,463.04s-8.87-34.32-35.41-43.03l6.88,12.15c-12.87-6.15-22.78-2.74-22.78-2.74-7.09,11.99-7.1,26.42-6.71,32.53.11,1.87.27,2.96.27,2.96-2.57-6.33-8.69-9.04-8.69-9.04,7.31,16.17,5.93,29.99,5.93,29.99-8.32-11.49-23.55-14.35-23.55-14.35,2.55,24.74-9.41,40.36-8.71,39.72,15.64-14.41,17.43-25.42,17.43-25.42,16.13,9.19,30,24.44,30,24.44-10.02-20.1-6.3-51.19-6.3-51.19,6.21,7.84,10.31,22.17,10.31,22.17-.02-3.3-.19-6.57-.47-9.78l13.61-8.15-.04-3.37c.19.81.38,1.64.57,2.5,0,0,1.66-6.52.83-12.74,0,0,8.2,1.63,14.08,17.46,0,0-.08-17.67-11.66-30.42,0,0,14.11,10.19,24.42,26.32Z"/>
  <path class="cls-14" d="M296.14,463.04s8.87-34.32,35.41-43.03l-6.88,12.15c12.87-6.15,22.78-2.74,22.78-2.74,7.09,11.99,7.1,26.42,6.71,32.53-.11,1.87-.27,2.96-.27,2.96,2.57-6.33,8.69-9.04,8.69-9.04-7.31,16.17-5.93,29.99-5.93,29.99,8.32-11.49,23.55-14.35,23.55-14.35-2.55,24.74,9.41,40.36,8.71,39.72-15.64-14.41-17.43-25.42-17.43-25.42-16.13,9.19-30,24.44-30,24.44,10.02-20.1,6.3-51.19,6.3-51.19-6.21,7.84-10.31,22.17-10.31,22.17.02-3.3.19-6.57.47-9.78l-13.61-8.15.04-3.37c-.19.81-.38,1.64-.57,2.5,0,0-1.66-6.52-.83-12.74,0,0-8.2,1.63-14.08,17.46,0,0,.08-17.67,11.66-30.42,0,0-14.11,10.19-24.42,26.32Z"/>
  <path class="cls-1" d="M290.11,546.89l32.1-9.8c10.8-4.92,22.92-9.47,26.13-10.66l14.14-19.23c1.29-1.75,12.04-17.34-.28-36.99-3.71-5.91-8.98-11.35-12.75-14.86-3.63-3.38-7.95-5.72-12.49-6.75-3.1-.71-6.14-.84-9.04-.38-1.85.29-3.67.83-5.41,1.59-.42.19-2.68,1.34-4.57,2.33l-1.88.99-10.94-11.18c-1.61-1.68-10.1-10.04-20.7-11.58-2.77-.4-5.46-.4-8.02,0-2.05.32-4.04.91-5.93,1.74-4.22,1.86-7.81,4.91-10.65,9.06l-1.14,1.67-2.07-.56c-2.31-.61-4.72-.73-7.04-.37-1.46.23-2.87.64-4.21,1.23-.16.07-.32.15-.48.22-10.69,5.13-17.17,13.96-17.78,24.25-.18,3.02.12,6.16.88,9.33l.46,1.93-1.65,1.1c-6.77,4.54-10.28,11.8-9.63,19.93.2,2.59.76,5.13,1.65,7.56l.6,1.64-1.19,1.28c-4.39,4.71-13.14,19.65-1.03,32.06,15.73,16.12,49.95,16.33,55.62,16.25l17.29-11.81Z"/>
  <path class="cls-4" d="M333.33,482.92s13.83-3.43,21.12,18.37c0,0,11.25-15.31-9.27-37.61,0,0-5.82,1.37-9.33,7.13-1.74,2.84-2.91,6.76-2.53,12.11Z"/>
  <path class="cls-14" d="M341.25,461.07s-16.63,4.9-12.74,24.31c0,0,4.32,5.76-2.4,11.18,0,0,1.69-4.75-1.83-11.2-3.52-6.46-.94-12.2-.94-12.2,0,0-3.48,3.7-1.18,14.47,2.31,10.77-10.58,17.35-10.58,17.35,0,0,10.8-23.9,1.52-44.93,0,0,4.88,3.74,12.33-.55s15.82,1.58,15.82,1.58Z"/>
  <path class="cls-4" d="M286.11,462.89s14.13,1.77,25.12,19.11c0,0,3.08-18.72-12.81-30.89,0,0-3.68.36-7.05,2.83-2.38,1.74-4.6,4.52-5.26,8.95Z"/>
  <path class="cls-14" d="M264.9,453.63c3.63-1.21,5.9,3.18,5.9,3.18.06-.31.13-.65.19-1l.19-.98.31-1.66c.01.07.04.15.05.22,1.31,5.77,4.22,7.57,4.22,7.57.12-5.39,1.52-7.51,1.52-7.51-.98,9.11,5.05,11.45,5.05,11.45-1.4-17.9,15.6-16.06,15.6-16.06,0,0,0,0-.02-.01l-.58-.58c-1.87-1.78-7.89-7.07-14.31-8-14.5-2.11-18.11,13.39-18.11,13.39Z"/>
  <path class="cls-4" d="M271.06,495.29c14.59,2.31,29.27,14.07,29.72,14.44,0,0,.01,0,.01,0-2.4-24.08-25.09-39.19-25.09-39.19-4.69,2.23-8.3,5.11-10.69,8.11-1.03,1.3-1.83,2.61-2.39,3.92-2.51,5.86-.11,11.35,8.43,12.71Z"/>
  <path class="cls-14" d="M247.39,491.58h0c1.3-4.06-1.32-8.71-1.45-8.95,4.75,2.07,10.22,7.66,10.22,7.66-1.11-21.03,18.5-23.85,18.5-23.85-3.96-2.93-8.03-4.96-8.03-4.96l6,.36c-8.45-6.57-15.17-9.04-18.61-9.95-1.62-.42-3.32-.26-4.82.46-3.94,1.89-11.59,6.71-12.14,15.84-.71,12.15,9.99,23.06,10.32,23.39Z"/>
  <path class="cls-4" d="M246.59,516.21c10.21-1.06,30.7,10.51,31.31,10.85,0,0,.01,0,.01,0-6.77-14.53-17.77-23.61-17.77-23.61-11.1.56-13.55,12.75-13.55,12.75Z"/>
  <path class="cls-14" d="M227.11,499.12c.41,5.16,2.86,9.02,5.06,11.52h0c1.85,2.09,3.51,3.21,3.65,3.3-.06-.15-1.21-2.6-1.65-4.67.19.34,3.2,5.78,8.36,7.22,0,0,.09-11.89,12.51-15.87l-4.24-1.03,4.85-.36s-8.16-5.13-14.58-5.88l-1.98-.13,2.43-1.49-2.99-1.68,4.26.21s-2.53-4.22-4.86-4.2c-2.32.03-11.6,3.38-10.84,13.05Z"/>
  <path class="cls-14" d="M291.97,476.16s11.48-.62,18.16,12.95c0,0-8.14-8.03-18.16-12.95Z"/>
  <path class="cls-14" d="M283.59,506.67s12.9,3.53,9.35,29.12c0,0,7.75-2.09,9.32-10.62s-9.28-16.85-18.68-18.49Z"/>
  <path class="cls-14" d="M304.17,519.65s3.35,5.7-.11,12.23c0,0,5.82-4.57.11-12.23Z"/>
  <path class="cls-14" d="M342.04,494.59c.33-.38-.52,5.74-4.2,8.36,0,0,2.71,14.82-19.93,25.15,0,0,9.39-11.73,8.98-22.65,0,0,9.25-4.08,15.15-10.86Z"/>
  <path class="cls-11" d="M333.33,482.92s13.83-3.43,21.12,18.37c0,0,3.78-27.27-18.6-30.48-1.74,2.84-2.91,6.76-2.53,12.11Z"/>
  <path class="cls-1" d="M354.45,501.29s-.26-20.35-15.53-24.52c0,0,11.71,3.39,15.53,24.52Z"/>
  <path class="cls-11" d="M286.11,462.89s14.13,1.77,25.12,19.11c0,0-2.06-16.68-11.85-24.44-4.89-3.87-12.28-.96-13.25,5.2,0,.04-.01.09-.02.13Z"/>
  <path class="cls-1" d="M311.23,482s-6.65-20.39-19.26-22.84c0,0,10.7,5.08,19.26,22.84Z"/>
  <path class="cls-11" d="M261.78,488.04c.55,3.53,3.51,6.33,9.28,7.25,14.59,2.31,29.27,14.07,29.72,14.44-.39-.62-11.48-17.64-31.33-25.09-3.03-1.14-6.5.29-7.64,3.32,0,.02-.02.05-.03.07Z"/>
  <path class="cls-1" d="M300.78,509.73c.58.55-13.13-15.24-30.33-18.15,0,0,15.48,3.91,30.33,18.15Z"/>
  <path class="cls-11" d="M246.59,516.21c10.21-1.06,30.7,10.51,31.31,10.85-.47-.45-15.61-14.81-25.7-16.42,0,0-2.41-.37-5.61,5.56Z"/>
  <path class="cls-1" d="M277.67,527.07s-10.94-8.79-22.99-12.2c0,0,10.43,1.22,22.99,12.2Z"/>
  <path class="cls-12" d="M227.11,499.12c.41,5.16,2.86,9.02,5.06,11.52-6.43-18.87,5.78-24.57,5.78-24.57-2.32.03-11.6,3.38-10.84,13.05Z"/>
  <path class="cls-12" d="M247.39,491.58c-13-27.63,9.3-34.09,10.4-34.39-3.52,1.27-5.33,4.44-5.44,4.64,6.33-5.32,20.29,0,20.29,0-8.45-6.57-15.17-9.04-18.61-9.95-1.62-.42-3.32-.26-4.82.46-3.94,1.89-11.59,6.71-12.14,15.84-.71,12.15,9.99,23.06,10.32,23.39Z"/>
  <path class="cls-12" d="M264.9,453.63c3.63-1.21,5.9,3.18,5.9,3.18.06-.31.13-.65.19-1,.06-.33.11-.66.19-.98.11-.51.22-.98.36-1.44,4.69-16.2,25.6-4.99,26.37-4.57l-.58-.58c-1.87-1.78-7.89-7.07-14.31-8-14.5-2.11-18.11,13.39-18.11,13.39Z"/>
  <g>
    <path class="cls-6" d="M442.99,536.37c-2.98-4.81-3.82-10.61-3.82-10.61,4.96,4.88,10.3,5.04,10.3,5.04,0,0,5.34-.15,10.3-5.04,0,0-.84,5.8-3.82,10.61,0,0,8.93-5.42,16.1-19.92,0,0-5.8,26.86-22.59,36.32-16.79-9.46-22.59-36.32-22.59-36.32,7.17,14.5,16.1,19.92,16.1,19.92Z"/>
    <path class="cls-6" d="M407.77,495.6s4.88,30.12,27.88,53.72c0,0-3.66,0-8.75-4.88,0,0,5.49,13.23,15.47,20.35-1.87-1.45-19.94-6.1-32.97-22.79,0,0-1.42,8.34,11.4,21.57,0,0-20.35-6.92-25.84-38.87,0,0,2.65,5.29,12.82,10.99,0,0-3.26-11.6,0-40.09Z"/>
    <path class="cls-6" d="M492.44,495.6s-4.88,30.12-27.88,53.72c0,0,3.66,0,8.75-4.88,0,0-5.49,13.23-15.47,20.35,1.87-1.45,19.94-6.1,32.97-22.79,0,0,1.42,8.34-11.4,21.57,0,0,20.35-6.92,25.84-38.87,0,0-2.65,5.29-12.82,10.99,0,0,3.26-11.6,0-40.09Z"/>
  </g>
  <g>
    <path class="cls-1" d="M610.07,546.89l-32.1-9.8c-10.8-4.92-22.92-9.47-26.13-10.66l-14.14-19.23c-1.29-1.75-12.04-17.34.28-36.99,3.71-5.91,8.98-11.35,12.75-14.86,3.63-3.38,7.95-5.72,12.49-6.75,3.1-.71,6.14-.84,9.04-.38,1.85.29,3.67.83,5.41,1.59.42.19,2.68,1.34,4.57,2.33l1.88.99,10.94-11.18c1.61-1.68,10.1-10.04,20.7-11.58,2.77-.4,5.46-.4,8.02,0,2.05.32,4.04.91,5.93,1.74,4.22,1.86,7.81,4.91,10.65,9.06l1.14,1.67,2.07-.56c2.31-.61,4.72-.73,7.04-.37,1.46.23,2.87.64,4.21,1.23.16.07.32.15.48.22,10.69,5.13,17.17,13.96,17.78,24.25.18,3.02-.12,6.16-.88,9.33l-.46,1.93,1.65,1.1c6.77,4.54,10.28,11.8,9.63,19.93-.2,2.59-.76,5.13-1.65,7.56l-.6,1.64,1.19,1.28c4.39,4.71,13.14,19.65,1.03,32.06-15.73,16.12-49.95,16.33-55.62,16.25l-17.29-11.81Z"/>
    <path class="cls-4" d="M566.85,482.92s-13.83-3.43-21.12,18.37c0,0-11.25-15.31,9.27-37.61,0,0,5.82,1.37,9.33,7.13,1.74,2.84,2.91,6.76,2.53,12.11Z"/>
    <path class="cls-14" d="M558.93,461.07s16.63,4.9,12.74,24.31c0,0-4.32,5.76,2.4,11.18,0,0-1.69-4.75,1.83-11.2,3.52-6.46.94-12.2.94-12.2,0,0,3.48,3.7,1.18,14.47-2.31,10.77,10.58,17.35,10.58,17.35,0,0-10.8-23.9-1.52-44.93,0,0-4.88,3.74-12.33-.55-7.45-4.29-15.82,1.58-15.82,1.58Z"/>
    <path class="cls-4" d="M614.07,462.89s-14.13,1.77-25.12,19.11c0,0-3.08-18.72,12.81-30.89,0,0,3.68.36,7.05,2.83,2.38,1.74,4.6,4.52,5.26,8.95Z"/>
    <path class="cls-14" d="M635.28,453.63c-3.63-1.21-5.9,3.18-5.9,3.18-.06-.31-.13-.65-.19-1l-.19-.98-.31-1.66c-.01.07-.04.15-.05.22-1.31,5.77-4.22,7.57-4.22,7.57-.12-5.39-1.52-7.51-1.52-7.51.98,9.11-5.05,11.45-5.05,11.45,1.4-17.9-15.6-16.06-15.6-16.06,0,0,0,0,.02-.01l.58-.58c1.87-1.78,7.89-7.07,14.31-8,14.5-2.11,18.11,13.39,18.11,13.39Z"/>
    <path class="cls-4" d="M629.12,495.29c-14.59,2.31-29.27,14.07-29.72,14.44,0,0-.01,0-.01,0,2.4-24.08,25.09-39.19,25.09-39.19,4.69,2.23,8.3,5.11,10.69,8.11,1.03,1.3,1.83,2.61,2.39,3.92,2.51,5.86.11,11.35-8.43,12.71Z"/>
    <path class="cls-14" d="M652.79,491.58h0c-1.3-4.06,1.32-8.71,1.45-8.95-4.75,2.07-10.22,7.66-10.22,7.66,1.11-21.03-18.5-23.85-18.5-23.85,3.96-2.93,8.03-4.96,8.03-4.96l-6,.36c8.45-6.57,15.17-9.04,18.61-9.95,1.62-.42,3.32-.26,4.82.46,3.94,1.89,11.59,6.71,12.14,15.84.71,12.15-9.99,23.06-10.32,23.39Z"/>
    <path class="cls-4" d="M653.59,516.21c-10.21-1.06-30.7,10.51-31.31,10.85,0,0-.01,0-.01,0,6.77-14.53,17.77-23.61,17.77-23.61,11.1.56,13.55,12.75,13.55,12.75Z"/>
    <path class="cls-14" d="M673.07,499.12c-.41,5.16-2.86,9.02-5.06,11.52h0c-1.85,2.09-3.51,3.21-3.65,3.3.06-.15,1.21-2.6,1.65-4.67-.19.34-3.2,5.78-8.36,7.22,0,0-.09-11.89-12.51-15.87l4.24-1.03-4.85-.36s8.16-5.13,14.58-5.88l1.98-.13-2.43-1.49,2.99-1.68-4.26.21s2.53-4.22,4.86-4.2c2.32.03,11.6,3.38,10.84,13.05Z"/>
    <path class="cls-14" d="M608.21,476.16s-11.48-.62-18.16,12.95c0,0,8.14-8.03,18.16-12.95Z"/>
    <path class="cls-14" d="M616.59,506.67s-12.9,3.53-9.35,29.12c0,0-7.75-2.09-9.32-10.62-1.57-8.53,9.28-16.85,18.68-18.49Z"/>
    <path class="cls-14" d="M596.01,519.65s-3.35,5.7.11,12.23c0,0-5.82-4.57-.11-12.23Z"/>
    <path class="cls-14" d="M558.14,494.59c-.33-.38.52,5.74,4.2,8.36,0,0-2.71,14.82,19.93,25.15,0,0-9.39-11.73-8.98-22.65,0,0-9.25-4.08-15.15-10.86Z"/>
    <path class="cls-11" d="M566.85,482.92s-13.83-3.43-21.12,18.37c0,0-3.78-27.27,18.6-30.48,1.74,2.84,2.91,6.76,2.53,12.11Z"/>
    <path class="cls-1" d="M545.73,501.29s.26-20.35,15.53-24.52c0,0-11.71,3.39-15.53,24.52Z"/>
    <path class="cls-11" d="M614.07,462.89s-14.13,1.77-25.12,19.11c0,0,2.06-16.68,11.85-24.44,4.89-3.87,12.28-.96,13.25,5.2,0,.04.01.09.02.13Z"/>
    <path class="cls-1" d="M588.95,482s6.65-20.39,19.26-22.84c0,0-10.7,5.08-19.26,22.84Z"/>
    <path class="cls-11" d="M638.4,488.04c-.55,3.53-3.51,6.33-9.28,7.25-14.59,2.31-29.27,14.07-29.72,14.44.39-.62,11.48-17.64,31.33-25.09,3.03-1.14,6.5.29,7.64,3.32,0,.02.02.05.03.07Z"/>
    <path class="cls-1" d="M599.4,509.73c-.58.55,13.13-15.24,30.33-18.15,0,0-15.48,3.91-30.33,18.15Z"/>
    <path class="cls-11" d="M653.59,516.21c-10.21-1.06-30.7,10.51-31.31,10.85.47-.45,15.61-14.81,25.7-16.42,0,0,2.41-.37,5.61,5.56Z"/>
    <path class="cls-1" d="M622.51,527.07s10.94-8.79,22.99-12.2c0,0-10.43,1.22-22.99,12.2Z"/>
    <path class="cls-12" d="M673.07,499.12c-.41,5.16-2.86,9.02-5.06,11.52,6.43-18.87-5.78-24.57-5.78-24.57,2.32.03,11.6,3.38,10.84,13.05Z"/>
    <path class="cls-12" d="M652.79,491.58c13-27.63-9.3-34.09-10.4-34.39,3.52,1.27,5.33,4.44,5.44,4.64-6.33-5.32-20.29,0-20.29,0,8.45-6.57,15.17-9.04,18.61-9.95,1.62-.42,3.32-.26,4.82.46,3.94,1.89,11.59,6.71,12.14,15.84.71,12.15-9.99,23.06-10.32,23.39Z"/>
    <path class="cls-12" d="M635.28,453.63c-3.63-1.21-5.9,3.18-5.9,3.18-.06-.31-.13-.65-.19-1-.06-.33-.11-.66-.19-.98-.11-.51-.22-.98-.36-1.44-4.69-16.2-25.6-4.99-26.37-4.57l.58-.58c1.87-1.78,7.89-7.07,14.31-8,14.5-2.11,18.11,13.39,18.11,13.39Z"/>
    <g>
      <path class="cls-4" d="M660.9,541.44c-15.71,5.31-27.17-5.45-27.17-5.45,17.01.43,24.75-8.47,24.75-8.47,6.64,6.05,2.42,13.92,2.42,13.92Z"/>
      <path class="cls-14" d="M675.51,535.84c-.61.67-1.29,1.27-2.02,1.82h0c-4.52,3.38-10.78,4.48-10.78,4.48,0,0,9.11-10.85-3.85-18.15,0,0,4.39-3.08,10.21,1.81,0,0-.81-1.94-4.47-4.52,0,0,2.65-1.2,7.33.66l-2.19-2.14s4.07.46,4.91-2.6c0,0,9,9.64.85,18.65Z"/>
      <path class="cls-11" d="M657.91,535.99c-11.14,3.25-24.18,0-24.18,0,17.01.43,24.75-8.47,24.75-8.47,4.84,5.78-.57,8.47-.57,8.47Z"/>
      <path class="cls-1" d="M633.73,535.99s15.33,2.16,23.57-4.1c0,0-6.07,7.17-23.57,4.1Z"/>
      <path class="cls-12" d="M675.51,535.84c-.61.67-1.29,1.27-2.02,1.82h0s5.04-14.02-3.74-17.87c0,0,4.07.46,4.91-2.6,0,0,9,9.64.85,18.65Z"/>
    </g>
  </g>
  <g>
    <path class="cls-4" d="M239.28,541.44c15.71,5.31,27.17-5.45,27.17-5.45-17.01.43-24.75-8.47-24.75-8.47-6.64,6.05-2.42,13.92-2.42,13.92Z"/>
    <path class="cls-14" d="M224.67,535.84c.61.67,1.29,1.27,2.02,1.82h0c4.52,3.38,10.78,4.48,10.78,4.48,0,0-9.11-10.85,3.85-18.15,0,0-4.39-3.08-10.21,1.81,0,0,.81-1.94,4.47-4.52,0,0-2.65-1.2-7.33.66l2.19-2.14s-4.07.46-4.91-2.6c0,0-9,9.64-.85,18.65Z"/>
    <path class="cls-11" d="M242.27,535.99c11.14,3.25,24.18,0,24.18,0-17.01.43-24.75-8.47-24.75-8.47-4.84,5.78.57,8.47.57,8.47Z"/>
    <path class="cls-1" d="M266.45,535.99s-15.33,2.16-23.57-4.1c0,0,6.07,7.17,23.57,4.1Z"/>
    <path class="cls-12" d="M224.67,535.84c.61.67,1.29,1.27,2.02,1.82h0s-5.04-14.02,3.74-17.87c0,0-4.07.46-4.91-2.6,0,0-9,9.64-.85,18.65Z"/>
  </g>
  <path class="cls-1" d="M275.89,547.22l-36.83,7.14s17.49,7,35.19,8.82c17.7,1.82,157.48,10.38,157.48,10.38l197.22-8.77s24.19-5.17,34.9-12.01c10.71-6.84-34.9-3.63-34.9-3.63l-25.95-9.61h-22.55l-91.25,25.24-55.5,3.16-33.4-3.16-89.05-28.03-35.34,10.47Z"/>
  <g>
    <path class="cls-1" d="M829.88,710.48c.03-1.18.05-2.38.05-3.61,0-10.92-1.17-19.78-3.58-27.05l2.18.14v-45.37c0-12.01-1.26-21.43-3.83-28.8-2.42-7.03-6.2-13.28-11.25-18.59-11.4-12.12-27.15-18.26-46.93-18.26-10.99.02-20.03,1.72-27.46,4.43v-2.02s-21.77-.05-21.77-.05c-17.36-.04-34.72-.08-52.09-.11h0s-21.76-.05-21.76-.05c-.25,0-.51,0-.76,0l-14.98-.03h0c-23.86-.03-47.72-.07-71.58-.09h-3.13s0,0,0,0h-4.5s-14.37-.02-14.37-.02h0s-53.07-.03-53.07-.03h0s-2.88,0-2.88,0h-1.48s0,0,0,0h-17.53s-56.7,0-56.7,0l-51.5.04h0s-14.1.01-14.1.01h-18.16v.02l-21.78.03h0s-13.34.02-13.34.02h-9.47v.02l-28.81.05h0s-15.34.03-15.34.03l-9.03.02h0s-19.74.05-19.74.05h0s-14.49.03-14.49.03l-18.1.04h0s-19.93.05-19.93.05l-78.46.25v151.37c0,12.9,1.62,22.42,5.11,29.93,4.49,9.97,16.32,26.41,45.53,26.41,5.67,0,11.68-.59,18.34-1.79,11.25-2,20.74-5.01,28.71-9.09v2.04s25.12-3.63,25.12-3.63c10.74-1.55,21.66-3.03,32.44-4.39l19.08-2.4s20.4-2.13,23.44-2.44c7.92-.81,15.96-1.57,23.89-2.27l2.45-.22,2.92-.25c10.84-.93,21.86-1.76,32.75-2.49l5.93-.4,5.51-.33c9.58-.58,19.27-1.09,28.79-1.51l9.53-.42,9.56-.32c7.28-.25,14.7-.45,22.04-.61l9.52-.21,9.4-.1c6.54-.07,13.19-.11,19.75-.11,3.02,0,6.04,0,9.07.02h1.56s4.52.04,4.52.04c11.43.1,22.99.3,34.37.62l14.46.4,14.52.63c11.32.5,22.82,1.11,34.17,1.82l9.23.58,9.32.68c11.46.84,23.06,1.8,34.47,2.86l16.17,1.5,16.01,1.77c22.16,2.45,44.58,5.36,66.64,8.64l25.22,3.75v-.05c.75.29,1.51.58,2.28.85,6.29,2.36,13.23,4.23,20.59,5.55,5.85,1.06,11.38,1.6,16.45,1.6h0c27.84,0,39.88-16,44.6-25.63,4.21-8.46,6.26-19.11,6.26-32.54,0-1.27-.02-2.49-.05-3.68.03-1.18.05-2.38.05-3.62s-.02-2.49-.05-3.68Z"/>
    <g>
      <path class="cls-4" d="M178.88,709.21c-.03,8.54-.87,15.33-2.51,20.41-1.65,5.09-5.38,9.96-11.2,14.71-6.75,5.43-16.69,9.3-29.79,11.64-21.33,3.85-34.68.12-40.12-12.16-2.08-4.41-3.13-11.37-3.12-20.82,0-38.32,0-76.63,0-114.95,11.55-.04,23.09-.07,34.64-.11-.06,36.16-.13,72.31-.19,108.47-.01,7.95,2.94,11.48,8.86,10.62,5.8-.84,8.72-5.13,8.74-12.9.09-35.41.18-70.83.26-106.24,11.6-.03,23.21-.06,34.81-.09-.12,33.81-.24,67.62-.37,101.43Z"/>
      <path class="cls-4" d="M222.74,740.74c-10.95,1.38-21.9,2.86-32.84,4.44.18-45.81.35-91.61.53-137.42,10.96-.03,21.93-.05,32.89-.07-.2,44.35-.39,88.71-.59,133.06Z"/>
      <path class="cls-4" d="M289.96,733.54c-8.06.71-16.12,1.48-24.18,2.3-4.55.46-8.29.47-11.2-.02-2.91-.48-5.53-2-7.85-4.58-3.02-3.36-4.5-9.14-4.47-17.29.08-18.4.17-36.79.25-55.19-4.67.22-9.33.44-13.99.67.03-6.44.06-12.88.09-19.32,4.66-.15,9.33-.29,13.99-.43l.15-32.04c10.73-.02,21.46-.04,32.19-.06-.05,10.41-.09,20.81-.14,31.22,4.9-.12,9.8-.24,14.7-.35-.03,6.13-.05,12.26-.08,18.39-4.9.17-9.8.36-14.7.55-.07,16.54-.15,33.08-.22,49.62-.01,2.89.56,4.92,1.72,6.09,1.16,1.17,3.32,1.68,6.47,1.55,2.45-.13,4.9-.26,7.36-.39-.03,6.42-.06,12.85-.08,19.27Z"/>
      <path class="cls-4" d="M328.92,629.47c-11.03.14-22.06.3-33.08.49.03-7.47.06-14.93.1-22.4,11.02-.02,22.05-.03,33.07-.04-.03,7.32-.06,14.64-.08,21.96ZM328.54,730.55c-11.05.74-22.1,1.58-33.15,2.52.14-31.59.27-63.17.41-94.76,11.03-.24,22.06-.46,33.09-.65-.12,30.96-.23,61.92-.35,92.88Z"/>
      <path class="cls-4" d="M459.22,726.5c-9.72-.05-19.45-.02-29.17.09.02-27.23.04-54.45.06-81.68-6.39,27.25-12.79,54.56-19.21,81.99-7.44.16-14.87.37-22.31.62-6.38-26.71-12.75-53.52-19.1-80.52-.07,27.09-.15,54.18-.22,81.27-9.72.43-19.43.94-29.14,1.53.14-40.77.29-81.54.43-122.31,14.64-.01,29.28-.03,43.92-.04,5.19,26.44,10.39,52.77,15.61,79.01,5.19-26.43,10.37-52.76,15.54-79.02,14.52,0,29.04,0,43.57,0,.01,39.69.03,79.37.04,119.06Z"/>
      <path class="cls-4" d="M564.07,730.06c-11.52-.72-23.05-1.34-34.58-1.84-1.31-9.12-2.62-18.23-3.93-27.32-7.08-.23-14.16-.43-21.23-.59-1.39,8.96-2.78,17.92-4.17,26.87-11.59-.32-23.19-.53-34.79-.63,9.58-39.62,19.13-79.24,28.63-119.09,13.88,0,27.76.01,41.64.02,9.45,40.35,18.93,81.14,28.44,122.58ZM522.34,679.3c-2.5-16.15-4.99-32.26-7.47-48.34-2.47,16.04-4.95,32.04-7.43,48.02,4.97.09,9.94.2,14.91.32Z"/>
      <path class="cls-4" d="M643.53,632.33c-8.75-.19-17.5-.37-26.25-.54.15,34.14.3,68.29.46,102.43-11.62-1.08-23.25-2.04-34.89-2.89-.13-33.38-.27-66.75-.4-100.13-8.75-.13-17.51-.25-26.26-.36-.03-7.78-.05-15.57-.08-23.35,29.1.03,58.2.07,87.3.12.04,8.24.08,16.47.11,24.71Z"/>
      <path class="cls-4" d="M717.75,746.28c-22.44-3.34-44.93-6.25-67.45-8.75-.2-43.3-.4-86.6-.6-129.9,22.51.04,45.02.09,67.53.15.03,8.96.07,17.92.1,26.88-10.9-.34-21.8-.65-32.7-.94.04,9.05.08,18.1.12,27.15,10.08.53,20.16,1.1,30.24,1.7.03,8.81.07,17.61.1,26.42-10.07-.88-20.15-1.71-30.23-2.49.04,9.81.08,19.62.13,29.43,10.89,1.15,21.78,2.38,32.66,3.69.03,8.89.07,17.79.1,26.68Z"/>
      <path class="cls-4" d="M808.03,721.46c0,9.89-1.33,17.54-3.99,22.85-5.79,11.9-18.27,15.67-37.51,12.18-6.26-1.12-11.95-2.66-17.06-4.6-10.8-3.71-18.31-10.05-22.53-19.07-2.46-5.36-3.71-13.73-3.75-25.17,0-1.78-.01-3.55-.02-5.33,11.23,1.16,22.45,2.4,33.67,3.71,0,3.21.02,6.42.02,9.63.02,7.78,2.93,12.08,8.74,12.93,1.74.25,3.25,0,4.52-.79,2.32-1.32,3.47-4.78,3.46-10.36,0-3.62-.62-6.46-1.84-8.48-1.22-2.03-4.04-5.19-8.47-9.39-7.22-6.92-14.45-13.66-21.68-20.23-6.89-6.34-11.3-11.83-13.24-16.65-1.94-4.82-2.92-10.76-2.94-17.89-.03-8.18.94-14.6,2.9-19.33,5.43-13.21,18.18-20.01,38.25-20.05,13.41,0,23.74,3.69,30.97,11.41,2.91,3.05,5.07,6.64,6.47,10.73,1.75,4.97,2.62,12.19,2.62,21.63,0,2.47,0,4.93,0,7.4-10.76-.7-21.52-1.37-32.29-2,0-3.28-.01-6.56-.02-9.83,0-2.09-.18-3.7-.53-4.83-1.06-4.09-3.57-6.19-7.52-6.32-5.13-.16-7.68,2.91-7.67,9.19,0,2.05.48,3.92,1.41,5.61.47.98,1.17,1.98,2.1,2.99.93,1.01,2.48,2.48,4.64,4.4,2.16,1.93,3.82,3.42,4.98,4.47,5.65,5.44,11.3,11,16.94,16.68,2.91,2.95,5.82,6.15,8.72,9.6,3.49,4.37,6.13,9.07,7.93,14.07,1.8,5,2.7,11.96,2.7,20.83Z"/>
    </g>
    <g>
      <path class="cls-1" d="M178.88,701.91c-.03,8.54-.87,15.33-2.51,20.41-1.65,5.09-5.38,9.96-11.2,14.71-6.75,5.43-16.69,9.3-29.79,11.64-21.33,3.85-34.68.12-40.12-12.16-2.08-4.41-3.13-11.37-3.12-20.82,0-38.32,0-76.63,0-114.95,11.55-.04,23.09-.07,34.64-.11-.06,36.16-.13,72.31-.19,108.47-.01,7.95,2.94,11.48,8.86,10.62,5.8-.84,8.72-5.13,8.74-12.9.09-35.41.18-70.83.26-106.24,11.6-.03,23.21-.06,34.81-.09-.12,33.81-.24,67.62-.37,101.43Z"/>
      <path class="cls-1" d="M222.74,733.44c-10.95,1.38-21.9,2.86-32.84,4.44.18-45.81.35-91.61.53-137.42,10.96-.03,21.93-.05,32.89-.07-.2,44.35-.39,88.71-.59,133.06Z"/>
      <path class="cls-1" d="M289.96,726.24c-8.06.71-16.12,1.48-24.18,2.3-4.55.46-8.29.47-11.2-.02-2.91-.48-5.53-2-7.85-4.58-3.02-3.36-4.5-9.14-4.47-17.29.08-18.4.17-36.79.25-55.19-4.67.22-9.33.44-13.99.67.03-6.44.06-12.88.09-19.32,4.66-.15,9.33-.29,13.99-.43l.15-32.04c10.73-.02,21.46-.04,32.19-.06-.05,10.41-.09,20.81-.14,31.22,4.9-.12,9.8-.24,14.7-.35-.03,6.13-.05,12.26-.08,18.39-4.9.17-9.8.36-14.7.55-.07,16.54-.15,33.08-.22,49.62-.01,2.89.56,4.92,1.72,6.09,1.16,1.17,3.32,1.68,6.47,1.55,2.45-.13,4.9-.26,7.36-.39-.03,6.42-.06,12.85-.08,19.27Z"/>
      <path class="cls-1" d="M328.92,622.17c-11.03.14-22.06.3-33.08.49.03-7.47.06-14.93.1-22.4,11.02-.02,22.05-.03,33.07-.04-.03,7.32-.06,14.64-.08,21.96ZM328.54,723.25c-11.05.74-22.1,1.58-33.15,2.52.14-31.59.27-63.17.41-94.76,11.03-.24,22.06-.46,33.09-.65-.12,30.96-.23,61.92-.35,92.88Z"/>
      <path class="cls-1" d="M459.22,719.2c-9.72-.05-19.45-.02-29.17.09.02-27.23.04-54.45.06-81.68-6.39,27.25-12.79,54.56-19.21,81.99-7.44.16-14.87.37-22.31.62-6.38-26.71-12.75-53.52-19.1-80.52-.07,27.09-.15,54.18-.22,81.27-9.72.43-19.43.94-29.14,1.53.14-40.77.29-81.54.43-122.31,14.64-.01,29.28-.03,43.92-.04,5.19,26.44,10.39,52.77,15.61,79.01,5.19-26.43,10.37-52.76,15.54-79.02,14.52,0,29.04,0,43.57,0,.01,39.69.03,79.37.04,119.06Z"/>
      <path class="cls-1" d="M564.07,722.76c-11.52-.72-23.05-1.34-34.58-1.84-1.31-9.12-2.62-18.23-3.93-27.32-7.08-.23-14.16-.43-21.23-.59-1.39,8.96-2.78,17.92-4.17,26.87-11.59-.32-23.19-.53-34.79-.63,9.58-39.62,19.13-79.24,28.63-119.09,13.88,0,27.76.01,41.64.02,9.45,40.35,18.93,81.14,28.44,122.58ZM522.34,672c-2.5-16.15-4.99-32.26-7.47-48.34-2.47,16.04-4.95,32.04-7.43,48.02,4.97.09,9.94.2,14.91.32Z"/>
      <path class="cls-1" d="M643.53,625.03c-8.75-.19-17.5-.37-26.25-.54.15,34.14.3,68.29.46,102.43-11.62-1.08-23.25-2.04-34.89-2.89-.13-33.38-.27-66.75-.4-100.13-8.75-.13-17.51-.25-26.26-.36-.03-7.78-.05-15.57-.08-23.35,29.1.03,58.2.07,87.3.12.04,8.24.08,16.47.11,24.71Z"/>
      <path class="cls-1" d="M717.75,738.98c-22.44-3.34-44.93-6.25-67.45-8.75-.2-43.3-.4-86.6-.6-129.9,22.51.04,45.02.09,67.53.15.03,8.96.07,17.92.1,26.88-10.9-.34-21.8-.65-32.7-.94.04,9.05.08,18.1.12,27.15,10.08.53,20.16,1.1,30.24,1.7.03,8.81.07,17.61.1,26.42-10.07-.88-20.15-1.71-30.23-2.49.04,9.81.08,19.62.13,29.43,10.89,1.15,21.78,2.38,32.66,3.69.03,8.89.07,17.79.1,26.68Z"/>
      <path class="cls-1" d="M808.03,714.16c0,9.89-1.33,17.54-3.99,22.85-5.79,11.9-18.27,15.67-37.51,12.18-6.26-1.12-11.95-2.66-17.06-4.6-10.8-3.71-18.31-10.05-22.53-19.07-2.46-5.36-3.71-13.73-3.75-25.17,0-1.78-.01-3.55-.02-5.33,11.23,1.16,22.45,2.4,33.67,3.71,0,3.21.02,6.42.02,9.63.02,7.78,2.93,12.08,8.74,12.93,1.74.25,3.25,0,4.52-.79,2.32-1.32,3.47-4.78,3.46-10.36,0-3.62-.62-6.46-1.84-8.48-1.22-2.03-4.04-5.19-8.47-9.39-7.22-6.92-14.45-13.66-21.68-20.23-6.89-6.34-11.3-11.83-13.24-16.65-1.94-4.82-2.92-10.76-2.94-17.89-.03-8.18.94-14.6,2.9-19.33,5.43-13.21,18.18-20.01,38.25-20.05,13.41,0,23.74,3.69,30.97,11.41,2.91,3.05,5.07,6.64,6.47,10.73,1.75,4.97,2.62,12.19,2.62,21.63,0,2.47,0,4.93,0,7.4-10.76-.7-21.52-1.37-32.29-2,0-3.28-.01-6.56-.02-9.83,0-2.09-.18-3.7-.53-4.83-1.06-4.09-3.57-6.19-7.52-6.32-5.13-.16-7.68,2.91-7.67,9.19,0,2.05.48,3.92,1.41,5.61.47.98,1.17,1.98,2.1,2.99.93,1.01,2.48,2.48,4.64,4.4,2.16,1.93,3.82,3.42,4.98,4.47,5.65,5.44,11.3,11,16.94,16.68,2.91,2.95,5.82,6.15,8.72,9.6,3.49,4.37,6.13,9.07,7.93,14.07,1.8,5,2.7,11.96,2.7,20.83Z"/>
    </g>
    <g>
      <path class="cls-10" d="M178.88,694.61c-.03,8.54-.87,15.33-2.51,20.41-1.65,5.09-5.38,9.96-11.2,14.71-6.75,5.43-16.69,9.3-29.79,11.64-21.33,3.85-34.68.12-40.12-12.16-2.08-4.41-3.13-11.37-3.12-20.82,0-38.32,0-76.63,0-114.95,11.55-.04,23.09-.07,34.64-.11-.06,36.16-.13,72.31-.19,108.47-.01,7.95,2.94,11.48,8.86,10.62,5.8-.84,8.72-5.13,8.74-12.9.09-35.41.18-70.83.26-106.24,11.6-.03,23.21-.06,34.81-.09-.12,33.81-.24,67.62-.37,101.43Z"/>
      <path class="cls-10" d="M222.74,726.14c-10.95,1.38-21.9,2.86-32.84,4.44.18-45.81.35-91.61.53-137.42,10.96-.03,21.93-.05,32.89-.07-.2,44.35-.39,88.71-.59,133.06Z"/>
      <path class="cls-10" d="M289.96,718.94c-8.06.71-16.12,1.48-24.18,2.3-4.55.46-8.29.47-11.2-.02-2.91-.48-5.53-2-7.85-4.58-3.02-3.36-4.5-9.14-4.47-17.29.08-18.4.17-36.79.25-55.19-4.67.22-9.33.44-13.99.67.03-6.44.06-12.88.09-19.32,4.66-.15,9.33-.29,13.99-.43l.15-32.04c10.73-.02,21.46-.04,32.19-.06-.05,10.41-.09,20.81-.14,31.22,4.9-.12,9.8-.24,14.7-.35-.03,6.13-.05,12.26-.08,18.39-4.9.17-9.8.36-14.7.55-.07,16.54-.15,33.08-.22,49.62-.01,2.89.56,4.92,1.72,6.09,1.16,1.17,3.32,1.68,6.47,1.55,2.45-.13,4.9-.26,7.36-.39-.03,6.42-.06,12.85-.08,19.27Z"/>
      <path class="cls-10" d="M328.92,614.87c-11.03.14-22.06.3-33.08.49.03-7.47.06-14.93.1-22.4,11.02-.02,22.05-.03,33.07-.04-.03,7.32-.06,14.64-.08,21.96ZM328.54,715.95c-11.05.74-22.1,1.58-33.15,2.52.14-31.59.27-63.17.41-94.76,11.03-.24,22.06-.46,33.09-.65-.12,30.96-.23,61.92-.35,92.88Z"/>
      <path class="cls-10" d="M459.22,711.9c-9.72-.05-19.45-.02-29.17.09.02-27.23.04-54.45.06-81.68-6.39,27.25-12.79,54.56-19.21,81.99-7.44.16-14.87.37-22.31.62-6.38-26.71-12.75-53.52-19.1-80.52-.07,27.09-.15,54.18-.22,81.27-9.72.43-19.43.94-29.14,1.53.14-40.77.29-81.54.43-122.31,14.64-.01,29.28-.03,43.92-.04,5.19,26.44,10.39,52.77,15.61,79.01,5.19-26.43,10.37-52.76,15.54-79.02,14.52,0,29.04,0,43.57,0,.01,39.69.03,79.37.04,119.06Z"/>
      <path class="cls-10" d="M564.07,715.46c-11.52-.72-23.05-1.34-34.58-1.84-1.31-9.12-2.62-18.23-3.93-27.32-7.08-.23-14.16-.43-21.23-.59-1.39,8.96-2.78,17.92-4.17,26.87-11.59-.32-23.19-.53-34.79-.63,9.58-39.62,19.13-79.24,28.63-119.09,13.88,0,27.76.01,41.64.02,9.45,40.35,18.93,81.14,28.44,122.58ZM522.34,664.7c-2.5-16.15-4.99-32.26-7.47-48.34-2.47,16.04-4.95,32.04-7.43,48.02,4.97.09,9.94.2,14.91.32Z"/>
      <path class="cls-10" d="M643.53,617.73c-8.75-.19-17.5-.37-26.25-.54.15,34.14.3,68.29.46,102.43-11.62-1.08-23.25-2.04-34.89-2.89-.13-33.38-.27-66.75-.4-100.13-8.75-.13-17.51-.25-26.26-.36-.03-7.78-.05-15.57-.08-23.35,29.1.03,58.2.07,87.3.12.04,8.24.08,16.47.11,24.71Z"/>
      <path class="cls-10" d="M717.75,731.68c-22.44-3.34-44.93-6.25-67.45-8.75-.2-43.3-.4-86.6-.6-129.9,22.51.04,45.02.09,67.53.15.03,8.96.07,17.92.1,26.88-10.9-.34-21.8-.65-32.7-.94.04,9.05.08,18.1.12,27.15,10.08.53,20.16,1.1,30.24,1.7.03,8.81.07,17.61.1,26.42-10.07-.88-20.15-1.71-30.23-2.49.04,9.81.08,19.62.13,29.43,10.89,1.15,21.78,2.38,32.66,3.69.03,8.89.07,17.79.1,26.68Z"/>
      <path class="cls-10" d="M808.03,706.86c0,9.89-1.33,17.54-3.99,22.85-5.79,11.9-18.27,15.67-37.51,12.18-6.26-1.12-11.95-2.66-17.06-4.6-10.8-3.71-18.31-10.05-22.53-19.07-2.46-5.36-3.71-13.73-3.75-25.17,0-1.78-.01-3.55-.02-5.33,11.23,1.16,22.45,2.4,33.67,3.71,0,3.21.02,6.42.02,9.63.02,7.78,2.93,12.08,8.74,12.93,1.74.25,3.25,0,4.52-.79,2.32-1.32,3.47-4.78,3.46-10.36,0-3.62-.62-6.46-1.84-8.48-1.22-2.03-4.04-5.19-8.47-9.39-7.22-6.92-14.45-13.66-21.68-20.23-6.89-6.34-11.3-11.83-13.24-16.65-1.94-4.82-2.92-10.76-2.94-17.89-.03-8.18.94-14.6,2.9-19.33,5.43-13.21,18.18-20.01,38.25-20.05,13.41,0,23.74,3.69,30.97,11.41,2.91,3.05,5.07,6.64,6.47,10.73,1.75,4.97,2.62,12.19,2.62,21.63,0,2.47,0,4.93,0,7.4-10.76-.7-21.52-1.37-32.29-2,0-3.28-.01-6.56-.02-9.83,0-2.09-.18-3.7-.53-4.83-1.06-4.09-3.57-6.19-7.52-6.32-5.13-.16-7.68,2.91-7.67,9.19,0,2.05.48,3.92,1.41,5.61.47.98,1.17,1.98,2.1,2.99.93,1.01,2.48,2.48,4.64,4.4,2.16,1.93,3.82,3.42,4.98,4.47,5.65,5.44,11.3,11,16.94,16.68,2.91,2.95,5.82,6.15,8.72,9.6,3.49,4.37,6.13,9.07,7.93,14.07,1.8,5,2.7,11.96,2.7,20.83Z"/>
    </g>
    <g>
      <path class="cls-7" d="M175.33,666.14l-.1,28.05c-.02,8.1-.81,14.6-2.34,19.31-1.41,4.33-4.78,8.71-10.05,13-6.2,4.99-15.67,8.65-28.11,10.86-5.13.92-9.79,1.4-13.86,1.4-11.75,0-18.83-3.64-22.29-11.45-1.87-3.98-2.81-10.46-2.81-19.34v-34.93c8.22-.79,17.31-1.64,27.19-2.53l-.05,30.86c0,5.35,1.18,9.15,3.64,11.61,1.84,1.82,4.33,2.8,7.23,2.8.69,0,1.42-.05,2.18-.16,4.42-.64,11.82-3.64,11.86-16.51l.07-30.77c8.7-.73,17.86-1.47,27.43-2.21Z"/>
      <path class="cls-7" d="M219.37,662.94l-.26,59.57c-8.5,1.09-17.06,2.25-25.54,3.45l.23-61.23c8.26-.61,16.79-1.2,25.56-1.8Z"/>
      <path class="cls-7" d="M286.37,703.11l-.05,12.09c-6.98.62-14,1.3-20.91,2.01-2.14.22-4.1.33-5.81.33s-3.16-.11-4.42-.32c-2.1-.35-3.98-1.47-5.73-3.42-2.35-2.62-3.56-7.74-3.54-14.84l.17-37.76c8.13-.5,16.44-.99,24.9-1.46l-.15,32.25c-.01,3.94.9,6.78,2.79,8.69,1.76,1.78,4.43,2.64,8.14,2.64.34,0,.71,0,1.07-.02,1.19-.06,2.37-.12,3.54-.18Z"/>
      <path class="cls-7" d="M299.31,658.22l-.24,55.88c8.61-.72,17.27-1.37,25.84-1.97l.21-55.12c-8.73.39-17.34.79-25.8,1.22Z"/>
      <path class="cls-7" d="M343.98,656.21c7.19-.29,14.45-.57,21.8-.82l-.16,54.39c-7.27.33-14.59.72-21.84,1.14l.19-54.72Z"/>
      <path class="cls-7" d="M407.2,654.14c4.49-.11,9.01-.21,13.55-.32-4.44,18.94-10.22,43.61-12.77,54.49-5.51.12-11.06.28-16.55.45-4.45-18.66-8.69-36.46-12.79-53.81,4.76-.15,9.54-.29,14.34-.43,1.16,5.8,2.32,11.69,3.5,17.65h7.15c.92-4.71,2.17-11.03,3.55-18.04Z"/>
      <path class="cls-7" d="M455.57,707.83h-5.44c-5.44,0-10.95.02-16.44.07l.04-54.33c7.23-.13,14.5-.24,21.81-.33l.02,54.59Z"/>
      <path class="cls-7" d="M546.05,653.22c-7.27-.1-14.53-.17-21.75-.21l2.32,15.04-4.37-.11c-4.96-.12-9.93-.23-14.88-.32l-4.18-.09.64-4.12c.55-3.49,1.08-6.97,1.62-10.46-7.45-.02-14.84,0-22.2.04-4.12,17.19-8.52,35.35-13.25,54.95,8.98.1,18.04.26,27.04.49,1.22-7.88,4.16-26.85,4.16-26.85l3.2.07c7.02.16,14.17.36,21.27.6l3.07.1,3.93,27.35c8.93.41,17.9.89,26.76,1.42-4.27-18.58-8.71-37.79-13.38-57.9Z"/>
      <path class="cls-7" d="M614.06,715.21c-9.15-.83-18.39-1.59-27.58-2.27l-.23-58.97c9.16.23,18.35.5,27.54.83l.27,60.41Z"/>
      <path class="cls-7" d="M714.09,727.05c-19.93-2.92-40.12-5.54-60.15-7.79l-.28-62.82c19.27.94,38.54,2.08,57.74,3.45l.04,10.1c-8.71-.75-17.54-1.48-26.29-2.15l-3.94-.3.16,36.65,3.25.34c9.73,1.03,19.61,2.14,29.4,3.3l.07,19.22Z"/>
      <path class="cls-7" d="M804.38,706.45c0,9.29-1.2,16.44-3.6,21.22-3.8,7.8-10.68,11.41-21.7,11.41-3.55,0-7.54-.4-11.9-1.19-5.99-1.07-11.51-2.55-16.41-4.42-10.04-3.45-16.72-9.06-20.51-17.2-2.23-4.84-3.37-12.8-3.41-23.64v-1.27c8.77.92,17.62,1.9,26.35,2.91v6.39c.05,12.87,7.46,15.89,11.87,16.53.61.09,1.19.13,1.78.13,1.9,0,3.65-.47,5.18-1.42,3.48-2,5.22-6.41,5.21-13.48-.01-4.34-.78-7.73-2.37-10.35-1.45-2.41-4.42-5.73-9.08-10.16-6.76-6.5-13.75-13-20.73-19.37,14.46,1.24,28.87,2.63,43.16,4.17,2.13,2.26,4.27,4.67,6.4,7.18,3.14,3.95,5.61,8.33,7.27,12.96,1.65,4.59,2.48,11.18,2.48,19.6Z"/>
    </g>
  </g>
  <g>
    <path class="cls-1" d="M817.27,644.12s25.14,12.55,42.24,2.31c17.1-10.24,8.9-22.18,8.9-22.18,0,0,11.66-12.94-.8-24.18,0,0,14.83-27.33-21.42-29.8,0,0,1.19-21.93-20.36-23.68-21.55-1.75-23.76,17.69-23.76,17.69,0,0-28.58-22.05-33.72,33.39,0,0,6.77-5.35,15.87-9.13,0,0,20.29-5.08,28.5,10.63,4.58,8.77-13.4,36.94,4.55,44.95Z"/>
    <path class="cls-2" d="M821.29,624.56s18.03-11.06,30.21-9.73c11.85,1.3,15.7,4.76,15.25-2.53-.01-.2-.03-.41-.04-.63-.69-8.11-7.93-11.91-7.93-11.91,0,0-21.37-1.45-37.45,24.75-.02.03-.03.05-.03.05Z"/>
    <path class="cls-2" d="M818.48,594.45h0c.4-.28,13.91-9.42,26.03-7.02,12.31,2.44,12.84,9.71,19.56,4.07.02-.02.04-.04.06-.05,6.55-5.64-9.04-15.51-18.15-15.23-9.13.29-21.28,2.9-27.51,18.22t0,.01Z"/>
    <path class="cls-2" d="M805.94,570.76s0,0,0-.01c19.34-16.26,30.12-1.99,30.12-1.99l-4.05,3.27c4.34-.41,6.89-2.52,7.75-5.21,1.69-5.27-3.07-12.78-13.47-14.16-16.19-2.16-20.35,18.11-20.35,18.11Z"/>
    <path class="cls-2" d="M774.44,588.65c7.83-8.6,15.65-8.93,21.33-9.38,3.7-.3,4.82-3.78,5.17-6.38.19-1.39.16-2.52.19-2.77.09-.72-10.04-6.21-15.84-2.09-5.79,4.12-10.86,20.61-10.86,20.61Z"/>
    <path class="cls-4" d="M821.33,624.51c.66-.95,11.7-16.26,35.4-19.45,0,0,7.02-.25,10.03,7.24-.01-.2-.03-.41-.04-.63-.69-8.11-7.93-11.91-7.93-11.91,0,0-21.37-1.45-37.45,24.75Z"/>
    <path class="cls-1" d="M861.43,612.61s-20.97-4.36-40.1,11.9c0,0,15.63-17.85,40.1-11.9Z"/>
    <path class="cls-4" d="M818.49,594.44c.31-.48,10.26-15.72,26.19-14.32,13.57,1.19,18.94,7.27,19.47,11.33,6.55-5.64-9.04-15.51-18.15-15.23-9.13.29-21.28,2.9-27.51,18.22Z"/>
    <path d="M818.48,594.45h0s0,0,0,0h0Z"/>
    <path class="cls-1" d="M818.48,594.45s19.82-21.24,40.44-4.67c0,0-18.42-13.38-40.44,4.67Z"/>
    <path class="cls-4" d="M805.94,570.76s0,0,0-.01c.16-.47,5.46-15.39,18.61-14.46,9.3.66,13.51,6.84,15.21,10.53,1.69-5.27-3.07-12.78-13.47-14.16-16.19-2.16-20.35,18.11-20.35,18.11Z"/>
    <path class="cls-1" d="M805.94,570.76s12.87-19.03,27.84-7.96c0,0-13.2-8.63-27.84,7.96Z"/>
    <path class="cls-4" d="M774.44,588.65c8.43-20.34,22.34-18.15,26.5-15.76.19-1.39.16-2.52.19-2.77.09-.72-10.04-6.21-15.84-2.09-5.79,4.12-10.86,20.61-10.86,20.61Z"/>
    <path class="cls-1" d="M774.44,588.65s8.03-14.92,21.27-13.08c0,0-11.16-.89-21.27,13.08Z"/>
    <path class="cls-14" d="M827.16,632.86s13.43,2.27,13.01-5.96c-.33-6.46-19.48,1.27-19.48,1.27,0,0,6.89,2.63,13.18.68,0,0-10.74,3.72-6.71,4Z"/>
    <path class="cls-14" d="M825.98,606.49s18.03-.8,15.19-11.34c-2.23-8.28-24.88,7.07-24.88,7.07,0,0,9.66,1.49,17.27-2.79,0,0-12.89,7.81-7.58,7.06Z"/>
    <path class="cls-14" d="M806.05,574.04s2.86.29,3.33,2.88c.47,2.6-.94,5.73-7.06,8.24s-6.94-.91-6.94-.91c0,0,7.9-3.45,10.67-10.21Z"/>
    <path class="cls-14" d="M826.54,572.39s-6.7-4.78-13.4-.68c0,0-.9,10.95-.07,16.34.83,5.39,13.47-15.66,13.47-15.66Z"/>
    <path class="cls-2" d="M824.05,642.85s19.17,3.48,31.17-3.09c4.75-2.6,7.31-5.46,8.67-7.97,2.08-3.84,1.35-6.86,1.35-6.86,0,0-1.77-.48-7.84-1.07-.31-.03-.63-.06-.97-.09,0,0-4.71,2.64-11.37,8.41-6.66,5.77-14.05,9.28-21.02,10.67Z"/>
    <path class="cls-4" d="M857.49,623.9s-.06-.04-.09-.05c6.06.59,7.84,1.07,7.84,1.07,0,0,0,.01,0,.03,0,0,0,.01,0,.02,0,.02,0,.04.01.07,0,.01,0,.02,0,.04,0,.03.01.07.02.11,0,.02,0,.03,0,.05,0,.05.01.12.02.18,0,.01,0,.02,0,.03.02.17.03.37.04.6,0,.02,0,.04,0,.06,0,.1,0,.2,0,.3,0,.03,0,.06,0,.09,0,.11,0,.22-.01.33,0,.03,0,.06,0,.09,0,.14-.02.28-.04.43,0,0,0,.01,0,.02-.02.17-.04.34-.07.52h0c-.03.17-.06.35-.1.53,0,.04-.02.08-.03.12-.03.15-.07.3-.11.45-.01.05-.03.1-.04.15-.04.15-.09.31-.14.47-.01.04-.03.09-.04.13-.14.42-.31.85-.52,1.29-.01.02-.02.04-.03.07-.09.2-.19.4-.3.6-.01.02-.02.04-.03.06,0,0,0,0,0,0-1.36,2.51-3.91,5.38-8.66,7.98-12,6.57-31.17,3.09-31.17,3.09,17.9,1.29,28.33-3.64,34.22-8.66,3.27-2.79,2.9-8.05-.78-10.28Z"/>
    <path class="cls-1" d="M856.9,626.4s-12.91,15.54-32.85,16.44c0,0,22.54-.08,32.85-16.44Z"/>
  </g>
  <g>
    <path class="cls-6" d="M565.01,386.63s-6.43-11.12-16.47-15.6c0,0,16.06,17.92,2.78,43.87,0,0,1.08-12.2-2.93-21.94,0,0,.47,17.56-11.27,32.18,0,0,2.01-7.93,2.01-15.34,0,0-4.33,24.4-23.17,35.21,0,0,6.18-9.73,8.5-23.79,0,0-14.75,5.32-29.45,27.19-16.89,25.11-8.25,47.4-23.07,56.02-9.71,5.66-20.23,5.73-22.43,5.68-.08,0-.17,0-.28,0-2.71.04-12.81-.23-22.16-5.68-14.81-8.62-6.18-30.91-23.07-56.02-14.71-21.87-29.45-27.19-29.45-27.19,2.32,14.06,8.5,23.79,8.5,23.79-18.84-10.81-23.17-35.21-23.17-35.21,0,7.41,2,15.34,2,15.34-11.74-14.62-11.27-32.18-11.27-32.18-4.02,9.73-2.93,21.94-2.93,21.94-13.28-25.95,2.78-43.87,2.78-43.87-10.04,4.48-16.48,15.6-16.48,15.6-2.47-23.48,12.77-30.28,12.77-30.28-6.63.3-9.26,3.26-9.46,3.49.14-.3,2.65-5.01,11.32-7.4,8.96-2.47,11.79-6.13,11.79-6.13-3.29-1.02-9.47,0-9.47,0,6.95-6.33,19.3-6.79,19.3-6.79l-8.34-2.01c6.8-5.56,15.45-3.71,15.45-3.71,1.05-4.94,4.56-7.99,4.78-8.18-.84.32-1.65.58-2.46.8l-.09.03c-10.96,3-19.22-2.07-19.22-2.07,0,0,7.57.46,21.16-11.12,4.82-4.1,9.77-5.45,14.18-5.48h.04c5.34-.02,9.85,1.9,12.26,3.17,0,0,.02.01.03.01,1.07.57,1.72,1.01,1.84,1.09-.1-.12-.2-.23-.3-.34-.17-.19-.32-.37-.48-.55-5.94-6.7-9.91-9.91-9.91-9.91l7.93,1.34c-4.79-6.73-11.49-8.74-14.12-9.28-.71-.14-1.12-.19-1.12-.19.27-.13.54-.25.81-.36.81-.37,1.61-.7,2.4-.99.5-.19.99-.37,1.48-.53.35-.12.69-.24,1.03-.35.03,0,.05-.01.08-.02.3-.09.58-.18.87-.27.27-.08.53-.16.81-.23.34-.09.68-.18,1.01-.26.25-.06.49-.12.73-.17.55-.13,1.1-.25,1.64-.35.25-.05.49-.09.73-.14,1.13-.19,2.24-.35,3.33-.45.23-.03.47-.05.7-.06.2-.01.4-.04.6-.04.37-.03.73-.05,1.09-.06,7.07-.33,13,1.05,16.88,2.33.21.06.4.13.6.2.39.13.76.26,1.1.39.33.13.64.25.93.37,1.3.53,2.06.92,2.21.99-.44-.63-.93-1.23-1.45-1.77-.17-.19-.35-.37-.53-.54-.24-.24-.49-.47-.74-.68-.16-.14-.32-.27-.48-.4-1.95-1.57-4.17-2.74-6.37-3.6-.55-.22-1.1-.41-1.64-.59-5.21-1.73-9.86-1.86-9.86-1.86h-.01c1.37-.83,2.73-1.56,4.07-2.18,1.34-.61,2.67-1.14,3.96-1.57,6.17-2.05,11.85-2.08,16.64-1.24,1.23.22,2.39.49,3.49.8,0,0,.01,0,.03,0,.54.15,1.07.32,1.58.49.01,0,.02,0,.03,0,.52.17,1.01.35,1.49.53h0c.48.19.94.37,1.38.56.43.18.84.37,1.24.56.65.3,1.25.61,1.79.9.34.19.66.36.96.53,0,0,.02,0,.03.01.3.17.57.35.83.5.94.58,1.59,1.05,1.94,1.3.06.05.11.09.15.12.01,0,.03.01.04.02,0,0,.02.01.03.02.03.02.04.04.05.04.01,0,.06-.06.17-.13.03-.02.06-.05.11-.08,2.34-1.74,19.3-13.45,39.46-1.22,0,0-14.73.41-21.11,9.47,0,0,17.66-9.54,38.23-.36.27.12.53.24.8.36,0,0-.41.04-1.11.19-2.62.54-9.34,2.54-14.13,9.28l7.93-1.34s-3.98,3.22-9.95,9.94c-.15.17-.31.35-.47.53-.09.11-.19.22-.28.32.11-.07.69-.47,1.67-1,2.36-1.27,6.98-3.3,12.5-3.27h.03c4.4.03,9.36,1.38,14.16,5.48,12.5,10.65,19.91,11.12,21.01,11.12h.14s-9.57,5.87-21.77,1.24c.22.19,3.73,3.24,4.78,8.18l.14-.03c1.15-.21,9.02-1.41,15.3,3.73l-8.34,2.01s12.36.46,19.3,6.79c0,0-6.18-1.02-9.47,0,0,0,2.83,3.66,11.79,6.13,8.68,2.39,11.17,7.11,11.32,7.4-.2-.23-2.83-3.19-9.46-3.49,0,0,15.24,6.8,12.77,30.28Z"/>
    <path class="cls-14" d="M519.6,349.67c-15.97-6.79-21.93,3.3-21.93,3.3-.52-2.39,0-7.31,0-7.31-7.83,4.22-11.22,14.62-11.22,14.62v-4.22s-2.57,9.68-10.01,10.92c-7.43,1.24-8.43-10.09-8.43-10.09-1.75,4.12-2.37,15.65-2.37,15.65l12.67,4.63,9.58,10.34,9.37,27.35,4.38,16.02c7.89-16.04,1.74-28.89,1.74-28.89l3.86,1.75c-1.02-5.68-3.74-9.93-5.66-12.35,9.68.27,14.31-3.61,14.31-3.61-7.31.31-11.64-4.02-11.64-4.02,10.3-7.72,8.55-23.79,8.55-23.79.72-6.69,6.8-10.3,6.8-10.3Z"/>
    <path class="cls-5" d="M491.9,302.6l7.93-1.34s-3.98,3.22-9.95,9.94l-1.67,1.2c.09-.05.5-.3,1.2-.67.38-.19.84-.43,1.38-.68,2.67-1.23,7.17-2.9,12.5-3.27h.02c-.45.19-19.76,8.09-28.52,21.52,0,0,8.86-6.8,17.92-9.27,0,0-21.83,19.77-25.54,37.89,0,0-2.04-8.58,2.21-15.97-.67,1.02-6.47,10.39-5.5,23.59l-.11,8.45-13.58,10.08v1.06s-.71-.53-.71-.53l-.71.53v-1.06s-13.57-10.08-13.57-10.08l-.11-8.45c.97-13.2-4.83-22.56-5.5-23.59,4.25,7.39,2.21,15.97,2.21,15.97-3.71-18.12-25.54-37.89-25.54-37.89,9.06,2.47,17.92,9.27,17.92,9.27-8.73-13.39-27.94-21.29-28.51-21.52h.04c5.18.36,9.57,1.96,12.26,3.17,0,0,.02.01.03.01.06.03.12.06.19.09.53.25.98.47,1.36.66,0,0,.02,0,.03.01.7.37,1.12.62,1.2.67l-1.67-1.2-.04-.03c-5.94-6.7-9.91-9.91-9.91-9.91l7.93,1.34c-4.79-6.73-11.49-8.74-14.12-9.28-.11-.18-.21-.36-.31-.55.81-.36,1.61-.69,2.4-.99.5-.19.99-.37,1.48-.53.35-.12.69-.24,1.03-.35.03,0,.05-.01.08-.02.3-.09.58-.18.87-.27.27-.08.53-.16.81-.23.34-.09.68-.18,1.01-.26.25-.06.49-.12.73-.17.55-.13,1.1-.25,1.64-.35.25-.05.49-.09.73-.14,1.13-.19,2.24-.35,3.33-.45.23-.03.47-.05.7-.06.2-.01.4-.04.6-.04.37-.03.73-.05,1.09-.06,7.07-.33,13,1.05,16.88,2.33.21.06.4.13.6.2.39.13.76.26,1.1.39.33.13.64.25.93.37,1.3.53,2.06.92,2.21.99.01,0,.02.01.02.01-.45-.64-.94-1.23-1.47-1.79-.17-.19-.35-.37-.53-.54-.24-.24-.49-.47-.74-.68-.16-.14-.32-.27-.48-.4-1.95-1.58-4.17-2.75-6.37-3.6-.55-.22-1.1-.41-1.64-.59-5.21-1.73-9.86-1.86-9.86-1.86,1.37-.83,2.72-1.55,4.06-2.18,1.34-.61,2.67-1.14,3.96-1.57,6.17-2.05,11.85-2.08,16.64-1.24,1.23.22,2.39.49,3.49.8,0,0,.01,0,.03,0,.54.15,1.07.32,1.58.49.01,0,.02,0,.03,0,.52.17,1.01.35,1.49.53h0c.48.18.94.37,1.38.56.43.18.84.37,1.24.56.65.3,1.25.61,1.79.9.34.18.66.36.96.53,0,0,.02,0,.03.01.3.17.57.34.83.5.94.58,1.59,1.05,1.94,1.3.04.03.08.06.11.08.04.02.06.04.08.06,0,0,.02.01.03.02.03.02.04.04.05.04.01,0,.06-.06.17-.13.03-.02.06-.05.11-.08,2.34-1.74,19.3-13.45,39.46-1.22,0,0-14.73.41-21.11,9.47,0,0,17.66-9.54,38.23-.36-.1.19-.2.37-.31.55-2.62.54-9.34,2.54-14.13,9.28Z"/>
    <path class="cls-14" d="M552.25,356.36c6.63.3,9.26,3.26,9.46,3.49-.14-.3-2.64-5.01-11.32-7.4-8.96-2.47-11.79-6.13-11.79-6.13,3.29-1.02,9.47,0,9.47,0-6.95-6.33-19.3-6.79-19.3-6.79l8.34-2.01c-6.29-5.14-14.16-3.94-15.3-3.73l-.14.03-8.75,3.01s30.9,8.62,15.86,19.12c0,0,6.8-1.03,14.62,3.71,0,0-9.26-2.26-19.56,1.86,0,0,8.35-1.24,15.4,4.32,0,0,1.38,10.3-15.33,30.31,0,0,9.89-3.98,13.79-7.89,0,0-.34,13.58-17.42,31.09-16.74-3.64-66.44,11.23-70.49,12.46h0s-51.15-15.52-69.84-12.69c-17.63-17.71-18.64-30.86-18.64-30.86,3.9,3.91,13.79,7.89,13.79,7.89-16.71-20.01-15.33-30.31-15.33-30.31,7.05-5.56,15.4-4.32,15.4-4.32-10.3-4.12-19.56-1.86-19.56-1.86,7.82-4.74,14.62-3.71,14.62-3.71-15.04-10.5,15.86-19.12,15.86-19.12l-8.75-3.01-.14-.03c-1.15-.21-9.02-1.41-15.3,3.73l8.34,2.01s-12.36.46-19.3,6.79c0,0,6.18-1.02,9.47,0,0,0-2.83,3.66-11.79,6.13-8.68,2.39-11.17,7.11-11.32,7.4.2-.23,2.83-3.19,9.46-3.49,0,0-15.24,6.8-12.77,30.28,0,0,6.43-11.12,16.47-15.6,0,0-16.06,17.92-2.78,43.87,0,0-1.08-12.2,2.93-21.94,0,0-.47,17.56,11.27,32.18,0,0-2.01-7.93-2.01-15.34,0,0,4.32,24.4,23.17,35.21,0,0-6.15-9.69-8.48-23.7,1.73,1.88,31.46,34.49,42.86,68.26.48,1.41.97,2.9,1.56,4.4,1.05,2.99,2.44,5.6,4.55,7.73,3.98,4.45,10.71,7.93,23.26,8.36,1.26.07,2.2.06,2.71.05,0,0,.02,0,.02,0,.54.01,1.6.02,3.02-.07,11.87-.47,18.47-3.7,22.46-7.88,2.71-2.52,4.33-5.76,5.49-9.57.37-1.03.71-2.05,1.04-3.02,11.71-34.69,42.77-68.16,42.94-68.34,0,0,0,0,0,0-2.32,14.06-8.5,23.79-8.5,23.79,18.85-10.81,23.17-35.21,23.17-35.21,0,7.41-2.01,15.34-2.01,15.34,11.74-14.62,11.27-32.18,11.27-32.18,4.02,9.73,2.93,21.94,2.93,21.94,13.29-25.95-2.78-43.87-2.78-43.87,10.04,4.48,16.47,15.6,16.47,15.6,2.47-23.48-12.77-30.28-12.77-30.28Z"/>
    <path class="cls-6" d="M495.92,321.85l-21.12,37.16-6.29,14.74-19.04,2.51-.04-.29v.29s-19.03-2.51-19.03-2.51l-6.28-14.74-21.13-37.16,3.24-2.01s8.83,4.94,19.62,15.78c7.08,7.09,11.79,10.78,12.02-1.04,0,0,6.07,4.33,3.68,11.92,0,0,3.59-5.46,1.4-16.98,4.98,15.24,6.26,31.31,6.26,31.31,0,0,1.28-16.06,6.25-31.31-2.51,11.35,1.9,16.98,1.9,16.98-2.38-7.58,3.69-11.92,3.69-11.92.23,11.82,4.95,8.13,12.01,1.04,10.79-10.84,19.62-15.78,19.62-15.78l3.24,2.01Z"/>
    <path class="cls-14" d="M378.81,349.67c15.97-6.79,21.93,3.3,21.93,3.3.52-2.39,0-7.31,0-7.31,7.83,4.22,11.22,14.62,11.22,14.62v-4.22s2.57,9.68,10.01,10.92,8.43-10.09,8.43-10.09c1.75,4.12,2.37,15.65,2.37,15.65l-12.67,4.63-9.58,10.34-9.37,27.35-4.38,16.02c-7.89-16.04-1.74-28.89-1.74-28.89l-3.86,1.75c1.02-5.68,3.74-9.93,5.66-12.35-9.68.27-14.31-3.61-14.31-3.61,7.31.31,11.64-4.02,11.64-4.02-10.3-7.72-8.55-23.79-8.55-23.79-.72-6.69-6.8-10.3-6.8-10.3Z"/>
    <path class="cls-1" d="M519.6,349.67s-13.9-3.09-24.41,8.55c0,0-1.54-5.05,2.47-12.56,0,0-2.99,1.34-5.05,7.11-2.06,5.77-6.08,17.51-19.26,18.33,0,0-7.11-1.75-5.35-14.21,0,0-2.16,3.4-2.47,9.47-.31,6.08-6.8,6.59-10.71,1.96,0,0-1.13,6.69,5.35,8.65,0,0-3.5,2.27-6.08,4.53,0,0,11.22-7.72,23.27-1.03,0,0-6.18.41-11.12,2.37,0,0,6.54.88,11.12,5.35,0,0-4.69.31-8.08,7.11,0,0,9.22-10.09,17.45,2.27,6.67,10.01,12.56,40.98-5.77,45.52-18.33,4.53-28.96-4-29.76-11.17h-4.04c-.8,7.17-11.43,15.7-29.76,11.17-18.33-4.53-12.44-35.51-5.77-45.52,8.24-12.36,17.45-2.27,17.45-2.27-3.4-6.8-8.08-7.11-8.08-7.11,4.58-4.48,11.12-5.35,11.12-5.35-4.94-1.96-11.12-2.37-11.12-2.37,12.05-6.69,23.27,1.03,23.27,1.03-2.57-2.27-6.08-4.53-6.08-4.53,6.49-1.96,5.35-8.65,5.35-8.65-3.91,4.63-10.4,4.12-10.71-1.96-.31-6.08-2.47-9.47-2.47-9.47,1.75,12.46-5.35,14.21-5.35,14.21-13.18-.82-17.2-12.56-19.26-18.33-2.06-5.77-5.05-7.11-5.05-7.11,4.02,7.52,2.47,12.56,2.47,12.56-10.5-11.64-24.41-8.55-24.41-8.55,10.09,2.27,11.43,10.19,11.43,10.19-2.88,20.8,13.08,25.44,13.08,25.44-3.6,1.44-10.61,2.37-10.61,2.37,10.19.62,16.94-1.49,16.94-1.49-9.73,4.79-13.9,13.28-13.9,13.28l5.72-3.55c-11.28,20.85-5.72,37.69,1.24,46.03s14.21,17.45,18.23,36.61c3.74,17.82,11.08,19.86,12.08,20.06l-4.36-.75c6.33,5.25,20.55,4.17,20.55,4.17,0,0,14.22,1.08,20.55-4.17l-4.36.75c1-.2,8.35-2.24,12.08-20.06,4.02-19.15,11.28-28.27,18.23-36.61,6.95-8.34,12.51-25.18,1.24-46.03l5.72,3.55s-4.17-8.5-13.9-13.28c0,0,6.74,2.11,16.94,1.49,0,0-7-.93-10.61-2.37,0,0,15.96-4.63,13.08-25.44,0,0,1.34-7.93,11.43-10.19Z"/>
    <path class="cls-1" d="M455.31,439.05c-1.05-.75-1.64-1.44-1.92-2.08.54.72,1.18,1.42,1.92,2.08Z"/>
    <g>
      <path class="cls-5" d="M486.99,397.55c-8.08-12.11-17.1-2.64-17.44-2.27,3.39-6.79,8.07-7.1,8.07-7.1-4.58-4.48-11.12-5.35-11.12-5.35,4.95-1.96,11.12-2.37,11.12-2.37-11.52-6.41-22.29.38-23.21.98,2.56-2.25,6.01-4.48,6.01-4.48-6.48-1.96-5.35-8.65-5.35-8.65-5.49,2.46-5.62,7.49-5.62,7.96-.12-5.18-5.63-7.96-5.63-7.96,0,0,1.14,6.7-5.35,8.65,0,0,3.45,2.23,6.01,4.48-.92-.6-11.69-7.39-23.21-.98,0,0,6.17.41,11.12,2.37,0,0-6.54.87-11.12,5.35,0,0,4.68.31,8.08,7.1-.35-.37-9.37-9.84-17.45,2.27-6.67,10.01-12.56,40.99,5.76,45.52,18.33,4.53,28.96-4,29.76-11.18h4.04c.8,7.17,11.43,15.71,29.76,11.18,18.32-4.54,12.44-35.51,5.76-45.52Z"/>
      <path class="cls-14" d="M480.98,443.07c-12.14,3-20.9.27-25.66-4h-.01c-1.05-.76-1.64-1.46-1.92-2.09h0c-1.46-3.41,6.49-5.1,6.49-5.1,6.14-1.27,14.93-4.89,16.38-15.17,0,0,1.65,11.22-10.4,18.02-8.17,4.61,11.8,5.62,17.81-1.03l-2.06,4.78c.34-.19,13.27-6.29,9.35-31.23,3.9,13.2,4.14,32.34-9.97,35.83Z"/>
      <path class="cls-14" d="M417.82,443.07c12.14,3,20.9.27,25.66-4h.01c1.05-.76,1.64-1.46,1.92-2.09h0c1.46-3.41-6.49-5.1-6.49-5.1-6.14-1.27-14.93-4.89-16.38-15.17,0,0-1.65,11.22,10.4,18.02,8.17,4.61-11.8,5.62-17.81-1.03l2.06,4.78c-.34-.19-13.27-6.29-9.35-31.23-3.9,13.2-4.14,32.34,9.97,35.83Z"/>
    </g>
    <path class="cls-1" d="M449.48,394.05c-10.3,0-29.04,6.59-26.77,22.65,1.43,10.13,9.97,13.79,16.1,15.11l-.25.06s11.22,2.39,4.55,7.19l5.83.86v-7.36h.56v7.36l5.83-.86c-6.67-4.81,4.55-7.19,4.55-7.19h0c6.14-1.27,14.93-4.88,16.38-15.17,2.27-16.06-16.48-22.65-26.77-22.65Z"/>
    <path class="cls-8" d="M449.48,397.55c-16.89,0-24.3,9.68-23.89,16.06.41,6.38,9.16,11.53,9.16,11.53,0,0-9.06-7,.51-12.67,9.58-5.66,13.49,7.21,11.12,11.74h0c1.99.74,4.19.74,6.18,0h0c-2.37-4.53,1.54-17.4,11.12-11.74,9.58,5.66.51,12.67.51,12.67,0,0,8.75-5.15,9.16-11.53.41-6.38-7-16.06-23.89-16.06Z"/>
    <path class="cls-4" d="M431.35,408.47s3.37-8.24,18.12-8.24,18.54,8.24,18.54,8.24c0,0-16.89-11.43-36.66,0Z"/>
    <path class="cls-14" d="M555.81,342.6c.1-.14,1.8-2.54,2.85-7.56l-4.94,1.78s7.59-7.65,3.37-20.42c0,0-.82,5.77-3.09,8.45,0,0,4.95-14.32-8.55-20.39,0,0,6.29-.82,10.61,2.47,0,0-16.28-16.27-32.03,2.57,0,0-2.04-2.77-5.93-4.81h0c-1.77-.92-3.92-1.69-6.43-1.99,0,0,10.61-12.77,26.37-14.78l-3.54,2.47c.62-.19,19.76-6.18,30.79,11.59,11.2,18.07-4.84,36.74-9.48,40.62Z"/>
    <path class="cls-14" d="M386.58,302.71s-10.61-12.77-26.36-14.78l3.55,2.47s-19.59-6.49-30.8,11.58c-11.21,18.07,4.85,36.76,9.49,40.62,0,0-1.78-2.39-2.86-7.57l4.94,1.78s-7.59-7.65-3.37-20.42c0,0,.82,5.77,3.09,8.44,0,0-4.94-14.31,8.55-20.39,0,0-6.28-.82-10.61,2.47,0,0,16.27-16.27,32.03,2.57,0,0,4.33-5.87,12.36-6.8Z"/>
    <path class="cls-4" d="M464.74,457.38s-.68-2.08-1.08-5.44c0,0-2.24,3.04-4.48,3.66,0,0-1.15-.76-2.08-3.66,0,0-2.85,2.58-4.33,3.2,0,0-1.49-.31-3.29-2.86-1.8,2.55-3.29,2.86-3.29,2.86-1.47-.62-4.33-3.2-4.33-3.2-.93,2.9-2.09,3.66-2.09,3.66-2.23-.62-4.48-3.66-4.48-3.66-.4,3.36-1.08,5.44-1.08,5.44-3.55-3.09-3.86-9.5-2.93-9.41.92.1,3.09,1.48,3.09,1.48,5.33-4.05,7.5,0,7.5,0,3.94-5.83,7.62-1.27,7.62-1.27,0,0,3.68-4.56,7.62,1.27,0,0,2.16-4.05,7.49,0,0,0,2.16-1.38,3.09-1.48.92-.09.62,6.31-2.93,9.41Z"/>
    <g>
      <path class="cls-4" d="M479.95,447.3c-.22,1.11-.45,2.17-.68,3.19-4.15,17.71-10.83,22.09-11.04,22.23h0c3.5-13.48,1.92-25.14,1.92-25.14,4.76,1.11,9.81-.28,9.81-.28Z"/>
      <path class="cls-2" d="M479.95,447.3c-.22,1.11-.45,2.17-.68,3.19-.2.05-.4.09-.61.13-3.29.6-5.82,3.2-6.2,6.52-1.1,9.54-4.1,15.33-4.23,15.58h0c3.5-13.48,1.92-25.14,1.92-25.14,4.76,1.11,9.81-.28,9.81-.28Z"/>
    </g>
    <g>
      <path class="cls-4" d="M419.09,447.3c.22,1.11.45,2.17.68,3.19,4.15,17.71,10.83,22.09,11.04,22.23h0c-3.5-13.48-1.92-25.14-1.92-25.14-4.76,1.11-9.81-.28-9.81-.28Z"/>
      <path class="cls-2" d="M419.09,447.3c.22,1.11.45,2.17.68,3.19.2.05.4.09.61.13,3.29.6,5.82,3.2,6.2,6.52,1.1,9.54,4.1,15.33,4.23,15.58h0c-3.5-13.48-1.92-25.14-1.92-25.14-4.76,1.11-9.81-.28-9.81-.28Z"/>
    </g>
    <path class="cls-2" d="M464.74,457.38c1.31-2.4,1.39-6.6,1.39-6.6-18.62-1.8-33.6,0-33.6,0,.05,4.27,1.67,6.6,1.67,6.6-3.55-3.09-3.86-9.5-2.93-9.41.92.1,3.09,1.48,3.09,1.48,5.33-4.05,7.5,0,7.5,0,3.94-5.83,7.62-1.27,7.62-1.27,0,0,3.68-4.56,7.62,1.27,0,0,2.16-4.05,7.49,0,0,0,2.16-1.38,3.09-1.48.92-.09.62,6.31-2.93,9.41Z"/>
    <path class="cls-10" d="M462.35,466.34c-10.9,0-12.67,8.71-12.89,12.91-.22-4.21-1.99-12.91-12.89-12.91,0,0-3.09,12.67,4.33,20.85,0,0,.57-2.68.46-6.13,0,0,2.09,8.08,8.07,9.58h.06c5.99-1.49,8.07-9.58,8.07-9.58-.1,3.45.46,6.13.46,6.13,7.41-8.19,4.33-20.85,4.33-20.85Z"/>
    <path class="cls-2" d="M438.25,496.15s-8.78-3.09-8.78-10.51c0-2.05.66-4.42,2.36-7.15,0,0,1.01,8.47,5.01,13.65.57.74.99,1.58,1.21,2.47.13.5.19,1.02.19,1.54Z"/>
    <path class="cls-4" d="M438.06,494.61c-9.33-4.04-6.22-16.12-6.22-16.12,0,0,1.01,8.47,5.01,13.65.57.74.99,1.58,1.21,2.47Z"/>
    <path class="cls-2" d="M460.8,496.15s8.78-3.09,8.78-10.51c0-2.05-.66-4.42-2.36-7.15,0,0-1.01,8.47-5.01,13.65-.57.74-.99,1.58-1.21,2.47-.13.5-.19,1.02-.19,1.54Z"/>
    <path class="cls-4" d="M460.99,494.61c9.33-4.04,6.22-16.12,6.22-16.12,0,0-1.01,8.47-5.01,13.65-.57.74-.99,1.58-1.21,2.47Z"/>
    <path class="cls-2" d="M455.89,494.3l.48-.5c-1.34.31-6.84.5-6.84.5,0,0-5.5-.19-6.84-.5l.48.5s-3.05-.39-4.13-2.78c0,0-.02,5.56,10.49,5.56s10.49-5.56,10.49-5.56c-1.08,2.39-4.13,2.78-4.13,2.78Z"/>
    <g>
      <path class="cls-4" d="M482.49,379.89s2.38-1.78,5.44-9.14c3.05-7.35,11.55-8.69,13.54-7.39s3.92,19.85-18.97,16.53Z"/>
      <circle class="cls-1" cx="489.47" cy="373.24" r="5.6"/>
      <ellipse class="cls-9" cx="493.67" cy="368.96" rx="3.44" ry="1.48" transform="translate(-111.8 484.06) rotate(-47.54)"/>
    </g>
    <g>
      <path class="cls-4" d="M415.07,379.89s-2.38-1.78-5.44-9.14c-3.05-7.35-11.55-8.69-13.54-7.39s-3.92,19.85,18.97,16.53Z"/>
      <circle class="cls-1" cx="408.08" cy="373.24" r="5.6"/>
      <ellipse class="cls-9" cx="403.88" cy="368.96" rx="1.48" ry="3.44" transform="translate(-143.15 369.44) rotate(-42.46)"/>
    </g>
    <path class="cls-5" d="M556.36,311.56c9.68,10.19,2.29,23.48,2.29,23.48l-4.94,1.78s7.59-7.65,3.37-20.42c0,0-.82,5.77-3.09,8.45,0,0,4.95-14.32-8.55-20.39,0,0,6.29-.82,10.61,2.47,0,0-16.28-16.27-32.03,2.57,0,0-2.04-2.77-5.93-4.81,4.24-3.95,9.9-7.09,17.46-8.27,27.7-4.33,27.39,21.11,27.39,21.11-1.96-4.74-6.6-5.98-6.6-5.98Z"/>
    <path class="cls-5" d="M341.99,311.56c-9.68,10.19-2.29,23.48-2.29,23.48l4.94,1.78s-7.59-7.65-3.37-20.42c0,0,.82,5.77,3.09,8.45,0,0-4.95-14.32,8.55-20.39,0,0-6.29-.82-10.61,2.47,0,0,16.28-16.27,32.03,2.57,0,0,2.04-2.77,5.93-4.81-4.24-3.95-9.9-7.09-17.46-8.27-27.7-4.33-27.39,21.11-27.39,21.11,1.96-4.74,6.6-5.98,6.6-5.98Z"/>
    <path class="cls-5" d="M523.89,396.14c-9.18,11.1-18.26,16.28-18.26,16.28.18-10.59-5.83-15.76-8.62-17.58-.3.07-.6.13-.89.2l3.64,6.94c7.3,18.04,2.15,32.45-4.1,39.95-6.95,8.34-14.21,17.46-18.23,36.61-3.63,17.27-10.63,19.72-11.98,20.04l4.25-.73c-5.29,4.38-16.06,4.35-19.48,4.23v-.02c-.27-.02-1.22-.02-1.5,0v.02c-3.42.13-14.2.15-19.48-4.23l4.25.73c-1.35-.32-8.35-2.77-11.98-20.04-4.01-19.15-11.27-28.27-18.23-36.61-6.26-7.51-11.4-21.92-4.1-39.95l3.64-6.94c-.29-.07-.58-.13-.89-.2-2.78,1.82-8.8,6.99-8.62,17.58,0,0-9.08-5.18-18.26-16.28-6.31-4.68-15.2-9.72-15.2-9.72,0,0,2.82,18.66,22.59,37.45,17.22,16.35,30.97,32.16,36.59,56.05,6.19,26.28,17.94,27.16,29.68,27.19h1.5c11.75-.03,23.69-.86,29.68-27.19,5.3-23.3,20.41-41.53,37.63-57.88,19.77-18.79,21.55-35.62,21.55-35.62,0,0-8.88,5.03-15.2,9.72Z"/>
    <path class="cls-14" d="M485.11,395.4c-5.75-5.18-17.59,2.16-17.59,2.16.24-8.71,4.09-10.53,4.09-10.53-6.41-3.09-13.36-3.32-13.36-3.32l8.65-3.42c-5.68-.76-12.43,1.1-12.78,1.2.48-.32,11.47-7.57,23.25-1.02,0,0-6.18.41-11.12,2.37,0,0,6.55.87,11.12,5.36,0,0-4.68.3-8.07,7.09.32-.35,8.2-8.61,15.8.13Z"/>
    <path class="cls-14" d="M413.37,395.4c5.75-5.18,17.59,2.16,17.59,2.16-.24-8.71-4.09-10.53-4.09-10.53,6.41-3.09,13.36-3.32,13.36-3.32l-8.65-3.42c5.68-.76,12.43,1.1,12.78,1.2-.48-.32-11.47-7.57-23.25-1.02,0,0,6.18.41,11.12,2.37,0,0-6.55.87-11.12,5.36,0,0,4.68.3,8.07,7.09-.32-.35-8.2-8.61-15.8.13Z"/>
    <path class="cls-1" d="M450.9,336.93s-.42-12.15,5.69-24.1c0,0-7.39,4.53-7.39,13.59,0-9.06-7.39-13.59-7.39-13.59,6.11,11.95,5.69,24.1,5.69,24.1-2.69-7.21-4.56-7.41-4.56-7.41,4.97,15.24,6.25,31.3,6.25,31.3,0,0,1.28-16.06,6.25-31.3,0,0-1.87.21-4.56,7.41Z"/>
  </g>
</svg>