<?xml version="1.0" encoding="UTF-8"?>
<svg id="object" xmlns="http://www.w3.org/2000/svg" viewBox="0 0 900 900">
  <defs>
    <style>
      .cls-1 {
        fill: #13182a;
      }

      .cls-2 {
        fill: #aaa9af;
      }

      .cls-3 {
        fill: #fff;
      }

      .cls-4 {
        fill: #2a3a46;
      }

      .cls-5 {
        fill: #768999;
      }

      .cls-6 {
        fill: #262e44;
      }

      .cls-7 {
        fill: #fcfbf3;
      }

      .cls-8 {
        fill: #5ba8ef;
      }

      .cls-9 {
        fill: #858588;
      }

      .cls-10 {
        fill: #4a6275;
      }

      .cls-11 {
        fill: #354a59;
      }
    </style>
  </defs>
  <path class="cls-3" d="M769.47,793.94c-4.81,0-9.88-.49-15.08-1.46-6.72-1.24-13.13-3.11-19.08-5.54l-15.09-2.43c-8.79-1.41-17.74-2.78-26.61-4.07l-7.06-1.02-7.4-1.01c-8.55-1.16-17.21-2.28-25.77-3.31l-3.61-.43-2.93-.34c-16.44-1.92-33.13-3.61-49.58-5.05l-11.95-1.04-11.97-.87c-8.54-.62-17.16-1.18-25.61-1.67l-21.67-1.25-65.04-1.53c-3.64-.02-7.28-.04-10.92-.04-4.78,0-9.57.02-14.35.06l-10.59.09-10.93.23c-8.5.18-17.08.43-25.51.73l-4.51.17c-7.14.28-14.33.6-21.38.97l-6.86.35-7.19.43c-5.38.32-10.88.68-16.34,1.06l-7.04.49-7.12.55c-6.99.54-14.17,1.15-21.35,1.8l-4.34.39-4.14.4c-8.1.78-16.27,1.62-24.28,2.5l-3.98.44c-5.77.65-11.73,1.35-17.7,2.09-1.99.25-3.95.41-5.84.51l-25.67,3.68c-8.08,1.15-16.18,2.36-24.07,3.6l-21.26,3.34c-5.71,2.31-11.97,4.09-18.61,5.32-5.63,1.05-11.12,1.58-16.29,1.58-26.47,0-47.43-14.23-56.09-38.07-3.18-8.55-4.66-18.79-4.66-32.22v-143.17l11.27-.04c1.22-10.45,5.8-19.63,10.35-25.97-.76-3.05-1.28-6.17-1.53-9.32-1.18-14.82,4.42-28.74,15.16-38.43-.51-3.86-.66-7.69-.44-11.45,1.13-19.12,12-35.57,30.07-45.79v-161.51L449.93,105.77l315.05,181.89v161.61c17.96,10.23,28.77,26.64,29.9,45.7.22,3.76.07,7.59-.44,11.45,10.74,9.69,16.33,23.61,15.16,38.43-.25,3.14-.76,6.24-1.52,9.29,8.75,12.06,15.09,31.16,6.82,49.23,4.91,6.46,8.59,13.91,10.9,22.12,2.27,7.95,3.39,17.83,3.39,30.12v47.12l-.23-.02c.86,5.71,1.28,12.08,1.28,19.23,0,14.03-1.85,25.49-5.67,35.05-9.09,23.11-29.7,36.95-55.09,36.95Z"/>
  <g>
    <polygon class="cls-1" points="750.53 296 750.53 634.31 716.27 641.16 668.8 650.61 668.8 649.36 160.16 649.36 149.34 643.11 149.34 296 449.93 122.45 750.53 296"/>
    <polygon class="cls-3" points="727.3 309.41 727.3 615.26 711.72 618.37 678.29 625.03 556.16 649.36 206.62 649.36 172.57 629.7 172.57 309.41 449.93 149.27 727.3 309.41"/>
    <polygon class="cls-2" points="711.72 318.4 711.72 618.37 678.29 625.03 556.16 649.36 237.76 649.36 188.12 620.7 188.12 318.4 449.93 167.24 711.72 318.4"/>
    <polygon class="cls-1" points="698.75 325.89 698.75 613.21 678.29 625.03 556.16 649.36 263.71 649.36 201.1 613.21 201.1 325.89 449.93 182.23 698.75 325.89"/>
  </g>
  <path class="cls-1" d="M709.4,476.97c-21.45-47.14-74-72.18-74-72.18,13.63,3.39,24.36-2.49,24.36-2.49-19.05-6.34-21.15-20.83-23.68-31.53-4.35-18.49-12.97-31.38-12.97-31.38l16.9,4.84c-7.85-14.78-20.42-26.25-20.42-26.25,3.72-6.04,35.81-49.18,2.93-81.46-32.89-32.29-74.83-4.6-74.83-4.6-10.99-7.33-21.72-8.68-21.72-8.68-30.05-30.62-71.84-14.55-76.08-12.81-4.24-1.74-46.03-17.8-76.08,12.81,0,0-10.73,1.35-21.72,8.68,0,0-41.93-27.69-74.83,4.6-32.88,32.28-.79,75.42,2.93,81.46,0,0-12.58,11.47-20.42,26.25l16.9-4.84s-8.62,12.89-12.97,31.38c-2.52,10.7-4.63,25.2-23.68,31.53,0,0,10.73,5.88,24.36,2.49,0,0-52.56,25.04-74,72.18-19.37,42.57,71.35,172.88,71.35,172.88h376.32s90.72-130.31,71.35-172.88Z"/>
  <path class="cls-5" d="M619.19,376.49s-9.42-16.29-24.13-22.85c0,0,23.53,26.25,4.07,64.27,0,0,1.58-17.88-4.3-32.13,0,0,.69,25.72-16.52,47.14,0,0,2.95-11.62,2.95-22.47,0,0-6.34,35.75-33.95,51.59,0,0,9.05-14.26,12.45-34.85,0,0-21.61,7.79-43.15,39.83-24.74,36.78-12.09,69.43-33.79,82.06-14.22,8.29-29.64,8.4-32.86,8.32-.12,0-.25.01-.41,0-3.97.05-18.77-.34-32.46-8.32-21.7-12.63-9.05-45.28-33.79-82.06-21.54-32.04-43.15-39.83-43.15-39.83,3.4,20.59,12.45,34.85,12.45,34.85-27.6-15.84-33.94-51.59-33.94-51.59,0,10.86,2.94,22.47,2.94,22.47-17.19-21.42-16.52-47.14-16.52-47.14-5.88,14.26-4.3,32.13-4.3,32.13-19.46-38.02,4.08-64.27,4.08-64.27-14.71,6.56-24.14,22.85-24.14,22.85-3.62-34.39,18.7-44.35,18.7-44.35-9.72.43-13.57,4.77-13.87,5.11.21-.43,3.88-7.34,16.58-10.85,13.13-3.61,17.28-8.98,17.28-8.98-4.83-1.5-13.88,0-13.88,0,10.18-9.27,28.28-9.95,28.28-9.95l-12.22-2.95c9.96-8.14,22.63-5.43,22.63-5.43,1.53-7.23,6.67-11.71,7-11.99-1.22.46-2.42.86-3.6,1.17l-.13.04c-16.05,4.39-28.16-3.03-28.16-3.03,0,0,11.09.68,31-16.29,7.05-6.01,14.32-7.98,20.77-8.03h.06c7.82-.03,14.44,2.78,17.96,4.65.01.01.03.02.04.02,1.57.83,2.52,1.48,2.69,1.59-.15-.17-.3-.34-.43-.5-.24-.27-.48-.54-.71-.8-8.7-9.81-14.52-14.52-14.52-14.52l11.62,1.96c-7.01-9.86-16.83-12.8-20.69-13.6-1.05-.21-1.65-.27-1.65-.27.4-.19.79-.37,1.19-.53,1.18-.54,2.35-1.02,3.52-1.46.73-.27,1.46-.54,2.18-.78.51-.18,1.01-.35,1.51-.51.04-.01.07-.02.12-.03.43-.14.86-.26,1.28-.39.39-.12.78-.23,1.18-.34.5-.13.99-.26,1.48-.38.36-.1.72-.18,1.07-.25.8-.19,1.61-.36,2.4-.51.36-.07.72-.14,1.07-.2,1.66-.29,3.28-.51,4.88-.67.34-.04.69-.07,1.02-.1.3-.02.58-.05.88-.06.54-.04,1.07-.07,1.59-.1,10.36-.49,19.05,1.53,24.73,3.41.31.1.59.19.88.3.57.19,1.11.38,1.61.57.49.19.94.37,1.36.54,1.9.77,3.02,1.35,3.23,1.46-.64-.93-1.36-1.8-2.12-2.6-.25-.27-.52-.54-.78-.79-.35-.35-.72-.69-1.09-1-.23-.2-.46-.4-.71-.59-2.85-2.3-6.11-4.01-9.34-5.28-.8-.32-1.62-.6-2.41-.87-7.63-2.53-14.45-2.72-14.45-2.72h-.02c2.01-1.21,4-2.28,5.97-3.19,1.96-.9,3.91-1.67,5.81-2.3,9.04-3.01,17.36-3.05,24.37-1.82,1.8.32,3.5.72,5.11,1.17.01,0,.02.01.04.01.79.22,1.56.46,2.31.72.02,0,.03,0,.04.01.76.25,1.48.52,2.19.78h.01c.7.27,1.37.55,2.03.82.62.26,1.24.54,1.82.81.95.44,1.83.89,2.63,1.32.5.27.96.53,1.4.78.01,0,.03.01.04.02.43.25.83.51,1.21.73,1.37.84,2.33,1.53,2.84,1.91.08.07.16.13.22.18.02.01.04.02.05.03.01.01.03.02.04.03.04.03.06.05.07.06.02-.01.1-.08.24-.19.04-.03.1-.07.16-.12,3.42-2.56,28.27-19.71,57.81-1.78,0,0-21.57.6-30.92,13.88,0,0,25.87-13.97,56-.53.39.17.78.35,1.17.53,0,0-.6.06-1.63.27-3.84.79-13.69,3.72-20.7,13.6l11.62-1.96s-5.83,4.72-14.57,14.56c-.22.25-.45.52-.69.78-.14.16-.27.32-.41.48.16-.11,1.01-.69,2.44-1.47,3.45-1.86,10.23-4.84,18.31-4.79h.04c6.44.04,13.71,2.03,20.75,8.03,18.31,15.61,29.17,16.28,30.78,16.29h.21s-14.01,8.6-31.89,1.82c.33.27,5.47,4.75,7,11.99l.21-.04c1.68-.31,13.21-2.06,22.42,5.47l-12.22,2.95s18.1.68,28.28,9.95c0,0-9.05-1.5-13.88,0,0,0,4.15,5.36,17.28,8.98,12.71,3.51,16.37,10.41,16.58,10.85-.3-.34-4.15-4.68-13.87-5.11,0,0,22.32,9.96,18.7,44.35Z"/>
  <path class="cls-11" d="M552.67,322.34c-23.4-9.95-32.13,4.83-32.13,4.83-.75-3.5,0-10.71,0-10.71-11.47,6.19-16.44,21.42-16.44,21.42v-6.19s-3.77,14.18-14.66,15.99c-10.89,1.81-12.34-14.78-12.34-14.78-2.56,6.03-3.47,22.93-3.47,22.93l18.56,6.79,14.04,15.15,13.72,40.07,6.42,23.46c11.56-23.5,2.55-42.32,2.55-42.32l5.66,2.56c-1.49-8.32-5.48-14.55-8.3-18.09,14.18.39,20.97-5.3,20.97-5.3-10.71.45-17.05-5.88-17.05-5.88,15.09-11.31,12.52-34.85,12.52-34.85,1.06-9.81,9.96-15.09,9.96-15.09Z"/>
  <path class="cls-11" d="M681.7,489.06s-13.15-50.89-52.51-63.8l10.21,18.02c-19.08-9.11-33.78-4.06-33.78-4.06-10.51,17.78-10.52,39.18-9.95,48.23.17,2.77.4,4.38.4,4.38-3.81-9.38-12.89-13.41-12.89-13.41,10.84,23.98,8.78,44.47,8.78,44.47-12.34-17.03-34.92-21.27-34.92-21.27,3.79,36.68-13.94,59.85-12.91,58.9,23.2-21.36,25.84-37.69,25.84-37.69,23.91,13.63,44.49,36.23,44.49,36.23-14.86-29.8-9.35-75.9-9.35-75.9,9.2,11.62,15.29,32.88,15.29,32.88-.03-4.89-.28-9.75-.7-14.51l20.17-12.09-.05-5c.28,1.21.57,2.44.85,3.71,0,0,2.46-9.66,1.23-18.89,0,0,12.16,2.41,20.87,25.89,0,0-.12-26.2-17.28-45.11,0,0,20.92,15.11,36.21,39.02Z"/>
  <path class="cls-11" d="M221.59,489.06s13.15-50.89,52.51-63.8l-10.21,18.02c19.08-9.11,33.78-4.06,33.78-4.06,10.51,17.78,10.52,39.18,9.95,48.23-.17,2.77-.4,4.38-.4,4.38,3.81-9.38,12.89-13.41,12.89-13.41-10.84,23.98-8.78,44.47-8.78,44.47,12.34-17.03,34.92-21.27,34.92-21.27-3.79,36.68,13.94,59.85,12.91,58.9-23.2-21.36-25.84-37.69-25.84-37.69-23.91,13.63-44.49,36.23-44.49,36.23,14.86-29.8,9.35-75.9,9.35-75.9-9.2,11.62-15.29,32.88-15.29,32.88.03-4.89.28-9.75.7-14.51l-20.17-12.09.05-5c-.28,1.21-.57,2.44-.85,3.71,0,0-2.46-9.66-1.23-18.89,0,0-12.16,2.41-20.87,25.89,0,0,.12-26.2,17.28-45.11,0,0-20.92,15.11-36.21,39.02Z"/>
  <path class="cls-4" d="M512.09,253.39l11.62-1.96s-5.83,4.72-14.57,14.56l-2.45,1.76c.13-.07.74-.44,1.76-.98.56-.29,1.24-.62,2.03-.99,3.91-1.8,10.51-4.26,18.31-4.79h.03c-.67.27-28.95,11.85-41.78,31.53,0,0,12.98-9.96,26.25-13.58,0,0-31.99,28.97-37.41,55.51,0,0-2.99-12.57,3.23-23.39-.98,1.5-9.48,15.22-8.06,34.55l-.16,12.38-19.9,14.77v1.55s-1.05-.78-1.05-.78l-1.05.78v-1.55s-19.88-14.77-19.88-14.77l-.16-12.38c1.43-19.34-7.08-33.05-8.06-34.55,6.22,10.82,3.23,23.39,3.23,23.39-5.43-26.55-37.41-55.51-37.41-55.51,13.27,3.62,26.25,13.58,26.25,13.58-12.79-19.62-40.93-31.18-41.76-31.53h.05c7.58.53,14.02,2.87,17.96,4.65.01.01.03.02.04.02.1.04.18.08.27.13.77.36,1.44.69,1.99.97.01.01.03.01.04.02,1.02.54,1.64.91,1.76.98l-2.45-1.76-.06-.04c-8.7-9.81-14.52-14.52-14.52-14.52l11.62,1.96c-7.01-9.86-16.83-12.8-20.69-13.6-.16-.26-.31-.53-.45-.8,1.18-.53,2.35-1.01,3.52-1.46.73-.27,1.46-.54,2.18-.78.51-.18,1.01-.35,1.51-.51.04-.01.07-.02.12-.03.43-.14.86-.26,1.28-.39.39-.12.78-.23,1.18-.34.5-.13.99-.26,1.48-.38.36-.1.72-.18,1.07-.25.8-.19,1.61-.36,2.4-.51.36-.07.72-.14,1.07-.2,1.66-.29,3.28-.51,4.88-.67.34-.04.69-.07,1.02-.1.3-.02.58-.05.88-.06.54-.04,1.07-.07,1.59-.1,10.36-.49,19.05,1.53,24.73,3.41.31.1.59.19.88.3.57.19,1.11.38,1.61.57.49.19.94.37,1.36.54,1.9.77,3.02,1.35,3.23,1.46.02.01.03.02.03.02-.65-.94-1.38-1.81-2.15-2.62-.25-.27-.52-.54-.78-.79-.35-.35-.72-.69-1.09-1-.23-.2-.46-.4-.71-.59-2.85-2.31-6.1-4.02-9.34-5.28-.8-.32-1.62-.6-2.41-.87-7.63-2.53-14.45-2.72-14.45-2.72,2.01-1.21,3.99-2.27,5.95-3.19,1.96-.9,3.91-1.67,5.81-2.3,9.04-3.01,17.36-3.05,24.37-1.82,1.8.32,3.5.72,5.11,1.17.01,0,.02.01.04.01.79.22,1.56.46,2.31.72.02,0,.03,0,.04.01.76.25,1.48.52,2.19.78h.01c.7.26,1.37.55,2.03.82.62.26,1.24.54,1.82.81.95.44,1.83.89,2.63,1.32.5.26.96.53,1.4.78.01,0,.03.01.04.02.43.25.83.5,1.21.73,1.37.84,2.33,1.53,2.84,1.91.06.04.12.08.16.12.05.03.08.06.12.1.01.01.03.02.04.03.04.03.06.05.07.06.02-.01.1-.08.24-.19.04-.03.1-.07.16-.12,3.42-2.56,28.27-19.71,57.81-1.78,0,0-21.57.6-30.92,13.88,0,0,25.87-13.97,56-.53-.15.27-.3.54-.45.8-3.84.79-13.69,3.72-20.7,13.6Z"/>
  <path class="cls-11" d="M600.49,332.14c9.72.43,13.57,4.77,13.87,5.11-.21-.43-3.87-7.34-16.58-10.85-13.13-3.61-17.28-8.98-17.28-8.98,4.83-1.5,13.88,0,13.88,0-10.18-9.27-28.28-9.95-28.28-9.95l12.22-2.95c-9.21-7.53-20.74-5.78-22.42-5.47l-.21.04-12.82,4.41s45.26,12.63,23.23,28.02c0,0,9.96-1.51,21.42,5.43,0,0-13.57-3.32-28.66,2.72,0,0,12.23-1.82,22.56,6.34,0,0,2.02,15.08-22.47,44.4,0,0,14.49-5.83,20.2-11.55,0,0-.51,19.9-25.52,45.55-24.52-5.34-97.33,16.45-103.27,18.25h0s-74.93-22.74-102.32-18.59c-25.83-25.94-27.31-45.21-27.31-45.21,5.71,5.73,20.2,11.55,20.2,11.55-24.49-29.32-22.46-44.4-22.46-44.4,10.33-8.15,22.56-6.34,22.56-6.34-15.09-6.04-28.66-2.72-28.66-2.72,11.46-6.94,21.42-5.43,21.42-5.43-22.03-15.39,23.23-28.02,23.23-28.02l-12.82-4.41-.21-.04c-1.68-.31-13.21-2.06-22.42,5.47l12.22,2.95s-18.1.68-28.28,9.95c0,0,9.05-1.5,13.88,0,0,0-4.15,5.36-17.28,8.98-12.71,3.51-16.37,10.41-16.58,10.85.3-.34,4.15-4.68,13.87-5.11,0,0-22.32,9.96-18.7,44.35,0,0,9.42-16.29,24.13-22.85,0,0-23.53,26.25-4.07,64.27,0,0-1.58-17.88,4.3-32.13,0,0-.69,25.72,16.52,47.14,0,0-2.95-11.62-2.95-22.47,0,0,6.34,35.75,33.95,51.59,0,0-9.01-14.2-12.43-34.72,2.53,2.75,46.09,50.53,62.8,100,.7,2.07,1.42,4.25,2.28,6.45,1.53,4.39,3.58,8.2,6.66,11.32,5.84,6.52,15.7,11.62,34.08,12.24,1.85.1,3.23.09,3.96.07.01,0,.02,0,.03,0,.8.02,2.34.03,4.42-.1,17.39-.68,27.05-5.42,32.9-11.54,3.97-3.7,6.35-8.43,8.05-14.02.54-1.51,1.04-3,1.52-4.43,17.16-50.82,62.65-99.85,62.91-100.12,0,0,0,0,0,0-3.4,20.59-12.45,34.85-12.45,34.85,27.61-15.84,33.95-51.59,33.95-51.59,0,10.86-2.95,22.47-2.95,22.47,17.2-21.42,16.52-47.14,16.52-47.14,5.88,14.26,4.3,32.13,4.3,32.13,19.46-38.02-4.07-64.27-4.07-64.27,14.71,6.56,24.13,22.85,24.13,22.85,3.62-34.39-18.7-44.35-18.7-44.35Z"/>
  <path class="cls-5" d="M517.98,281.59l-30.94,54.44-9.21,21.59-27.89,3.68-.06-.42v.42s-27.88-3.68-27.88-3.68l-9.2-21.59-30.95-54.44,4.74-2.94s12.93,7.23,28.74,23.11c10.37,10.39,17.27,15.79,17.61-1.52,0,0,8.89,6.34,5.39,17.46,0,0,5.26-8,2.04-24.88,7.29,22.33,9.17,45.87,9.17,45.87,0,0,1.88-23.53,9.16-45.87-3.68,16.63,2.79,24.88,2.79,24.88-3.49-11.11,5.4-17.46,5.4-17.46.33,17.31,7.24,11.91,17.6,1.52,15.81-15.88,28.74-23.11,28.74-23.11l4.74,2.94Z"/>
  <path class="cls-11" d="M346.42,322.34c23.4-9.95,32.13,4.83,32.13,4.83.75-3.5,0-10.71,0-10.71,11.47,6.19,16.44,21.42,16.44,21.42v-6.19s3.77,14.18,14.66,15.99c10.89,1.81,12.34-14.78,12.34-14.78,2.56,6.03,3.47,22.93,3.47,22.93l-18.56,6.79-14.04,15.15-13.72,40.07-6.42,23.46c-11.56-23.5-2.55-42.32-2.55-42.32l-5.66,2.56c1.49-8.32,5.48-14.55,8.3-18.09-14.18.39-20.97-5.3-20.97-5.3,10.71.45,17.05-5.88,17.05-5.88-15.09-11.31-12.52-34.85-12.52-34.85-1.06-9.81-9.96-15.09-9.96-15.09Z"/>
  <path class="cls-1" d="M552.67,322.34s-20.37-4.53-35.75,12.52c0,0-2.26-7.39,3.62-18.4,0,0-4.37,1.96-7.39,10.41-3.02,8.45-8.9,25.65-28.21,26.85,0,0-10.41-2.56-7.84-20.82,0,0-3.17,4.98-3.62,13.88-.45,8.9-9.96,9.65-15.69,2.87,0,0-1.66,9.81,7.84,12.67,0,0-5.13,3.32-8.9,6.64,0,0,16.44-11.31,34.09-1.51,0,0-9.05.6-16.29,3.47,0,0,9.58,1.28,16.29,7.84,0,0-6.86.45-11.84,10.41,0,0,13.5-14.78,25.57,3.32,9.78,14.66,18.4,60.04-8.45,66.68-26.85,6.64-42.42-5.86-43.6-16.37h-5.91c-1.17,10.51-16.75,23.01-43.6,16.37-26.85-6.64-18.22-52.02-8.45-66.68,12.07-18.1,25.57-3.32,25.57-3.32-4.98-9.96-11.84-10.41-11.84-10.41,6.71-6.56,16.29-7.84,16.29-7.84-7.24-2.87-16.29-3.47-16.29-3.47,17.65-9.81,34.09,1.51,34.09,1.51-3.77-3.32-8.9-6.64-8.9-6.64,9.5-2.87,7.84-12.67,7.84-12.67-5.73,6.79-15.24,6.03-15.69-2.87-.45-8.9-3.62-13.88-3.62-13.88,2.56,18.25-7.84,20.82-7.84,20.82-19.31-1.21-25.19-18.4-28.21-26.85-3.02-8.45-7.39-10.41-7.39-10.41,5.88,11.01,3.62,18.4,3.62,18.4-15.39-17.05-35.75-12.52-35.75-12.52,14.78,3.32,16.75,14.93,16.75,14.93-4.22,30.47,19.16,37.26,19.16,37.26-5.28,2.11-15.54,3.47-15.54,3.47,14.93.91,24.82-2.19,24.82-2.19-14.26,7.01-20.37,19.46-20.37,19.46l8.37-5.2c-16.52,30.55-8.37,55.21,1.81,67.43,10.18,12.22,20.82,25.57,26.7,53.63,5.47,26.11,16.23,29.1,17.7,29.39l-6.39-1.1c9.28,7.69,30.11,6.11,30.11,6.11,0,0,20.83,1.58,30.11-6.11l-6.39,1.1c1.47-.29,12.23-3.28,17.7-29.39,5.88-28.06,16.52-41.41,26.7-53.63,10.18-12.22,18.33-36.88,1.81-67.43l8.37,5.2s-6.11-12.45-20.37-19.46c0,0,9.88,3.09,24.82,2.19,0,0-10.26-1.36-15.54-3.47,0,0,23.38-6.79,19.16-37.26,0,0,1.96-11.62,16.75-14.93Z"/>
  <path class="cls-1" d="M458.48,453.29c-1.53-1.1-2.41-2.11-2.82-3.04.79,1.06,1.73,2.08,2.82,3.04Z"/>
  <g>
    <path class="cls-4" d="M504.89,392.48c-11.83-17.74-25.04-3.87-25.55-3.32,4.97-9.94,11.82-10.4,11.82-10.4-6.71-6.57-16.29-7.84-16.29-7.84,7.24-2.87,16.29-3.47,16.29-3.47-16.88-9.39-32.65.56-34,1.43,3.76-3.3,8.81-6.57,8.81-6.57-9.5-2.87-7.84-12.68-7.84-12.68-8.04,3.6-8.23,10.97-8.23,11.66-.18-7.59-8.24-11.66-8.24-11.66,0,0,1.67,9.81-7.84,12.68,0,0,5.06,3.27,8.81,6.57-1.34-.88-17.12-10.82-34-1.43,0,0,9.04.6,16.29,3.47,0,0-9.58,1.28-16.29,7.84,0,0,6.86.46,11.83,10.4-.51-.54-13.73-14.42-25.57,3.32-9.78,14.67-18.4,60.04,8.44,66.69,26.85,6.63,42.43-5.87,43.6-16.38h5.92c1.17,10.51,16.74,23.01,43.6,16.38,26.84-6.64,18.22-52.02,8.44-66.69Z"/>
    <path class="cls-11" d="M496.09,459.17c-17.78,4.39-30.61.4-37.59-5.86l-.02-.02c-1.53-1.1-2.41-2.11-2.82-3.04h0c-2.14-4.99,9.5-7.48,9.5-7.48,9-1.86,21.87-7.16,23.99-22.22,0,0,2.42,16.44-15.24,26.4-11.97,6.75,17.28,8.23,26.1-1.51l-3.01,7c.5-.29,19.44-9.22,13.69-45.76,5.71,19.34,6.06,47.37-14.6,52.48Z"/>
    <path class="cls-11" d="M403.56,459.17c17.78,4.39,30.61.4,37.59-5.86l.02-.02c1.53-1.1,2.41-2.11,2.82-3.04h0c2.14-4.99-9.5-7.48-9.5-7.48-9-1.86-21.87-7.16-23.99-22.22,0,0-2.42,16.44,15.24,26.4,11.97,6.75-17.28,8.23-26.1-1.51l3.01,7c-.5-.29-19.44-9.22-13.69-45.76-5.71,19.34-6.06,47.37,14.6,52.48Z"/>
  </g>
  <path class="cls-1" d="M449.94,387.36c-15.09,0-42.54,9.65-39.22,33.19,2.09,14.84,14.61,20.2,23.58,22.13l-.37.09s16.44,3.5,6.67,10.54l8.55,1.26v-10.79h.82v10.79l8.55-1.26c-9.77-7.04,6.67-10.54,6.67-10.54h0c9-1.86,21.88-7.15,24-22.22,3.32-23.53-24.14-33.19-39.22-33.19Z"/>
  <path class="cls-6" d="M449.94,392.49c-24.74,0-35.6,14.18-35,23.53.6,9.35,13.43,16.9,13.43,16.9,0,0-13.28-10.26.75-18.56,14.03-8.3,19.76,10.56,16.29,17.2h0c2.92,1.08,6.13,1.08,9.05,0h0c-3.47-6.64,2.26-25.49,16.29-17.2,14.03,8.3.75,18.56.75,18.56,0,0,12.82-7.54,13.43-16.9.6-9.35-10.26-23.53-35-23.53Z"/>
  <path class="cls-3" d="M423.38,408.48s4.93-12.07,26.55-12.07,27.15,12.07,27.15,12.07c0,0-24.74-16.75-53.71,0Z"/>
  <path class="cls-11" d="M605.71,311.99c.15-.21,2.64-3.73,4.17-11.08l-7.23,2.61s11.12-11.2,4.93-29.92c0,0-1.2,8.45-4.52,12.38,0,0,7.24-20.97-12.52-29.87,0,0,9.21-1.2,15.54,3.62,0,0-23.84-23.83-46.92,3.77,0,0-2.99-4.06-8.68-7.04h-.01c-2.6-1.35-5.74-2.48-9.42-2.91,0,0,15.54-18.7,38.63-21.65l-5.19,3.61c.91-.29,28.95-9.06,45.1,16.98,16.41,26.47-7.09,53.82-13.89,59.51Z"/>
  <path class="cls-11" d="M357.79,253.55s-15.54-18.71-38.62-21.65l5.2,3.62s-28.7-9.5-45.13,16.97c-16.42,26.48,7.11,53.86,13.9,59.51,0,0-2.6-3.51-4.19-11.09l7.24,2.6s-11.13-11.2-4.94-29.91c0,0,1.21,8.45,4.53,12.37,0,0-7.24-20.97,12.52-29.87,0,0-9.2-1.21-15.54,3.62,0,0,23.84-23.84,46.92,3.77,0,0,6.34-8.6,18.1-9.96Z"/>
  <path class="cls-3" d="M472.3,480.14s-.99-3.05-1.58-7.97c0,0-3.28,4.46-6.57,5.36,0,0-1.69-1.12-3.05-5.36,0,0-4.18,3.78-6.34,4.69,0,0-2.19-.45-4.83-4.19-2.64,3.74-4.83,4.19-4.83,4.19-2.15-.91-6.34-4.69-6.34-4.69-1.36,4.25-3.06,5.36-3.06,5.36-3.27-.91-6.56-5.36-6.56-5.36-.59,4.92-1.58,7.97-1.58,7.97-5.21-4.53-5.66-13.92-4.3-13.78,1.35.15,4.52,2.18,4.52,2.18,7.81-5.93,10.98,0,10.98,0,5.77-8.54,11.16-1.86,11.16-1.86,0,0,5.4-6.68,11.16,1.86,0,0,3.17-5.93,10.97,0,0,0,3.17-2.03,4.53-2.18,1.35-.14.91,9.25-4.3,13.78Z"/>
  <g>
    <path class="cls-3" d="M494.58,465.37c-.32,1.63-.65,3.18-1,4.67-6.08,25.95-15.86,32.37-16.18,32.57h-.01c5.13-19.75,2.82-36.82,2.82-36.82,6.97,1.63,14.37-.41,14.37-.41Z"/>
    <path class="cls-2" d="M494.58,465.37c-.32,1.63-.65,3.18-1,4.67-.29.07-.59.13-.89.19-4.82.88-8.53,4.69-9.09,9.55-1.62,13.98-6,22.45-6.19,22.83h-.01c5.13-19.75,2.82-36.82,2.82-36.82,6.97,1.63,14.37-.41,14.37-.41Z"/>
  </g>
  <g>
    <path class="cls-3" d="M405.43,465.37c.32,1.63.65,3.18,1,4.67,6.08,25.95,15.86,32.37,16.18,32.57h.01c-5.13-19.75-2.82-36.82-2.82-36.82-6.97,1.63-14.37-.41-14.37-.41Z"/>
    <path class="cls-2" d="M405.43,465.37c.32,1.63.65,3.18,1,4.67.29.07.59.13.89.19,4.82.88,8.53,4.69,9.09,9.55,1.62,13.98,6,22.45,6.19,22.83h.01c-5.13-19.75-2.82-36.82-2.82-36.82-6.97,1.63-14.37-.41-14.37-.41Z"/>
  </g>
  <path class="cls-2" d="M472.3,480.14c1.92-3.52,2.04-9.66,2.04-9.66-27.28-2.64-49.22,0-49.22,0,.07,6.26,2.45,9.66,2.45,9.66-5.21-4.53-5.66-13.92-4.3-13.78,1.35.15,4.52,2.18,4.52,2.18,7.81-5.93,10.98,0,10.98,0,5.77-8.54,11.16-1.86,11.16-1.86,0,0,5.4-6.68,11.16,1.86,0,0,3.17-5.93,10.97,0,0,0,3.17-2.03,4.53-2.18,1.35-.14.91,9.25-4.3,13.78Z"/>
  <path class="cls-8" d="M468.79,493.26c-15.97,0-18.56,12.76-18.88,18.92-.32-6.16-2.92-18.92-18.88-18.92,0,0-4.53,18.56,6.34,30.55,0,0,.83-3.92.68-8.98,0,0,3.05,11.84,11.82,14.03h.08c8.77-2.19,11.82-14.03,11.82-14.03-.15,5.05.68,8.98.68,8.98,10.86-11.99,6.34-30.55,6.34-30.55Z"/>
  <path class="cls-2" d="M433.5,536.93s-12.86-4.52-12.86-15.4c0-3,.97-6.47,3.46-10.48,0,0,1.48,12.41,7.34,19.99.83,1.08,1.45,2.31,1.77,3.62.19.74.29,1.49.29,2.26Z"/>
  <path class="cls-3" d="M433.21,534.67c-13.68-5.92-9.11-23.61-9.11-23.61,0,0,1.48,12.41,7.34,19.99.83,1.08,1.45,2.31,1.77,3.62Z"/>
  <path class="cls-2" d="M466.52,536.93s12.86-4.52,12.86-15.4c0-3-.97-6.47-3.46-10.48,0,0-1.48,12.41-7.34,19.99-.83,1.08-1.45,2.31-1.77,3.62-.19.74-.29,1.49-.29,2.26Z"/>
  <path class="cls-3" d="M466.81,534.67c13.68-5.92,9.11-23.61,9.11-23.61,0,0-1.48,12.41-7.34,19.99-.83,1.08-1.45,2.31-1.77,3.62Z"/>
  <path class="cls-2" d="M459.33,534.22l.7-.74c-1.96.45-10.02.74-10.02.74,0,0-8.06-.28-10.02-.74l.7.74s-4.47-.57-6.05-4.07c0,0-.03,8.15,15.37,8.15s15.37-8.15,15.37-8.15c-1.58,3.51-6.05,4.07-6.05,4.07Z"/>
  <g>
    <path class="cls-3" d="M498.3,366.61s3.49-2.61,7.96-13.38c4.47-10.77,16.92-12.73,19.83-10.83,2.91,1.9,5.74,29.08-27.79,24.21Z"/>
    <circle class="cls-1" cx="508.53" cy="356.87" r="8.21"/>
    <ellipse class="cls-7" cx="514.68" cy="350.6" rx="5.04" ry="2.18" transform="translate(-91.43 493.59) rotate(-47.54)"/>
  </g>
  <g>
    <path class="cls-3" d="M399.53,366.61s-3.49-2.61-7.96-13.38c-4.47-10.77-16.92-12.73-19.83-10.83-2.91,1.9-5.74,29.08,27.79,24.21Z"/>
    <circle class="cls-1" cx="389.29" cy="356.87" r="8.21"/>
    <ellipse class="cls-7" cx="383.14" cy="350.6" rx="2.18" ry="5.04" transform="translate(-136.2 350.62) rotate(-42.46)"/>
  </g>
  <path class="cls-4" d="M606.52,266.52c14.18,14.92,3.36,34.39,3.36,34.39l-7.23,2.61s11.12-11.2,4.93-29.92c0,0-1.2,8.45-4.52,12.38,0,0,7.24-20.97-12.52-29.87,0,0,9.21-1.2,15.54,3.62,0,0-23.84-23.83-46.92,3.77,0,0-2.99-4.06-8.68-7.04,6.21-5.79,14.51-10.38,25.58-12.11,40.58-6.34,40.13,30.93,40.13,30.93-2.87-6.94-9.66-8.75-9.66-8.75Z"/>
  <path class="cls-4" d="M292.47,266.52c-14.18,14.92-3.36,34.39-3.36,34.39l7.23,2.61s-11.12-11.2-4.93-29.92c0,0,1.2,8.45,4.52,12.38,0,0-7.24-20.97,12.52-29.87,0,0-9.21-1.2-15.54,3.62,0,0,23.84-23.83,46.92,3.77,0,0,2.99-4.06,8.68-7.04-6.21-5.79-14.51-10.38-25.58-12.11-40.58-6.34-40.13,30.93-40.13,30.93,2.87-6.94,9.66-8.75,9.66-8.75Z"/>
  <path class="cls-4" d="M558.94,390.43c-13.45,16.26-26.75,23.84-26.75,23.84.27-15.51-8.54-23.09-12.62-25.75-.44.1-.88.19-1.3.29l5.33,10.17c10.69,26.42,3.16,47.53-6.01,58.53-10.19,12.22-20.82,25.58-26.7,53.63-5.31,25.3-15.57,28.89-17.54,29.35l6.22-1.07c-7.74,6.42-23.53,6.38-28.54,6.19v-.04c-.4-.03-1.79-.03-2.19,0v.04c-5.01.19-20.8.23-28.54-6.19l6.22,1.07c-1.98-.47-12.23-4.06-17.54-29.35-5.88-28.05-16.51-41.41-26.7-53.63-9.17-11-16.7-32.11-6.01-58.53l5.33-10.17c-.42-.1-.86-.19-1.3-.29-4.08,2.67-12.89,10.24-12.62,25.75,0,0-13.3-7.59-26.75-23.84-9.25-6.86-22.26-14.23-22.26-14.23,0,0,4.13,27.33,33.1,54.87,25.23,23.96,45.36,47.12,53.6,82.11,9.06,38.5,26.28,39.79,43.47,39.83h2.19c17.21-.04,34.7-1.26,43.47-39.83,7.76-34.13,29.9-60.84,55.13-84.8,28.97-27.53,31.57-52.18,31.57-52.18,0,0-13.02,7.38-22.26,14.23Z"/>
  <path class="cls-11" d="M502.14,389.34c-8.42-7.59-25.77,3.16-25.77,3.16.35-12.76,6-15.43,6-15.43-9.39-4.53-19.57-4.87-19.57-4.87l12.67-5.01c-8.32-1.12-18.22,1.62-18.72,1.75.7-.48,16.8-11.09,34.07-1.5,0,0-9.05.6-16.29,3.47,0,0,9.59,1.28,16.29,7.85,0,0-6.85.44-11.83,10.38.48-.51,12.01-12.61,23.15.19Z"/>
  <path class="cls-11" d="M397.04,389.34c8.42-7.59,25.77,3.16,25.77,3.16-.35-12.76-6-15.43-6-15.43,9.39-4.53,19.57-4.87,19.57-4.87l-12.67-5.01c8.32-1.12,18.22,1.62,18.72,1.75-.7-.48-16.8-11.09-34.07-1.5,0,0,9.05.6,16.29,3.47,0,0-9.59,1.28-16.29,7.85,0,0,6.85.44,11.83,10.38-.48-.51-12.01-12.61-23.15.19Z"/>
  <path class="cls-1" d="M687.05,613.37l-47.6-14.52c-16.02-7.29-33.98-14.05-38.74-15.81l-20.96-28.52c-1.91-2.59-17.85-25.71.41-54.85,5.49-8.77,13.32-16.82,18.91-22.04,5.38-5.01,11.78-8.48,18.51-10.01,4.6-1.05,9.11-1.24,13.4-.57,2.75.43,5.44,1.22,8.02,2.36.62.28,3.98,1.99,6.77,3.46l2.78,1.47,16.22-16.57c2.39-2.49,14.97-14.88,30.69-17.17,4.1-.6,8.1-.6,11.89,0,3.04.48,6,1.34,8.8,2.58,6.26,2.76,11.57,7.28,15.79,13.43l1.69,2.47,3.07-.83c3.42-.9,7-1.08,10.43-.55,2.16.34,4.26.95,6.25,1.83.24.11.48.22.72.33,15.85,7.6,25.46,20.7,26.36,35.95.26,4.48-.17,9.13-1.3,13.84l-.68,2.86,2.44,1.63c10.03,6.73,15.24,17.5,14.28,29.56-.3,3.83-1.13,7.61-2.45,11.21l-.89,2.44,1.77,1.9c6.51,6.98,19.49,29.13,1.53,47.53-23.32,23.9-74.07,24.22-82.47,24.1l-25.63-17.51Z"/>
  <path class="cls-3" d="M622.97,518.53s-20.51-5.09-31.32,27.23c0,0-16.68-22.7,13.74-55.77,0,0,8.63,2.04,13.83,10.57,2.58,4.21,4.31,10.02,3.75,17.96Z"/>
  <path class="cls-11" d="M611.22,486.13s24.66,7.26,18.88,36.04c0,0-6.41,8.55,3.56,16.58,0,0-2.5-7.04,2.72-16.61,5.21-9.57,1.39-18.09,1.39-18.09,0,0,5.17,5.48,1.74,21.45-3.42,15.97,15.69,25.73,15.69,25.73,0,0-16.02-35.44-2.25-66.62,0,0-7.23,5.55-18.28-.81-11.04-6.36-23.46,2.34-23.46,2.34Z"/>
  <path class="cls-3" d="M692.98,488.83s-20.95,2.62-37.25,28.33c0,0-4.57-27.75,18.99-45.8,0,0,5.46.54,10.45,4.19,3.53,2.58,6.82,6.71,7.8,13.27Z"/>
  <path class="cls-11" d="M724.43,475.09c-5.39-1.8-8.75,4.71-8.75,4.71-.1-.46-.19-.96-.27-1.48l-.27-1.45-.45-2.46c-.02.11-.05.22-.07.33-1.94,8.55-6.26,11.23-6.26,11.23-.18-7.99-2.26-11.14-2.26-11.14,1.46,13.51-7.49,16.97-7.49,16.97,2.07-26.54-23.13-23.81-23.13-23.81,0,0,.01-.01.03-.02l.87-.87c2.78-2.64,11.7-10.48,21.21-11.86,21.5-3.13,26.85,19.85,26.85,19.85Z"/>
  <path class="cls-3" d="M715.3,536.87c-21.64,3.43-43.4,20.87-44.07,21.42-.01.01-.02.01-.02.01,3.56-35.7,37.2-58.11,37.2-58.11,6.95,3.31,12.31,7.57,15.85,12.03,1.53,1.92,2.71,3.88,3.54,5.81,3.72,8.69.16,16.83-12.5,18.85Z"/>
  <path class="cls-11" d="M750.39,531.37h-.01c-1.92-6.02,1.95-12.91,2.14-13.26-7.04,3.07-15.15,11.35-15.15,11.35,1.65-31.18-27.42-35.35-27.42-35.35,5.87-4.34,11.9-7.36,11.9-7.36l-8.89.54c12.53-9.75,22.49-13.4,27.59-14.75,2.4-.62,4.92-.39,7.15.68,5.84,2.8,17.19,9.95,17.99,23.49,1.06,18.02-14.82,34.19-15.3,34.68Z"/>
  <path class="cls-3" d="M751.57,567.88c-15.14-1.57-45.51,15.58-46.42,16.09-.01,0-.02.01-.02.01,10.03-21.54,26.35-35.01,26.35-35.01,16.45.83,20.1,18.9,20.1,18.9Z"/>
  <path class="cls-11" d="M780.46,542.54c-.61,7.65-4.25,13.38-7.51,17.09h0c-2.75,3.1-5.21,4.76-5.42,4.9.1-.22,1.8-3.85,2.44-6.93-.27.51-4.74,8.57-12.4,10.71,0,0-.14-17.62-18.55-23.53l6.28-1.52-7.19-.53s12.1-7.6,21.62-8.72l2.94-.19-3.6-2.21,4.44-2.49-6.31.31s3.75-6.26,7.2-6.23c3.44.04,17.2,5.01,16.07,19.35Z"/>
  <path class="cls-11" d="M684.29,508.5s-17.02-.92-26.92,19.2c0,0,12.08-11.9,26.92-19.2Z"/>
  <path class="cls-11" d="M696.72,553.74s-19.13,5.23-13.87,43.17c0,0-11.5-3.1-13.82-15.75-2.33-12.65,13.75-24.99,27.69-27.42Z"/>
  <path class="cls-11" d="M666.21,572.99s-4.96,8.44.16,18.13c0,0-8.63-6.78-.16-18.13Z"/>
  <path class="cls-11" d="M610.06,535.83c-.49-.56.78,8.51,6.23,12.4,0,0-4.01,21.97,29.55,37.29,0,0-13.92-17.4-13.31-33.58,0,0-13.71-6.05-22.47-16.1Z"/>
  <path class="cls-9" d="M622.97,518.53s-20.51-5.09-31.32,27.23c0,0-5.61-40.43,27.57-45.2,2.58,4.21,4.31,10.02,3.75,17.96Z"/>
  <path class="cls-1" d="M591.65,545.76s.39-30.17,23.02-36.36c0,0-17.36,5.03-23.02,36.36Z"/>
  <path class="cls-9" d="M692.98,488.83s-20.95,2.62-37.25,28.33c0,0,3.05-24.74,17.57-36.24,7.25-5.74,18.2-1.42,19.64,7.71.01.07.02.13.03.2Z"/>
  <path class="cls-1" d="M655.73,517.17s9.86-30.24,28.56-33.86c0,0-15.86,7.53-28.56,33.86Z"/>
  <path class="cls-9" d="M729.06,526.12c-.81,5.23-5.21,9.39-13.76,10.75-21.64,3.43-43.4,20.87-44.07,21.42.57-.91,17.01-26.15,46.46-37.19,4.49-1.68,9.64.43,11.33,4.92.01.04.03.07.04.11Z"/>
  <path class="cls-1" d="M671.23,558.29c-.86.82,19.47-22.59,44.97-26.91,0,0-22.95,5.8-44.97,26.91Z"/>
  <path class="cls-9" d="M751.57,567.88c-15.14-1.57-45.51,15.58-46.42,16.09.7-.67,23.15-21.96,38.1-24.34,0,0,3.57-.55,8.32,8.25Z"/>
  <path class="cls-1" d="M705.49,583.99s16.22-13.04,34.09-18.09c0,0-15.46,1.81-34.09,18.09Z"/>
  <path class="cls-10" d="M780.46,542.54c-.61,7.65-4.25,13.38-7.51,17.09,9.54-27.98-8.56-36.43-8.56-36.43,3.44.04,17.2,5.01,16.07,19.35Z"/>
  <path class="cls-10" d="M750.39,531.37c19.27-40.96-13.79-50.54-15.42-50.98,5.22,1.88,7.91,6.59,8.07,6.89-9.39-7.89-30.09.01-30.09.01,12.53-9.75,22.49-13.4,27.59-14.75,2.4-.62,4.92-.39,7.15.68,5.84,2.8,17.19,9.95,17.99,23.49,1.06,18.02-14.82,34.19-15.3,34.68Z"/>
  <path class="cls-10" d="M724.43,475.09c-5.39-1.8-8.75,4.71-8.75,4.71-.1-.46-.19-.96-.27-1.48-.08-.5-.17-.98-.27-1.45-.16-.75-.33-1.46-.53-2.13-6.95-24.02-37.96-7.4-39.1-6.78l.87-.87c2.78-2.64,11.7-10.48,21.21-11.86,21.5-3.13,26.85,19.85,26.85,19.85Z"/>
  <path class="cls-1" d="M212.65,613.37l47.6-14.52c16.02-7.29,33.98-14.05,38.74-15.81l20.96-28.52c1.91-2.59,17.85-25.71-.41-54.85-5.49-8.77-13.32-16.82-18.91-22.04-5.38-5.01-11.78-8.48-18.51-10.01-4.6-1.05-9.11-1.24-13.4-.57-2.75.43-5.44,1.22-8.02,2.36-.62.28-3.98,1.99-6.77,3.46l-2.78,1.47-16.22-16.57c-2.39-2.49-14.97-14.88-30.69-17.17-4.1-.6-8.1-.6-11.89,0-3.04.48-6,1.34-8.8,2.58-6.26,2.76-11.57,7.28-15.79,13.43l-1.69,2.47-3.07-.83c-3.42-.9-7-1.08-10.43-.55-2.16.34-4.26.95-6.25,1.83-.24.11-.48.22-.72.33-15.85,7.6-25.46,20.7-26.36,35.95-.26,4.48.17,9.13,1.3,13.84l.68,2.86-2.44,1.63c-10.03,6.73-15.24,17.5-14.28,29.56.3,3.83,1.13,7.61,2.45,11.21l.89,2.44-1.77,1.9c-6.51,6.98-19.49,29.13-1.53,47.53,23.32,23.9,74.07,24.22,82.47,24.1l25.63-17.51Z"/>
  <path class="cls-3" d="M276.72,518.53s20.51-5.09,31.32,27.23c0,0,16.68-22.7-13.74-55.77,0,0-8.63,2.04-13.83,10.57-2.58,4.21-4.31,10.02-3.75,17.96Z"/>
  <path class="cls-11" d="M288.47,486.13s-24.66,7.26-18.88,36.04c0,0,6.41,8.55-3.56,16.58,0,0,2.5-7.04-2.72-16.61-5.21-9.57-1.39-18.09-1.39-18.09,0,0-5.17,5.48-1.74,21.45,3.42,15.97-15.69,25.73-15.69,25.73,0,0,16.02-35.44,2.25-66.62,0,0,7.23,5.55,18.28-.81,11.04-6.36,23.46,2.34,23.46,2.34Z"/>
  <path class="cls-3" d="M206.72,488.83s20.95,2.62,37.25,28.33c0,0,4.57-27.75-18.99-45.8,0,0-5.46.54-10.45,4.19-3.53,2.58-6.82,6.71-7.8,13.27Z"/>
  <path class="cls-11" d="M175.26,475.09c5.39-1.8,8.75,4.71,8.75,4.71.1-.46.19-.96.27-1.48l.27-1.45.45-2.46c.02.11.05.22.07.33,1.94,8.55,6.26,11.23,6.26,11.23.18-7.99,2.26-11.14,2.26-11.14-1.46,13.51,7.49,16.97,7.49,16.97-2.07-26.54,23.13-23.81,23.13-23.81,0,0-.01-.01-.03-.02l-.87-.87c-2.78-2.64-11.7-10.48-21.21-11.86-21.5-3.13-26.85,19.85-26.85,19.85Z"/>
  <path class="cls-3" d="M184.4,536.87c21.64,3.43,43.4,20.87,44.07,21.42.01.01.02.01.02.01-3.56-35.7-37.2-58.11-37.2-58.11-6.95,3.31-12.31,7.57-15.85,12.03-1.53,1.92-2.71,3.88-3.54,5.81-3.72,8.69-.16,16.83,12.5,18.85Z"/>
  <path class="cls-11" d="M149.3,531.37h.01c1.92-6.02-1.95-12.91-2.14-13.26,7.04,3.07,15.15,11.35,15.15,11.35-1.65-31.18,27.42-35.35,27.42-35.35-5.87-4.34-11.9-7.36-11.9-7.36l8.89.54c-12.53-9.75-22.49-13.4-27.59-14.75-2.4-.62-4.92-.39-7.15.68-5.84,2.8-17.19,9.95-17.99,23.49-1.06,18.02,14.82,34.19,15.3,34.68Z"/>
  <path class="cls-3" d="M148.12,567.88c15.14-1.57,45.51,15.58,46.42,16.09.01,0,.02.01.02.01-10.03-21.54-26.35-35.01-26.35-35.01-16.45.83-20.1,18.9-20.1,18.9Z"/>
  <path class="cls-11" d="M119.24,542.54c.61,7.65,4.25,13.38,7.51,17.09h0c2.75,3.1,5.21,4.76,5.42,4.9-.1-.22-1.8-3.85-2.44-6.93.27.51,4.74,8.57,12.4,10.71,0,0,.14-17.62,18.55-23.53l-6.28-1.52,7.19-.53s-12.1-7.6-21.62-8.72l-2.94-.19,3.6-2.21-4.44-2.49,6.31.31s-3.75-6.26-7.2-6.23c-3.44.04-17.2,5.01-16.07,19.35Z"/>
  <path class="cls-11" d="M215.4,508.5s17.02-.92,26.92,19.2c0,0-12.08-11.9-26.92-19.2Z"/>
  <path class="cls-11" d="M202.97,553.74s19.13,5.23,13.87,43.17c0,0,11.5-3.1,13.82-15.75,2.33-12.65-13.75-24.99-27.69-27.42Z"/>
  <path class="cls-11" d="M233.49,572.99s4.96,8.44-.16,18.13c0,0,8.63-6.78.16-18.13Z"/>
  <path class="cls-11" d="M289.64,535.83c.49-.56-.78,8.51-6.23,12.4,0,0,4.01,21.97-29.55,37.29,0,0,13.92-17.4,13.31-33.58,0,0,13.71-6.05,22.47-16.1Z"/>
  <path class="cls-9" d="M276.72,518.53s20.51-5.09,31.32,27.23c0,0,5.61-40.43-27.57-45.2-2.58,4.21-4.31,10.02-3.75,17.96Z"/>
  <path class="cls-1" d="M308.04,545.76s-.39-30.17-23.02-36.36c0,0,17.36,5.03,23.02,36.36Z"/>
  <path class="cls-9" d="M206.72,488.83s20.95,2.62,37.25,28.33c0,0-3.05-24.74-17.57-36.24-7.25-5.74-18.2-1.42-19.64,7.71-.01.07-.02.13-.03.2Z"/>
  <path class="cls-1" d="M243.96,517.17s-9.86-30.24-28.56-33.86c0,0,15.86,7.53,28.56,33.86Z"/>
  <path class="cls-9" d="M170.64,526.12c.81,5.23,5.21,9.39,13.76,10.75,21.64,3.43,43.4,20.87,44.07,21.42-.57-.91-17.01-26.15-46.46-37.19-4.49-1.68-9.64.43-11.33,4.92-.01.04-.03.07-.04.11Z"/>
  <path class="cls-1" d="M228.46,558.29c.86.82-19.47-22.59-44.97-26.91,0,0,22.95,5.8,44.97,26.91Z"/>
  <path class="cls-9" d="M148.12,567.88c15.14-1.57,45.51,15.58,46.42,16.09-.7-.67-23.15-21.96-38.1-24.34,0,0-3.57-.55-8.32,8.25Z"/>
  <path class="cls-1" d="M194.21,583.99s-16.22-13.04-34.09-18.09c0,0,15.46,1.81,34.09,18.09Z"/>
  <path class="cls-10" d="M119.24,542.54c.61,7.65,4.25,13.38,7.51,17.09-9.54-27.98,8.56-36.43,8.56-36.43-3.44.04-17.2,5.01-16.07,19.35Z"/>
  <path class="cls-10" d="M149.3,531.37c-19.27-40.96,13.79-50.54,15.42-50.98-5.22,1.88-7.91,6.59-8.07,6.89,9.39-7.89,30.09.01,30.09.01-12.53-9.75-22.49-13.4-27.59-14.75-2.4-.62-4.92-.39-7.15.68-5.84,2.8-17.19,9.95-17.99,23.49-1.06,18.02,14.82,34.19,15.3,34.68Z"/>
  <path class="cls-10" d="M175.26,475.09c5.39-1.8,8.75,4.71,8.75,4.71.1-.46.19-.96.27-1.48.08-.5.17-.98.27-1.45.16-.75.33-1.46.53-2.13,6.95-24.02,37.96-7.4,39.1-6.78l-.87-.87c-2.78-2.64-11.7-10.48-21.21-11.86-21.5-3.13-26.85,19.85-26.85,19.85Z"/>
  <g>
    <path class="cls-5" d="M484.23,568.28c-.27,1.2-8.98,40.02-33.49,53.82-24.5-13.8-33.21-52.62-33.48-53.82,7.31,14.76,15.84,23.17,20.47,26.98,2.11,1.73,3.4,2.52,3.4,2.52-4.41-7.12-5.66-15.72-5.66-15.72,7.36,7.23,15.27,7.47,15.27,7.47,0,0,7.92-.23,15.28-7.47,0,0-1.24,8.6-5.66,15.72,0,0,.72-.43,1.97-1.39,4.07-3.09,13.73-11.64,21.9-28.11Z"/>
    <path class="cls-5" d="M388.9,537.32s7.24,44.65,41.33,79.65c0,0-5.43,0-12.97-7.24,0,0,8.15,19.61,22.93,30.17-2.78-2.15-29.57-9.05-48.88-33.79,0,0-2.11,12.37,16.9,31.98,0,0-30.17-10.26-38.32-57.63,0,0,3.92,7.84,19.01,16.29,0,0-4.83-17.2,0-59.44Z"/>
    <path class="cls-5" d="M514.44,537.32s-7.24,44.65-41.33,79.65c0,0,5.43,0,12.97-7.24,0,0-8.15,19.61-22.93,30.17,2.78-2.15,29.57-9.05,48.88-33.79,0,0,2.11,12.37-16.9,31.98,0,0,30.17-10.26,38.32-57.63,0,0-3.92,7.84-19.01,16.29,0,0,4.83-17.2,0-59.44Z"/>
  </g>
  <g>
    <path class="cls-1" d="M812.79,696.25c-.94-3.18-2.1-6.29-3.47-9.29l5.4.35v-31.7c0-10.93-.94-19.5-2.85-26.21-1.86-6.62-4.84-12.59-8.84-17.74-6.88-8.95-19.67-19.56-41.73-19.56-13.94.03-25.86,3.98-34.94,11.26-8.58-6.11-20.18-9.11-35.27-9.14-3.36,0-9.83-.02-17.24-.04h0s-23.18-.05-23.18-.05h-.03c-9.48-.02-16.77-.03-16.77-.03h0c-5.13,0-10.26-.01-15.38-.02h0s-23.19-.04-23.19-.04c-.77,0-1.55,0-2.32,0l-16.43-.02h0c-15.58-.01-31.15-.03-46.73-.04l-70.25-.03h-53.18s0,0,0,0h-8.61s-7.8,0-7.8,0h0s-39.67.03-39.67.03l-41.47.05h0s-21.66.03-21.66.03l-16.35.02h0s-2.53.01-2.53.01h0s-15.43.03-15.43.03l-15.49.03h0s-7.79.02-7.79.02h0s-23.48.05-23.48.05h-2.66s-5.96.02-5.96.02h0s-.98,0-.98,0h0s-16.62.04-16.62.04l-21.65.05h0s-1.13,0-1.13,0h0s-33.4.09-33.4.09h0s-39.27.14-39.27.14v128.77c0,11.68,1.2,20.35,3.78,27.25,6.58,18.18,22.06,28.6,42.52,28.6,4.28,0,8.9-.46,13.67-1.35,6.31-1.16,12.07-2.87,17.27-5.11l22.98-3.6c7.97-1.25,16.13-2.47,24.26-3.63l19.96-2.86v-1.1c1.47.15,2.98.22,4.52.22,2.29,0,4.74-.16,7.31-.48,5.98-.74,11.98-1.44,17.86-2.1l1.78-.2,2.23-.25c8.1-.89,16.33-1.74,24.48-2.52l4.21-.4,4.34-.39c7.17-.65,14.41-1.26,21.53-1.81l7.18-.56,7.09-.49c5.51-.38,11.05-.74,16.48-1.06l7.25-.43,6.91-.36c7.12-.37,14.37-.7,21.56-.97l2.59-.1,1.96-.07c8.56-.31,17.22-.56,25.73-.74l11.02-.23,10.69-.09c4.82-.04,9.65-.06,14.47-.06,3.71,0,7.42.01,11.14.04l65.4,1.53,21.91,1.26c8.53.49,17.22,1.06,25.83,1.68l12.07.88,12.05,1.05c16.6,1.44,33.43,3.16,50,5.09l2.98.35,3.62.44c8.63,1.04,17.37,2.16,25.99,3.33l7.46,1.01,7.14,1.04c8.93,1.29,17.96,2.67,26.84,4.1l16.8,2.7c.09.04.17.08.26.11,5.36,2.31,11.24,4.06,17.46,5.21,4.32.81,8.5,1.22,12.42,1.22h0c19.52,0,34.71-10.15,41.67-27.86,3.12-7.82,4.64-17.53,4.64-29.69,0-10.51-.98-18.91-2.98-25.69Z"/>
    <g>
      <g>
        <path class="cls-3" d="M172.81,712.31c-.03,7.97-.66,14.29-1.89,19.01-1.24,4.72-4.03,9.19-8.4,13.5-5.06,4.91-12.5,8.28-22.32,10.09-15.98,2.98-25.99-.93-30.07-12.36-1.56-4.11-2.34-10.53-2.34-19.2,0-35.17,0-70.34,0-105.52,8.66-.03,17.31-.06,25.97-.08-.05,33.44-.1,66.88-.15,100.32-.01,7.35,2.2,10.69,6.64,10.02,4.35-.65,6.53-4.57,6.55-11.78.07-32.86.14-65.73.21-98.59,8.7-.03,17.4-.05,26.1-.07-.1,31.56-.2,63.12-.3,94.67Z"/>
        <path class="cls-3" d="M205.65,742.41c-8.2,1.17-16.4,2.39-24.59,3.68.15-42.83.3-85.65.45-128.48,8.22-.02,16.44-.04,24.66-.06-.17,41.62-.35,83.24-.52,124.86Z"/>
        <path class="cls-3" d="M255.98,736.01c-6.04.68-12.07,1.39-18.1,2.13-3.41.42-6.2.4-8.38-.07-2.18-.47-4.14-1.91-5.87-4.36-2.25-3.18-3.36-8.62-3.33-16.28.08-17.29.15-34.58.23-51.87-3.5.19-6.99.38-10.49.57.03-6.05.05-12.09.08-18.13,3.5-.13,6.99-.25,10.49-.37.05-10.04.09-20.08.13-30.11,8.05-.02,16.09-.03,24.14-.05-.05,9.79-.09,19.59-.14,29.38,3.67-.11,7.35-.22,11.02-.33-.03,5.77-.06,11.54-.08,17.31-3.67.17-7.35.34-11.02.51-.07,15.57-.15,31.13-.22,46.7-.01,2.72.41,4.63,1.28,5.73.87,1.1,2.48,1.59,4.84,1.47,1.84-.12,3.67-.25,5.51-.37-.03,6.05-.06,12.09-.09,18.14Z"/>
        <path class="cls-3" d="M285.31,638.03c-8.27.15-16.53.32-24.8.49.03-7.03.07-14.05.1-21.08,8.27-.02,16.53-.03,24.79-.04-.03,6.88-.07,13.76-.1,20.63ZM284.86,733c-8.28.79-16.55,1.64-24.82,2.55.14-29.72.29-59.45.43-89.17,8.27-.23,16.53-.45,24.8-.66-.14,29.09-.28,58.18-.41,87.28Z"/>
        <path class="cls-3" d="M382.73,726.42c-7.29.28-14.57.61-21.86.99.08-25.16.16-50.32.25-75.49-4.85,25.24-9.72,50.66-14.59,76.28-5.57.33-11.14.69-16.71,1.08-4.72-24.77-9.43-49.75-14.14-74.96-.11,25.34-.22,50.69-.33,76.03-7.28.57-14.55,1.18-21.82,1.84.18-38.27.36-76.54.53-114.81,10.98-.02,21.95-.03,32.93-.04,3.83,24.68,7.67,49.17,11.52,73.51,3.95-24.67,7.89-49.18,11.83-73.54,10.89-.01,21.78-.02,32.67-.03-.09,36.38-.19,72.76-.28,109.14Z"/>
        <path class="cls-3" d="M461.38,725.15c-8.65-.06-17.3-.05-25.96.03-.96-8.09-1.92-16.19-2.88-24.28-5.31.04-10.62.1-15.93.18-1.06,8.14-2.13,16.28-3.19,24.43-8.7.18-17.39.43-26.08.75,7.29-36.58,14.55-72.87,21.78-108.98,10.41,0,20.82,0,31.22,0,6.98,35.96,14,71.88,21.04,107.89ZM430.19,681.64c-1.83-14.41-3.66-28.83-5.48-43.26-1.9,14.44-3.8,28.89-5.7,43.36,3.73-.04,7.45-.07,11.18-.1Z"/>
        <path class="cls-3" d="M527.69,697.99c.02,7.04-.97,12.59-2.98,16.64-4.36,9.04-13.83,13.19-28.41,12.79-4.74-.13-9.05-.64-12.91-1.53-8.17-1.59-13.84-5.62-17-12.17-1.85-3.89-2.77-10.26-2.78-19.13,0-1.38,0-2.75,0-4.13,8.46.05,16.93.13,25.39.26,0,2.4,0,4.81.01,7.21,0,5.83,2.21,8.78,6.6,8.87,1.32.03,2.46-.3,3.42-1,1.75-1.19,2.63-3.83,2.62-7.94,0-2.67-.47-4.7-1.39-6.1-.93-1.4-3.05-3.52-6.39-6.34-5.44-4.64-10.89-9.25-16.33-13.84-5.18-4.43-8.49-8.44-9.93-12.07-1.45-3.62-2.17-8.19-2.18-13.69,0-6.32.74-11.31,2.22-14.98,4.11-10.29,13.68-15.44,28.72-15.44,10.06,0,17.8,2.72,23.24,8.2,2.19,2.17,3.82,4.71,4.88,7.61,1.32,3.52,1.99,8.65,2.01,15.37,0,1.76.01,3.52.02,5.27-8.1-.12-16.2-.22-24.3-.3,0-2.41-.01-4.82-.01-7.23,0-1.54-.14-2.72-.4-3.54-.79-2.98-2.68-4.48-5.65-4.49-3.85-.02-5.77,2.33-5.77,7.03,0,1.53.35,2.92,1.06,4.15.35.72.87,1.44,1.58,2.16.7.72,1.86,1.76,3.49,3.1,1.62,1.35,2.87,2.39,3.75,3.11,4.26,3.79,8.51,7.59,12.77,11.42,2.19,1.99,4.39,4.15,6.59,6.46,2.64,2.94,4.64,6.14,6.01,9.59,1.37,3.45,2.06,8.33,2.08,14.64Z"/>
        <path class="cls-3" d="M595.38,639.14c-6.56-.11-13.12-.22-19.69-.32.13,30.29.25,60.58.38,90.87-8.72-.63-17.45-1.2-26.18-1.71-.11-29.84-.21-59.67-.32-89.51-6.56-.08-13.13-.15-19.69-.21-.02-6.99-.04-13.98-.06-20.97,21.82.02,43.64.04,65.47.07.03,7.26.07,14.52.1,21.78Z"/>
        <path class="cls-3" d="M651.21,736.8c-16.88-1.97-33.77-3.69-50.68-5.16-.17-38.09-.35-76.18-.52-114.27,16.88.02,33.76.05,50.64.09.04,7.72.07,15.44.11,23.16-8.18-.2-16.35-.38-24.53-.56.04,7.88.08,15.76.11,23.64,7.57.31,15.13.65,22.7,1.01.04,7.59.07,15.19.11,22.78-7.56-.52-15.13-1.01-22.7-1.47.04,8.54.08,17.08.12,25.62,8.18.68,16.36,1.4,24.54,2.18.04,7.66.07,15.33.11,22.99Z"/>
        <path class="cls-3" d="M726.23,747.21c-9.06-1.46-18.12-2.84-27.2-4.16-4.21-17.72-8.43-35.19-12.65-52.42-.79-.06-1.57-.13-2.36-.19.07,16.84.15,33.69.22,50.53-8.77-1.19-17.55-2.32-26.34-3.38-.19-40.04-.38-80.08-.57-120.13,11.24.02,22.48.05,33.71.07,11.37.02,19.2,2.06,23.5,6.21,3.95,3.9,6.28,9.24,7.01,15.95.36,3.54.55,8.12.57,13.72.04,11.21-.72,19.14-2.28,23.76-1.56,4.87-4.51,8.5-8.86,10.89,5.09,19.36,10.17,39.06,15.24,59.14ZM696.72,657.28c0-2.36-.02-4.73-.03-7.09-.01-2.84-.46-4.86-1.34-6.07-.88-1.21-2.41-1.84-4.6-1.91-2.32-.07-4.63-.14-6.95-.2.04,8.1.07,16.2.11,24.3,2.23.12,4.46.25,6.68.37,2.53.14,4.19-.38,4.97-1.57.78-1.2,1.16-3.8,1.15-7.83Z"/>
        <path class="cls-3" d="M792.44,721.94c0,9.08-1,16.13-2.99,21.09-4.34,11.09-13.7,15-28.12,12.31-4.69-.87-8.95-2.15-12.78-3.82-8.09-3.18-13.72-8.93-16.88-17.27-1.84-4.95-2.78-12.74-2.82-23.42,0-1.66-.01-3.32-.02-4.97,8.41.93,16.82,1.91,25.23,2.93,0,2.98.01,5.96.02,8.94.02,7.22,2.2,11.15,6.55,11.81,1.3.19,2.43-.08,3.39-.84,1.74-1.28,2.6-4.5,2.59-9.66,0-3.35-.46-5.96-1.38-7.81-.92-1.85-3.03-4.72-6.35-8.55-5.41-6.29-10.83-12.45-16.25-18.48-5.16-5.82-8.47-10.9-9.92-15.37-1.45-4.47-2.19-10.02-2.21-16.66-.02-7.63.7-13.63,2.17-18.04,4.07-12.34,13.63-18.66,28.67-18.69,10.06,0,17.8,3.42,23.22,10.5,2.19,2.8,3.8,6.09,4.85,9.84,1.31,4.56,1.96,11.18,1.97,19.85,0,2.27,0,4.53,0,6.8-8.07-.53-16.14-1.03-24.21-1.52,0-3.03,0-6.06-.01-9.09,0-1.93-.14-3.42-.4-4.47-.79-3.77-2.67-5.7-5.64-5.8-3.84-.13-5.76,2.73-5.75,8.57,0,1.9.35,3.63,1.06,5.2.35.91.87,1.83,1.58,2.76.7.93,1.86,2.27,3.48,4.03,1.62,1.76,2.86,3.13,3.74,4.09,4.24,4.98,8.47,10.05,12.7,15.2,2.18,2.68,4.36,5.58,6.54,8.71,2.61,3.97,4.59,8.24,5.94,12.79,1.35,4.55,2.02,10.93,2.02,19.07Z"/>
      </g>
      <g>
        <path class="cls-2" d="M169.57,682.39l-.09,29.8c-.02,7.63-.62,13.76-1.78,18.19-1.09,4.12-3.54,8.04-7.51,11.97-4.56,4.41-11.49,7.51-20.59,9.18-3.22.6-6.2.91-8.84.91-9.22,0-14.78-3.53-17.49-11.11-1.43-3.77-2.14-9.83-2.14-18.08v-34.3c5.94-.73,12.36-1.51,19.2-2.31l-.04,31.32c-.01,5.31,1.07,8.97,3.28,11.18,1.48,1.48,3.42,2.27,5.63,2.27.5,0,1.02-.04,1.56-.12,4.27-.63,9.37-3.77,9.39-15.08l.07-31.79c6.18-.67,12.64-1.33,19.37-2.02Z"/>
        <path class="cls-2" d="M202.58,679.27l-.24,60.14c-6,.86-12.01,1.76-17.92,2.67l.21-61.15c5.81-.56,11.8-1.11,17.96-1.66Z"/>
        <path class="cls-2" d="M252.71,721.32l-.06,11.6c-5.09.58-10.19,1.19-15.19,1.8-1.49.19-2.84.28-4.04.28s-2.32-.1-3.22-.29c-1.34-.29-2.64-1.31-3.87-3.03-1.26-1.77-2.76-5.7-2.71-14.33l.18-39.87c5.7-.46,11.52-.91,17.46-1.36l-.17,34.8c-.01,3.52.64,6.08,2,7.81,1.44,1.82,3.72,2.74,6.78,2.74.28,0,.57,0,.86-.02.67-.04,1.33-.09,1.99-.13Z"/>
        <path class="cls-2" d="M263.67,674.52l-.27,57.21c6.06-.66,12.13-1.28,18.14-1.87l.27-56.51c-6.16.38-12.2.77-18.14,1.17Z"/>
        <path class="cls-2" d="M297.13,672.46c4.99-.29,10.02-.56,15.13-.82l-.23,55.52c-5.02.4-10.1.83-15.16,1.28l.26-55.98Z"/>
        <path class="cls-2" d="M345.19,670.14c3.01-.12,6.04-.23,9.09-.34-3.63,18.9-7.1,37.1-10.53,55.13-3.72.22-7.48.47-11.2.72-3.48-18.27-6.93-36.52-10.3-54.5,3.22-.16,6.47-.31,9.73-.46,1.09,6.91,2.17,13.77,3.24,20.57h6.59c1.13-7.06,2.26-14.1,3.38-21.12Z"/>
        <path class="cls-2" d="M379.55,668.97l-.14,54.13c-5.08.21-10.17.44-15.19.69l.18-54.37c5.01-.17,10.06-.32,15.16-.46Z"/>
        <path class="cls-2" d="M446.82,667.82c-5.03.02-10.02.07-14.99.11.54,4.4,1.11,8.79,1.67,13.19l-3.28,3.74c-3.72.03-7.44.07-11.18.1l-3.33-3.77,1.72-13.07c-5.09.08-10.14.17-15.17.28-3.6,18.02-7.21,36.1-10.83,54.25,6.36-.21,12.73-.4,19.06-.53l2.82-21.59,3.26-2.91c5.32-.08,10.63-.13,15.96-.18l3.33,2.94,2.53,21.31c3.9-.02,7.81-.03,11.71-.03,2.41,0,4.82,0,7.23.01-3.81-19.49-7.29-37.27-10.51-53.87Z"/>
        <path class="cls-2" d="M524.36,697.88c.01,6.5-.87,11.59-2.63,15.16-3.57,7.39-11.26,10.97-23.52,10.97-.59,0-1.2-.01-1.81-.03-4.51-.12-8.63-.6-12.26-1.44l-.12-.02c-7.16-1.39-11.94-4.77-14.63-10.34-1.61-3.4-2.43-9.34-2.44-17.68v-.77c6.27.04,12.54.1,18.73.19v3.93c.02,10.82,6.9,12.13,9.87,12.2h.22c1.96,0,3.71-.54,5.21-1.62,2.68-1.82,4.01-5.32,4-10.66,0-3.36-.64-5.96-1.94-7.92-1.13-1.73-3.37-3.97-7.02-7.06-5.43-4.63-10.88-9.24-16.32-13.84-.44-.38-.87-.76-1.28-1.12,10.13.06,20.37.17,30.7.34.56.49,1.12,1,1.68,1.5,2.11,1.91,4.27,4.03,6.4,6.28,2.3,2.57,4.11,5.46,5.33,8.52,1.2,3.04,1.82,7.57,1.84,13.42Z"/>
        <path class="cls-2" d="M572.73,726c-6.51-.46-13.06-.88-19.51-1.27l-.2-55.48c6.46.21,12.96.44,19.48.71l.23,56.03Z"/>
        <path class="cls-2" d="M647.86,732.95c-14.61-1.67-29.39-3.17-44.01-4.47l-.26-57.09c13.93.72,27.99,1.58,42.15,2.57l.04,9.84c-6.4-.43-12.83-.84-19.14-1.23l-3.54,3.34.13,25.62,3.06,3.31c7.1.59,14.32,1.22,21.49,1.89l.08,16.21Z"/>
        <path class="cls-2" d="M707.77,688.82l1.61-3.78c2.41-1.32,4.28-3.07,5.63-5.3-18.15-1.78-36.2-3.34-54.08-4.69l.29,59.48c6.5.8,13.09,1.64,19.67,2.52l-.2-46.7,3.6-3.34,2.37.2,2.96,2.52c4.12,16.78,8.2,33.67,12.14,50.24,6.62.97,13.32,1.99,20,3.04-4.59-18.1-9.29-36.31-13.99-54.2Z"/>
        <path class="cls-2" d="M789.11,721.84c0,8.62-.92,15.3-2.76,19.84-2.94,7.53-8.31,11.03-16.89,11.03-2.28,0-4.81-.26-7.52-.77-4.41-.81-8.47-2.02-12.06-3.59l-.11-.06c-7.26-2.84-12.16-7.87-14.99-15.36-1.69-4.54-2.57-12.03-2.6-22.24v-1.23c6.21.7,12.43,1.42,18.56,2.16v5.99c.03,11.3,5.13,14.44,9.4,15.09.43.07.87.1,1.28.1,1.7,0,3.3-.54,4.62-1.58,2.68-2,3.92-5.91,3.91-12.31-.01-3.91-.57-6.94-1.73-9.29-1.07-2.18-3.3-5.2-6.81-9.24-4.97-5.78-10.09-11.61-15.22-17.34,10.6,1.2,21.24,2.47,31.9,3.83,1.23,1.61,2.44,3.29,3.66,5.01,2.37,3.59,4.22,7.59,5.49,11.83,1.24,4.22,1.88,10.32,1.88,18.12Z"/>
      </g>
    </g>
  </g>
  <g>
    <path class="cls-3" d="M762.42,605.29c-23.3,7.88-40.29-8.08-40.29-8.08,25.22.64,36.7-12.56,36.7-12.56,9.84,8.98,3.59,20.63,3.59,20.63Z"/>
    <path class="cls-11" d="M784.08,596.99c-.9.99-1.91,1.89-3,2.7h-.01c-6.71,5.01-15.98,6.64-15.98,6.64,0,0,13.51-16.09-5.71-26.92,0,0,6.52-4.56,15.14,2.68,0,0-1.2-2.88-6.62-6.7,0,0,3.93-1.78,10.87.97l-3.24-3.18s6.04.69,7.29-3.85c0,0,13.34,14.3,1.27,27.65Z"/>
    <path class="cls-9" d="M757.98,597.21c-16.52,4.83-35.85,0-35.85,0,25.22.64,36.7-12.56,36.7-12.56,7.18,8.56-.84,12.56-.84,12.56Z"/>
    <path class="cls-1" d="M722.13,597.21s22.73,3.2,34.95-6.08c0,0-8.99,10.64-34.95,6.08Z"/>
    <path class="cls-10" d="M784.08,596.99c-.9.99-1.91,1.89-3,2.7h-.01s7.47-20.79-5.54-26.5c0,0,6.04.69,7.29-3.85,0,0,13.34,14.3,1.27,27.65Z"/>
  </g>
  <g>
    <path class="cls-3" d="M137.28,605.29c23.3,7.88,40.29-8.08,40.29-8.08-25.22.64-36.7-12.56-36.7-12.56-9.84,8.98-3.59,20.63-3.59,20.63Z"/>
    <path class="cls-11" d="M115.62,596.99c.9.99,1.91,1.89,3,2.7h.01c6.71,5.01,15.98,6.64,15.98,6.64,0,0-13.51-16.09,5.71-26.92,0,0-6.52-4.56-15.14,2.68,0,0,1.2-2.88,6.62-6.7,0,0-3.93-1.78-10.87.97l3.24-3.18s-6.04.69-7.29-3.85c0,0-13.34,14.3-1.27,27.65Z"/>
    <path class="cls-9" d="M141.71,597.21c16.52,4.83,35.85,0,35.85,0-25.22.64-36.7-12.56-36.7-12.56-7.18,8.56.84,12.56.84,12.56Z"/>
    <path class="cls-1" d="M177.56,597.21s-22.73,3.2-34.95-6.08c0,0,8.99,10.64,34.95,6.08Z"/>
    <path class="cls-10" d="M115.62,596.99c.9.99,1.91,1.89,3,2.7h.01s-7.47-20.79,5.54-26.5c0,0-6.04.69-7.29-3.85,0,0-13.34,14.3-1.27,27.65Z"/>
  </g>
  <path class="cls-1" d="M452.03,303.68s-.61-17.8,8.34-35.3c0,0-10.83,6.64-10.83,19.91,0-13.28-10.83-19.91-10.83-19.91,8.95,17.5,8.34,35.3,8.34,35.3-3.94-10.56-6.68-10.86-6.68-10.86,7.29,22.33,9.16,45.86,9.16,45.86,0,0,1.87-23.53,9.16-45.86,0,0-2.73.3-6.68,10.86Z"/>
</svg>