<?xml version="1.0" encoding="UTF-8"?>
<svg id="object" xmlns="http://www.w3.org/2000/svg" viewBox="0 0 900 900">
  <defs>
    <style>
      .cls-1 {
        fill: #13182a;
      }

      .cls-2 {
        fill: #aaa9af;
      }

      .cls-3 {
        fill: #191818;
      }

      .cls-4 {
        fill: #fff;
      }

      .cls-5 {
        fill: #0a0a0a;
      }
    </style>
  </defs>
  <path class="cls-4" d="M201.51,794.15c-32.54,0-45.83-20.34-50.05-29.16-4.03-8.25-5.91-18.1-5.91-30.98v-452.41l97.3-56.17c1.01-2.48,2.15-4.89,3.42-7.21,18.71-34.34,43.71-39.47,56.94-39.47,5.45,0,10.87.83,16.21,2.47l130.55-75.37,304.41,175.75v325.58l-.51.1c.55,4.09.82,8.55.82,13.47,0,12.59-1.97,23.27-6.04,32.66-6.39,14.95-21.14,34.31-54.99,41.3-7.14,1.47-13.96,2.22-20.28,2.22h-.42c-.36,0-.71,0-1.06,0-2.68,0-5.34-.17-7.94-.5l-419.59,88.12c-6.78,3.19-14.32,5.62-23,7.41-7.07,1.46-13.75,2.2-19.86,2.2Z"/>
  <g>
    <g>
      <polygon class="cls-1" points="158.55 625.6 158.55 289.11 449.97 120.86 741.38 289.11 741.38 596.51 270.62 690.3 158.55 625.6"/>
      <polygon class="cls-4" points="719.04 302.01 719.04 598.71 703.94 601.72 671.5 608.18 342.11 673.81 323.39 677.54 300.93 682.01 180.9 612.71 180.9 302.01 449.97 146.66 719.04 302.01"/>
      <polygon class="cls-2" points="703.94 310.72 703.94 601.72 671.5 608.18 342.11 673.81 323.39 677.54 196 603.99 196 310.72 449.97 164.09 703.94 310.72"/>
      <polygon class="cls-1" points="691.36 317.99 691.36 596.72 671.5 608.18 342.11 673.81 208.58 596.72 208.58 317.99 449.97 178.62 691.36 317.99"/>
    </g>
    <g>
      <path class="cls-1" d="M322.85,730.36l-.07-.15c-9.88-21.6-10.89-46.01-9.52-64.74-22.16,14.93-45.69,16.31-46.77,16.37l-18.56.96,10.98-15c5.69-7.78,11.41-23.91,15.85-38.05-21.22,13-44.91,20.33-66.18,20.33-1.51,0-3.03-.04-4.52-.12l-22.15-1.15,16.88-14.39c.56-.48,56.85-49.03,88.63-116.45,5.24-11.1,7.86-23.44,7.63-35.77-4.04-3.38-7.64-7.03-10.71-10.84-2.14-2.66-4.04-5.4-5.66-8.17-8.26-2.68-29.91-11.9-39.54-36.82-3.46-8.98-5.16-17.69-5.05-25.89.17-15.57,6.61-25.99,11.98-31.99,1.31-1.45,2.69-2.8,4.1-4,1.18-1.48,2.91-3.69,4.98-6.32l.54-.68c-10.18-20.83-7.99-43.66,5.96-61.74l-.51-.88c-.88-1.51-21.41-37.44-3.44-70.43,14.71-27.01,32.88-32.69,45.53-32.69,13.96,0,24.72,7.16,30.09,11.64,28.39-18.3,62.02-27.58,99.98-27.58,26.92,0,57.34,5.1,90.42,15.16,10.62,3.23,17.01,6.46,20.27,8.38,2.27-.13,5.54-.3,7.66-.3,39.31,0,67.39,19.95,77.06,54.74,4.22,15.23,3.82,32.15-1.19,50.32l2.83,6.6c5.77,13.44,25.53,82.35,16.79,173.84l-1.9,19.9-8.94-9.85c-5.46,49.15-22.56,115.58-71.7,167.15l-14.83,15.56-.41-22.08c-37.76,33.29-100.55,58.09-186.83,73.75-5.85,7.07-7.07,15.35-7.21,16.41,0,0-25.52-.14-32.45-15.03Z"/>
      <path class="cls-1" d="M622.21,314.2l-7.71-17.98-18.51,18.51.27,5.85c0,.12-.47,13.08-16.7,35.05l-4.53,6.13,3.03,7c.8,1.86,1.54,3.67,2.24,5.46l-49.87-48.1-206.44,121.62v30.12l-21.65-10.75h0c3.51,18.48,1.1,37.61-6.92,54.63-33.07,70.14-90.89,119.41-90.89,119.41,24.29,1.26,57.79-8.93,86.23-34.22-5.13,17.37-14.41,52.02-24.7,66.08,0,0,36.6-1.89,59.42-30.66-.11.51-11.46,47.38,5.34,84.14,0,0,0,0,0,.01,5.92,12.82,15.69,18.21,15.69,18.21,0-.08,1.18-13.49,11.51-23.89,148.92-26.51,185.51-71.72,199.79-86.3l.39,21.14c57.42-60.26,68.77-141.78,70.98-182.04l9.16,10.1c8.83-92.44-12.07-160.11-16.11-169.52Z"/>
      <g>
        <path class="cls-1" d="M269.61,291.9l-.86-1.48c-.78-1.34-18.93-33.09-3.31-61.75,12.64-23.21,27.52-28.08,37.77-28.08,15.74,0,26.48,11.32,27.65,12.61l8.34,9.19-8.62,8.93c-10.02,10.37-15.69,12.93-21.57,15-2.25.79-3.37,1.19-7.13,5.25-6.44,6.98-8.59,23.28-8.42,31.92l-13.33.37-9.31,9.25-1.21-1.21Z"/>
        <path class="cls-2" d="M321.05,222.11c-16.48,17.07-16.29,6.83-28.9,20.46-12.59,13.64-11.94,41.2-11.94,41.2,0,0,0-.01-.01-.03-.56-.96-15.15-26.65-3.12-48.74,20.88-38.33,43.97-12.9,43.97-12.9Z"/>
        <path class="cls-4" d="M321.05,222.11c-5.92-2.64-23.09-4.18-36,12.14-12.67,16.04-5.11,48.38-4.85,49.5-.56-.96-15.15-26.65-3.12-48.74,20.88-38.33,43.97-12.9,43.97-12.9Z"/>
      </g>
      <path class="cls-1" d="M620.17,256.16c-8.52-30.68-33.51-48.27-68.55-48.27-3.27,0-10.04.47-10.04.47,0,0-5.33-4.34-20.46-8.93-31.35-9.53-60.82-14.77-87.85-14.77-57.27,0-93.95,22.32-114.64,41.04-9.8,8.87-17.04,17.8-22.14,25.15-3.64.38-7.07,2.28-9.36,5.34-9.51,12.69-13.58,28-15.33,38.64-.18,1.11-.33,2.13-.45,3.06-.61.68-1.25,1.42-1.92,2.25-11.24,13.87-16.92,35.58-3.24,58.24-1.32,1.7-2.69,3.45-4.11,5.26-2.44,3.12-4.43,5.64-5.58,7.09-1.1.88-2.44,2.09-3.87,3.68-4.36,4.87-9.59,13.37-9.73,26.22-.1,7.07,1.4,14.67,4.46,22.58,8.84,22.86,29.37,30.3,35.46,32.04.13.04.26.07.39.11.86.23,1.34.33,1.34.33.03,0,.06.01.1.02.09.19.19.39.3.6,1.11,2.2,3.1,5.63,6.25,9.55,10.38,12.89,36.49,34.52,94.66,34.52,9.06,0,18.72-.52,28.7-1.55,84.49-8.72,121.49-49.47,136.12-73.27,1.98,1.12,4.24,1.73,6.54,1.73,1.29,0,2.59-.19,3.87-.58.56-.17,1.1-.38,1.62-.61,2.47,3.29,6.39,5.29,10.59,5.29.57,0,1.15-.04,1.72-.11,6.16-.8,10.94-5.79,11.48-11.98,1.66-18.86-.43-34.72-3.37-46.71,3.74-2.79,5.75-7.37,5.23-12.06-.03-.24-.16-1.35-.48-3.18,1.3-.67,2.51-1.56,3.56-2.67.09-.09,2.21-2.34,5.49-6.75,2.84-3.86,5.5-7.91,7.91-12.05,5.05-8.64,9.13-17.74,12.13-27.04.2-.63.36-1.27.47-1.92,5.98-18.57,6.89-35.62,2.71-50.71Z"/>
      <path class="cls-4" d="M604.31,304.47l.09.24c-3.13,9.67-7.17,17.92-10.97,24.43-2.63,4.51-5.15,8.16-7.14,10.88-2.52,3.39-4.24,5.29-4.43,5.49,1.08-3.16,2.03-6.22,2.87-9.19,1.06-3.69,1.93-7.23,2.65-10.62,12.04-56.85-20.35-73.55-20.35-73.55,12.58-1.24,20.1,2.62,20.48,2.83-40.69-32.17-72.36,5.19-72.36,5.19,14.7.46,32,9.65,32,9.65-24.76-.63-43.75,11.15-44.47,11.59-.01,0-.01.01-.01.01h-.01c36.27-6.25,61.05,19.67,61.05,19.67-9.63-2.32-17.99,0-17.99,0,26.03,29.38,29.49,60.84,29.49,60.84l-12.92-7.87c.39.67,14.45,25.15,11.03,64.03,0,0-7.87-21.73-22.69-38.14.36.74,6.29,12.95,6.6,34.04,0,0-4.74-7.25-10.73-9.78,0,0-22.14,69.92-133.29,81.39-71.91,7.43-100.95-14.76-111.68-28.09-2.44-3.03-3.93-5.59-4.77-7.25-.66-1.28-.92-2.03-.92-2.03l-.78-4.26-1.92-.31-5.81-.95s-.31-.07-.86-.22h-.01c-2.63-.75-10.78-3.49-17.88-10.53-.91-.89-1.8-1.87-2.65-2.9-2.2-2.65-4.19-5.8-5.73-9.5-.18-.38-.32-.75-.47-1.14-.1-.25-.2-.51-.29-.76-.98-2.64-1.71-5.12-2.24-7.45-.08-.36-.15-.73-.22-1.09-.61-3.04-.85-5.81-.82-8.31.1-8.86,3.6-14.49,6.35-17.56,1.81-2.01,3.29-2.92,3.29-2.92,0,0,2.78-3.49,6.72-8.52,7.22-9.21,18.36-23.59,23.56-31.23,1.13-1.67,2.11-3.26,2.93-4.8,5.06-9.51,4.39-17.82-2.92-34.67.19.59,2.26,7.56.22,13.68,0,0-3.49-8.76-12.27-10.89,0,0,.15-2.72.84-6.95,1.34-8.14,4.68-21.91,12.85-32.81,0,0-.12,3.91,1.06,9,0,0,17.81-42.17,69.87-63.36,6.66-2.71,13.89-5.08,21.71-6.97,4.14-1,8.46-1.88,12.95-2.58,12.46-2,26.24-2.8,41.45-2,.56.02,1.12.06,1.68.09,7.28.44,14.87,1.24,22.81,2.45,14.77,2.25,30.71,5.93,47.89,11.32,0,0-17.82,15.86-45.03,19.64,0,0,24.83,1.49,57.94-8.27h.03c35.64-7.28,67.83,2.2,77.3,36.26,4.07,14.7,1.7,30.57-3.1,44.77Z"/>
      <path class="cls-2" d="M370.86,310.5s6.01,12.84,19.17-4.73,41.41-34.07,70.67-16.72c0,0-10.81,6.31-13.37,14-5.83,17.48-66.06,32.7-66.06,32.7l-10.41-6.1v-19.15Z"/>
      <path class="cls-2" d="M398.07,363.98l1.85-4.34s17.2,13.33,61.8,1.38l-13.25-2.96s19.4-12.54,14.43-44.01l-74.37,28.44s7.17,14.86,9.53,21.49Z"/>
      <path class="cls-2" d="M562.3,354.05c.39.67,14.45,25.15,11.03,64.03,0,0-7.87-21.73-22.69-38.14.36.74,6.29,12.95,6.6,34.04,0,0-4.74-7.25-10.73-9.78,0,0-22.14,69.92-133.29,81.39-65.33,6.75-95.27-10.95-108.26-24.24,0,0,9.83,5.31,18.82,8.15,0,0-5.31-3.51-9.39-9.67.44.36,7.8,6.24,24.53,9.67,0,0-6.78-3.94-9.42-11.85.64.24,17.32,11.22,53.67,11.22s82.11-21.14,91.11-55.03l27.86,24.49s22.29-30.6,6.21-58.37c0,0,26.5,1.74,39.44,18.55,0,0,1.58-21.15-12.94-43.23,0,0,15.46,4.87,25.56,24.68,0,0-.32-28.41-7.58-45.32l10.09,7.83s-3.83-23.39-17.19-41.41c26.03,29.38,29.49,60.84,29.49,60.84l-12.92-7.87Z"/>
      <path class="cls-2" d="M298.45,424.54c.5-.21.8-.34.8-.34l-7.66-14.91-22.93.93s3.75,9.3,12.47,16.02c-14.39-1.62-23.64-16.75-24.97-25.46-.07,4.86.89,10.7,3.57,17.62,6.75,17.45,22.82,22.96,26.73,24.07h.01c.55.15.86.22.86.22l5.81.95,8.39-12.23-3.08-6.87Z"/>
      <path class="cls-2" d="M336.9,386.82c-.23,12.3-6.46,28.08-13.48,34.31-6.28,5.58,27.17,19.64,59.04,6.43,31.87-13.21,29.95-38.79,23.66-47.57,0,0,12.32,6.44,11.48,27.42,0,0,15.51-3.51,23.55,4.06l-9.35,1.97s-13.37,9.39-23.78,17.28c-10.41,7.88-34.39,28.63-101.91,8.48l-10.9-25.72,41.7-26.65Z"/>
      <path class="cls-1" d="M302.27,324.41c0,.2-.01.4-.03.6,0,.06,0,.11-.01.18-.01.23-.03.46-.06.7-.03.39-.09.78-.14,1.17-.03.27-.08.53-.13.8-.07.35-.14.71-.22,1.06-.13.57-.3,1.14-.47,1.71-.06.2-.13.41-.2.62-.18.52-.38,1.04-.59,1.57-.1.22-.2.45-.3.68-.22.5-.45,1-.71,1.5-.13.25-.27.51-.4.76-.82,1.55-1.8,3.14-2.93,4.8-3.07,4.52-8.22,11.38-13.41,18.14-19.31-23.26-9.21-42.52-2.95-50.24,2.41-2.97,4.32-4.58,4.32-4.58,8.78,2.13,12.27,10.89,12.27,10.89,2.04-6.12-.03-13.1-.22-13.68,4.42,10.17,6.4,17.24,6.17,23.33Z"/>
      <path class="cls-1" d="M336.9,386.82c-3.79,21.89-29.46,35.14-37.5,36.32-8.05,1.18-21.3-.94-32.42-14.91-7.23-9.08-6.13-19.1-4.47-25,1.81-2.01,3.29-2.92,3.29-2.92,0,0,2.78-3.49,6.72-8.52,4.76-1.89,12.38-3.99,24.33-4.43,9.57-.35,44.02-3.52,40.05,19.45Z"/>
      <path class="cls-4" d="M363.09,584.81c-4.84,39.07-25.12,62.33-25.12,62.33,8.83-39.12,0-55.84,0-55.84-8.83,43.85-59.31,73.51-59.31,73.51,28.39-38.8,35.74-106.7,35.74-106.7-29.81,51.1-88.12,74.53-88.12,74.53,100.32-87.24,94.19-140.45,94.03-141.77-.01-.01-.01-.02-.01-.02,28.4,13.43,29.66,78.15,29.66,78.15,5.05-12.53,10.09-34.79,10.09-34.79,4.49,18.86,4.87,35.87,3.04,50.62Z"/>
      <path class="cls-4" d="M628.54,463.36l-10.41-24.14s4.74,115.92-53.94,193.07c.33-.82,10.94-26.71,14.89-52.69-1.57,8.09-12.75,44.4-90.14,90.58l22.49-20.75c-8.68,7.52-44.95,35.07-126.14,50.09,0,0,79.03-35.03,128.95-104.75-.57.59-19.39,19.68-93.93,56.47-75.72,37.39-77.62,75.25-77.62,75.25,0,0-19.4-58.22,49.22-109.79,68.63-51.59,84.24-62.94,89.44-81.87,0,0,6.16,21.76-22.71,52.05,0,0,53.48-11.84,77.62-87.56,0,0,3.79,31.22-12.75,70.47,1.13-1.67,37.35-55.82,36.89-117.33,0,0,14.82,28.08,4.73,82.98,0,0,25.24-40.38,9.46-100.96,0,0,9.46,1.66,16.81,15.38,0,0,2.36-20.59-7.58-51.35,0,0,11.36,4.97,19.88,19.4,0,0,.23-22.71-13.48-54.43,6.12-8.27,10.29-15.55,13.14-21.67h0c6.5-13.95,6.14-21.88,6.14-21.88l.54-.54c4.02,9.36,22.75,58.06,18.51,143.94Z"/>
      <path class="cls-1" d="M370.86,310.5s1.06,29.22,18.57,11c17.51-18.22,39.24-37.35,71.26-32.46,0,0-11.97,3.22-21.91,10.36,0,0,20.09-3.81,33.62,13.43l-9.5,1.21s7.1,36.32-29.93,44.17l9.68,2.09s-28.37,6.74-48.37-8.16c0,0,2.72,3.79,3.79,11.83,0,0-14.2-28.87-45.67-28.63,0,0,18.1-3.79,18.46-24.85Z"/>
      <g>
        <ellipse class="cls-4" cx="417.12" cy="318.08" rx="7.11" ry="5.19" transform="translate(-97.29 420.79) rotate(-48.62)"/>
        <circle class="cls-4" cx="406.73" cy="334.67" r="2.84"/>
        <path class="cls-4" d="M433.93,310.34s12.35,16.94-5.48,30.94c-16.8,13.19-30.78-3.01-30.78-3.01,0,0,2.09,3.66,6.22,7.12,5.85,4.9,15.79,9.39,29.66,2.46,21.82-10.89,11.19-36.53,11.19-36.53,0,0-5.35-1.87-10.81-.97Z"/>
      </g>
      <path class="cls-3" d="M319.95,400.25s-4.94-6.55-11.24-7.33c-1.05-.13-2.13-.09-3.24.16-1.08.24-2.18.68-3.27,1.39-.01.01-.03.03-.05.04-7.58,5.93-4.07,21.55,9.52,17.01,0,0-10.05,7.68-24.79,4.95-11.39-2.1-15.2-31.79-17.33-13.52,0,0-4.98-8.72-2.7-16.85,1.74-6.2,7.7-12.05,23.31-13.41,19.43-1.69,28.46-.46,33.08,1.71h.01c1.81.85,2.94,1.84,3.75,2.85.96,1.19,1.48,2.43,2.15,3.49,2.69,4.26.22,14.12-9.19,19.49Z"/>
      <path class="cls-5" d="M311.65,411.52s-10.05,7.68-24.79,4.95c-11.39-2.1-15.2-31.79-17.33-13.52,0,0-4.98-8.72-2.7-16.85.17,4.5,1.31,10.32,2.1,9.53,3.14-3.15,5.07,1.19,5.07,1.19,3.08,4.92,7.24,7.57,10.95,8.98,4.02,1.54,8.6-.42,10.2-4.41,3.25-8.11,10.31-8.32,10.31-8.32-1.08.24-2.18.68-3.27,1.39-.01.01-.03.03-.05.04-7.58,5.93-4.07,21.55,9.52,17.01Z"/>
      <path class="cls-5" d="M319.95,400.25s-4.94-6.55-11.24-7.33c17.93-1.64,18.28-15.65,18.28-15.65.96,1.19,1.48,2.43,2.15,3.49,2.69,4.26.22,14.12-9.19,19.49Z"/>
      <ellipse class="cls-4" cx="293.46" cy="379.98" rx="18.22" ry="1.98" transform="translate(-31.22 26.31) rotate(-4.87)"/>
      <path class="cls-1" d="M441.14,411.46s-8.49,4.06-16.49,11.59c-8.13,7.65-20.08,24.61-55.71,27.68-36.62,3.16-61.57-11.35-72.18-.49-.66-1.28-.92-2.03-.92-2.03l-.78-4.26-7.73-1.26s-.31-.07-.86-.22c0,0,13.64-5.85,10.09-21.94-.49-2.21,4.25-2.73,4.25-2.73l-1.26,4.06s17.01,26.83,68.68,20.97c45.76-5.19,48.06-39.51,72.9-31.38Z"/>
      <path class="cls-4" d="M282.53,350.1h0c-14.45-15.62-6.4-33.61-.49-40.91,4.46,1.23,4.22,1.81,4.22,1.81-16.86,17.22-3.72,39.1-3.72,39.1Z"/>
      <g>
        <ellipse class="cls-4" cx="290.5" cy="321.19" rx="4.03" ry="5.51" transform="translate(-41.46 43.06) rotate(-7.91)"/>
        <circle class="cls-4" cx="290.13" cy="336.37" r="2.2"/>
      </g>
      <path class="cls-2" d="M368.13,415.36s22.27,2.38,30.65,6.86l8.28-8.35s-14.93-4.86-38.94,1.5Z"/>
      <path class="cls-2" d="M364.67,406.15s30.36-5.91,47.73-3.45l-1.08-7.48s-22.54.58-46.65,10.94Z"/>
      <path class="cls-2" d="M410.14,386.1l-37.75,4.71,34.68-10.83s2.6,3.4,3.08,6.12Z"/>
      <g>
        <path class="cls-1" d="M364.67,393.49s83.45-48.92,165.75,9.21c0,0-75.39-42.59-165.75-9.21Z"/>
        <path class="cls-1" d="M364.67,406.15s100.14-57.55,155.96,64.46c0,0-43.74-101.87-155.96-64.46Z"/>
        <path class="cls-1" d="M368.13,415.36s68.49-30.5,127.76,55.25c0,0-47.19-62.73-127.76-55.25Z"/>
      </g>
      <g>
        <path class="cls-1" d="M264.96,408.75c-2.65.41-5.23.89-7.76,1.45-.08-.36-.15-.73-.22-1.09,4.97-.46,7.98-.35,7.98-.35Z"/>
        <path class="cls-1" d="M273.68,417.13c-4.78.57-9.28,1.39-13.48,2.42-.18-.38-.32-.75-.47-1.14-.1-.25-.2-.51-.29-.76,8.44-1.06,14.24-.52,14.24-.52Z"/>
        <path class="cls-1" d="M283,424.85c-5.23,2.03-10.03,4.43-14.42,7.1-.91-.89-1.8-1.87-2.65-2.9,9.7-4.09,17.07-4.2,17.07-4.2Z"/>
      </g>
      <path class="cls-2" d="M586.28,340.02c-2.52,3.39-4.24,5.29-4.43,5.49,1.08-3.16,2.03-6.22,2.87-9.19.5,1.17,1.02,2.41,1.56,3.7Z"/>
      <path class="cls-2" d="M299.01,335.76c5.06-9.51,4.39-17.82-2.92-34.67.19.59,2.26,7.56.22,13.68,0,0-3.49-8.76-12.27-10.89,0,0,.15-2.72.84-6.95,0,0,5.25-1.74,8.57,0l-3.31-7c.65.33,28.84,15.12,8.87,45.83Z"/>
      <path class="cls-2" d="M363.09,305.81s11.53-31.37,49.01-44.92c0,0-31.53,14.47-49.01,44.92Z"/>
      <path class="cls-2" d="M313.9,312.33s2.37-16.15-10.56-30.7c0,0,10.16,13.56,10.56,30.7Z"/>
      <path class="cls-2" d="M446.5,198.63s-.84-.01-2.4.1c-8.82.65-40.7,5.52-73.32,41.25.41-.67,12.41-20.52,32.55-39.77,12.46-2,26.24-2.8,41.45-2,.56.02,1.12.06,1.68.09.01.11.02.22.03.33Z"/>
      <path class="cls-2" d="M469.28,200.75c-9.3.52-29.15,4.13-51.09,23.52.33-.45,10.28-13.49,25.92-25.54.22-.18.45-.35.68-.52.56.02,1.12.06,1.68.09,7.28.44,14.87,1.24,22.81,2.45Z"/>
      <path class="cls-2" d="M390.38,202.79c-8.06,2.66-21.11,9.23-33.65,25.33,0,0,4.21-8.48,11.94-18.36,6.66-2.71,13.89-5.08,21.71-6.97Z"/>
      <path class="cls-2" d="M628.54,463.36l-10.41-24.14s4.74,115.92-53.94,193.07c.33-.82,10.94-26.71,14.89-52.69-1.57,8.09-12.75,44.4-90.14,90.58l22.49-20.75c-8.68,7.52-44.95,35.07-126.14,50.09,0,0,79.03-35.03,128.95-104.75-.57.59-19.39,19.68-93.93,56.47-75.72,37.39-77.62,75.25-77.62,75.25,0,0-19.4-58.22,49.22-109.79,68.63-51.59,84.24-62.94,89.44-81.87-4.52,26.5-18.68,35.97-53.71,68.62-34.46,32.14-43.72,49.15-43.99,49.68.66-.64,25.94-24.91,90.37-48.27,65.32-23.65,80.93-54.42,80.93-54.42l-4.74,37.85c68.47-67.83,50.17-152.39,50.17-152.39l12.78,16.1c5.21-55.13-4.28-95.13-9.81-110.17h0c6.5-13.95,6.14-21.88,6.14-21.88l.54-.54c4.02,9.36,22.75,58.06,18.51,143.94Z"/>
      <path class="cls-2" d="M337.96,647.14c8.83-39.12,0-55.84,0-55.84-8.83,43.85-59.31,73.51-59.31,73.51,28.39-38.8,35.74-106.7,35.74-106.7-29.81,51.1-88.12,74.53-88.12,74.53,100.32-87.24,94.19-140.45,94.03-141.77.41.76,12.92,24.69-11.61,61l15.31-18.93s5.09,46.37-12.35,81.39c.55-.63,23-23.85,30.49-46.21,0,0,5.53,15.46,4.58,38.18,0,0,7.98-8.8,16.35-21.48-4.84,39.07-25.12,62.33-25.12,62.33Z"/>
      <path class="cls-2" d="M581.86,345.51c1.08-3.16,2.03-6.22,2.87-9.19,1.06-3.69,1.93-7.23,2.65-10.62,12.04-56.85-20.35-73.55-20.35-73.55,12.58-1.24,20.1,2.62,20.48,2.83-40.69-32.17-72.36,5.19-72.36,5.19,14.7.46,32,9.65,32,9.65-24.76-.63-43.75,11.15-44.47,11.59.5-.55,8.6-9.32,17.95-13.8,0,0-10.17-2.69-19.63-.48,0,0,14.81-32,49.85-32.02,35.42-.02,47.95,25.8,47.95,25.8l-10.14-1.82s23.43,22.21-6.81,86.43Z"/>
    </g>
    <g>
      <path class="cls-1" d="M737.84,596.95c-1.5-3.55-3.42-6.86-5.73-9.91l9.27-1.73v-22.25c0-10.31-1.12-17.98-3.54-24.13-2.42-6.27-7.11-11.55-12.23-15.71-7.74-6.35-17.34-9.57-28.53-9.57-4.35,0-9.01.51-13.85,1.5-7.68,1.58-14.16,3.92-19.66,6.75v-.59l-39.49,8.14h0s-9.28,1.91-9.28,1.91l-20.27,4.18h0s-20.87,4.31-20.87,4.31l-49.55,10.22-20.97,4.32h0s-26.08,5.38-26.08,5.38l-3.46.71-104.51,21.56-41.4,8.54h0s-33.68,6.95-33.68,6.95l-23.16,4.78h0s-5.74,1.18-5.74,1.18l-24.97,5.15h0s-81.59,16.83-81.59,16.83v108.53c0,10.85,1.46,18.91,4.61,25.32,3.94,8.25,14.1,21.82,38.35,21.82,5.23,0,11.03-.65,17.23-1.93,8.17-1.69,15.27-4.03,21.4-7.07l423.43-88.92c2.66.46,5.43.71,8.32.71.32,0,.65,0,.97,0,.17,0,.34,0,.51,0,5.43,0,11.37-.66,17.65-1.95,28.34-5.85,40.49-21.55,45.69-33.73,3.34-7.72,4.97-16.72,4.97-27.49,0-10.05-1.22-17.61-3.84-23.8Z"/>
      <g>
        <path class="cls-4" d="M250.85,717c0,7.59-.68,13.68-2.03,18.27-1.36,4.6-4.45,9.09-9.29,13.47-5.61,5.01-13.89,8.64-24.83,10.9-17.81,3.67-28.99.67-33.54-9.01-1.74-3.49-2.61-9.03-2.61-16.61v-92.24l28.75-5.93v90.83c0,6.65,2.47,9.47,7.4,8.45,4.84-1,7.26-4.82,7.26-11.47v-90.83l28.89-5.96v90.13Z"/>
        <path class="cls-4" d="M287.44,742.88l-27.29,5.63v-123.56l27.29-5.63v123.56Z"/>
        <path class="cls-4" d="M343.19,731.38l-20.04,4.13c-3.77.78-6.87,1.04-9.29.78-2.42-.26-4.6-1.53-6.53-3.81-2.52-2.98-3.77-8.32-3.77-16.02v-52.16l-11.61,2.4v-18.03l11.61-2.4v-30.28l26.71-5.51v30.28l12.2-2.52v18.03l-12.2,2.52v48.13c0,2.8.48,4.71,1.45,5.74.97,1.03,2.76,1.33,5.37.9l6.1-1.08v18.9Z"/>
        <path class="cls-4" d="M375.13,623.28l-27.44,5.66v-22.05l27.44-5.66v22.05ZM375.13,724.79l-27.44,5.66v-93.28l27.44-5.66v93.28Z"/>
        <path class="cls-4" d="M483.15,702.51l-24.1,4.97v-84.71l-15.82,87.97-18.44,3.8-15.97-79.84v83.13l-24.1,4.97v-123.56l36.44-7.52,13.07,78.86,12.78-84.19,36.15-7.46v123.56Z"/>
        <path class="cls-4" d="M522.64,694.36l-29.04,5.99v-123.56l29.04-5.99v123.56Z"/>
        <path class="cls-4" d="M604.08,677.56l-27.15,5.6-19.75-68.38v72.46l-24.1,4.97v-123.56l26.57-5.48,20.47,69.81-.14-74,24.1-4.97v123.56Z"/>
        <path class="cls-4" d="M643.57,669.41l-29.04,5.99v-123.56l29.04-5.99v123.56Z"/>
        <path class="cls-4" d="M721.68,620.75c0,7.94-1.11,14.47-3.34,19.59-4.84,11.38-15.29,18.73-31.36,22.05-5.23,1.08-9.97,1.59-14.23,1.53-9,.22-15.24-3.04-18.73-9.79-2.03-4.01-3.05-11.1-3.05-21.25v-4.73l28.02-5.78v8.23c0,6.65,2.42,9.48,7.26,8.48,1.45-.3,2.71-.97,3.77-2,1.94-1.8,2.9-5.03,2.9-9.7,0-3.03-.51-5.23-1.52-6.6-1.02-1.37-3.36-3.24-7.04-5.64l-18-11.86c-5.71-3.84-9.36-7.66-10.96-11.48-1.6-3.81-2.39-8.87-2.39-15.17,0-7.23.82-13.12,2.47-17.66,4.55-12.72,15.15-20.8,31.8-24.24,11.13-2.3,19.7-.97,25.7,3.97,2.42,1.95,4.21,4.44,5.37,7.47,1.45,3.67,2.18,9.29,2.18,16.88v5.95l-26.86,5.54v-8.23c0-1.75-.15-3.06-.44-3.93-.87-3.2-2.95-4.47-6.24-3.79-4.26.88-6.39,4-6.39,9.37,0,1.75.39,3.25,1.16,4.48.39.74.97,1.44,1.74,2.09.77.66,2.06,1.56,3.85,2.71,1.79,1.15,3.17,2.03,4.14,2.65l14.08,9.87c2.42,1.72,4.84,3.61,7.26,5.68,2.9,2.67,5.1,5.77,6.61,9.31,1.5,3.54,2.25,8.87,2.25,15.99Z"/>
      </g>
      <g>
        <path class="cls-2" d="M247.85,692.6v24.37c0,7.26-.64,13.13-1.91,17.43-1.19,4.04-4.03,8.11-8.43,12.09-5.17,4.61-13.06,8.04-23.42,10.18-4.68.97-8.91,1.46-12.59,1.46-9.07,0-14.84-2.88-17.62-8.8-1.56-3.12-2.33-8.26-2.33-15.34v-27.26l22.74-4.85v24.78c0,10.14,5.37,11.65,8.57,11.65.77,0,1.59-.09,2.45-.26,4.4-.91,9.65-4.15,9.65-14.42v-26.15l22.89-4.88Z"/>
        <polygon class="cls-2" points="284.44 684.79 284.44 740.41 263.14 744.8 263.14 689.34 284.44 684.79"/>
        <path class="cls-2" d="M340.19,716.03v12.88l-17.64,3.64c-2.63.54-4.89.82-6.75.82-.58,0-1.12-.03-1.62-.09-1.64-.17-3.13-1.08-4.56-2.77-1.4-1.65-3.07-5.44-3.07-14.08v-36.35l20.72-4.42v31.23c0,3.63.74,6.18,2.27,7.8,1.26,1.35,3.11,2.03,5.47,2.03.78,0,1.64-.07,2.56-.22l2.62-.47Z"/>
        <path class="cls-2" d="M350.69,670.67v56.08l21.44-4.43v-56.22l-21.44,4.57Z"/>
        <polygon class="cls-2" points="387.71 662.78 405.81 658.92 405.81 715.38 387.71 719.11 387.71 662.78"/>
        <polygon class="cls-2" points="440.13 651.6 451.23 649.23 440.62 708.19 427.13 710.98 416.27 656.69 428.45 654.09 431.26 671.06 437.18 671.02 440.13 651.6"/>
        <polygon class="cls-2" points="480.14 643.07 480.14 700.04 462.04 703.78 462.04 646.93 480.14 643.07"/>
        <polygon class="cls-2" points="519.63 634.65 519.63 691.9 496.6 696.65 496.6 639.56 519.63 634.65"/>
        <polygon class="cls-2" points="536.09 631.14 554.19 627.28 554.19 684.77 536.09 688.5 536.09 631.14"/>
        <polygon class="cls-2" points="601.08 617.28 601.08 675.09 579.04 679.64 563.36 625.33 574.1 623.04 577.25 633.79 583.12 632.94 583.1 621.12 601.08 617.28"/>
        <polygon class="cls-2" points="640.57 608.87 640.57 666.95 617.53 671.7 617.53 613.78 640.57 608.87"/>
        <path class="cls-2" d="M718.68,620.73c0,7.48-1.04,13.67-3.09,18.39-4.48,10.54-14.04,17.17-29.22,20.3-4.74.98-9.12,1.48-13,1.48h-.69c-.27,0-.53,0-.79,0-7.39,0-12.36-2.68-15.2-8.18-1.23-2.43-2.72-7.88-2.72-19.87v-2.28l22.03-4.54v4.54c0,10.16,5.31,11.68,8.48,11.68.75,0,1.55-.09,2.38-.26,2.01-.42,3.78-1.36,5.26-2.79,2.55-2.37,3.81-6.26,3.81-11.85,0-3.73-.69-6.48-2.11-8.39-1.26-1.69-3.74-3.71-7.82-6.36l-15.4-10.15,36.54-7.79c1.23.95,2.47,1.95,3.69,3,2.55,2.36,4.52,5.13,5.84,8.24,1.33,3.15,2.01,8.14,2.01,14.82Z"/>
      </g>
    </g>
  </g>
</svg>