<?xml version="1.0" encoding="UTF-8"?>
<svg xmlns="http://www.w3.org/2000/svg" viewBox="0 0 3938.92 1463.75">
  <defs>
    <style>
      .cls-1 {
        stroke: #13182a;
      }

      .cls-1, .cls-2, .cls-3, .cls-4 {
        fill: none;
        stroke-miterlimit: 10;
      }

      .cls-1, .cls-4 {
        stroke-width: 10px;
      }

      .cls-2 {
        stroke: #5ba8ef;
        stroke-width: 5px;
      }

      .cls-3 {
        stroke: #fff;
        stroke-width: 4px;
      }

      .cls-5 {
        fill: #5ba8ef;
      }

      .cls-6 {
        fill: #fff;
        font-family: AkzidenzGroteskBQ-Medium, 'Akzidenz-Grotesk BQ';
        font-size: 37.47px;
        font-weight: 500;
      }

      .cls-4 {
        stroke: #b23535;
      }

      .cls-7 {
        font-family: AkzidenzGroteskBQ-Light, 'Akzidenz-Grotesk BQ Light';
        font-size: 240.3px;
        font-weight: 300;
      }

      .cls-8 {
        fill: #b23535;
      }

      .cls-9 {
        letter-spacing: -.03em;
      }
    </style>
  </defs>
  <g id="Base">
    <g>
      <g>
        <path d="M1423.43,809.45c-15.18,0-28.52-1.76-40.01-5.29-11.5-3.52-20.86-8.39-28.06-14.6-7.21-6.21-13.04-13.99-17.48-23.34-4.45-9.35-7.55-19.28-9.31-29.78-1.77-10.5-2.65-22.5-2.65-35.99v-277.11h34.73v278.26c0,9.51.54,18.01,1.61,25.52,1.07,7.52,2.99,14.68,5.75,21.5,2.76,6.82,6.44,12.5,11.04,17.02,4.6,4.52,10.65,8.13,18.17,10.81,7.51,2.68,16.25,4.02,26.22,4.02,11.96,0,22.11-1.95,30.47-5.86,8.35-3.91,14.79-9.58,19.32-17.02,4.52-7.44,7.78-15.67,9.77-24.72,1.99-9.04,2.99-19.47,2.99-31.27v-278.26h34.5v277.11c0,13.34-.92,25.3-2.76,35.88-1.84,10.58-5.06,20.55-9.66,29.9-4.6,9.35-10.54,17.13-17.82,23.34-7.28,6.21-16.56,11.08-27.83,14.6-11.26,3.53-24.26,5.29-38.98,5.29Z"/>
        <path d="M1582.8,804.62v-381.29h36.1v354.39h108.55v26.91h-144.65Z"/>
        <path d="M1804.03,804.62v-353.69h-76.58v-27.6h187.42v27.6h-74.74v353.69h-36.1Z"/>
        <path d="M1968.87,804.62v-381.29h35.42v381.29h-35.42Z"/>
        <path d="M2068.45,804.62l9.89-381.29h35.18l75.89,330.93,76.35-330.93h36.1l9.43,381.29h-29.9l-7.36-304.02-72.9,304.02h-22.99l-71.99-303.33-7.36,303.33h-30.35Z"/>
        <path d="M2354.07,804.62l80.49-381.29h37.72l80.95,381.29h-35.18l-18.85-101.88h-91.07l-19.32,101.88h-34.73ZM2413.17,676.53h81.18l-40.7-205.59-40.48,205.59Z"/>
        <path d="M2640.15,804.62v-353.69h-76.58v-27.6h187.42v27.6h-74.74v353.69h-36.1Z"/>
        <path d="M2781.81,804.62v-381.29h137.75v27.6h-101.65v142.81h83.25v26.68h-83.25v157.3h102.8v26.91h-138.9Z"/>
        <path d="M3060.3,809.68c-36.03,0-61.97-11.27-77.84-33.8-15.87-22.54-23.8-55.34-23.8-98.43v-124.18c0-21.92,1.72-40.82,5.18-56.69,3.45-15.87,9.23-29.78,17.36-41.74,8.12-11.96,19.32-20.93,33.58-26.91,14.25-5.98,31.73-8.97,52.43-8.97,37.71,0,64.77,9.24,81.18,27.71,16.4,18.48,24.61,46.49,24.61,84.06v18.63h-66.46v-19.78c0-8.43-.19-15.33-.57-20.7-.38-5.37-1.3-10.77-2.76-16.21-1.46-5.44-3.56-9.62-6.32-12.53-2.76-2.91-6.52-5.29-11.26-7.13-4.76-1.84-10.58-2.76-17.48-2.76-5.22,0-9.86.65-13.91,1.95-4.06,1.3-7.48,2.91-10.23,4.83-2.76,1.92-5.1,4.64-7.02,8.16-1.92,3.53-3.37,6.94-4.37,10.23-.99,3.3-1.76,7.55-2.3,12.76-.54,5.22-.88,9.81-1.04,13.8-.15,3.99-.23,9.12-.23,15.41v153.85c0,23,2.83,39.82,8.51,50.48,5.67,10.66,16.48,15.98,32.42,15.98,8.28,0,15.22-1.57,20.81-4.71,5.6-3.14,9.97-7.9,13.11-14.26,3.14-6.36,5.37-13.64,6.67-21.85,1.3-8.2,1.95-18.13,1.95-29.78v-31.28h-41.16v-44.84h103.72v193.63h-45.08l-5.06-38.64c-11.5,29.13-33.04,43.69-64.62,43.69Z"/>
        <path d="M3278.54,804.62v-145.11l-77.73-236.18h64.85l47.15,151.78,45.07-151.78h64.16l-77.27,236.18v145.11h-66.24Z"/>
        <path d="M3454.47,804.62l6.21-381.29h71.29l55.19,267.91,56.8-267.91h69.68l6.44,381.29h-52.43l-4.6-262.62-54.96,262.62h-40.7l-55.65-263.54-4.14,263.54h-53.12Z"/>
      </g>
      <g>
        <polygon points="1218.12 615.82 1218.12 425.97 745.43 153.06 745.43 1310.69 1218.12 1037.78 1218.12 717.77 957.5 717.77 957.5 847.14 1088.76 847.14 1088.76 963.09 874.79 1086.59 874.79 377.12 1088.76 500.66 1088.76 615.82 1218.12 615.82"/>
        <polygon points="562.16 1086.59 348.19 963.09 348.19 351.29 218.83 425.97 218.83 1037.78 691.52 1310.69 691.52 153.06 562.16 227.74 562.16 1086.59"/>
      </g>
      <text class="cls-7" transform="translate(1325.92 1041.6)"><tspan x="0" y="0">AUGSBURG</tspan></text>
    </g>
  </g>
  <g id="Instructions">
    <g>
      <rect class="cls-2" width="3938.92" height="1463.75"/>
      <line class="cls-2" y1="1317.38" x2="3938.92" y2="1317.38"/>
      <line class="cls-2" y1="1171" x2="3938.92" y2="1171"/>
      <line class="cls-2" y1="1024.62" x2="3938.92" y2="1024.62"/>
      <line class="cls-2" y1="878.25" x2="3938.92" y2="878.25"/>
      <line class="cls-2" y1="731.88" x2="3938.92" y2="731.88"/>
      <line class="cls-2" y1="585.5" x2="3938.92" y2="585.5"/>
      <line class="cls-2" y1="439.13" x2="3938.92" y2="439.13"/>
      <line class="cls-2" y1="292.75" x2="3938.92" y2="292.75"/>
      <line class="cls-2" y1="146.37" x2="3938.92" y2="146.37"/>
      <line class="cls-2" x1="3720.09" x2="3720.09" y2="1463.75"/>
      <line class="cls-2" x1="3501.26" x2="3501.26" y2="1463.75"/>
      <line class="cls-2" x1="3282.43" x2="3282.43" y2="1463.75"/>
      <line class="cls-2" x1="3063.6" x2="3063.6" y2="1463.75"/>
      <line class="cls-2" x1="2844.77" x2="2844.77" y2="1463.75"/>
      <line class="cls-2" x1="2625.94" x2="2625.94" y2="1463.75"/>
      <line class="cls-2" x1="2407.12" x2="2407.12" y2="1463.75"/>
      <line class="cls-2" x1="2188.29" x2="2188.29" y2="1463.75"/>
      <line class="cls-2" x1="1969.46" x2="1969.46" y2="1463.75"/>
      <line class="cls-2" x1="1750.63" x2="1750.63" y2="1463.75"/>
      <line class="cls-2" x1="1531.8" x2="1531.8" y2="1463.75"/>
      <line class="cls-2" x1="1312.97" x2="1312.97" y2="1463.75"/>
      <line class="cls-2" x1="1094.14" x2="1094.14" y2="1463.75"/>
      <line class="cls-2" x1="875.31" x2="875.31" y2="1463.75"/>
      <line class="cls-2" x1="656.49" x2="656.49" y2="1463.75"/>
      <line class="cls-2" x1="437.66" x2="437.66" y2="1463.75"/>
      <line class="cls-2" x1="218.83" x2="218.83" y2="1463.75"/>
    </g>
    <rect class="cls-1" x="218.83" y="146.38" width="3501.26" height="1171"/>
    <g>
      <rect class="cls-5" width="215.8" height="146.38"/>
      <text class="cls-6" transform="translate(29.11 64.54)"><tspan x="0" y="0">X: 6,25 %</tspan><tspan class="cls-9" x="0" y="44.97">Y</tspan><tspan x="22.26" y="44.97">: 12,5 %</tspan></text>
    </g>
    <g>
      <rect class="cls-5" y="1317.38" width="215.8" height="146.38"/>
      <text class="cls-6" transform="translate(29.11 1381.91)"><tspan x="0" y="0">X: 6,25 %</tspan><tspan class="cls-9" x="0" y="44.97">Y</tspan><tspan x="22.26" y="44.97">: 12,5 %</tspan></text>
    </g>
    <g>
      <rect class="cls-5" x="3720.09" width="215.8" height="146.38"/>
      <text class="cls-6" transform="translate(3749.2 64.54)"><tspan x="0" y="0">X: 6,25 %</tspan><tspan class="cls-9" x="0" y="44.97">Y</tspan><tspan x="22.26" y="44.97">: 12,5 %</tspan></text>
    </g>
    <rect class="cls-5" x="3720.09" y="422.61" width="215.8" height="387.09"/>
    <rect class="cls-5" x="3720.09" y="809.45" width="215.8" height="236.48"/>
    <text class="cls-6" transform="translate(3841.21 681.78) rotate(-90)"><tspan x="0" y="0">0,618 %</tspan></text>
    <text class="cls-6" transform="translate(3841.21 995.49) rotate(-90)"><tspan x="0" y="0">0,382 %</tspan></text>
    <g>
      <rect class="cls-5" x="3720.09" y="1317.38" width="215.8" height="146.38"/>
      <text class="cls-6" transform="translate(3749.2 1381.91)"><tspan x="0" y="0">X: 6,25 %</tspan><tspan class="cls-9" x="0" y="44.97">Y</tspan><tspan x="22.26" y="44.97">: 12,5 %</tspan></text>
    </g>
    <rect class="cls-8" x="690.37" y="0" width="54.49" height="1463.75"/>
    <rect class="cls-8" x="2498.66" y="-357.24" width="54.49" height="2388.37" transform="translate(3362.85 -1688.96) rotate(90)"/>
    <rect class="cls-8" x="1222.73" y="0" width="54.49" height="1463.75"/>
    <rect class="cls-8" x="1277.22" y="0" width="54.49" height="1463.75"/>
    <line class="cls-3" x1="1277.22" y1="0" x2="1277.22" y2="1463.75"/>
    <line class="cls-3" x1="1331.71" y1="809.45" x2="1331.71" y2="864.19"/>
    <line class="cls-4" y1="422.61" x2="3938.13" y2="422.65"/>
    <line class="cls-4" x1=".79" y1="1040.32" x2="3938.92" y2="1040.36"/>
    <line class="cls-3" x1="3720.09" y1="809.7" x2="3935.89" y2="809.7"/>
  </g>
</svg>