<?xml version="1.0" encoding="UTF-8"?>
<svg xmlns="http://www.w3.org/2000/svg" viewBox="0 0 2250 489.58">
  <defs>
    <style>
      .cls-1 {
        stroke: #13182a;
        stroke-width: 10px;
      }

      .cls-1, .cls-2 {
        fill: none;
        stroke-miterlimit: 10;
      }

      .cls-2 {
        stroke: #5ba8ef;
        stroke-width: 5px;
      }

      .cls-3 {
        fill: #fff;
        font-family: AkzidenzGroteskBQ-Medium, 'Akzidenz-Grotesk BQ';
        font-size: 21.82px;
        font-weight: 500;
      }

      .cls-4 {
        fill: #5ba8ef;
      }

      .cls-5 {
        letter-spacing: -.03em;
      }
    </style>
  </defs>
  <g id="Base">
    <g>
      <path d="M206.46,407.79c-12.68,0-23.82-1.47-33.43-4.42-9.61-2.94-17.42-7.01-23.44-12.2-6.02-5.19-10.89-11.69-14.6-19.5-3.72-7.81-6.31-16.1-7.78-24.88-1.48-8.77-2.21-18.79-2.21-30.06V85.24h29.01v232.45c0,7.94.45,15.05,1.35,21.32.89,6.28,2.5,12.27,4.8,17.96,2.31,5.7,5.38,10.44,9.22,14.22,3.84,3.78,8.9,6.79,15.18,9.03,6.27,2.24,13.57,3.36,21.9,3.36,9.99,0,18.47-1.63,25.45-4.9,6.98-3.27,12.36-8,16.14-14.22,3.78-6.21,6.5-13.09,8.16-20.65,1.66-7.56,2.5-16.26,2.5-26.13V85.24h28.82v231.49c0,11.14-.77,21.13-2.31,29.97-1.54,8.84-4.23,17.16-8.07,24.98-3.84,7.81-8.81,14.31-14.89,19.5-6.08,5.19-13.83,9.26-23.25,12.2-9.41,2.95-20.26,4.42-32.56,4.42Z"/>
      <path d="M339.59,403.76V85.24h30.16v296.04h90.68v22.48h-120.84Z"/>
      <path d="M524.4,403.76V108.3h-63.97v-23.05h156.57v23.05h-62.44v295.46h-30.16Z"/>
      <path d="M662.09,403.76V85.24h29.59v318.52h-29.59Z"/>
      <path d="M745.28,403.76l8.26-318.52h29.39l63.39,276.44,63.78-276.44h30.16l7.88,318.52h-24.98l-6.15-253.97-60.9,253.97h-19.21l-60.13-253.39-6.14,253.39h-25.36Z"/>
      <path d="M983.87,403.76l67.24-318.52h31.51l67.62,318.52h-29.39l-15.75-85.1h-76.08l-16.14,85.1h-29.01ZM1033.25,296.76h67.82l-34-171.75-33.81,171.75Z"/>
      <path d="M1222.86,403.76V108.3h-63.97v-23.05h156.57v23.05h-62.44v295.46h-30.16Z"/>
      <path d="M1341.2,403.76V85.24h115.07v23.05h-84.91v119.3h69.54v22.28h-69.54v131.4h85.87v22.48h-116.03Z"/>
      <path d="M1573.84,407.99c-30.1,0-51.77-9.41-65.03-28.24-13.26-18.83-19.88-46.23-19.88-82.22v-103.74c0-18.31,1.44-34.1,4.32-47.36,2.88-13.25,7.71-24.88,14.5-34.87,6.78-9.99,16.14-17.48,28.05-22.48,11.91-5,26.51-7.49,43.8-7.49,31.5,0,54.11,7.72,67.81,23.15,13.7,15.44,20.56,38.84,20.56,70.22v15.56h-55.52v-16.52c0-7.04-.16-12.8-.48-17.29-.32-4.48-1.09-9-2.31-13.55-1.22-4.55-2.98-8.04-5.28-10.47-2.31-2.43-5.44-4.42-9.41-5.95-3.97-1.54-8.84-2.31-14.6-2.31-4.36,0-8.23.55-11.62,1.63-3.39,1.09-6.25,2.44-8.55,4.03-2.31,1.6-4.26,3.87-5.86,6.82-1.6,2.95-2.82,5.8-3.65,8.55-.83,2.75-1.47,6.31-1.92,10.66-.45,4.36-.74,8.2-.87,11.53-.13,3.33-.19,7.62-.19,12.87v128.52c0,19.21,2.37,33.27,7.11,42.17,4.74,8.9,13.76,13.35,27.09,13.35,6.92,0,12.71-1.31,17.39-3.94,4.67-2.62,8.33-6.6,10.95-11.91,2.62-5.31,4.48-11.4,5.57-18.25,1.08-6.85,1.63-15.14,1.63-24.88v-26.13h-34.39v-37.46h86.64v161.76h-37.66l-4.23-32.28c-9.61,24.34-27.6,36.5-53.98,36.5Z"/>
      <path d="M1756.15,403.76v-121.22l-64.93-197.3h54.18l39.38,126.79,37.65-126.79h53.6l-64.55,197.3v121.22h-55.33Z"/>
      <path d="M1903.11,403.76l5.18-318.52h59.56l46.11,223.81,47.45-223.81h58.21l5.38,318.52h-43.8l-3.84-219.39-45.92,219.39h-34l-46.49-220.16-3.46,220.16h-44.38Z"/>
    </g>
  </g>
  <g id="Instructions">
    <g>
      <rect class="cls-2" width="2250" height="489.58"/>
      <line class="cls-2" y1="407.98" x2="2250" y2="407.98"/>
      <line class="cls-2" y1="326.39" x2="2250" y2="326.39"/>
      <line class="cls-2" y1="244.79" x2="2250" y2="244.79"/>
      <line class="cls-2" y1="163.19" x2="2250" y2="163.19"/>
      <line class="cls-2" y1="81.6" x2="2250" y2="81.6"/>
      <line class="cls-2" x1="2125" x2="2125" y2="489.58"/>
      <line class="cls-2" x1="2000" x2="2000" y2="489.58"/>
      <line class="cls-2" x1="1875" x2="1875" y2="489.58"/>
      <line class="cls-2" x1="1750" x2="1750" y2="489.58"/>
      <line class="cls-2" x1="1625" x2="1625" y2="489.58"/>
      <line class="cls-2" x1="1500" x2="1500" y2="489.58"/>
      <line class="cls-2" x1="1375" x2="1375" y2="489.58"/>
      <line class="cls-2" x1="1250" x2="1250" y2="489.58"/>
      <line class="cls-2" x1="1125" x2="1125" y2="489.58"/>
      <line class="cls-2" x1="1000" x2="1000" y2="489.58"/>
      <line class="cls-2" x1="875" x2="875" y2="489.58"/>
      <line class="cls-2" x1="750" x2="750" y2="489.58"/>
      <line class="cls-2" x1="625" x2="625" y2="489.58"/>
      <line class="cls-2" x1="500" x2="500" y2="489.58"/>
      <line class="cls-2" x1="375" x2="375" y2="489.58"/>
      <line class="cls-2" x1="250" x2="250" y2="489.58"/>
      <line class="cls-2" x1="125" x2="125" y2="489.58"/>
    </g>
    <g>
      <rect class="cls-4" x="-.68" y="0" width="125.68" height="85.25"/>
      <text class="cls-3" transform="translate(16.27 37.58)"><tspan x="0" y="0">X: 6,25 %</tspan><tspan class="cls-5" x="0" y="26.19">Y</tspan><tspan x="12.96" y="26.19">: 25 %</tspan></text>
    </g>
    <g>
      <rect class="cls-4" x="-.68" y="407.79" width="125.68" height="85.25"/>
      <text class="cls-3" transform="translate(16.27 445.38)"><tspan x="0" y="0">X: 6,25 %</tspan><tspan class="cls-5" x="0" y="26.19">Y</tspan><tspan x="12.96" y="26.19">: 25 %</tspan></text>
    </g>
    <g>
      <rect class="cls-4" x="2125" y="0" width="125.68" height="85.25"/>
      <text class="cls-3" transform="translate(2141.95 37.58)"><tspan x="0" y="0">X: 6,25 %</tspan><tspan class="cls-5" x="0" y="26.19">Y</tspan><tspan x="12.96" y="26.19">: 25 %</tspan></text>
    </g>
    <g>
      <rect class="cls-4" x="2125" y="407.79" width="125.68" height="85.25"/>
      <text class="cls-3" transform="translate(2141.95 445.38)"><tspan x="0" y="0">X: 6,25 %</tspan><tspan class="cls-5" x="0" y="26.19">Y</tspan><tspan x="12.96" y="26.19">: 25 %</tspan></text>
    </g>
    <rect class="cls-1" x="125" y="81.59" width="2000" height="326.39"/>
  </g>
</svg>