<?xml version="1.0" encoding="UTF-8"?>
<svg xmlns="http://www.w3.org/2000/svg" viewBox="0 0 2500 2500">
  <defs>
    <style>
      .cls-1 {
        stroke: #13182a;
        stroke-width: 10px;
      }

      .cls-1, .cls-2 {
        fill: none;
        stroke-miterlimit: 10;
      }

      .cls-2 {
        stroke: #5ba8ef;
        stroke-width: 5px;
      }

      .cls-3 {
        fill: #5ba8ef;
      }

      .cls-4 {
        fill: #fff;
        font-family: AkzidenzGroteskBQ-Medium, 'Akzidenz-Grotesk BQ';
        font-size: 64px;
        font-weight: 500;
      }
    </style>
  </defs>
  <g id="Base">
    <g>
      <path d="M328.74,2249.81c-12.72,0-23.9-1.48-33.52-4.43-9.63-2.95-17.47-7.03-23.51-12.23-6.04-5.2-10.92-11.72-14.64-19.56-3.73-7.83-6.33-16.15-7.8-24.95-1.48-8.8-2.22-18.85-2.22-30.15v-232.17h29.1v233.14c0,7.97.45,15.09,1.35,21.39.9,6.3,2.5,12.3,4.82,18.02,2.31,5.72,5.39,10.47,9.25,14.26,3.85,3.79,8.93,6.81,15.22,9.06,6.29,2.25,13.61,3.37,21.97,3.37,10.02,0,18.52-1.64,25.53-4.91,7-3.28,12.39-8.03,16.19-14.26,3.79-6.23,6.51-13.13,8.19-20.71,1.67-7.58,2.5-16.31,2.5-26.2v-233.14h28.9v232.17c0,11.18-.77,21.19-2.31,30.06-1.54,8.86-4.24,17.22-8.09,25.05-3.85,7.84-8.83,14.35-14.93,19.56-6.1,5.2-13.87,9.28-23.32,12.23-9.44,2.95-20.32,4.43-32.66,4.43Z"/>
      <path d="M462.26,2245.76v-319.46h30.25v296.92h90.94v22.54h-121.19Z"/>
      <path d="M647.62,2245.76v-296.34h-64.16v-23.12h157.03v23.12h-62.62v296.34h-30.25Z"/>
      <path d="M785.72,2245.76v-319.46h29.67v319.46h-29.67Z"/>
      <path d="M869.15,2245.76l8.28-319.46h29.48l63.58,277.26,63.97-277.26h30.25l7.9,319.46h-25.05l-6.17-254.72-61.08,254.72h-19.26l-60.31-254.14-6.16,254.14h-25.43Z"/>
      <path d="M1108.46,2245.76l67.44-319.46h31.6l67.82,319.46h-29.48l-15.8-85.36h-76.3l-16.19,85.36h-29.1ZM1157.97,2138.44h68.02l-34.1-172.25-33.91,172.25Z"/>
      <path d="M1348.15,2245.76v-296.34h-64.16v-23.12h157.03v23.12h-62.62v296.34h-30.25Z"/>
      <path d="M1466.84,2245.76v-319.46h115.41v23.12h-85.16v119.65h69.75v22.35h-69.75v131.79h86.13v22.54h-116.38Z"/>
      <path d="M1700.16,2250c-30.19,0-51.92-9.44-65.22-28.32-13.3-18.88-19.94-46.37-19.94-82.47v-104.05c0-18.37,1.44-34.2,4.34-47.5,2.89-13.29,7.74-24.95,14.55-34.97,6.8-10.02,16.19-17.53,28.13-22.54,11.94-5.01,26.59-7.52,43.93-7.52,31.59,0,54.27,7.74,68.01,23.22,13.74,15.48,20.62,38.95,20.62,70.43v15.61h-55.69v-16.57c0-7.06-.16-12.84-.48-17.34-.32-4.5-1.09-9.02-2.31-13.59-1.22-4.56-2.99-8.06-5.3-10.5-2.31-2.44-5.46-4.43-9.44-5.97-3.98-1.54-8.86-2.31-14.64-2.31-4.37,0-8.26.55-11.66,1.64-3.4,1.09-6.27,2.44-8.57,4.05-2.31,1.61-4.27,3.89-5.88,6.84-1.61,2.96-2.83,5.81-3.66,8.57-.83,2.76-1.47,6.33-1.92,10.69-.45,4.37-.74,8.22-.87,11.56-.13,3.34-.19,7.64-.19,12.91v128.9c0,19.27,2.38,33.37,7.13,42.29,4.75,8.93,13.81,13.39,27.17,13.39,6.94,0,12.75-1.31,17.44-3.95,4.69-2.63,8.35-6.62,10.99-11.95,2.63-5.33,4.5-11.43,5.59-18.3,1.09-6.87,1.64-15.19,1.64-24.95v-26.21h-34.49v-37.57h86.9v162.23h-37.77l-4.24-32.37c-9.63,24.41-27.68,36.61-54.14,36.61Z"/>
      <path d="M1883.01,2245.76v-121.58l-65.12-197.88h54.34l39.5,127.17,37.76-127.17h53.76l-64.74,197.88v121.58h-55.49Z"/>
      <path d="M2030.41,2245.76l5.2-319.46h59.73l46.24,224.47,47.59-224.47h58.38l5.4,319.46h-43.93l-3.85-220.04-46.05,220.04h-34.1l-46.63-220.81-3.47,220.81h-44.51Z"/>
    </g>
    <g>
      <polygon points="1897.42 849.62 1897.42 603.63 1284.92 250 1284.92 1750 1897.42 1396.37 1897.42 981.73 1559.71 981.73 1559.71 1149.35 1729.79 1149.35 1729.79 1299.6 1452.54 1459.62 1452.54 540.32 1729.79 700.4 1729.79 849.62 1897.42 849.62"/>
      <polygon points="1047.46 1459.62 770.21 1299.6 770.21 506.85 602.58 603.63 602.58 1396.37 1215.08 1750 1215.08 250 1047.46 346.77 1047.46 1459.62"/>
    </g>
  </g>
  <g id="Instructions">
    <rect class="cls-2" y="0" width="2500" height="2500"/>
    <line class="cls-2" y1="2250" x2="2500" y2="2250"/>
    <line class="cls-2" y1="2000" x2="2500" y2="2000"/>
    <line class="cls-2" y1="1750" x2="2500" y2="1750"/>
    <line class="cls-2" y1="1500" x2="2500" y2="1500"/>
    <line class="cls-2" y1="1250" x2="2500" y2="1250"/>
    <line class="cls-2" y1="1000" x2="2500" y2="1000"/>
    <line class="cls-2" y1="750" x2="2500" y2="750"/>
    <line class="cls-2" y1="500" x2="2500" y2="500"/>
    <line class="cls-2" y1="250" x2="2500" y2="250"/>
    <line class="cls-2" x1="2250" y1="0" x2="2250" y2="2500"/>
    <line class="cls-2" x1="2000" y1="0" x2="2000" y2="2500"/>
    <line class="cls-2" x1="1750" y1="0" x2="1750" y2="2500"/>
    <line class="cls-2" x1="1500" y1="0" x2="1500" y2="2500"/>
    <line class="cls-2" x1="1250" y1="0" x2="1250" y2="2500"/>
    <line class="cls-2" x1="1000" y1="0" x2="1000" y2="2500"/>
    <line class="cls-2" x1="750" y1="0" x2="750" y2="2500"/>
    <line class="cls-2" x1="500" y1="0" x2="500" y2="2500"/>
    <line class="cls-2" x1="250" y1="0" x2="250" y2="2500"/>
    <rect class="cls-3" y="0" width="250" height="250"/>
    <text class="cls-4" transform="translate(27.85 148.63)"><tspan x="0" y="0">12,5 %</tspan></text>
    <rect class="cls-3" x="2248.64" y="0" width="250" height="250"/>
    <text class="cls-4" transform="translate(2276.5 148.63)"><tspan x="0" y="0">12,5 %</tspan></text>
    <g>
      <rect class="cls-3" y="2250" width="250" height="250"/>
      <text class="cls-4" transform="translate(27.85 2398.63)"><tspan x="0" y="0">12,5 %</tspan></text>
    </g>
    <rect class="cls-3" x="2248.64" y="2250" width="250" height="250"/>
    <text class="cls-4" transform="translate(2276.5 2398.63)"><tspan x="0" y="0">12,5 %</tspan></text>
    <rect class="cls-1" x="250" y="250" width="2000" height="2000"/>
  </g>
</svg>