<?xml version="1.0" encoding="UTF-8"?>
<svg xmlns="http://www.w3.org/2000/svg" viewBox="0 0 2811.37 731.88">
  <defs>
    <style>
      .cls-1 {
        stroke: #13182a;
      }

      .cls-1, .cls-2, .cls-3, .cls-4 {
        fill: none;
        stroke-miterlimit: 10;
      }

      .cls-1, .cls-4 {
        stroke-width: 10px;
      }

      .cls-2 {
        stroke: #5ba8ef;
        stroke-width: 5px;
      }

      .cls-3 {
        stroke: #fff;
        stroke-width: 4px;
      }

      .cls-5 {
        fill: #5ba8ef;
      }

      .cls-4 {
        stroke: #b23535;
      }

      .cls-6 {
        fill: #b23535;
      }

      .cls-7 {
        fill: #fff;
        font-family: AkzidenzGroteskBQ-Medium, 'Akzidenz-Grotesk BQ';
        font-size: 24.97px;
        font-weight: 500;
      }

      .cls-8 {
        letter-spacing: -.03em;
      }

      .cls-9 {
        letter-spacing: -.03em;
      }
    </style>
  </defs>
  <g id="Base">
    <g>
      <g>
        <path d="M795.68,523.92c-12.28,0-23.08-1.43-32.38-4.28-9.31-2.85-16.88-6.79-22.7-11.82-5.83-5.03-10.55-11.32-14.14-18.89-3.6-7.57-6.11-15.6-7.54-24.1-1.43-8.5-2.14-18.2-2.14-29.12v-224.25h28.1v225.18c0,7.69.43,14.58,1.3,20.66.86,6.08,2.42,11.88,4.65,17.4,2.23,5.52,5.21,10.11,8.93,13.77,3.72,3.66,8.62,6.58,14.7,8.75,6.08,2.17,13.15,3.26,21.22,3.26,9.68,0,17.89-1.58,24.66-4.75,6.76-3.16,11.97-7.75,15.63-13.77,3.66-6.02,6.29-12.68,7.91-20.01,1.61-7.32,2.42-15.76,2.42-25.31v-225.18h27.92v224.25c0,10.8-.74,20.47-2.23,29.03-1.49,8.56-4.09,16.63-7.82,24.19-3.72,7.57-8.53,13.86-14.42,18.89-5.89,5.03-13.4,8.97-22.52,11.82-9.12,2.85-19.63,4.28-31.54,4.28Z"/>
        <path d="M924.65,520.01V211.46h29.22v286.78h87.84v21.77h-117.06Z"/>
        <path d="M1103.67,520.01V233.79h-61.97v-22.33h151.67v22.33h-60.48v286.22h-29.22Z"/>
        <path d="M1237.06,520.01V211.46h28.66v308.55h-28.66Z"/>
        <path d="M1317.65,520.01l8-308.55h28.47l61.41,267.8,61.79-267.8h29.22l7.63,308.55h-24.19l-5.96-246.02-58.99,246.02h-18.61l-58.25-245.46-5.95,245.46h-24.56Z"/>
        <path d="M1548.78,520.01l65.13-308.55h30.52l65.5,308.55h-28.47l-15.26-82.44h-73.7l-15.63,82.44h-28.1ZM1596.61,416.36h65.69l-32.94-166.37-32.75,166.37Z"/>
        <path d="M1780.29,520.01V233.79h-61.97v-22.33h151.67v22.33h-60.48v286.22h-29.22Z"/>
        <path d="M1894.92,520.01V211.46h111.47v22.33h-82.26v115.57h67.37v21.59h-67.37v127.29h83.19v21.77h-112.4Z"/>
        <path d="M2120.29,524.11c-29.16,0-50.15-9.12-62.99-27.35-12.84-18.24-19.26-44.79-19.26-79.65v-100.49c0-17.74,1.39-33.03,4.19-45.87,2.79-12.84,7.47-24.1,14.05-33.78,6.57-9.68,15.63-16.93,27.17-21.77,11.53-4.84,25.68-7.26,42.43-7.26,30.52,0,52.42,7.48,65.69,22.42,13.27,14.95,19.92,37.63,19.92,68.02v15.07h-53.79v-16.01c0-6.82-.15-12.4-.46-16.75-.31-4.34-1.05-8.72-2.23-13.12-1.18-4.4-2.88-7.78-5.12-10.14-2.23-2.35-5.27-4.28-9.12-5.77-3.85-1.49-8.56-2.23-14.14-2.23-4.22,0-7.98.53-11.26,1.58-3.29,1.05-6.05,2.36-8.28,3.91-2.23,1.55-4.13,3.75-5.68,6.61-1.55,2.86-2.73,5.61-3.54,8.28-.8,2.67-1.42,6.11-1.86,10.33-.43,4.22-.71,7.94-.84,11.17-.12,3.23-.18,7.38-.18,12.47v124.5c0,18.61,2.29,32.23,6.89,40.85,4.59,8.63,13.33,12.93,26.24,12.93,6.7,0,12.31-1.27,16.84-3.81,4.53-2.54,8.07-6.39,10.61-11.54,2.54-5.15,4.34-11.04,5.4-17.68,1.05-6.63,1.58-14.67,1.58-24.1v-25.31h-33.31v-36.29h83.93v156.7h-36.48l-4.09-31.27c-9.31,23.57-26.74,35.36-52.3,35.36Z"/>
        <path d="M2296.89,520.01v-117.43l-62.9-191.12h52.48l38.15,122.83,36.47-122.83h51.92l-62.53,191.12v117.43h-53.6Z"/>
        <path d="M2439.26,520.01l5.02-308.55h57.69l44.66,216.8,45.96-216.8h56.39l5.21,308.55h-42.43l-3.72-212.52-44.48,212.52h-32.94l-45.03-213.27-3.35,213.27h-42.99Z"/>
      </g>
      <g>
        <polygon points="662.34 307.33 662.34 211.47 423.64 73.66 423.64 658.22 662.34 520.41 662.34 358.82 530.73 358.82 530.73 424.14 597.01 424.14 597.01 482.69 488.97 545.06 488.97 186.8 597.01 249.18 597.01 307.33 662.34 307.33"/>
        <polygon points="331.1 545.06 223.05 482.69 223.05 173.75 157.73 211.47 157.73 520.41 396.42 658.22 396.42 73.66 331.1 111.37 331.1 545.06"/>
      </g>
    </g>
  </g>
  <g id="Instructions">
    <g>
      <rect class="cls-2" x="1.13" y=".37" width="2809.67" height="731.14"/>
      <line class="cls-2" x1="1.13" y1="658.39" x2="2810.8" y2="658.39"/>
      <line class="cls-2" x1="1.13" y1="585.28" x2="2810.8" y2="585.28"/>
      <line class="cls-2" x1="1.13" y1="512.17" x2="2810.8" y2="512.17"/>
      <line class="cls-2" x1="1.13" y1="439.05" x2="2810.8" y2="439.05"/>
      <line class="cls-2" x1="1.13" y1="365.94" x2="2810.8" y2="365.94"/>
      <line class="cls-2" x1="1.13" y1="292.82" x2="2810.8" y2="292.82"/>
      <line class="cls-2" x1="1.13" y1="219.71" x2="2810.8" y2="219.71"/>
      <line class="cls-2" x1="1.13" y1="146.6" x2="2810.8" y2="146.6"/>
      <line class="cls-2" x1="1.13" y1="73.48" x2="2810.8" y2="73.48"/>
      <line class="cls-2" x1="2654.71" y1=".37" x2="2654.71" y2="731.51"/>
      <line class="cls-2" x1="2498.62" y1=".37" x2="2498.62" y2="731.51"/>
      <line class="cls-2" x1="2342.53" y1=".37" x2="2342.53" y2="731.51"/>
      <line class="cls-2" x1="2186.43" y1=".37" x2="2186.43" y2="731.51"/>
      <line class="cls-2" x1="2030.34" y1=".37" x2="2030.34" y2="731.51"/>
      <line class="cls-2" x1="1874.25" y1=".37" x2="1874.25" y2="731.51"/>
      <line class="cls-2" x1="1718.15" y1=".37" x2="1718.15" y2="731.51"/>
      <line class="cls-2" x1="1562.06" y1=".37" x2="1562.06" y2="731.51"/>
      <line class="cls-2" x1="1405.97" y1=".37" x2="1405.97" y2="731.51"/>
      <line class="cls-2" x1="1249.88" y1=".37" x2="1249.88" y2="731.51"/>
      <line class="cls-2" x1="1093.78" y1=".37" x2="1093.78" y2="731.51"/>
      <line class="cls-2" x1="937.69" y1=".37" x2="937.69" y2="731.51"/>
      <line class="cls-2" x1="781.6" y1=".37" x2="781.6" y2="731.51"/>
      <line class="cls-2" x1="625.51" y1=".37" x2="625.51" y2="731.51"/>
      <line class="cls-2" x1="469.41" y1=".37" x2="469.41" y2="731.51"/>
      <line class="cls-2" x1="313.32" y1=".37" x2="313.32" y2="731.51"/>
      <line class="cls-2" x1="157.23" y1=".37" x2="157.23" y2="731.51"/>
    </g>
    <rect class="cls-1" x="157.23" y="73.48" width="2497.48" height="584.91"/>
    <g>
      <rect class="cls-5" x="1.13" y=".92" width="156.09" height="72.56"/>
      <text class="cls-7" transform="translate(26.22 31.03)"><tspan x="0" y="0">X: 6,25 %</tspan><tspan class="cls-8" x=".65" y="29.97">Y</tspan><tspan x="15.48" y="29.97">: 12,5 %</tspan></text>
    </g>
    <g>
      <rect class="cls-5" x="1.13" y="658.39" width="156.09" height="72.56"/>
      <text class="cls-7" transform="translate(26.22 688.51)"><tspan x="0" y="0">X: 6,25 %</tspan><tspan class="cls-8" x=".65" y="29.97">Y</tspan><tspan x="15.48" y="29.97">: 12,5 %</tspan></text>
    </g>
    <g>
      <rect class="cls-5" x="2654.71" y=".92" width="156.09" height="72.56"/>
      <text class="cls-7" transform="translate(2679.8 31.03)"><tspan x="0" y="0">X: 6,25 %</tspan><tspan class="cls-9" x=".65" y="29.97">Y</tspan><tspan x="15.48" y="29.97">: 12,5 %</tspan></text>
    </g>
    <g>
      <rect class="cls-5" x="2654.71" y="658.39" width="156.09" height="72.56"/>
      <text class="cls-7" transform="translate(2679.8 688.51)"><tspan x="0" y="0">X: 6,25 %</tspan><tspan class="cls-9" x=".65" y="29.97">Y</tspan><tspan x="15.48" y="29.97">: 12,5 %</tspan></text>
    </g>
    <rect class="cls-6" x="396.42" y=".37" width="27.22" height="731.14"/>
    <rect class="cls-6" x="662.34" y=".37" width="27.22" height="731.14"/>
    <rect class="cls-6" x="689.56" y=".37" width="27.22" height="731.14"/>
    <line class="cls-3" x1="689.56" y1=".37" x2="689.56" y2="731.51"/>
    <line class="cls-4" x1="1.13" y1="211.46" x2="2810.81" y2="211.48"/>
    <line class="cls-4" x1="1.7" y1="520" x2="2811.37" y2="520.03"/>
  </g>
</svg>